<svg width="121" height="20" viewBox="0 0 121 20" fill="none" xmlns="http://www.w3.org/2000/svg">
<path d="M29.1416 5.12047C30.328 3.92883 31.98 3.33334 34.0987 3.33334C35.2125 3.33334 36.194 3.48926 37.0428 3.80109C37.8915 4.11292 38.517 4.49157 38.9193 4.93573C39.3209 5.37989 39.6491 5.82929 39.9052 6.28328C40.1608 6.73726 40.3068 7.11591 40.3435 7.41792L40.4257 7.90007H36.8379C36.8195 7.86273 36.8012 7.8005 36.7828 7.71599C36.7645 7.63083 36.6873 7.49391 36.5501 7.30458C36.4128 7.11592 36.2579 6.94559 36.0846 6.79426C35.9107 6.64293 35.6463 6.50601 35.2902 6.38285C34.9342 6.26035 34.537 6.19877 34.0987 6.19877C33.0577 6.19877 32.2678 6.52043 31.7295 7.16308C31.1907 7.80639 30.9219 8.71371 30.9219 9.88635C30.9219 11.059 31.1958 12.0279 31.7435 12.7374C32.2912 13.4462 33.076 13.8013 34.0987 13.8013C34.7925 13.8013 35.3674 13.6172 35.824 13.2483C36.28 12.8795 36.5634 12.5061 36.6728 12.1275L36.8372 11.5883H40.3979C40.3796 11.7206 40.3518 11.9001 40.3157 12.1275C40.2784 12.3541 40.1279 12.7616 39.8635 13.3473C39.5985 13.9336 39.2652 14.4492 38.8636 14.8933C38.4614 15.3381 37.8409 15.7443 37.001 16.1131C36.1611 16.4819 35.1935 16.6667 34.0981 16.6667C31.9617 16.6667 30.3002 16.062 29.1137 14.8507C27.9266 13.6408 27.3334 11.9853 27.3334 9.88635C27.3334 7.91973 27.9355 6.3311 29.1409 5.12047H29.1416Z" fill="#4B575C"/>
<path d="M43.0542 5.2338C44.2957 3.96683 46.0027 3.33334 48.1758 3.33334C50.3489 3.33334 52.0603 3.96683 53.3113 5.2338C54.5617 6.50077 55.1872 8.09005 55.1872 9.99968C55.1872 11.9093 54.5661 13.5169 53.3246 14.7656C52.0647 16.0325 50.3483 16.666 48.1758 16.666C46.0033 16.666 44.2907 16.028 43.0403 14.7512C41.7893 13.475 41.1638 11.891 41.1638 9.99968C41.1638 8.1084 41.7944 6.50077 43.0542 5.2338ZM44.7523 9.99968C44.7523 11.0963 45.0439 12.0043 45.6289 12.7229C46.2133 13.4416 47.0621 13.8006 48.1764 13.8006C49.2908 13.8006 50.1162 13.437 50.71 12.7085C51.3026 11.9807 51.5999 11.0773 51.5999 9.99903C51.5999 8.86439 51.3077 7.94724 50.7233 7.24693C50.1389 6.54728 49.2896 6.19746 48.1764 6.19746C47.0633 6.19746 46.2133 6.54794 45.6289 7.24693C45.0445 7.94659 44.7523 8.86439 44.7523 9.99968Z" fill="#4B575C"/>
<path d="M59.9255 3.617V5.40413C60.7647 4.04217 62.0069 3.35234 63.65 3.33334H63.8416C65.8503 3.33334 67.2651 3.88232 68.0866 4.97897C68.9082 6.07626 69.3186 7.64589 69.3186 9.68851V16.3837H65.7858V9.68851C65.7858 7.40023 64.9642 6.24659 63.3211 6.22759H63.2389C62.1435 6.22759 61.3396 6.601 60.8286 7.34848C60.3169 8.09595 60.0614 9.15984 60.0614 10.5401V16.3843H56.5286V3.617H59.9248H59.9255Z" fill="#4B575C"/>
<path d="M72.3316 5.12047C73.5181 3.92883 75.1701 3.33334 77.2888 3.33334C78.4025 3.33334 79.3841 3.48926 80.2328 3.80109C81.0816 4.11292 81.7071 4.49157 82.1093 4.93573C82.5109 5.37989 82.8392 5.82929 83.0953 6.28328C83.3508 6.73726 83.4969 7.11591 83.5336 7.41792L83.6158 7.90007H80.0279C80.0096 7.86273 79.9912 7.8005 79.9729 7.71599C79.9545 7.63083 79.8774 7.49391 79.7402 7.30458C79.6029 7.11592 79.448 6.94559 79.2747 6.79426C79.1007 6.64293 78.8364 6.50601 78.4803 6.38285C78.1242 6.26035 77.7271 6.19877 77.2888 6.19877C76.2478 6.19877 75.4578 6.52043 74.9196 7.16308C74.3808 7.80639 74.112 8.71371 74.112 9.88635C74.112 11.059 74.3858 12.0279 74.9335 12.7374C75.4812 13.4462 76.2661 13.8013 77.2888 13.8013C77.9826 13.8013 78.5575 13.6172 79.0141 13.2483C79.4701 12.8795 79.7534 12.5061 79.8628 12.1275L80.0273 11.5883H83.588C83.5696 11.7206 83.5418 11.9001 83.5058 12.1275C83.4684 12.3541 83.3179 12.7616 83.0536 13.3473C82.7886 13.9336 82.4553 14.4492 82.0537 14.8933C81.6514 15.3381 81.031 15.7443 80.1911 16.1131C79.3512 16.4819 78.3835 16.6667 77.2881 16.6667C75.1517 16.6667 73.4903 16.062 72.3038 14.8507C71.1167 13.6408 70.5234 11.9853 70.5234 9.88635C70.5234 7.91973 71.1255 6.3311 72.331 5.12047H72.3316Z" fill="#4B575C"/>
<path d="M86.1077 5.17746C87.2758 3.94849 88.8829 3.33334 90.9276 3.33334C92.9723 3.33334 94.5016 3.94325 95.6248 5.16305C96.748 6.38285 97.309 8.00489 97.309 10.0285C97.309 10.3692 97.2907 10.719 97.254 11.078H87.8052C87.8779 11.9106 88.2112 12.5723 88.8051 13.0636C89.3983 13.5556 90.1237 13.8013 90.9826 13.8013C91.3842 13.8013 91.7447 13.7541 92.0647 13.6591C92.3835 13.5648 92.6301 13.456 92.8041 13.3329C92.9774 13.2103 93.1235 13.0826 93.2424 12.9503C93.3606 12.8179 93.4384 12.7046 93.4751 12.6096L93.5295 12.4675H97.063C97.0446 12.5808 97.0035 12.7328 96.9397 12.9214C96.8752 13.1108 96.7025 13.4462 96.4192 13.9283C96.1358 14.4105 95.7937 14.8363 95.3921 15.2051C94.9898 15.574 94.3966 15.91 93.6117 16.212C92.8262 16.514 91.9408 16.666 90.9548 16.666C88.9828 16.666 87.3897 16.0659 86.1753 14.8645C84.961 13.6637 84.3539 12.0515 84.3539 10.0279C84.3539 8.00424 84.9376 6.42478 86.107 5.17681L86.1077 5.17746ZM93.8856 8.63838V8.55321C93.8856 7.83456 93.6117 7.26266 93.064 6.83684C92.5163 6.41102 91.813 6.19877 90.9554 6.19877C90.0978 6.19877 89.3623 6.42544 88.8051 6.87942C88.2479 7.33341 87.9152 7.91973 87.8052 8.63838H93.8849H93.8856Z" fill="#4B575C"/>
<path d="M98.6511 3.617H102.102V5.51812C102.832 4.25115 103.937 3.617 105.416 3.617H106.867V6.68093H105.498C104.055 6.68093 103.143 7.04516 102.76 7.77298C102.376 8.50146 102.184 10.0757 102.184 12.4963V16.383H98.6511V3.617Z" fill="#4B575C"/>
<path d="M108.866 5.2338C110.108 3.96683 111.815 3.33334 113.988 3.33334C116.161 3.33334 117.873 3.96683 119.124 5.2338C120.374 6.50077 121 8.09005 121 9.99968C121 11.9093 120.379 13.5169 119.137 14.7656C117.878 16.0325 116.161 16.666 113.988 16.666C111.816 16.666 110.103 16.028 108.853 14.7512C107.602 13.475 106.976 11.891 106.976 9.99968C106.976 8.1084 107.606 6.50077 108.866 5.2338H108.866ZM110.565 9.99968C110.565 11.0963 110.856 12.0043 111.441 12.7229C112.025 13.4416 112.874 13.8006 113.988 13.8006C115.102 13.8006 115.928 13.437 116.521 12.7085C117.114 11.9807 117.412 11.0773 117.412 9.99903C117.412 8.86439 117.119 7.94724 116.535 7.24694C115.951 6.54728 115.101 6.19746 113.988 6.19746C112.875 6.19746 112.025 6.54794 111.441 7.24694C110.857 7.94659 110.565 8.86373 110.565 9.99903V9.99968Z" fill="#4B575C"/>
<path d="M15.864 2.75944H3.82269L5.25978 0.243842C5.34512 0.091954 5.50769 0 5.67757 0H16.5687C16.7321 0 16.8816 0.0886699 16.9629 0.230706L18.6252 3.13465C18.6804 3.23317 18.6804 3.3555 18.6252 3.45402L16.6695 6.87192L18.4561 10L16.8914 12.7397L13.6417 7.05665C13.5702 6.93186 13.5702 6.77668 13.6417 6.65189L15.8648 2.76026L15.864 2.75944ZM3.70808 17.0427L5.26628 19.7693C5.34756 19.9105 5.50119 20 5.66375 20H16.5516C16.7248 20 16.8841 19.908 16.9719 19.7562L18.4098 17.2406H6.57006L8.68911 13.5361C8.76064 13.4113 8.76064 13.2562 8.68911 13.1314L5.33456 7.26765L3.77311 10.0008L5.66375 13.3062L3.70808 16.7274C3.65281 16.8259 3.65281 16.9483 3.70808 17.0435V17.0427Z" fill="#7E54F1"/>
<path d="M8 16.3333H18.4474C18.679 16.3333 18.8904 16.2085 19.0082 16.0039L22.1962 10.4218C22.3791 10.1022 22.3791 9.70697 22.1962 9.38736L19.1188 4L17.5411 6.76146L19.3342 9.90498L18.2125 11.8719L17.2996 13.4667L17.2411 13.5686H9.57771L8 16.3333Z" fill="#7E54F1"/>
<path d="M0.135233 10.5303L3.25261 16L4.8081 13.2712L2.9537 10.0188L4.95555 6.50906L5.01966 6.39865H12.7778L14.3333 3.66666H3.83121C3.60282 3.66666 3.39125 3.79006 3.27826 3.99222L0.135233 9.50816C-0.0450778 9.82399 -0.0450778 10.2145 0.135233 10.5303Z" fill="#7E54F1"/>
</svg>
