<?xml version="1.0" standalone="no"?>
<!DOCTYPE svg PUBLIC "-//W3C//DTD SVG 20010904//EN"
 "http://www.w3.org/TR/2001/REC-SVG-20010904/DTD/svg10.dtd">
<svg version="1.0" xmlns="http://www.w3.org/2000/svg"
 width="55.000000pt" height="65.000000pt" viewBox="0 0 55.000000 65.000000"
 preserveAspectRatio="xMidYMid meet">

<g transform="translate(0.000000,65.000000) scale(0.100000,-0.100000)"
fill="#000000" stroke="none">
<path d="M0 405 l0 -195 246 0 245 0 -3 -52 -3 -53 -238 0 -237 0 0 -32 0 -33
270 0 270 0 0 200 0 200 -245 0 -245 0 0 50 0 50 240 0 240 0 0 30 0 30 -270
0 -270 0 0 -195z m490 -80 l0 -55 -215 0 -215 0 0 55 0 55 215 0 215 0 0 -55z"/>
</g>
</svg>
