<svg width="189" height="32" viewBox="0 0 189 32" fill="none" xmlns="http://www.w3.org/2000/svg">
<g filter="url(#filter0_i_3092_2427)">
<path d="M45.5186 8.36998C47.3718 6.50867 49.9522 5.57852 53.2615 5.57852C55.0012 5.57852 56.5344 5.82206 57.8601 6.30913C59.1859 6.7962 60.1629 7.38765 60.7912 8.08142C61.4185 8.77519 61.9312 9.47715 62.3313 10.1863C62.7304 10.8954 62.9586 11.4868 63.0159 11.9586L63.1443 12.7117H57.5401C57.5114 12.6534 57.4828 12.5561 57.4541 12.4241C57.4255 12.2911 57.3049 12.0773 57.0906 11.7815C56.8762 11.4868 56.6342 11.2208 56.3635 10.9844C56.0918 10.748 55.6789 10.5342 55.1227 10.3418C54.5665 10.1505 53.9461 10.0543 53.2615 10.0543C51.6355 10.0543 50.4016 10.5567 49.561 11.5605C48.7193 12.5654 48.2994 13.9826 48.2994 15.8142C48.2994 17.6458 48.7272 19.1593 49.5827 20.2674C50.4382 21.3746 51.6642 21.9292 53.2615 21.9292C54.3453 21.9292 55.2432 21.6417 55.9565 21.0656C56.6687 20.4895 57.1113 19.9062 57.2822 19.3148L57.5391 18.4726H63.1008C63.0722 18.6793 63.0287 18.9597 62.9724 19.3148C62.9141 19.6688 62.679 20.3053 62.2661 21.2201C61.8521 22.1359 61.3315 22.9412 60.7042 23.635C60.0759 24.3298 59.1068 24.9642 57.7949 25.5403C56.483 26.1164 54.9716 26.405 53.2606 26.405C49.9235 26.405 47.3284 25.4605 45.4751 23.5685C43.6208 21.6785 42.6942 19.0927 42.6942 15.8142C42.6942 12.7424 43.6347 10.261 45.5176 8.36998H45.5186Z" fill="#BCC5C9"/>
<path d="M67.2499 8.547C69.1891 6.56802 71.8554 5.57852 75.2497 5.57852C78.6441 5.57852 81.3173 6.56802 83.2713 8.547C85.2243 10.526 86.2014 13.0084 86.2014 15.9912C86.2014 18.974 85.2313 21.4851 83.292 23.4355C81.3242 25.4144 78.6431 26.4039 75.2497 26.4039C71.8564 26.4039 69.1812 25.4073 67.2282 23.413C65.2741 21.4196 64.2971 18.9454 64.2971 15.9912C64.2971 13.0371 65.282 10.526 67.2499 8.547ZM69.9023 15.9912C69.9023 17.7042 70.3578 19.1224 71.2715 20.2449C72.1843 21.3675 73.5101 21.9282 75.2507 21.9282C76.9914 21.9282 78.2805 21.3603 79.2082 20.2224C80.1338 19.0856 80.5981 17.6745 80.5981 15.9902C80.5981 14.2179 80.1417 12.7854 79.2289 11.6915C78.3161 10.5986 76.9894 10.0522 75.2507 10.0522C73.512 10.0522 72.1843 10.5997 71.2715 11.6915C70.3587 12.7843 69.9023 14.2179 69.9023 15.9912Z" fill="#BCC5C9"/>
<path d="M93.6025 6.02159V8.81305C94.9134 6.68569 96.8536 5.6082 99.4201 5.57852H99.7195C102.857 5.57852 105.067 6.43602 106.35 8.14896C107.633 9.86292 108.274 12.3147 108.274 15.5052V25.9629H102.756V15.5052C102.756 11.9309 101.473 10.129 98.9064 10.0993H98.778C97.067 10.0993 95.8114 10.6826 95.0132 11.8501C94.214 13.0176 93.8149 14.6794 93.8149 16.8354V25.9639H88.2966V6.02159H93.6015H93.6025Z" fill="#BCC5C9"/>
<path d="M112.981 8.36998C114.834 6.50867 117.414 5.57852 120.724 5.57852C122.463 5.57852 123.997 5.82206 125.322 6.30913C126.648 6.7962 127.625 7.38765 128.253 8.08142C128.881 8.77519 129.393 9.47715 129.793 10.1863C130.193 10.8954 130.421 11.4868 130.478 11.9586L130.606 12.7117H125.002C124.974 12.6534 124.945 12.5561 124.916 12.4241C124.888 12.2911 124.767 12.0773 124.553 11.7815C124.338 11.4868 124.096 11.2208 123.826 10.9844C123.554 10.748 123.141 10.5342 122.585 10.3418C122.029 10.1505 121.408 10.0543 120.724 10.0543C119.098 10.0543 117.864 10.5567 117.023 11.5605C116.181 12.5654 115.762 13.9826 115.762 15.8142C115.762 17.6458 116.189 19.1593 117.045 20.2674C117.9 21.3746 119.126 21.9292 120.724 21.9292C121.807 21.9292 122.705 21.6417 123.419 21.0656C124.131 20.4895 124.573 19.9062 124.744 19.3148L125.001 18.4726H130.563C130.534 18.6793 130.491 18.9597 130.435 19.3148C130.376 19.6688 130.141 20.3053 129.728 21.2201C129.314 22.1359 128.794 22.9412 128.166 23.635C127.538 24.3298 126.569 24.9642 125.257 25.5403C123.945 26.1164 122.434 26.405 120.723 26.405C117.386 26.405 114.791 25.4605 112.937 23.5685C111.083 21.6785 110.156 19.0927 110.156 15.8142C110.156 12.7424 111.097 10.261 112.98 8.36998H112.981Z" fill="#BCC5C9"/>
<path d="M134.499 8.459C136.323 6.53936 138.834 5.57852 142.027 5.57852C145.221 5.57852 147.61 6.53118 149.364 8.43649C151.119 10.3418 151.995 12.8754 151.995 16.0363C151.995 16.5684 151.966 17.1148 151.909 17.6755H137.15C137.264 18.9761 137.784 20.0096 138.712 20.777C139.639 21.5455 140.772 21.9292 142.113 21.9292C142.741 21.9292 143.304 21.8555 143.804 21.7072C144.301 21.5598 144.687 21.39 144.958 21.1976C145.229 21.0062 145.457 20.8067 145.643 20.6C145.828 20.3933 145.949 20.2163 146.007 20.0679L146.091 19.8459H151.611C151.582 20.0229 151.518 20.2603 151.418 20.555C151.317 20.8507 151.048 21.3746 150.605 22.1277C150.163 22.8809 149.628 23.546 149.001 24.1221C148.372 24.6982 147.446 25.2231 146.22 25.6948C144.993 26.1665 143.61 26.4039 142.07 26.4039C138.99 26.4039 136.501 25.4666 134.604 23.59C132.708 21.7143 131.759 19.1961 131.759 16.0352C131.759 12.8744 132.671 10.4073 134.498 8.45798L134.499 8.459ZM146.648 13.8649V13.7319C146.648 12.6094 146.22 11.716 145.364 11.0509C144.509 10.3858 143.41 10.0543 142.071 10.0543C140.731 10.0543 139.582 10.4083 138.712 11.1174C137.842 11.8266 137.322 12.7424 137.15 13.8649H146.647H146.648Z" fill="#BCC5C9"/>
<path d="M154.091 6.02161H159.481V8.99111C160.621 7.01212 162.347 6.02161 164.658 6.02161H166.925V10.8074H164.786C162.533 10.8074 161.107 11.3763 160.509 12.5132C159.909 13.651 159.61 16.1099 159.61 19.8909V25.9619H154.091V6.02161Z" fill="#BCC5C9"/>
<path d="M170.048 8.547C171.987 6.56802 174.653 5.57852 178.047 5.57852C181.442 5.57852 184.115 6.56802 186.069 8.547C188.022 10.526 189 13.0084 189 15.9912C189 18.974 188.03 21.4851 186.091 23.4355C184.123 25.4144 181.441 26.4039 178.047 26.4039C174.654 26.4039 171.979 25.4073 170.026 23.413C168.072 21.4196 167.095 18.9454 167.095 15.9912C167.095 13.0371 168.079 10.526 170.047 8.547H170.048ZM172.7 15.9912C172.7 17.7042 173.155 19.1224 174.069 20.2449C174.981 21.3674 176.308 21.9282 178.047 21.9282C179.787 21.9282 181.077 21.3603 182.004 20.2224C182.93 19.0856 183.395 17.6745 183.395 15.9902C183.395 14.2179 182.938 12.7854 182.026 11.6915C181.113 10.5986 179.786 10.0522 178.047 10.0522C176.309 10.0522 174.981 10.5997 174.069 11.6915C173.156 12.7843 172.7 14.2169 172.7 15.9902V15.9912Z" fill="#BCC5C9"/>
<path d="M24.7794 4.68209H5.97106L8.21577 0.752765C8.34908 0.515518 8.60301 0.371887 8.86836 0.371887H25.8801C26.1353 0.371887 26.3689 0.510388 26.4959 0.732246L29.0923 5.26815C29.1786 5.42204 29.1786 5.61312 29.0923 5.76701L26.0376 11.1057L28.8282 15.9917L26.3842 20.2711L21.3082 11.3943C21.1965 11.1993 21.1965 10.957 21.3082 10.762L24.7806 4.68337L24.7794 4.68209ZM5.79205 26.9923L8.22593 31.2512C8.35289 31.4718 8.59285 31.6116 8.84678 31.6116H25.8535C26.1239 31.6116 26.3727 31.4679 26.5099 31.2307L28.7558 27.3014H10.2624L13.5723 21.5151C13.6841 21.3202 13.6841 21.0778 13.5723 20.8829L8.33258 11.7238L5.89362 15.993L8.84678 21.156L5.79205 26.4998C5.70571 26.6537 5.70571 26.8448 5.79205 26.9936V26.9923Z" fill="#BCC5C9"/>
<path d="M12.4958 25.8843H28.8145C29.1763 25.8843 29.5064 25.6892 29.6905 25.3697L34.67 16.6506C34.9557 16.1513 34.9557 15.534 34.67 15.0348L29.8632 6.61984L27.3988 10.9332L30.1996 15.8433L28.4475 18.9157L27.0217 21.4067L26.9303 21.5658H14.9602L12.4958 25.8843Z" fill="#BCC5C9"/>
<path d="M0.211232 16.8201L5.08053 25.3636L7.51017 21.1014L4.61363 16.0212L7.74049 10.5389L7.84063 10.3665H19.9588L22.3884 6.09915H5.98429C5.62754 6.09915 5.29708 6.29191 5.12058 6.60768L0.211232 15.2235C-0.0704108 15.7168 -0.0704108 16.3268 0.211232 16.8201Z" fill="#BCC5C9"/>
</g>
<defs>
<filter id="filter0_i_3092_2427" x="0" y="0.371887" width="189" height="33.2397" filterUnits="userSpaceOnUse" color-interpolation-filters="sRGB">
<feFlood flood-opacity="0" result="BackgroundImageFix"/>
<feBlend mode="normal" in="SourceGraphic" in2="BackgroundImageFix" result="shape"/>
<feColorMatrix in="SourceAlpha" type="matrix" values="0 0 0 0 0 0 0 0 0 0 0 0 0 0 0 0 0 0 127 0" result="hardAlpha"/>
<feOffset dy="4"/>
<feGaussianBlur stdDeviation="1"/>
<feComposite in2="hardAlpha" operator="arithmetic" k2="-1" k3="1"/>
<feColorMatrix type="matrix" values="0 0 0 0 0.596078 0 0 0 0 0.635294 0 0 0 0 0.701961 0 0 0 0.1 0"/>
<feBlend mode="normal" in2="shape" result="effect1_innerShadow_3092_2427"/>
</filter>
</defs>
</svg>
