<svg width="420" height="192" viewBox="0 0 420 192" fill="none" xmlns="http://www.w3.org/2000/svg">
<g clip-path="url(#clip0_4173_15391)">
<rect width="420" height="192" rx="16" fill="white"/>
<path d="M118.5 34.5161C118.5 21.2613 129.245 10.5161 142.5 10.5161H280.5C293.755 10.5161 304.5 21.2613 304.5 34.5161V156.516C304.5 169.771 293.755 180.516 280.5 180.516H142.5C129.245 180.516 118.5 169.771 118.5 156.516V34.5161Z" fill="#F8F7FE"/>
<path d="M193.215 41.5161V30.3161H197.007C197.892 30.3161 198.618 30.4654 199.183 30.7641C199.748 31.0628 200.164 31.4628 200.431 31.9641C200.708 32.4548 200.847 33.0148 200.847 33.6441C200.847 34.2414 200.708 34.7961 200.431 35.3081C200.164 35.8094 199.743 36.2148 199.167 36.5241C198.591 36.8228 197.855 36.9721 196.959 36.9721H194.815V41.5161H193.215ZM199.103 41.5161L196.687 36.5401H198.447L200.959 41.5161H199.103ZM194.815 35.7561H196.895C197.684 35.7561 198.266 35.5641 198.639 35.1801C199.012 34.7854 199.199 34.2841 199.199 33.6761C199.199 33.0574 199.018 32.5668 198.655 32.2041C198.292 31.8414 197.706 31.6601 196.895 31.6601H194.815V35.7561ZM202.918 41.5161V30.3161H206.742C207.638 30.3161 208.374 30.4654 208.95 30.7641C209.526 31.0628 209.953 31.4628 210.23 31.9641C210.507 32.4654 210.646 33.0361 210.646 33.6761C210.646 34.2841 210.507 34.8441 210.23 35.3561C209.963 35.8574 209.542 36.2628 208.966 36.5721C208.39 36.8708 207.649 37.0201 206.742 37.0201H204.518V41.5161H202.918ZM204.518 35.6921H206.678C207.521 35.6921 208.118 35.5108 208.47 35.1481C208.833 34.7748 209.014 34.2841 209.014 33.6761C209.014 33.0254 208.833 32.5241 208.47 32.1721C208.118 31.8201 207.521 31.6441 206.678 31.6441H204.518V35.6921ZM217.283 41.7081C216.184 41.7081 215.235 41.4681 214.435 40.9881C213.646 40.4974 213.032 39.8201 212.595 38.9561C212.168 38.0814 211.955 37.0681 211.955 35.9161C211.955 34.7748 212.168 33.7668 212.595 32.8921C213.032 32.0174 213.646 31.3401 214.435 30.8601C215.235 30.3694 216.184 30.1241 217.283 30.1241C218.595 30.1241 219.656 30.4388 220.467 31.0681C221.288 31.6974 221.811 32.5828 222.035 33.7241H220.275C220.115 33.0628 219.784 32.5348 219.283 32.1401C218.792 31.7454 218.126 31.5481 217.283 31.5481C216.526 31.5481 215.87 31.7241 215.315 32.0761C214.76 32.4281 214.334 32.9294 214.035 33.5801C213.736 34.2308 213.587 35.0094 213.587 35.9161C213.587 36.8228 213.736 37.6068 214.035 38.2681C214.334 38.9188 214.76 39.4201 215.315 39.7721C215.87 40.1134 216.526 40.2841 217.283 40.2841C218.126 40.2841 218.792 40.0974 219.283 39.7241C219.784 39.3401 220.115 38.8228 220.275 38.1721H222.035C221.811 39.2814 221.288 40.1508 220.467 40.7801C219.656 41.3988 218.595 41.7081 217.283 41.7081ZM226.989 41.7081C226.307 41.7081 225.709 41.5961 225.197 41.3721C224.685 41.1481 224.28 40.8334 223.981 40.4281C223.683 40.0228 223.501 39.5481 223.437 39.0041H225.069C225.123 39.2601 225.224 39.4948 225.373 39.7081C225.533 39.9214 225.747 40.0921 226.013 40.2201C226.291 40.3481 226.616 40.4121 226.989 40.4121C227.341 40.4121 227.629 40.3641 227.853 40.2681C228.088 40.1614 228.259 40.0228 228.365 39.8521C228.472 39.6708 228.525 39.4788 228.525 39.2761C228.525 38.9774 228.451 38.7534 228.301 38.6041C228.163 38.4441 227.949 38.3214 227.661 38.2361C227.384 38.1401 227.048 38.0548 226.653 37.9801C226.28 37.9161 225.917 37.8308 225.565 37.7241C225.224 37.6068 224.915 37.4628 224.637 37.2921C224.371 37.1214 224.157 36.9081 223.997 36.6521C223.837 36.3854 223.757 36.0601 223.757 35.6761C223.757 35.2174 223.88 34.8068 224.125 34.4441C224.371 34.0708 224.717 33.7828 225.165 33.5801C225.624 33.3668 226.163 33.2601 226.781 33.2601C227.677 33.2601 228.397 33.4734 228.941 33.9001C229.485 34.3268 229.805 34.9294 229.901 35.7081H228.349C228.307 35.3454 228.147 35.0681 227.869 34.8761C227.592 34.6734 227.224 34.5721 226.765 34.5721C226.307 34.5721 225.955 34.6628 225.709 34.8441C225.464 35.0254 225.341 35.2654 225.341 35.5641C225.341 35.7561 225.411 35.9268 225.549 36.0761C225.688 36.2254 225.891 36.3534 226.157 36.4601C226.435 36.5561 226.771 36.6468 227.165 36.7321C227.731 36.8388 228.237 36.9721 228.685 37.1321C229.133 37.2921 229.491 37.5268 229.757 37.8361C230.024 38.1454 230.157 38.5881 230.157 39.1641C230.168 39.6654 230.04 40.1081 229.773 40.4921C229.517 40.8761 229.149 41.1748 228.669 41.3881C228.2 41.6014 227.64 41.7081 226.989 41.7081Z" fill="#4B575C"/>
<path d="M146.5 65.5161H168.5C174.575 65.5161 179.5 70.441 179.5 76.5161V98.5161C179.5 104.591 174.575 109.516 168.5 109.516H146.5C140.425 109.516 135.5 104.591 135.5 98.5161V76.5161C135.5 70.441 140.425 65.5161 146.5 65.5161Z" fill="#D7F0FD"/>
<path d="M146.5 65.5161H168.5C174.575 65.5161 179.5 70.441 179.5 76.5161V98.5161C179.5 104.591 174.575 109.516 168.5 109.516H146.5C140.425 109.516 135.5 104.591 135.5 98.5161V76.5161C135.5 70.441 140.425 65.5161 146.5 65.5161Z" stroke="#79CEF8" stroke-width="2"/>
<path d="M188.5 76.5161C188.5 69.8887 193.873 64.5161 200.5 64.5161H222.5C229.127 64.5161 234.5 69.8887 234.5 76.5161V98.5161C234.5 105.144 229.127 110.516 222.5 110.516H200.5C193.873 110.516 188.5 105.144 188.5 98.5161V76.5161Z" fill="#EFEBFE"/>
<path d="M242.5 76.5161C242.5 69.8887 247.873 64.5161 254.5 64.5161H276.5C283.127 64.5161 288.5 69.8887 288.5 76.5161V98.5161C288.5 105.144 283.127 110.516 276.5 110.516H254.5C247.873 110.516 242.5 105.144 242.5 98.5161V76.5161Z" fill="#EFEBFE"/>
<path d="M134.5 130.516C134.5 123.889 139.873 118.516 146.5 118.516H168.5C175.127 118.516 180.5 123.889 180.5 130.516V152.516C180.5 159.144 175.127 164.516 168.5 164.516H146.5C139.873 164.516 134.5 159.144 134.5 152.516V130.516Z" fill="#EFEBFE"/>
<path d="M188.5 130.516C188.5 123.889 193.873 118.516 200.5 118.516H222.5C229.127 118.516 234.5 123.889 234.5 130.516V152.516C234.5 159.144 229.127 164.516 222.5 164.516H200.5C193.873 164.516 188.5 159.144 188.5 152.516V130.516Z" fill="#EFEBFE"/>
<path d="M254.5 119.516H276.5C282.575 119.516 287.5 124.441 287.5 130.516V152.516C287.5 158.591 282.575 163.516 276.5 163.516H254.5C248.425 163.516 243.5 158.591 243.5 152.516V130.516C243.5 124.441 248.425 119.516 254.5 119.516Z" fill="#D7F0FD"/>
<path d="M254.5 119.516H276.5C282.575 119.516 287.5 124.441 287.5 130.516V152.516C287.5 158.591 282.575 163.516 276.5 163.516H254.5C248.425 163.516 243.5 158.591 243.5 152.516V130.516C243.5 124.441 248.425 119.516 254.5 119.516Z" stroke="#79CEF8" stroke-width="2"/>
<g filter="url(#filter0_dd_4173_15391)">
<path d="M-53.8333 87.0161C-53.8333 89.9616 -51.4455 92.3494 -48.5 92.3494C-45.5545 92.3494 -43.1667 89.9616 -43.1667 87.0161C-43.1667 84.0706 -45.5545 81.6828 -48.5 81.6828C-51.4455 81.6828 -53.8333 84.0706 -53.8333 87.0161ZM131.207 87.7232C131.598 87.3327 131.598 86.6995 131.207 86.309L124.843 79.9451C124.453 79.5545 123.819 79.5545 123.429 79.9451C123.038 80.3356 123.038 80.9687 123.429 81.3593L129.086 87.0161L123.429 92.673C123.038 93.0635 123.038 93.6967 123.429 94.0872C123.819 94.4777 124.453 94.4777 124.843 94.0872L131.207 87.7232ZM-48.5 87.0161L-48.5 88.0161L130.5 88.0161V87.0161V86.0161L-48.5 86.0161L-48.5 87.0161Z" fill="#79CEF8"/>
</g>
<g filter="url(#filter1_dd_4173_15391)">
<path d="M262 -65.3172C259.054 -65.3172 256.667 -62.9294 256.667 -59.9839C256.667 -57.0384 259.054 -54.6506 262 -54.6506C264.946 -54.6506 267.333 -57.0384 267.333 -59.9839C267.333 -62.9294 264.946 -65.3172 262 -65.3172ZM261.293 119.723C261.683 120.114 262.317 120.114 262.707 119.723L269.071 113.359C269.462 112.969 269.462 112.336 269.071 111.945C268.681 111.555 268.047 111.555 267.657 111.945L262 117.602L256.343 111.945C255.953 111.555 255.319 111.555 254.929 111.945C254.538 112.336 254.538 112.969 254.929 113.359L261.293 119.723ZM262 -59.9839L261 -59.9839L261 119.016L262 119.016L263 119.016L263 -59.9839L262 -59.9839Z" fill="#79CEF8"/>
</g>
<g filter="url(#filter2_dd_4173_15391)">
<path d="M278.167 141.016C278.167 143.962 280.554 146.349 283.5 146.349C286.446 146.349 288.833 143.962 288.833 141.016C288.833 138.071 286.446 135.683 283.5 135.683C280.554 135.683 278.167 138.071 278.167 141.016ZM463.207 141.723C463.598 141.333 463.598 140.7 463.207 140.309L456.843 133.945C456.453 133.555 455.819 133.555 455.429 133.945C455.038 134.336 455.038 134.969 455.429 135.359L461.086 141.016L455.429 146.673C455.038 147.063 455.038 147.697 455.429 148.087C455.819 148.478 456.453 148.478 456.843 148.087L463.207 141.723ZM283.5 141.016L283.5 142.016L462.5 142.016V141.016V140.016L283.5 140.016L283.5 141.016Z" fill="#79CEF8"/>
</g>
<g filter="url(#filter3_dd_4173_15391)">
<path d="M154.5 69.8494C157.446 69.8494 159.833 67.4616 159.833 64.5161C159.833 61.5706 157.446 59.1828 154.5 59.1828C151.554 59.1828 149.167 61.5706 149.167 64.5161C149.167 67.4616 151.554 69.8494 154.5 69.8494ZM155.207 -115.191C154.817 -115.582 154.183 -115.582 153.793 -115.191L147.429 -108.827C147.038 -108.437 147.038 -107.803 147.429 -107.413C147.819 -107.022 148.453 -107.022 148.843 -107.413L154.5 -113.07L160.157 -107.413C160.547 -107.022 161.181 -107.022 161.571 -107.413C161.962 -107.803 161.962 -108.437 161.571 -108.827L155.207 -115.191ZM154.5 64.5161L155.5 64.5161L155.5 -114.484L154.5 -114.484L153.5 -114.484L153.5 64.5161L154.5 64.5161Z" fill="#79CEF8"/>
</g>
</g>
<defs>
<filter id="filter0_dd_4173_15391" x="-69.8335" y="63.6521" width="217.333" height="46.728" filterUnits="userSpaceOnUse" color-interpolation-filters="sRGB">
<feFlood flood-opacity="0" result="BackgroundImageFix"/>
<feColorMatrix in="SourceAlpha" type="matrix" values="0 0 0 0 0 0 0 0 0 0 0 0 0 0 0 0 0 0 127 0" result="hardAlpha"/>
<feOffset/>
<feGaussianBlur stdDeviation="8"/>
<feComposite in2="hardAlpha" operator="out"/>
<feColorMatrix type="matrix" values="0 0 0 0 0.988235 0 0 0 0 0.988235 0 0 0 0 0.992157 0 0 0 1 0"/>
<feBlend mode="normal" in2="BackgroundImageFix" result="effect1_dropShadow_4173_15391"/>
<feColorMatrix in="SourceAlpha" type="matrix" values="0 0 0 0 0 0 0 0 0 0 0 0 0 0 0 0 0 0 127 0" result="hardAlpha"/>
<feOffset/>
<feGaussianBlur stdDeviation="2"/>
<feComposite in2="hardAlpha" operator="out"/>
<feColorMatrix type="matrix" values="0 0 0 0 0.988235 0 0 0 0 0.988235 0 0 0 0 0.992157 0 0 0 1 0"/>
<feBlend mode="normal" in2="effect1_dropShadow_4173_15391" result="effect2_dropShadow_4173_15391"/>
<feBlend mode="normal" in="SourceGraphic" in2="effect2_dropShadow_4173_15391" result="shape"/>
</filter>
<filter id="filter1_dd_4173_15391" x="238.636" y="-81.3173" width="46.7275" height="217.333" filterUnits="userSpaceOnUse" color-interpolation-filters="sRGB">
<feFlood flood-opacity="0" result="BackgroundImageFix"/>
<feColorMatrix in="SourceAlpha" type="matrix" values="0 0 0 0 0 0 0 0 0 0 0 0 0 0 0 0 0 0 127 0" result="hardAlpha"/>
<feOffset/>
<feGaussianBlur stdDeviation="8"/>
<feComposite in2="hardAlpha" operator="out"/>
<feColorMatrix type="matrix" values="0 0 0 0 0.988235 0 0 0 0 0.988235 0 0 0 0 0.992157 0 0 0 1 0"/>
<feBlend mode="normal" in2="BackgroundImageFix" result="effect1_dropShadow_4173_15391"/>
<feColorMatrix in="SourceAlpha" type="matrix" values="0 0 0 0 0 0 0 0 0 0 0 0 0 0 0 0 0 0 127 0" result="hardAlpha"/>
<feOffset/>
<feGaussianBlur stdDeviation="2"/>
<feComposite in2="hardAlpha" operator="out"/>
<feColorMatrix type="matrix" values="0 0 0 0 0.988235 0 0 0 0 0.988235 0 0 0 0 0.992157 0 0 0 1 0"/>
<feBlend mode="normal" in2="effect1_dropShadow_4173_15391" result="effect2_dropShadow_4173_15391"/>
<feBlend mode="normal" in="SourceGraphic" in2="effect2_dropShadow_4173_15391" result="shape"/>
</filter>
<filter id="filter2_dd_4173_15391" x="262.167" y="117.652" width="217.333" height="46.728" filterUnits="userSpaceOnUse" color-interpolation-filters="sRGB">
<feFlood flood-opacity="0" result="BackgroundImageFix"/>
<feColorMatrix in="SourceAlpha" type="matrix" values="0 0 0 0 0 0 0 0 0 0 0 0 0 0 0 0 0 0 127 0" result="hardAlpha"/>
<feOffset/>
<feGaussianBlur stdDeviation="8"/>
<feComposite in2="hardAlpha" operator="out"/>
<feColorMatrix type="matrix" values="0 0 0 0 0.988235 0 0 0 0 0.988235 0 0 0 0 0.992157 0 0 0 1 0"/>
<feBlend mode="normal" in2="BackgroundImageFix" result="effect1_dropShadow_4173_15391"/>
<feColorMatrix in="SourceAlpha" type="matrix" values="0 0 0 0 0 0 0 0 0 0 0 0 0 0 0 0 0 0 127 0" result="hardAlpha"/>
<feOffset/>
<feGaussianBlur stdDeviation="2"/>
<feComposite in2="hardAlpha" operator="out"/>
<feColorMatrix type="matrix" values="0 0 0 0 0.988235 0 0 0 0 0.988235 0 0 0 0 0.992157 0 0 0 1 0"/>
<feBlend mode="normal" in2="effect1_dropShadow_4173_15391" result="effect2_dropShadow_4173_15391"/>
<feBlend mode="normal" in="SourceGraphic" in2="effect2_dropShadow_4173_15391" result="shape"/>
</filter>
<filter id="filter3_dd_4173_15391" x="131.136" y="-131.484" width="46.7275" height="217.333" filterUnits="userSpaceOnUse" color-interpolation-filters="sRGB">
<feFlood flood-opacity="0" result="BackgroundImageFix"/>
<feColorMatrix in="SourceAlpha" type="matrix" values="0 0 0 0 0 0 0 0 0 0 0 0 0 0 0 0 0 0 127 0" result="hardAlpha"/>
<feOffset/>
<feGaussianBlur stdDeviation="8"/>
<feComposite in2="hardAlpha" operator="out"/>
<feColorMatrix type="matrix" values="0 0 0 0 0.988235 0 0 0 0 0.988235 0 0 0 0 0.992157 0 0 0 1 0"/>
<feBlend mode="normal" in2="BackgroundImageFix" result="effect1_dropShadow_4173_15391"/>
<feColorMatrix in="SourceAlpha" type="matrix" values="0 0 0 0 0 0 0 0 0 0 0 0 0 0 0 0 0 0 127 0" result="hardAlpha"/>
<feOffset/>
<feGaussianBlur stdDeviation="2"/>
<feComposite in2="hardAlpha" operator="out"/>
<feColorMatrix type="matrix" values="0 0 0 0 0.988235 0 0 0 0 0.988235 0 0 0 0 0.992157 0 0 0 1 0"/>
<feBlend mode="normal" in2="effect1_dropShadow_4173_15391" result="effect2_dropShadow_4173_15391"/>
<feBlend mode="normal" in="SourceGraphic" in2="effect2_dropShadow_4173_15391" result="shape"/>
</filter>
<clipPath id="clip0_4173_15391">
<rect width="420" height="192" rx="16" fill="white"/>
</clipPath>
</defs>
</svg>
