<?xml version="1.0" standalone="no"?>
<!DOCTYPE svg PUBLIC "-//W3C//DTD SVG 20010904//EN"
 "http://www.w3.org/TR/2001/REC-SVG-20010904/DTD/svg10.dtd">
<svg version="1.0" xmlns="http://www.w3.org/2000/svg"
 width="206.000000pt" height="40.000000pt" viewBox="0 0 206.000000 40.000000"
 preserveAspectRatio="xMidYMid meet">

<g transform="translate(0.000000,40.000000) scale(0.100000,-0.100000)"
fill="#000000" stroke="none">
<path d="M177 375 l-28 -25 215 0 c119 0 216 -3 216 -7 0 -4 -18 -23 -41 -43
l-40 -35 60 -60 61 -59 27 27 27 27 -32 33 -32 33 35 34 35 34 -32 33 -32 33
-205 0 c-205 -1 -206 -1 -234 -25z"/>
<path d="M967 328 c-40 -31 -57 -118 -36 -191 26 -96 113 -101 138 -9 9 29 8
32 -14 32 -14 0 -25 -7 -28 -20 -6 -23 -29 -26 -47 -5 -17 21 -23 85 -11 118
12 30 48 38 57 12 4 -8 16 -15 29 -15 18 0 21 4 17 25 -5 28 -46 65 -71 65
-10 0 -25 -6 -34 -12z"/>
<path d="M1137 328 c-44 -34 -59 -137 -31 -208 27 -67 76 -79 117 -30 49 57
47 172 -3 222 -31 30 -57 35 -83 16z m71 -78 c14 -27 8 -95 -10 -117 -42 -51
-87 45 -58 122 13 33 49 31 68 -5z"/>
<path d="M1334 323 c-13 -13 -19 -14 -22 -5 -2 6 -10 12 -18 12 -11 0 -14 -25
-14 -130 0 -123 1 -130 20 -130 18 0 20 7 20 86 0 88 10 124 35 124 25 0 35
-36 35 -124 0 -79 2 -86 20 -86 19 0 20 7 20 94 0 101 -12 151 -40 166 -26 14
-36 13 -56 -7z"/>
<path d="M1497 329 c-29 -17 -47 -65 -47 -129 0 -94 39 -150 96 -136 24 6 54
51 54 81 0 22 -33 19 -48 -5 -28 -45 -62 -12 -62 60 0 23 5 50 10 61 13 23 48
25 56 4 4 -8 15 -15 26 -15 17 0 19 4 14 28 -12 50 -59 74 -99 51z"/>
<path d="M1649 314 c-22 -23 -24 -34 -24 -115 0 -83 2 -90 27 -116 24 -23 31
-26 55 -17 35 12 72 77 47 82 -8 2 -24 -4 -35 -14 -24 -22 -52 -9 -57 25 -3
19 1 21 52 21 l56 0 0 35 c0 68 -38 125 -83 125 -7 0 -24 -12 -38 -26z m69
-46 c23 -23 13 -38 -23 -38 -22 0 -35 5 -35 13 0 16 20 37 35 37 6 0 16 -5 23
-12z"/>
<path d="M1937 328 c-43 -33 -60 -138 -32 -205 29 -69 77 -82 119 -33 81 97 4
306 -87 238z m62 -62 c31 -37 20 -129 -15 -143 -25 -9 -54 32 -54 76 0 61 41
101 69 67z"/>
<path d="M1790 200 c0 -123 1 -130 20 -130 18 0 20 7 20 81 0 88 10 119 40
119 16 0 20 7 20 30 0 23 -4 30 -20 30 -10 0 -24 -8 -29 -17 -10 -17 -10 -17
-11 0 0 10 -8 17 -20 17 -19 0 -20 -7 -20 -130z"/>
<path d="M63 261 c-35 -32 -63 -61 -63 -63 0 -3 27 -29 61 -58 l60 -52 25 23
24 23 -32 33 -32 33 39 40 39 40 146 0 c134 0 148 2 165 20 18 20 17 20 -176
20 l-194 -1 -62 -58z"/>
<path d="M672 288 l-22 -22 33 -34 32 -34 -40 -34 -40 -34 -141 0 c-137 0
-141 -1 -164 -25 l-23 -25 194 0 195 0 63 64 63 63 -58 52 c-32 28 -61 51 -64
51 -3 0 -16 -10 -28 -22z"/>
<path d="M169 224 l-23 -25 32 -31 32 -32 -37 -38 -37 -38 34 -30 35 -29 206
-1 206 0 23 25 23 25 -213 0 -214 0 42 43 43 44 -64 56 -64 56 -24 -25z"/>
</g>
</svg>
