<svg width="205" height="205" viewBox="0 0 205 205" fill="none" xmlns="http://www.w3.org/2000/svg">
<path d="M0 16C0 7.16344 7.16344 0 16 0H189C197.837 0 205 7.16344 205 16V189C205 197.837 197.837 205 189 205H16C7.16344 205 0 197.837 0 189V16Z" fill="#F3F5F6"/>
<path d="M98.1004 96.8765C98.8224 95.6253 99.8277 95 101.117 95C101.795 95 102.392 95.1637 102.909 95.4911C103.425 95.8186 103.806 96.2161 104.05 96.6825C104.295 97.1489 104.495 97.6207 104.65 98.0974C104.806 98.5741 104.895 98.9717 104.917 99.2888L104.967 99.7951H102.784C102.773 99.7559 102.762 99.6905 102.75 99.6018C102.739 99.5124 102.692 99.3686 102.609 99.1698C102.525 98.9717 102.431 98.7929 102.325 98.634C102.22 98.4751 102.059 98.3313 101.842 98.202C101.625 98.0734 101.384 98.0087 101.117 98.0087C100.483 98.0087 100.003 98.3464 99.6752 99.0212C99.3473 99.6967 99.1838 100.649 99.1838 101.881C99.1838 103.112 99.3504 104.129 99.6837 104.874C100.017 105.618 100.495 105.991 101.117 105.991C101.539 105.991 101.889 105.798 102.167 105.411C102.444 105.023 102.617 104.631 102.683 104.234L102.783 103.668H104.95C104.939 103.807 104.922 103.995 104.9 104.234C104.878 104.472 104.786 104.9 104.625 105.515C104.464 106.13 104.261 106.672 104.017 107.138C103.772 107.605 103.394 108.031 102.883 108.419C102.372 108.806 101.783 109 101.117 109C99.8165 109 98.8054 108.365 98.0834 107.093C97.361 105.823 97 104.085 97 101.881C97 99.8157 97.3664 98.1476 98.1 96.8765H98.1004Z" fill="#313C41"/>
<path d="M106.567 96.9955C107.322 95.6652 108.361 95 109.684 95C111.006 95 112.047 95.6652 112.809 96.9955C113.57 98.3258 113.95 99.9945 113.95 102C113.95 104.005 113.572 105.693 112.817 107.004C112.05 108.334 111.006 108.999 109.684 108.999C108.361 108.999 107.319 108.329 106.558 106.989C105.797 105.649 105.416 103.986 105.416 102C105.416 100.014 105.8 98.3258 106.567 96.9955ZM107.6 102C107.6 103.151 107.778 104.105 108.134 104.859C108.489 105.614 109.006 105.991 109.684 105.991C110.362 105.991 110.864 105.609 111.226 104.844C111.586 104.08 111.767 103.131 111.767 101.999C111.767 100.808 111.589 99.8446 111.234 99.1093C110.878 98.3746 110.361 98.0073 109.684 98.0073C109.007 98.0073 108.489 98.3753 108.134 99.1093C107.778 99.8439 107.6 100.808 107.6 102Z" fill="#313C41"/>
<path d="M116.834 95.2978V97.1743C117.344 95.7443 118.1 95.0199 119.1 95H119.217C120.439 95 121.3 95.5764 121.8 96.7279C122.3 97.8801 122.55 99.5282 122.55 101.673V108.703H120.4V101.673C120.4 99.2702 119.9 98.0589 118.9 98.039H118.85C118.183 98.039 117.694 98.431 117.383 99.2159C117.072 100.001 116.916 101.118 116.916 102.567V108.704H114.767V95.2978H116.833H116.834Z" fill="#313C41"/>
<path d="M124.383 96.8765C125.105 95.6253 126.111 95 127.4 95C128.078 95 128.675 95.1637 129.192 95.4911C129.708 95.8186 130.089 96.2161 130.333 96.6825C130.578 97.1489 130.778 97.6207 130.934 98.0974C131.089 98.5741 131.178 98.9717 131.2 99.2888L131.25 99.7951H129.067C129.056 99.7559 129.045 99.6905 129.033 99.6018C129.022 99.5124 128.975 99.3686 128.892 99.1698C128.808 98.9717 128.714 98.7929 128.608 98.634C128.503 98.4751 128.342 98.3313 128.125 98.202C127.908 98.0734 127.667 98.0087 127.4 98.0087C126.767 98.0087 126.286 98.3464 125.958 99.0212C125.63 99.6967 125.467 100.649 125.467 101.881C125.467 103.112 125.633 104.129 125.967 104.874C126.3 105.618 126.778 105.991 127.4 105.991C127.822 105.991 128.172 105.798 128.45 105.411C128.727 105.023 128.9 104.631 128.966 104.234L129.066 103.668H131.233C131.222 103.807 131.205 103.995 131.183 104.234C131.161 104.472 131.069 104.9 130.908 105.515C130.747 106.13 130.544 106.672 130.3 107.138C130.055 107.605 129.677 108.031 129.166 108.419C128.655 108.806 128.066 109 127.4 109C126.1 109 125.088 108.365 124.366 107.093C123.644 105.823 123.283 104.085 123.283 101.881C123.283 99.8157 123.649 98.1476 124.383 96.8765H124.383Z" fill="#313C41"/>
<path d="M132.767 96.9363C133.477 95.6459 134.455 95 135.7 95C136.944 95 137.875 95.6404 138.558 96.9212C139.242 98.202 139.583 99.9051 139.583 102.03C139.583 102.388 139.572 102.755 139.55 103.132H133.8C133.844 104.006 134.047 104.701 134.408 105.217C134.769 105.733 135.211 105.991 135.733 105.991C135.978 105.991 136.197 105.942 136.392 105.842C136.586 105.743 136.736 105.629 136.842 105.499C136.947 105.371 137.036 105.237 137.108 105.098C137.18 104.959 137.228 104.84 137.25 104.74L137.283 104.591H139.433C139.422 104.71 139.397 104.869 139.358 105.068C139.319 105.266 139.214 105.618 139.042 106.125C138.869 106.631 138.661 107.078 138.417 107.465C138.172 107.853 137.811 108.206 137.333 108.523C136.855 108.84 136.316 108.999 135.716 108.999C134.516 108.999 133.547 108.369 132.808 107.108C132.069 105.847 131.699 104.154 131.699 102.029C131.699 99.9044 132.055 98.246 132.766 96.9356L132.767 96.9363ZM137.5 100.57V100.481C137.5 99.7263 137.333 99.1258 137 98.6787C136.667 98.2316 136.239 98.0087 135.717 98.0087C135.195 98.0087 134.747 98.2467 134.408 98.7234C134.069 99.2001 133.867 99.8157 133.8 100.57H137.499H137.5Z" fill="#313C41"/>
<path d="M140.4 95.2979H142.5V97.294C142.944 95.9637 143.616 95.2979 144.516 95.2979H145.4V98.515H144.566C143.689 98.515 143.133 98.8974 142.9 99.6616C142.666 100.427 142.55 102.079 142.55 104.621V108.702H140.4V95.2979Z" fill="#313C41"/>
<path d="M146.616 96.9955C147.372 95.6652 148.411 95 149.733 95C151.055 95 152.097 95.6652 152.858 96.9955C153.619 98.3258 154 99.9945 154 102C154 104.005 153.622 105.693 152.867 107.004C152.1 108.334 151.055 108.999 149.733 108.999C148.411 108.999 147.369 108.329 146.608 106.989C145.847 105.649 145.466 103.986 145.466 102C145.466 100.014 145.849 98.3258 146.616 96.9955H146.616ZM147.65 102C147.65 103.151 147.827 104.105 148.183 104.859C148.538 105.614 149.055 105.991 149.733 105.991C150.411 105.991 150.913 105.609 151.274 104.844C151.635 104.08 151.816 103.131 151.816 101.999C151.816 100.808 151.638 99.8446 151.283 99.1093C150.927 98.3746 150.41 98.0073 149.733 98.0073C149.056 98.0073 148.538 98.3753 148.183 99.1093C147.827 99.8439 147.65 100.807 147.65 101.999V102Z" fill="#313C41"/>
<path d="M80.1235 94.7594H58.0178L60.6561 92.2438C60.8127 92.092 61.1112 92 61.4231 92H81.4172C81.7172 92 81.9917 92.0887 82.141 92.2307L85.1925 95.1346C85.294 95.2332 85.294 95.3555 85.1925 95.454L81.6023 98.8719L84.8822 102L82.0096 104.74L76.0438 99.0567C75.9125 98.9319 75.9125 98.7767 76.0438 98.6519L80.125 94.7603L80.1235 94.7594ZM57.8074 109.043L60.668 111.769C60.8172 111.911 61.0993 112 61.3977 112H81.3859C81.7037 112 81.9962 111.908 82.1574 111.756L84.7971 109.241H63.0615L66.9517 105.536C67.083 105.411 67.083 105.256 66.9517 105.131L60.7933 99.2677L57.9268 102.001L61.3977 105.306L57.8074 108.727C57.706 108.826 57.706 108.948 57.8074 109.044V109.043Z" fill="#7E54F1"/>
<path d="M65.6866 108.333H84.8661C85.2914 108.333 85.6793 108.208 85.8957 108.004L91.7482 102.422C92.084 102.102 92.084 101.707 91.7482 101.387L86.0987 96L83.2023 98.7615L86.4941 101.905L84.4348 103.872L82.7591 105.467L82.6516 105.569H68.583L65.6866 108.333Z" fill="#7E54F1"/>
<path d="M51.2483 102.53L56.9712 108L59.8268 105.271L56.4225 102.019L60.0975 98.509L60.2152 98.3986H74.4578L77.3134 95.6666H58.0334C57.6141 95.6666 57.2257 95.79 57.0183 95.9922L51.2483 101.508C50.9172 101.824 50.9172 102.214 51.2483 102.53Z" fill="#7E54F1"/>
</svg>
