<svg width="121" height="90" viewBox="0 0 121 90" fill="none" xmlns="http://www.w3.org/2000/svg">
<path d="M30.903 56.4534C31.3347 54.8282 32.4676 53.4865 34.3024 52.4271C35.267 51.8703 36.195 51.5145 37.0859 51.3602C37.9769 51.2059 38.7079 51.221 39.2783 51.4046C39.8482 51.5884 40.3572 51.8135 40.806 52.0786C41.2543 52.344 41.5701 52.5989 41.7529 52.8421L42.0652 53.2185L38.958 55.0125C38.9234 54.9893 38.8764 54.9446 38.8183 54.8806C38.7598 54.816 38.6245 54.736 38.411 54.6407C38.1978 54.5459 37.9785 54.4758 37.7527 54.4314C37.5264 54.3873 37.229 54.401 36.8591 54.4723C36.4895 54.5443 36.1147 54.6895 35.7351 54.9087C34.8336 55.4292 34.3103 56.1027 34.1655 56.9284C34.0205 57.7549 34.2414 58.6751 34.8277 59.6906C35.4141 60.7062 36.1357 61.4083 36.9647 61.7489C37.7935 62.0889 38.6507 62.004 39.5364 61.4926C40.1372 61.1457 40.5431 60.6989 40.7541 60.1511C40.9646 59.6037 41.0233 59.1387 40.9287 58.756L40.8015 58.2069L43.8852 56.4266C43.9355 56.5503 44.0011 56.7197 44.0836 56.9346C44.1646 57.1495 44.238 57.5777 44.3018 58.2171C44.3655 58.8573 44.3346 59.4705 44.2089 60.0559C44.083 60.6423 43.7488 61.3042 43.2058 62.0436C42.6628 62.783 41.9172 63.4268 40.9686 63.9745C39.1184 65.0427 37.3772 65.3498 35.744 64.894C34.1109 64.4397 32.7695 63.3026 31.72 61.4849C30.7367 59.7817 30.4638 58.1049 30.9024 56.4537L30.903 56.4534Z" fill="#313C41"/>
<path d="M43.0084 49.5953C43.45 47.8773 44.6116 46.4752 46.4935 45.3887C48.3755 44.3021 50.1744 43.995 51.8913 44.4668C53.6076 44.9388 54.9439 46.0024 55.8987 47.6562C56.8535 49.31 57.1195 51.0128 56.6686 52.7149C56.2111 54.442 55.0413 55.8489 53.1599 56.9351C51.2785 58.0213 49.4762 58.3251 47.755 57.8445C46.0335 57.3648 44.6998 56.3058 43.7542 54.6679C42.8085 53.03 42.5508 51.3224 43.0084 49.5953ZM46.8619 52.8736C47.4102 53.8233 48.1167 54.4639 48.9827 54.7937C49.8481 55.1239 50.7626 55.0104 51.7277 54.4532C52.6928 53.8961 53.2258 53.1685 53.3759 52.2407C53.5252 51.3141 53.3309 50.3831 52.7917 49.4493C52.2244 48.4666 51.5128 47.8185 50.6566 47.5042C49.8006 47.1904 48.8901 47.3122 47.9262 47.8687C46.9622 48.4253 46.4013 49.1538 46.2447 50.0514C46.0884 50.9495 46.2943 51.8904 46.8619 52.8736Z" fill="#313C41"/>
<path d="M56.8109 39.7594L57.7045 41.3071C57.7503 39.7079 58.4811 38.4895 59.8946 37.6515L60.0605 37.5556C61.8001 36.5513 63.2998 36.3193 64.5596 36.8583C65.8198 37.3978 66.9601 38.5519 67.9814 40.3209L71.3289 46.119L68.2694 47.8855L64.9218 42.0873C63.7777 40.1056 62.4894 39.5173 61.0569 40.3224L60.9857 40.3635C60.037 40.9112 59.5276 41.6365 59.4588 42.5393C59.3894 43.4425 59.7001 44.4916 60.3902 45.687L63.3123 50.7482L60.2528 52.5146L53.8691 41.4578L56.8103 39.7597L56.8109 39.7594Z" fill="#313C41"/>
<path d="M68.3067 34.8583C68.7384 33.2331 69.8713 31.8914 71.7061 30.8321C72.6707 30.2752 73.5987 29.9194 74.4896 29.7651C75.3806 29.6108 76.1116 29.626 76.6821 29.8095C77.2519 29.9933 77.7609 30.2184 78.2097 30.4835C78.658 30.7489 78.9738 31.0038 79.1566 31.247L79.4689 31.6234L76.3617 33.4174C76.3271 33.3942 76.2801 33.3495 76.222 33.2855C76.1635 33.2209 76.0282 33.1409 75.8147 33.0456C75.6015 32.9508 75.3822 32.8808 75.1564 32.8364C74.9302 32.7923 74.6327 32.8059 74.2628 32.8772C73.8932 32.9492 73.5184 33.0944 73.1389 33.3136C72.2373 33.8341 71.714 34.5076 71.5693 35.3333C71.4243 36.1598 71.6451 37.08 72.2315 38.0955C72.8178 39.1111 73.5394 39.8132 74.3685 40.1538C75.1972 40.4938 76.0544 40.4089 76.9401 39.8975C77.541 39.5506 77.9468 39.1038 78.1578 38.556C78.3683 38.0086 78.427 37.5436 78.3324 37.1609L78.2052 36.6118L81.2889 34.8315C81.3392 34.9552 81.4048 35.1246 81.4873 35.3395C81.5683 35.5544 81.6417 35.9826 81.7056 36.622C81.7692 37.2622 81.7384 37.8754 81.6126 38.4608C81.4867 39.0472 81.1525 39.7091 80.6095 40.4485C80.0666 41.1879 79.3209 41.8317 78.3723 42.3794C76.5221 43.4476 74.7809 43.7547 73.1477 43.2989C71.5147 42.8446 70.1732 41.7075 69.1237 39.8898C68.1404 38.1866 67.8675 36.5098 68.3061 34.8586L68.3067 34.8583Z" fill="#313C41"/>
<path d="M80.2656 28.0197C80.6627 26.3713 81.7469 25.0351 83.5177 24.0127C85.2885 22.9904 86.9178 22.7539 88.5005 23.2487C90.0831 23.7434 91.38 24.8677 92.3918 26.6202C92.5621 26.9152 92.7211 27.2273 92.8688 27.5566L84.6859 32.281C85.1652 32.9657 85.7847 33.3721 86.5447 33.5006C87.3044 33.6301 88.0555 33.4801 88.7993 33.0507C89.1471 32.8499 89.4357 32.6288 89.6654 32.3865C89.8943 32.1454 90.0535 31.9279 90.1425 31.7343C90.2314 31.5416 90.294 31.3579 90.3308 31.1838C90.3671 31.0101 90.3778 30.873 90.362 30.7724L90.3381 30.6221L93.3982 28.8554C93.439 28.9627 93.4793 29.1149 93.5184 29.3102C93.5572 29.5064 93.5753 29.8832 93.571 30.4425C93.5667 31.0017 93.4833 31.5415 93.3199 32.0618C93.156 32.5823 92.8103 33.1699 92.2816 33.8239C91.7523 34.4782 91.0615 35.0526 90.2076 35.5456C88.4998 36.5315 86.8201 36.8084 85.1677 36.3751C83.5157 35.9423 82.1838 34.8497 81.172 33.0972C80.1602 31.3447 79.876 29.6849 80.2647 28.0195L80.2656 28.0197ZM88.7319 27.128L88.6893 27.0543C88.33 26.4319 87.8069 26.0735 87.1196 25.9786C86.4324 25.8837 85.7172 26.0515 84.9745 26.4803C84.2318 26.9091 83.7081 27.4732 83.4526 28.145C83.197 28.8167 83.2021 29.4908 83.4661 30.1682L88.7313 27.1283L88.7319 27.128Z" fill="#313C41"/>
<path d="M90.3483 20.3966L93.3366 18.6713L94.2872 20.3177C94.2858 18.8555 94.9256 17.7539 96.2067 17.0143L97.4637 16.2885L98.9956 18.942L97.8098 19.6266C96.5605 20.3479 95.9523 21.1196 95.9842 21.9416C96.016 22.7644 96.6372 24.2235 97.8475 26.3198L99.7908 29.6859L96.7313 31.4523L90.3483 20.3966Z" fill="#313C41"/>
<path d="M100.003 16.6892C100.445 14.9712 101.607 13.5691 103.489 12.4825C105.371 11.396 107.169 11.0889 108.886 11.5606C110.603 12.0327 111.94 13.096 112.894 14.7498C113.849 16.4035 114.115 18.1063 113.664 19.8084C113.207 21.5356 112.036 22.9427 110.155 24.029C108.274 25.1152 106.471 25.419 104.75 24.9384C103.029 24.4587 101.695 23.3996 100.749 21.7617C99.8036 20.1238 99.5453 18.4166 100.003 16.6895L100.003 16.6892ZM103.857 19.9675C104.405 20.9172 105.112 21.5577 105.978 21.8876C106.843 22.2181 107.758 22.1043 108.722 21.5474C109.687 20.9906 110.22 20.2627 110.37 19.3352C110.52 18.4083 110.325 17.4773 109.786 16.5435C109.219 15.5608 108.507 14.9127 107.651 14.5984C106.795 14.2846 105.885 14.4064 104.921 14.9629C103.957 15.5195 103.396 16.248 103.24 17.1452C103.084 18.0433 103.289 18.9837 103.857 19.9669L103.857 19.9675Z" fill="#313C41"/>
<path d="M18.2238 61.0474L7.79576 67.0681L7.78251 64.1709C7.78048 63.9967 7.87529 63.8358 8.02241 63.7509L17.4544 58.3053C17.5959 58.2236 17.7698 58.2256 17.9112 58.308L20.8027 59.9918C20.8998 60.0494 20.961 60.1554 20.9624 60.2683L20.9777 64.2062L24.0889 66.0219L24.1037 69.1769L18.4479 65.88C18.3235 65.8077 18.2459 65.6734 18.2455 65.5295L18.2249 61.0477L18.2238 61.0474ZM14.8381 79.495L17.5509 81.0772C17.6919 81.1589 17.8697 81.1596 18.0104 81.0783L27.4396 75.6343C27.5896 75.5478 27.6816 75.3885 27.6816 75.2131L27.6691 72.3155L17.4156 78.2354L17.3985 73.9677C17.3981 73.8239 17.3205 73.6895 17.1962 73.6172L11.3592 70.2164L11.3735 73.3641L14.6636 75.2813L14.6805 79.222C14.6819 79.335 14.7431 79.4409 14.8385 79.4957L14.8381 79.495Z" fill="#7E54F1"/>
<path d="M18.2003 76.7348L27.248 71.5111C27.4486 71.3953 27.5692 71.1815 27.569 70.9454L27.5388 64.5172C27.5374 64.1489 27.3398 63.8067 27.0216 63.6213L21.6628 60.4944L21.6772 63.6748L24.8018 65.5006L24.8139 67.7649L24.8207 69.6024L24.821 69.7199L18.1843 73.5516L18.2003 76.7348Z" fill="#7E54F1"/>
<path d="M8.48776 75.6416L13.9223 78.8198L13.905 75.6789L10.6729 73.7894L10.6516 69.749L10.652 69.6213L17.3707 65.7422L17.3518 62.5985L8.25674 67.8495C8.05894 67.9637 7.93743 68.1764 7.94065 68.408L7.97668 74.7564C7.97844 75.1201 8.1737 75.4583 8.48776 75.6416Z" fill="#7E54F1"/>
</svg>
