<svg width="121" height="32" viewBox="0 0 121 32" fill="none" xmlns="http://www.w3.org/2000/svg">
<path d="M29.1415 11.1205C30.328 9.92886 31.98 9.33337 34.0987 9.33337C35.2124 9.33337 36.194 9.48929 37.0427 9.80112C37.8915 10.1129 38.517 10.4916 38.9192 10.9358C39.3208 11.3799 39.6491 11.8293 39.9052 12.2833C40.1607 12.7373 40.3068 13.1159 40.3435 13.4179L40.4257 13.9001H36.8378C36.8195 13.8628 36.8011 13.8005 36.7828 13.716C36.7645 13.6309 36.6873 13.4939 36.55 13.3046C36.4128 13.1159 36.2579 12.9456 36.0846 12.7943C35.9106 12.643 35.6463 12.506 35.2902 12.3829C34.9341 12.2604 34.537 12.1988 34.0987 12.1988C33.0577 12.1988 32.2677 12.5205 31.7295 13.1631C31.1907 13.8064 30.9219 14.7137 30.9219 15.8864C30.9219 17.059 31.1957 18.0279 31.7434 18.7374C32.2911 19.4462 33.076 19.8013 34.0987 19.8013C34.7925 19.8013 35.3674 19.6172 35.824 19.2484C36.28 18.8796 36.5633 18.5061 36.6727 18.1275L36.8372 17.5883H40.3979C40.3795 17.7207 40.3517 17.9002 40.3157 18.1275C40.2784 18.3542 40.1278 18.7616 39.8635 19.3473C39.5985 19.9336 39.2652 20.4492 38.8636 20.8933C38.4613 21.3382 37.8409 21.7443 37.001 22.1131C36.1611 22.482 35.1934 22.6667 34.098 22.6667C31.9616 22.6667 30.3002 22.062 29.1137 20.8508C27.9266 19.6408 27.3333 17.9853 27.3333 15.8864C27.3333 13.9198 27.9354 12.3311 29.1409 11.1205H29.1415Z" fill="#313C41"/>
<path d="M43.0542 11.2338C44.2957 9.96686 46.0027 9.33337 48.1758 9.33337C50.3489 9.33337 52.0603 9.96686 53.3113 11.2338C54.5616 12.5008 55.1871 14.0901 55.1871 15.9997C55.1871 17.9093 54.566 19.517 53.3245 20.7656C52.0647 22.0326 50.3482 22.6661 48.1758 22.6661C46.0033 22.6661 44.2906 22.028 43.0403 20.7512C41.7893 19.475 41.1638 17.891 41.1638 15.9997C41.1638 14.1084 41.7943 12.5008 43.0542 11.2338ZM44.7523 15.9997C44.7523 17.0964 45.0439 18.0043 45.6289 18.723C46.2133 19.4416 47.062 19.8006 48.1764 19.8006C49.2908 19.8006 50.1161 19.437 50.71 18.7086C51.3026 17.9807 51.5999 17.0774 51.5999 15.9991C51.5999 14.8644 51.3077 13.9473 50.7233 13.247C50.1389 12.5473 49.2895 12.1975 48.1764 12.1975C47.0633 12.1975 46.2133 12.548 45.6289 13.247C45.0445 13.9466 44.7523 14.8644 44.7523 15.9997Z" fill="#313C41"/>
<path d="M59.9254 9.61703V11.4042C60.7647 10.0422 62.0068 9.35237 63.65 9.33337H63.8416C65.8502 9.33337 67.265 9.88235 68.0866 10.979C68.9081 12.0763 69.3186 13.6459 69.3186 15.6885V22.3837H65.7857V15.6885C65.7857 13.4003 64.9642 12.2466 63.3211 12.2276H63.2389C62.1435 12.2276 61.3396 12.601 60.8286 13.3485C60.3169 14.096 60.0614 15.1599 60.0614 16.5402V22.3844H56.5285V9.61703H59.9248H59.9254Z" fill="#313C41"/>
<path d="M72.3316 11.1205C73.5181 9.92886 75.17 9.33337 77.2888 9.33337C78.4025 9.33337 79.3841 9.48929 80.2328 9.80112C81.0816 10.1129 81.7071 10.4916 82.1093 10.9358C82.5109 11.3799 82.8391 11.8293 83.0953 12.2833C83.3508 12.7373 83.4969 13.1159 83.5336 13.4179L83.6158 13.9001H80.0279C80.0096 13.8628 79.9912 13.8005 79.9729 13.716C79.9545 13.6309 79.8774 13.4939 79.7401 13.3046C79.6029 13.1159 79.4479 12.9456 79.2746 12.7943C79.1007 12.643 78.8364 12.506 78.4803 12.3829C78.1242 12.2604 77.727 12.1988 77.2888 12.1988C76.2477 12.1988 75.4578 12.5205 74.9196 13.1631C74.3807 13.8064 74.1119 14.7137 74.1119 15.8864C74.1119 17.059 74.3858 18.0279 74.9335 18.7374C75.4812 19.4462 76.2661 19.8013 77.2888 19.8013C77.9826 19.8013 78.5574 19.6172 79.0141 19.2484C79.4701 18.8796 79.7534 18.5061 79.8628 18.1275L80.0273 17.5883H83.588C83.5696 17.7207 83.5418 17.9002 83.5057 18.1275C83.4684 18.3542 83.3179 18.7616 83.0535 19.3473C82.7885 19.9336 82.4552 20.4492 82.0536 20.8933C81.6514 21.3382 81.031 21.7443 80.1911 22.1131C79.3512 22.482 78.3835 22.6667 77.2881 22.6667C75.1517 22.6667 73.4902 22.062 72.3038 20.8508C71.1167 19.6408 70.5234 17.9853 70.5234 15.8864C70.5234 13.9198 71.1255 12.3311 72.331 11.1205H72.3316Z" fill="#313C41"/>
<path d="M86.1077 11.1775C87.2758 9.94852 88.8828 9.33337 90.9276 9.33337C92.9723 9.33337 94.5015 9.94328 95.6248 11.1631C96.748 12.3829 97.309 14.0049 97.309 16.0285C97.309 16.3692 97.2907 16.719 97.254 17.078H87.8051C87.8779 17.9107 88.2112 18.5723 88.8051 19.0636C89.3983 19.5556 90.1237 19.8013 90.9826 19.8013C91.3842 19.8013 91.7447 19.7541 92.0647 19.6591C92.3835 19.5648 92.6301 19.456 92.804 19.3329C92.9773 19.2104 93.1234 19.0826 93.2423 18.9503C93.3606 18.818 93.4384 18.7046 93.4751 18.6096L93.5295 18.4675H97.063C97.0446 18.5808 97.0035 18.7328 96.9396 18.9215C96.8751 19.1108 96.7025 19.4462 96.4191 19.9284C96.1358 20.4105 95.7936 20.8363 95.392 21.2052C94.9898 21.574 94.3966 21.9101 93.6117 22.2121C92.8262 22.5141 91.9408 22.6661 90.9548 22.6661C88.9828 22.6661 87.3896 22.066 86.1753 20.8645C84.961 19.6637 84.3539 18.0515 84.3539 16.0279C84.3539 14.0043 84.9376 12.4248 86.107 11.1768L86.1077 11.1775ZM93.8855 14.6384V14.5532C93.8855 13.8346 93.6117 13.2627 93.064 12.8369C92.5163 12.4111 91.813 12.1988 90.9554 12.1988C90.0978 12.1988 89.3622 12.4255 88.8051 12.8795C88.2479 13.3334 87.9152 13.9198 87.8051 14.6384H93.8849H93.8855Z" fill="#313C41"/>
<path d="M98.6511 9.61707H102.102V11.5182C102.832 10.2512 103.936 9.61707 105.416 9.61707H106.867V12.681H105.498C104.055 12.681 103.143 13.0452 102.759 13.773C102.376 14.5015 102.184 16.0757 102.184 18.4963V22.3831H98.6511V9.61707Z" fill="#313C41"/>
<path d="M108.866 11.2338C110.108 9.96686 111.815 9.33337 113.988 9.33337C116.161 9.33337 117.873 9.96686 119.124 11.2338C120.374 12.5008 121 14.0901 121 15.9997C121 17.9093 120.379 19.517 119.137 20.7656C117.878 22.0326 116.16 22.6661 113.988 22.6661C111.816 22.6661 110.103 22.028 108.853 20.7512C107.602 19.475 106.976 17.891 106.976 15.9997C106.976 14.1084 107.606 12.5008 108.866 11.2338H108.866ZM110.565 15.9997C110.565 17.0964 110.856 18.0043 111.441 18.723C112.025 19.4416 112.874 19.8006 113.988 19.8006C115.102 19.8006 115.928 19.437 116.521 18.7086C117.114 17.9807 117.411 17.0774 117.411 15.9991C117.411 14.8644 117.119 13.9473 116.535 13.247C115.951 12.5473 115.101 12.1975 113.988 12.1975C112.875 12.1975 112.025 12.548 111.441 13.247C110.857 13.9466 110.565 14.8638 110.565 15.9991V15.9997Z" fill="#313C41"/>
<path d="M15.864 8.75944H3.82273L5.25981 6.24384C5.34516 6.09195 5.50773 6 5.67761 6H16.5687C16.7321 6 16.8817 6.08867 16.963 6.23071L18.6252 9.13465C18.6805 9.23317 18.6805 9.3555 18.6252 9.45402L16.6695 12.8719L18.4561 16L16.8914 18.7397L13.6417 13.0567C13.5702 12.9319 13.5702 12.7767 13.6417 12.6519L15.8648 8.76026L15.864 8.75944ZM3.70812 23.0427L5.26632 25.7693C5.3476 25.9105 5.50123 26 5.66379 26H16.5517C16.7248 26 16.8841 25.908 16.9719 25.7562L18.4098 23.2406H6.5701L8.68915 19.5361C8.76068 19.4113 8.76068 19.2562 8.68915 19.1314L5.3346 13.2677L3.77315 16.0008L5.66379 19.3062L3.70812 22.7274C3.65285 22.8259 3.65285 22.9483 3.70812 23.0435V23.0427Z" fill="#17854F"/>
<path d="M8 22.3333H18.4474C18.679 22.3333 18.8904 22.2085 19.0082 22.0039L22.1962 16.4218C22.3791 16.1022 22.3791 15.707 22.1962 15.3874L19.1188 10L17.5411 12.7615L19.3342 15.905L18.2125 17.8719L17.2996 19.4667L17.2411 19.5686H9.57771L8 22.3333Z" fill="#17854F"/>
<path d="M0.135233 16.5303L3.25261 22L4.8081 19.2712L2.9537 16.0188L4.95555 12.509L5.01966 12.3986H12.7778L14.3333 9.66663H3.83121C3.60282 9.66663 3.39125 9.79003 3.27826 9.99219L0.135233 15.5081C-0.0450778 15.824 -0.0450778 16.2145 0.135233 16.5303Z" fill="#17854F"/>
</svg>
