<svg width="129" height="32" viewBox="0 0 129 32" fill="none" xmlns="http://www.w3.org/2000/svg">
<g filter="url(#filter0_d_2971_17875)">
<path d="M33.1416 11.1205C34.328 9.92886 35.98 9.33337 38.0987 9.33337C39.2125 9.33337 40.194 9.48929 41.0428 9.80112C41.8915 10.1129 42.517 10.4916 42.9193 10.9358C43.3209 11.3799 43.6491 11.8293 43.9052 12.2833C44.1608 12.7373 44.3068 13.1159 44.3435 13.4179L44.4257 13.9001H40.8379C40.8195 13.8628 40.8012 13.8005 40.7828 13.716C40.7645 13.6309 40.6873 13.4939 40.5501 13.3046C40.4128 13.1159 40.2579 12.9456 40.0846 12.7943C39.9107 12.643 39.6463 12.506 39.2902 12.3829C38.9342 12.2604 38.537 12.1988 38.0987 12.1988C37.0577 12.1988 36.2678 12.5205 35.7295 13.1631C35.1907 13.8064 34.9219 14.7137 34.9219 15.8864C34.9219 17.059 35.1958 18.0279 35.7435 18.7374C36.2912 19.4462 37.076 19.8013 38.0987 19.8013C38.7925 19.8013 39.3674 19.6172 39.824 19.2484C40.28 18.8796 40.5634 18.5061 40.6728 18.1275L40.8372 17.5883H44.3979C44.3796 17.7207 44.3518 17.9002 44.3157 18.1275C44.2784 18.3542 44.1279 18.7616 43.8635 19.3473C43.5985 19.9336 43.2652 20.4492 42.8636 20.8933C42.4614 21.3382 41.8409 21.7443 41.001 22.1131C40.1611 22.482 39.1935 22.6667 38.0981 22.6667C35.9617 22.6667 34.3002 22.062 33.1137 20.8508C31.9266 19.6408 31.3334 17.9853 31.3334 15.8864C31.3334 13.9198 31.9355 12.3311 33.1409 11.1205H33.1416Z" fill="#313C41"/>
<path d="M47.0542 11.2338C48.2957 9.96686 50.0027 9.33337 52.1758 9.33337C54.3489 9.33337 56.0603 9.96686 57.3113 11.2338C58.5617 12.5008 59.1872 14.0901 59.1872 15.9997C59.1872 17.9093 58.5661 19.517 57.3246 20.7656C56.0647 22.0326 54.3483 22.6661 52.1758 22.6661C50.0033 22.6661 48.2907 22.028 47.0403 20.7512C45.7893 19.475 45.1638 17.891 45.1638 15.9997C45.1638 14.1084 45.7944 12.5008 47.0542 11.2338ZM48.7523 15.9997C48.7523 17.0964 49.0439 18.0043 49.6289 18.723C50.2133 19.4416 51.0621 19.8006 52.1764 19.8006C53.2908 19.8006 54.1162 19.437 54.71 18.7086C55.3026 17.9807 55.5999 17.0774 55.5999 15.9991C55.5999 14.8644 55.3077 13.9473 54.7233 13.247C54.1389 12.5473 53.2896 12.1975 52.1764 12.1975C51.0633 12.1975 50.2133 12.548 49.6289 13.247C49.0445 13.9466 48.7523 14.8644 48.7523 15.9997Z" fill="#313C41"/>
<path d="M63.9255 9.61703V11.4042C64.7647 10.0422 66.0069 9.35237 67.65 9.33337H67.8416C69.8503 9.33337 71.2651 9.88235 72.0866 10.979C72.9082 12.0763 73.3186 13.6459 73.3186 15.6885V22.3837H69.7858V15.6885C69.7858 13.4003 68.9642 12.2466 67.3211 12.2276H67.2389C66.1435 12.2276 65.3396 12.601 64.8286 13.3485C64.3169 14.096 64.0614 15.1599 64.0614 16.5402V22.3844H60.5286V9.61703H63.9248H63.9255Z" fill="#313C41"/>
<path d="M76.3316 11.1205C77.5181 9.92886 79.1701 9.33337 81.2888 9.33337C82.4025 9.33337 83.3841 9.48929 84.2328 9.80112C85.0816 10.1129 85.7071 10.4916 86.1093 10.9358C86.5109 11.3799 86.8392 11.8293 87.0953 12.2833C87.3508 12.7373 87.4969 13.1159 87.5336 13.4179L87.6158 13.9001H84.0279C84.0096 13.8628 83.9912 13.8005 83.9729 13.716C83.9545 13.6309 83.8774 13.4939 83.7402 13.3046C83.6029 13.1159 83.448 12.9456 83.2747 12.7943C83.1007 12.643 82.8364 12.506 82.4803 12.3829C82.1242 12.2604 81.7271 12.1988 81.2888 12.1988C80.2478 12.1988 79.4578 12.5205 78.9196 13.1631C78.3808 13.8064 78.112 14.7137 78.112 15.8864C78.112 17.059 78.3858 18.0279 78.9335 18.7374C79.4812 19.4462 80.2661 19.8013 81.2888 19.8013C81.9826 19.8013 82.5575 19.6172 83.0141 19.2484C83.4701 18.8796 83.7534 18.5061 83.8628 18.1275L84.0273 17.5883H87.588C87.5696 17.7207 87.5418 17.9002 87.5058 18.1275C87.4684 18.3542 87.3179 18.7616 87.0536 19.3473C86.7886 19.9336 86.4553 20.4492 86.0537 20.8933C85.6514 21.3382 85.031 21.7443 84.1911 22.1131C83.3512 22.482 82.3835 22.6667 81.2881 22.6667C79.1517 22.6667 77.4903 22.062 76.3038 20.8508C75.1167 19.6408 74.5234 17.9853 74.5234 15.8864C74.5234 13.9198 75.1255 12.3311 76.331 11.1205H76.3316Z" fill="#313C41"/>
<path d="M90.1077 11.1775C91.2758 9.94852 92.8829 9.33337 94.9276 9.33337C96.9723 9.33337 98.5016 9.94328 99.6248 11.1631C100.748 12.3829 101.309 14.0049 101.309 16.0285C101.309 16.3692 101.291 16.719 101.254 17.078H91.8052C91.8779 17.9107 92.2112 18.5723 92.8051 19.0636C93.3983 19.5556 94.1237 19.8013 94.9826 19.8013C95.3842 19.8013 95.7447 19.7541 96.0647 19.6591C96.3835 19.5648 96.6301 19.456 96.8041 19.3329C96.9774 19.2104 97.1235 19.0826 97.2424 18.9503C97.3606 18.818 97.4384 18.7046 97.4751 18.6096L97.5295 18.4675H101.063C101.045 18.5808 101.004 18.7328 100.94 18.9215C100.875 19.1108 100.702 19.4462 100.419 19.9284C100.136 20.4105 99.7937 20.8363 99.3921 21.2052C98.9898 21.574 98.3966 21.9101 97.6117 22.2121C96.8262 22.5141 95.9408 22.6661 94.9548 22.6661C92.9828 22.6661 91.3897 22.066 90.1753 20.8645C88.961 19.6637 88.3539 18.0515 88.3539 16.0279C88.3539 14.0043 88.9376 12.4248 90.107 11.1768L90.1077 11.1775ZM97.8856 14.6384V14.5532C97.8856 13.8346 97.6117 13.2627 97.064 12.8369C96.5163 12.4111 95.813 12.1988 94.9554 12.1988C94.0978 12.1988 93.3623 12.4255 92.8051 12.8795C92.2479 13.3334 91.9152 13.9198 91.8052 14.6384H97.8849H97.8856Z" fill="#313C41"/>
<path d="M102.651 9.61707H106.102V11.5182C106.832 10.2512 107.937 9.61707 109.416 9.61707H110.867V12.681H109.498C108.055 12.681 107.143 13.0452 106.76 13.773C106.376 14.5015 106.184 16.0757 106.184 18.4963V22.3831H102.651V9.61707Z" fill="#313C41"/>
<path d="M112.866 11.2338C114.108 9.96686 115.815 9.33337 117.988 9.33337C120.161 9.33337 121.873 9.96686 123.124 11.2338C124.374 12.5008 125 14.0901 125 15.9997C125 17.9093 124.379 19.517 123.137 20.7656C121.878 22.0326 120.161 22.6661 117.988 22.6661C115.816 22.6661 114.103 22.028 112.853 20.7512C111.602 19.475 110.976 17.891 110.976 15.9997C110.976 14.1084 111.606 12.5008 112.866 11.2338H112.866ZM114.565 15.9997C114.565 17.0964 114.856 18.0043 115.441 18.723C116.025 19.4416 116.874 19.8006 117.988 19.8006C119.102 19.8006 119.928 19.437 120.521 18.7086C121.114 17.9807 121.412 17.0774 121.412 15.9991C121.412 14.8644 121.119 13.9473 120.535 13.247C119.951 12.5473 119.101 12.1975 117.988 12.1975C116.875 12.1975 116.025 12.548 115.441 13.247C114.857 13.9466 114.565 14.8638 114.565 15.9991V15.9997Z" fill="#313C41"/>
<path d="M19.864 8.75944H7.82275L9.25984 6.24384C9.34519 6.09195 9.50775 6 9.67763 6H20.5688C20.7321 6 20.8817 6.08867 20.963 6.23071L22.6252 9.13465C22.6805 9.23317 22.6805 9.3555 22.6252 9.45402L20.6696 12.8719L22.4562 16L20.8915 18.7397L17.6418 13.0567C17.5702 12.9319 17.5702 12.7767 17.6418 12.6519L19.8649 8.76026L19.864 8.75944ZM7.70814 23.0427L9.26634 25.7693C9.34762 25.9105 9.50125 26 9.66382 26H20.5517C20.7248 26 20.8841 25.908 20.9719 25.7562L22.4098 23.2406H10.5701L12.6892 19.5361C12.7607 19.4113 12.7607 19.2562 12.6892 19.1314L9.33462 13.2677L7.77317 16.0008L9.66382 19.3062L7.70814 22.7274C7.65287 22.8259 7.65287 22.9483 7.70814 23.0435V23.0427Z" fill="#7E54F1"/>
<path d="M12 22.3333H22.4474C22.679 22.3333 22.8904 22.2085 23.0082 22.0039L26.1962 16.4218C26.3791 16.1022 26.3791 15.707 26.1962 15.3874L23.1188 10L21.5411 12.7615L23.3342 15.905L22.2125 17.8719L21.2996 19.4667L21.2411 19.5686H13.5777L12 22.3333Z" fill="#7E54F1"/>
<path d="M4.13523 16.5303L7.25261 22L8.8081 19.2712L6.9537 16.0188L8.95555 12.509L9.01966 12.3986H16.7778L18.3333 9.66663H7.83121C7.60282 9.66663 7.39125 9.79003 7.27826 9.99219L4.13523 15.5081C3.95492 15.824 3.95492 16.2145 4.13523 16.5303Z" fill="#7E54F1"/>
</g>
<defs>
<filter id="filter0_d_2971_17875" x="0" y="-4" width="129" height="40" filterUnits="userSpaceOnUse" color-interpolation-filters="sRGB">
<feFlood flood-opacity="0" result="BackgroundImageFix"/>
<feColorMatrix in="SourceAlpha" type="matrix" values="0 0 0 0 0 0 0 0 0 0 0 0 0 0 0 0 0 0 127 0" result="hardAlpha"/>
<feOffset/>
<feGaussianBlur stdDeviation="2"/>
<feComposite in2="hardAlpha" operator="out"/>
<feColorMatrix type="matrix" values="0 0 0 0 0.494118 0 0 0 0 0.329412 0 0 0 0 0.945098 0 0 0 1 0"/>
<feBlend mode="normal" in2="BackgroundImageFix" result="effect1_dropShadow_2971_17875"/>
<feBlend mode="normal" in="SourceGraphic" in2="effect1_dropShadow_2971_17875" result="shape"/>
</filter>
</defs>
</svg>
