<?xml version="1.0" standalone="no"?>
<!DOCTYPE svg PUBLIC "-//W3C//DTD SVG 20010904//EN"
 "http://www.w3.org/TR/2001/REC-SVG-20010904/DTD/svg10.dtd">
<svg version="1.0" xmlns="http://www.w3.org/2000/svg"
 width="258.000000pt" height="64.000000pt" viewBox="0 0 258.000000 64.000000"
 preserveAspectRatio="xMidYMid meet">

<g transform="translate(0.000000,64.000000) scale(0.100000,-0.100000)"
fill="#000000" stroke="none">
<path d="M177 496 c-16 -23 -16 -23 30 -30 25 -3 77 -6 114 -6 38 0 69 -3 69
-6 0 -4 -9 -21 -19 -38 l-20 -31 33 -58 33 -58 17 26 c16 24 16 27 -1 55 -16
28 -16 32 0 65 16 33 16 37 0 70 l-17 35 -112 0 c-107 0 -112 -1 -127 -24z"/>
<path d="M164 440 c-12 -4 -35 -34 -53 -65 l-32 -56 32 -56 32 -56 18 24 c17
23 17 25 -3 56 -19 33 -19 34 -1 66 18 31 21 32 94 35 61 2 77 6 92 23 9 12
17 25 17 30 0 11 -168 11 -196 -1z"/>
<path d="M695 441 c-45 -19 -60 -49 -60 -122 0 -61 3 -71 27 -95 21 -21 39
-28 80 -32 29 -2 65 1 80 7 25 9 68 63 68 84 0 13 -69 7 -77 -7 -23 -38 -81
-37 -102 3 -39 73 39 151 98 97 20 -18 81 -22 81 -5 0 6 -15 26 -34 45 -30 30
-40 34 -87 33 -30 0 -63 -4 -74 -8z"/>
<path d="M959 427 c-22 -15 -39 -38 -49 -65 -31 -89 32 -172 132 -172 81 0
127 35 141 109 9 46 -22 115 -62 135 -45 24 -121 21 -162 -7z m136 -60 c31
-44 10 -111 -35 -117 -52 -8 -80 16 -80 68 0 45 8 58 40 70 32 12 57 5 75 -21z"/>
<path d="M1210 320 l0 -130 35 0 35 0 0 73 c0 89 15 121 56 125 45 4 57 -17
62 -114 l5 -85 31 3 31 3 3 70 c6 138 -21 185 -104 185 -30 0 -54 -6 -66 -17
-17 -15 -18 -15 -18 0 0 13 -9 17 -35 17 l-35 0 0 -130z"/>
<path d="M1548 435 c-79 -44 -76 -187 4 -231 13 -8 47 -13 77 -14 47 0 57 4
87 34 19 19 34 41 34 50 0 25 -58 21 -79 -5 -21 -26 -66 -28 -89 -5 -10 10
-17 33 -17 56 0 23 7 46 17 56 21 21 64 21 87 0 22 -20 81 -22 81 -2 0 8 -11
27 -24 42 -20 24 -32 28 -87 31 -44 2 -72 -1 -91 -12z"/>
<path d="M1818 427 c-36 -30 -48 -58 -48 -112 0 -52 20 -90 61 -111 33 -17
102 -18 132 -3 23 12 56 48 57 62 0 11 -68 9 -75 -3 -3 -5 -24 -10 -45 -10
-29 0 -42 5 -50 19 -5 11 -10 22 -10 25 0 3 43 6 95 6 91 0 95 1 95 22 0 36
-38 104 -66 116 -43 20 -116 15 -146 -11z m116 -43 c9 -3 16 -12 16 -20 0 -10
-15 -14 -55 -14 -30 0 -55 4 -55 8 0 26 54 41 94 26z"/>
<path d="M2057 443 c-4 -3 -7 -62 -7 -130 l0 -123 34 0 33 0 6 81 c4 45 12 88
18 95 6 7 26 16 45 20 29 5 34 10 34 35 0 23 -4 29 -22 29 -13 0 -35 -7 -50
-14 -24 -13 -28 -13 -28 0 0 14 -50 20 -63 7z"/>
<path d="M2264 417 c-37 -34 -39 -39 -39 -96 0 -55 3 -64 32 -93 28 -28 40
-33 97 -36 62 -4 65 -3 102 31 37 34 39 39 39 96 0 55 -3 64 -32 93 -28 28
-40 33 -97 36 -62 4 -65 3 -102 -31z m143 -39 c18 -14 25 -61 14 -91 -23 -60
-106 -53 -125 11 -21 73 52 127 111 80z"/>
<path d="M446 408 c-16 -24 -15 -27 1 -56 17 -30 17 -33 -1 -67 l-19 -35 -76
0 c-75 0 -77 -1 -94 -30 l-18 -30 88 0 c48 0 98 3 110 6 29 8 87 108 79 138
-3 11 -16 39 -30 60 l-23 39 -17 -25z"/>
<path d="M170 344 c-12 -22 -12 -29 4 -58 17 -31 17 -34 0 -70 -17 -34 -17
-39 -2 -64 16 -27 19 -27 131 -30 112 -3 114 -2 125 22 10 22 8 24 -26 30 -20
3 -70 6 -109 6 -40 0 -73 2 -73 5 0 2 7 19 16 38 16 33 15 35 -16 90 -18 31
-33 57 -34 57 -2 0 -9 -11 -16 -26z"/>
</g>
</svg>
