<svg width="141" height="20" viewBox="0 0 141 20" fill="none" xmlns="http://www.w3.org/2000/svg">
<path d="M2.71227 2.68069C4.49199 0.893234 6.96993 0 10.148 0C11.8186 0 13.291 0.233872 14.5641 0.701616C15.8372 1.16936 16.7755 1.73734 17.3788 2.40358C17.9812 3.06982 18.4736 3.74392 18.8578 4.4249C19.2411 5.10588 19.4602 5.67386 19.5152 6.12686L19.6386 6.8501H14.2567C14.2292 6.79408 14.2017 6.70073 14.1742 6.57397C14.1467 6.44622 14.0309 6.24085 13.8251 5.95686C13.6192 5.67386 13.3868 5.41837 13.1268 5.19137C12.866 4.96438 12.4694 4.759 11.9353 4.57426C11.4012 4.39051 10.8054 4.29814 10.148 4.29814C8.58648 4.29814 7.40158 4.78062 6.59425 5.74461C5.78598 6.70958 5.38279 8.07055 5.38279 9.82951C5.38279 11.5885 5.79357 13.0418 6.61513 14.106C7.43668 15.1693 8.61399 15.7019 10.148 15.7019C11.1887 15.7019 12.051 15.4257 12.736 14.8725C13.42 14.3193 13.845 13.7592 14.0091 13.1912L14.2558 12.3824H19.5968C19.5693 12.5809 19.5276 12.8502 19.4735 13.1912C19.4175 13.5312 19.1917 14.1424 18.7952 15.0209C18.3977 15.9004 17.8977 16.6737 17.2953 17.34C16.692 18.0072 15.7613 18.6164 14.5015 19.1697C13.2416 19.7229 11.7902 20 10.147 20C6.94242 20 4.45025 19.093 2.67053 17.2761C0.889861 15.4611 0 12.9779 0 9.82951C0 6.87958 0.903142 4.49663 2.71132 2.68069H2.71227Z" fill="#CFD5D8"/>
<path d="M23.5812 2.85069C25.4435 0.950228 28.0039 0 31.2636 0C34.5232 0 37.0904 0.950228 38.9668 2.85069C40.8424 4.75114 41.7806 7.13507 41.7806 9.99951C41.7806 12.864 40.849 15.2754 38.9868 17.1483C37.097 19.0488 34.5223 19.999 31.2636 19.999C28.0049 19.999 25.4359 19.0419 23.5603 17.1267C21.6839 15.2125 20.7456 12.8364 20.7456 9.99951C20.7456 7.16258 21.6914 4.75114 23.5812 2.85069ZM26.1284 9.99951C26.1284 11.6445 26.5657 13.0064 27.4433 14.0844C28.3198 15.1624 29.593 15.7009 31.2645 15.7009C32.9361 15.7009 34.1741 15.1555 35.0649 14.0628C35.9538 12.9711 36.3997 11.616 36.3997 9.99852C36.3997 8.29657 35.9614 6.92085 35.0849 5.87039C34.2083 4.82091 32.9342 4.29617 31.2645 4.29617C29.5949 4.29617 28.3198 4.82189 27.4433 5.87039C26.5667 6.91986 26.1284 8.29657 26.1284 9.99951Z" fill="#CFD5D8"/>
<path d="M48.8883 0.42549V3.10618C50.1472 1.06323 52.0104 0.028497 54.4751 0H54.7625C57.7755 0 59.8977 0.823466 61.13 2.46843C62.3624 4.11438 62.9781 6.46883 62.9781 9.53275V19.5755H57.6787V9.53275C57.6787 6.10033 56.4464 4.36987 53.9818 4.34137H53.8584C52.2153 4.34137 51.0096 4.90149 50.243 6.0227C49.4755 7.14391 49.0923 8.73974 49.0923 10.8102V19.5765H43.793V0.42549H48.8874H48.8883Z" fill="#CFD5D8"/>
<path d="M67.4974 2.68069C69.2771 0.893234 71.7551 0 74.9332 0C76.6038 0 78.0761 0.233872 79.3492 0.701616C80.6224 1.16936 81.5606 1.73734 82.164 2.40358C82.7664 3.06982 83.2587 3.74392 83.6429 4.4249C84.0262 5.10588 84.2454 5.67386 84.3004 6.12686L84.4237 6.8501H79.0419C79.0144 6.79408 78.9868 6.70073 78.9593 6.57397C78.9318 6.44622 78.8161 6.24085 78.6102 5.95686C78.4044 5.67386 78.1719 5.41837 77.912 5.19137C77.6511 4.96438 77.2546 4.759 76.7205 4.57426C76.1864 4.39051 75.5906 4.29814 74.9332 4.29814C73.3716 4.29814 72.1867 4.78062 71.3794 5.74461C70.5711 6.70958 70.1679 8.07055 70.1679 9.82951C70.1679 11.5885 70.5787 13.0418 71.4003 14.106C72.2218 15.1693 73.3991 15.7019 74.9332 15.7019C75.9739 15.7019 76.8362 15.4257 77.5211 14.8725C78.2051 14.3193 78.6301 13.7592 78.7943 13.1912L79.0409 12.3824H84.382C84.3545 12.5809 84.3127 12.8502 84.2586 13.1912C84.2027 13.5312 83.9769 14.1424 83.5803 15.0209C83.1828 15.9004 82.6829 16.6737 82.0805 17.34C81.4771 18.0072 80.5465 18.6164 79.2866 19.1697C78.0268 19.7229 76.5753 20 74.9322 20C71.7276 20 69.2354 19.093 67.4557 17.2761C65.675 15.4611 64.7852 12.9779 64.7852 9.82951C64.7852 6.87958 65.6883 4.49663 67.4965 2.68069H67.4974Z" fill="#CFD5D8"/>
<path d="M88.1614 2.76618C89.9136 0.922714 92.3242 0 95.3913 0C98.4584 0 100.752 0.914852 102.437 2.74456C104.122 4.57426 104.963 7.00732 104.963 10.0427C104.963 10.5537 104.936 11.0785 104.881 11.617H90.7077C90.8168 12.8659 91.3167 13.8584 92.2075 14.5954C93.0974 15.3334 94.1855 15.7019 95.4738 15.7019C96.0762 15.7019 96.617 15.6311 97.097 15.4886C97.5752 15.3471 97.9451 15.184 98.206 14.9993C98.466 14.8155 98.6851 14.6239 98.8635 14.4254C99.0409 14.2269 99.1576 14.0569 99.2126 13.9144L99.2942 13.7012H104.594C104.567 13.8712 104.505 14.0991 104.409 14.3822C104.313 14.6661 104.054 15.1693 103.629 15.8925C103.204 16.6157 102.69 17.2545 102.088 17.8077C101.485 18.3609 100.595 18.865 99.4175 19.318C98.2392 19.771 96.9111 19.999 95.4321 19.999C92.4741 19.999 90.0844 19.0989 88.263 17.2967C86.4415 15.4955 85.5308 13.0772 85.5308 10.0418C85.5308 7.00634 86.4064 4.63715 88.1605 2.76519L88.1614 2.76618ZM99.8283 7.95755V7.8298C99.8283 6.75183 99.4175 5.89397 98.5959 5.25524C97.7744 4.61652 96.7195 4.29814 95.4331 4.29814C94.1466 4.29814 93.0433 4.63814 92.2075 5.31912C91.3718 6.0001 90.8728 6.87958 90.7077 7.95755H99.8273H99.8283Z" fill="#CFD5D8"/>
<path d="M106.977 0.425629H112.153V3.2773C113.247 1.37684 114.905 0.425629 117.124 0.425629H119.301V5.02151H117.247C115.083 5.02151 113.714 5.56787 113.139 6.6596C112.563 7.75231 112.276 10.1136 112.276 13.7445V19.5746H106.977V0.425629Z" fill="#CFD5D8"/>
<path d="M122.3 2.85069C124.162 0.950228 126.722 0 129.982 0C133.242 0 135.809 0.950228 137.685 2.85069C139.561 4.75114 140.5 7.13507 140.5 9.99951C140.5 12.864 139.568 15.2754 137.706 17.1483C135.816 19.0488 133.241 19.999 129.982 19.999C126.723 19.999 124.154 19.0419 122.279 17.1267C120.402 15.2125 119.464 12.8364 119.464 9.99951C119.464 7.16258 120.409 4.75114 122.299 2.85069H122.3ZM124.847 9.99951C124.847 11.6445 125.284 13.0064 126.162 14.0844C127.037 15.1624 128.311 15.7009 129.982 15.7009C131.653 15.7009 132.892 15.1555 133.782 14.0628C134.671 12.9711 135.117 11.616 135.117 9.99852C135.117 8.29657 134.679 6.92085 133.802 5.87039C132.926 4.82091 131.652 4.29617 129.982 4.29617C128.312 4.29617 127.037 4.82189 126.162 5.87039C125.285 6.91986 124.847 8.29558 124.847 9.99852V9.99951Z" fill="#CFD5D8"/>
</svg>
