<svg width="205" height="205" viewBox="0 0 205 205" fill="none" xmlns="http://www.w3.org/2000/svg">
<path d="M0 16C0 7.16344 7.16344 0 16 0H189C197.837 0 205 7.16344 205 16V189C205 197.837 197.837 205 189 205H16C7.16344 205 0 197.837 0 189V16Z" fill="#F3F5F6"/>
<path d="M56.8082 113.12C57.9947 111.929 59.6466 111.333 61.7653 111.333C62.8791 111.333 63.8606 111.489 64.7094 111.801C65.5581 112.113 66.1836 112.491 66.5859 112.936C66.9875 113.38 67.3157 113.829 67.5719 114.283C67.8274 114.737 67.9735 115.116 68.0102 115.418L68.0924 115.9H64.5045C64.4861 115.863 64.4678 115.8 64.4495 115.716C64.4311 115.631 64.354 115.494 64.2167 115.304C64.0795 115.116 63.9245 114.945 63.7512 114.794C63.5773 114.643 63.3129 114.506 62.9569 114.383C62.6008 114.26 62.2036 114.199 61.7653 114.199C60.7243 114.199 59.9344 114.52 59.3962 115.163C58.8573 115.806 58.5885 116.714 58.5885 117.886C58.5885 119.059 58.8624 120.028 59.4101 120.737C59.9578 121.446 60.7427 121.801 61.7653 121.801C62.4591 121.801 63.034 121.617 63.4907 121.248C63.9467 120.879 64.23 120.506 64.3394 120.127L64.5038 119.588H68.0645C68.0462 119.721 68.0184 119.9 67.9823 120.127C67.945 120.354 67.7945 120.762 67.5301 121.347C67.2651 121.933 66.9318 122.449 66.5302 122.893C66.128 123.338 65.5075 123.744 64.6677 124.113C63.8278 124.482 62.8601 124.667 61.7647 124.667C59.6283 124.667 57.9668 124.062 56.7804 122.851C55.5932 121.641 55 119.985 55 117.886C55 115.92 55.6021 114.331 56.8075 113.12H56.8082Z" fill="#313C41"/>
<path d="M70.7206 113.234C71.9621 111.967 73.6691 111.333 75.8422 111.333C78.0153 111.333 79.7267 111.967 80.9777 113.234C82.228 114.501 82.8535 116.09 82.8535 118C82.8535 119.909 82.2325 121.517 80.991 122.765C79.7311 124.032 78.0147 124.666 75.8422 124.666C73.6697 124.666 71.957 124.028 70.7067 122.751C69.4557 121.475 68.8302 119.891 68.8302 118C68.8302 116.108 69.4608 114.501 70.7206 113.234ZM72.4187 118C72.4187 119.096 72.7103 120.004 73.2953 120.723C73.8797 121.442 74.7284 121.801 75.8428 121.801C76.9572 121.801 77.7825 121.437 78.3764 120.708C78.969 119.981 79.2663 119.077 79.2663 117.999C79.2663 116.864 78.9741 115.947 78.3897 115.247C77.8053 114.547 76.9559 114.197 75.8428 114.197C74.7297 114.197 73.8797 114.548 73.2953 115.247C72.7109 115.946 72.4187 116.864 72.4187 118Z" fill="#313C41"/>
<path d="M87.5918 111.617V113.404C88.4311 112.042 89.6732 111.352 91.3163 111.333H91.508C93.5166 111.333 94.9314 111.882 95.753 112.979C96.5745 114.076 96.985 115.646 96.985 117.688V124.384H93.4521V117.688C93.4521 115.4 92.6306 114.246 90.9875 114.228H90.9053C89.8098 114.228 89.006 114.601 88.495 115.348C87.9833 116.096 87.7278 117.16 87.7278 118.54V124.384H84.1949V111.617H87.5912H87.5918Z" fill="#313C41"/>
<path d="M99.9981 113.12C101.185 111.929 102.837 111.333 104.955 111.333C106.069 111.333 107.051 111.489 107.899 111.801C108.748 112.113 109.374 112.491 109.776 112.936C110.177 113.38 110.506 113.829 110.762 114.283C111.017 114.737 111.163 115.116 111.2 115.418L111.282 115.9H107.694C107.676 115.863 107.658 115.8 107.639 115.716C107.621 115.631 107.544 115.494 107.407 115.304C107.269 115.116 107.114 114.945 106.941 114.794C106.767 114.643 106.503 114.506 106.147 114.383C105.791 114.26 105.394 114.199 104.955 114.199C103.914 114.199 103.124 114.52 102.586 115.163C102.047 115.806 101.778 116.714 101.778 117.886C101.778 119.059 102.052 120.028 102.6 120.737C103.148 121.446 103.933 121.801 104.955 121.801C105.649 121.801 106.224 121.617 106.681 121.248C107.137 120.879 107.42 120.506 107.529 120.127L107.694 119.588H111.254C111.236 119.721 111.208 119.9 111.172 120.127C111.135 120.354 110.984 120.762 110.72 121.347C110.455 121.933 110.122 122.449 109.72 122.893C109.318 123.338 108.697 123.744 107.858 124.113C107.018 124.482 106.05 124.667 104.955 124.667C102.818 124.667 101.157 124.062 99.9703 122.851C98.7832 121.641 98.1899 119.985 98.1899 117.886C98.1899 115.92 98.792 114.331 99.9975 113.12H99.9981Z" fill="#313C41"/>
<path d="M113.774 113.177C114.942 111.948 116.549 111.333 118.594 111.333C120.639 111.333 122.168 111.943 123.291 113.163C124.415 114.383 124.976 116.005 124.976 118.028C124.976 118.369 124.957 118.719 124.92 119.078H115.472C115.544 119.911 115.878 120.572 116.472 121.064C117.065 121.555 117.79 121.801 118.649 121.801C119.051 121.801 119.411 121.754 119.731 121.659C120.05 121.565 120.297 121.456 120.471 121.333C120.644 121.21 120.79 121.083 120.909 120.95C121.027 120.818 121.105 120.705 121.142 120.61L121.196 120.467H124.729C124.711 120.581 124.67 120.733 124.606 120.921C124.542 121.111 124.369 121.446 124.086 121.928C123.802 122.41 123.46 122.836 123.059 123.205C122.656 123.574 122.063 123.91 121.278 124.212C120.493 124.514 119.607 124.666 118.621 124.666C116.649 124.666 115.056 124.066 113.842 122.864C112.628 121.664 112.02 120.051 112.02 118.028C112.02 116.004 112.604 114.425 113.774 113.177L113.774 113.177ZM121.552 116.638V116.553C121.552 115.834 121.278 115.263 120.731 114.837C120.183 114.411 119.48 114.199 118.622 114.199C117.764 114.199 117.029 114.425 116.472 114.879C115.914 115.333 115.582 115.92 115.472 116.638H121.551H121.552Z" fill="#313C41"/>
<path d="M126.318 111.617H129.768V113.518C130.498 112.251 131.603 111.617 133.082 111.617H134.534V114.681H133.164C131.722 114.681 130.809 115.045 130.426 115.773C130.042 116.501 129.85 118.076 129.85 120.496V124.383H126.318V111.617Z" fill="#313C41"/>
<path d="M136.533 113.234C137.774 111.967 139.481 111.333 141.655 111.333C143.828 111.333 145.539 111.967 146.79 113.234C148.04 114.501 148.667 116.09 148.667 118C148.667 119.909 148.045 121.517 146.804 122.765C145.544 124.032 143.827 124.666 141.655 124.666C139.482 124.666 137.769 124.028 136.519 122.751C135.268 121.475 134.643 119.891 134.643 118C134.643 116.108 135.272 114.501 136.532 113.234H136.533ZM138.231 118C138.231 119.096 138.523 120.004 139.108 120.723C139.691 121.442 140.541 121.801 141.655 121.801C142.768 121.801 143.594 121.437 144.188 120.708C144.781 119.981 145.078 119.077 145.078 117.999C145.078 116.864 144.786 115.947 144.201 115.247C143.617 114.547 142.768 114.197 141.655 114.197C140.541 114.197 139.691 114.548 139.108 115.247C138.523 115.946 138.231 116.864 138.231 117.999V118Z" fill="#313C41"/>
<path d="M105.53 83.7594H93.4892L94.9263 81.2438C95.0116 81.092 95.1742 81 95.3441 81H106.235C106.399 81 106.548 81.0887 106.629 81.2307L108.292 84.1346C108.347 84.2332 108.347 84.3555 108.292 84.454L106.336 87.8719L108.123 91L106.558 93.7397L103.308 88.0567C103.237 87.9319 103.237 87.7767 103.308 87.6519L105.531 83.7603L105.53 83.7594ZM93.3746 98.0427L94.9328 100.769C95.0141 100.911 95.1677 101 95.3303 101H106.218C106.391 101 106.551 100.908 106.638 100.756L108.076 98.2406H96.2366L98.3556 94.5361C98.4271 94.4113 98.4271 94.2562 98.3556 94.1314L95.0011 88.2677L93.4396 91.0008L95.3303 94.3062L93.3746 97.7274C93.3193 97.8259 93.3193 97.9483 93.3746 98.0435V98.0427Z" fill="#7E54F1"/>
<path d="M97.6665 97.3333H108.114C108.346 97.3333 108.557 97.2085 108.675 97.0039L111.863 91.4218C112.046 91.1022 112.046 90.707 111.863 90.3874L108.785 85L107.208 87.7615L109.001 90.905L107.879 92.8719L106.966 94.4667L106.908 94.5686H99.2442L97.6665 97.3333Z" fill="#7E54F1"/>
<path d="M89.8017 91.5303L92.9191 97L94.4746 94.2712L92.6202 91.0188L94.6221 87.509L94.6862 87.3986H102.444L104 84.6666H93.4977C93.2693 84.6666 93.0578 84.79 92.9448 84.9922L89.8017 90.5081C89.6214 90.824 89.6214 91.2145 89.8017 91.5303Z" fill="#7E54F1"/>
</svg>
