<svg width="54" height="48" viewBox="0 0 54 48" fill="none" xmlns="http://www.w3.org/2000/svg">
<path d="M38.0439 6.62266H9.16747L12.6138 0.585222C12.8184 0.22069 13.2083 0 13.6157 0H39.7339C40.1257 0 40.4844 0.212808 40.6793 0.553695L44.6655 7.52315C44.7981 7.75961 44.7981 8.0532 44.6655 8.28965L39.9756 16.4926L44.2601 24L40.5077 30.5754L32.7146 16.936C32.543 16.6365 32.543 16.264 32.7146 15.9645L38.0458 6.62463L38.0439 6.62266ZM8.89263 40.9025L12.6294 47.4463C12.8243 47.7852 13.1927 48 13.5826 48H39.693C40.1081 48 40.4902 47.7793 40.7007 47.4148L44.149 41.3773H15.756L20.8377 32.4867C21.0093 32.1872 21.0093 31.8148 20.8377 31.5153L12.7931 17.4424L9.04857 24.002L13.5826 31.935L8.89263 40.1458C8.76008 40.3823 8.76008 40.6759 8.89263 40.9044V40.9025Z" fill="#7B53EA"/>
<path d="M19.1848 39.2H44.2388C44.7944 39.2 45.3012 38.9003 45.5838 38.4093L53.2289 25.0122C53.6674 24.2452 53.6674 23.2967 53.2289 22.5296L45.8489 9.59998L42.0654 16.2275L46.3655 23.7719L43.6755 28.4926L41.4864 32.3201L41.3461 32.5646H22.9684L19.1848 39.2Z" fill="#7B53EA"/>
<path d="M0.324061 25.2729L7.79989 38.4001L11.5301 31.8511L7.08306 24.0453L11.8837 15.6218L12.0375 15.3568H30.6425L34.3727 8.80005H9.18744C8.63972 8.80005 8.13237 9.09622 7.86139 9.58141L0.324061 22.8197C-0.108346 23.5776 -0.108346 24.5149 0.324061 25.2729Z" fill="#7B53EA"/>
</svg>
