<svg width="54" height="48" viewBox="0 0 54 48" fill="none" xmlns="http://www.w3.org/2000/svg">
<path d="M38.0436 6.62266H9.16723L12.6135 0.585222C12.8182 0.22069 13.2081 0 13.6154 0H39.7336C40.1254 0 40.4841 0.212808 40.679 0.553695L44.6653 7.52315C44.7978 7.75961 44.7978 8.0532 44.6653 8.28965L39.9753 16.4926L44.2598 24L40.5075 30.5754L32.7143 16.936C32.5428 16.6365 32.5428 16.264 32.7143 15.9645L38.0456 6.62463L38.0436 6.62266ZM8.89238 40.9025L12.6291 47.4463C12.824 47.7852 13.1925 48 13.5823 48H39.6927C40.1079 48 40.49 47.7793 40.7005 47.4148L44.1487 41.3773H15.7557L20.8375 32.4867C21.009 32.1872 21.009 31.8148 20.8375 31.5153L12.7929 17.4424L9.04832 24.002L13.5823 31.935L8.89238 40.1458C8.75983 40.3823 8.75983 40.6759 8.89238 40.9044V40.9025Z" fill="#7E54F1"/>
<path d="M19.1846 39.2H44.2386C44.7941 39.2 45.3009 38.9003 45.5836 38.4093L53.2286 25.0122C53.6672 24.2452 53.6672 23.2967 53.2286 22.5296L45.8487 9.59998L42.0651 16.2275L46.3652 23.7719L43.6752 28.4926L41.4862 32.3201L41.3458 32.5646H22.9681L19.1846 39.2Z" fill="#7E54F1"/>
<path d="M0.323817 25.2729L7.79965 38.4001L11.5299 31.8511L7.08281 24.0453L11.8835 15.6218L12.0372 15.3568H30.6423L34.3725 8.80005H9.18719C8.63948 8.80005 8.13212 9.09622 7.86115 9.58141L0.323817 22.8197C-0.10859 23.5776 -0.10859 24.5149 0.323817 25.2729Z" fill="#7E54F1"/>
</svg>
