<svg width="64" height="64" viewBox="0 0 64 64" fill="none" xmlns="http://www.w3.org/2000/svg">
<g clip-path="url(#clip0_3467_8781)">
<path d="M48 0.378876H16C7.16344 0.378876 0 7.49783 0 16.2795V48.0807C0 56.8624 7.16344 63.9814 16 63.9814H48C56.8366 63.9814 64 56.8624 64 48.0807V16.2795C64 7.49783 56.8366 0.378876 48 0.378876Z" fill="#00DE73"/>
<path d="M48 0.378876H16C7.16344 0.378876 0 7.49783 0 16.2795V48.0807C0 56.8624 7.16344 63.9814 16 63.9814H48C56.8366 63.9814 64 56.8624 64 48.0807V16.2795C64 7.49783 56.8366 0.378876 48 0.378876Z" fill="url(#paint0_linear_3467_8781)" fill-opacity="0.2"/>
<g filter="url(#filter0_d_3467_8781)">
<path d="M15.2381 38.3074L25.0977 35.683L25.1033 35.6774L30.8041 25.8625L28.1648 16.0588L23.5332 17.2898L26.1726 27.0936C26.3977 27.9329 26.2851 28.8114 25.8462 29.5613C25.4072 30.3167 24.7038 30.8539 23.8596 31.0777L14 33.7021L15.2381 38.3074Z" fill="#F7F9F3"/>
<path d="M15.2381 38.3074L25.0977 35.683L25.1033 35.6774L30.8041 25.8625L28.1648 16.0588L23.5332 17.2898L26.1726 27.0936C26.3977 27.9329 26.2851 28.8114 25.8462 29.5613C25.4072 30.3167 24.7038 30.8539 23.8596 31.0777L14 33.7021L15.2381 38.3074Z" fill="url(#paint1_linear_3467_8781)" fill-opacity="0.2"/>
<path d="M38.9023 35.683L48.762 38.3074L50 33.7021L40.1404 31.0777C39.2962 30.8539 38.5928 30.3167 38.1538 29.5613C37.7148 28.8114 37.6023 27.9329 37.8274 27.0936L40.4668 17.2898L35.8352 16.0588L33.1959 25.8625L38.8967 35.6774L38.9023 35.683Z" fill="#F7F9F3"/>
<path d="M38.9023 35.683L48.762 38.3074L50 33.7021L40.1404 31.0777C39.2962 30.8539 38.5928 30.3167 38.1538 29.5613C37.7148 28.8114 37.6023 27.9329 37.8274 27.0936L40.4668 17.2898L35.8352 16.0588L33.1959 25.8625L38.8967 35.6774L38.9023 35.683Z" fill="url(#paint2_linear_3467_8781)" fill-opacity="0.2"/>
<path d="M37.698 37.7534L44.9184 44.9327L41.5304 48.3013L34.3102 41.1222C33.6911 40.5064 32.8751 40.1709 31.9972 40.1709C31.1193 40.1709 30.3033 40.5064 29.6842 41.1222L22.464 48.3013L19.0762 44.9327L26.2964 37.7534H37.698Z" fill="#F7F9F3"/>
<path d="M37.698 37.7534L44.9184 44.9327L41.5304 48.3013L34.3102 41.1222C33.6911 40.5064 32.8751 40.1709 31.9972 40.1709C31.1193 40.1709 30.3033 40.5064 29.6842 41.1222L22.464 48.3013L19.0762 44.9327L26.2964 37.7534H37.698Z" fill="url(#paint3_linear_3467_8781)" fill-opacity="0.2"/>
</g>
</g>
<defs>
<filter id="filter0_d_3467_8781" x="6" y="12.0588" width="52" height="48.2425" filterUnits="userSpaceOnUse" color-interpolation-filters="sRGB">
<feFlood flood-opacity="0" result="BackgroundImageFix"/>
<feColorMatrix in="SourceAlpha" type="matrix" values="0 0 0 0 0 0 0 0 0 0 0 0 0 0 0 0 0 0 127 0" result="hardAlpha"/>
<feOffset dy="4"/>
<feGaussianBlur stdDeviation="4"/>
<feComposite in2="hardAlpha" operator="out"/>
<feColorMatrix type="matrix" values="0 0 0 0 0 0 0 0 0 0 0 0 0 0 0 0 0 0 0.35 0"/>
<feBlend mode="normal" in2="BackgroundImageFix" result="effect1_dropShadow_3467_8781"/>
<feBlend mode="normal" in="SourceGraphic" in2="effect1_dropShadow_3467_8781" result="shape"/>
</filter>
<linearGradient id="paint0_linear_3467_8781" x1="32" y1="0.378876" x2="32" y2="35.1615" gradientUnits="userSpaceOnUse">
<stop stop-color="#80FFC2"/>
<stop offset="1" stop-color="#80FFC2" stop-opacity="0"/>
</linearGradient>
<linearGradient id="paint1_linear_3467_8781" x1="32" y1="16.0588" x2="32" y2="48.3013" gradientUnits="userSpaceOnUse">
<stop stop-opacity="0"/>
<stop offset="1" stop-opacity="0.75"/>
</linearGradient>
<linearGradient id="paint2_linear_3467_8781" x1="32" y1="16.0588" x2="32" y2="48.3013" gradientUnits="userSpaceOnUse">
<stop stop-opacity="0"/>
<stop offset="1" stop-opacity="0.75"/>
</linearGradient>
<linearGradient id="paint3_linear_3467_8781" x1="32" y1="16.0588" x2="32" y2="48.3013" gradientUnits="userSpaceOnUse">
<stop stop-opacity="0"/>
<stop offset="1" stop-opacity="0.75"/>
</linearGradient>
<clipPath id="clip0_3467_8781">
<rect width="64" height="64" rx="24" fill="white"/>
</clipPath>
</defs>
</svg>
