<svg width="64" height="64" viewBox="0 0 64 64" fill="none" xmlns="http://www.w3.org/2000/svg">
<path d="M0 24C0 10.7452 10.7452 0 24 0H40C53.2548 0 64 10.7452 64 24V40C64 53.2548 53.2548 64 40 64H24C10.7452 64 0 53.2548 0 40V24Z" fill="#F3F5F6"/>
<path fill-rule="evenodd" clip-rule="evenodd" d="M19.676 39.352C23.9153 39.352 27.352 35.9153 27.352 31.676C27.352 27.4366 23.9153 24 19.676 24C15.4366 24 12 27.4366 12 31.676C12 35.9153 15.4366 39.352 19.676 39.352ZM19.7073 38.6314C23.5487 38.6314 26.6627 35.5173 26.6627 31.676C26.6627 27.8346 23.5487 24.7206 19.7073 24.7206C15.866 24.7206 12.7519 27.8346 12.7519 31.676C12.7519 35.5173 15.866 38.6314 19.7073 38.6314ZM19.676 38.0987C23.2232 38.0987 26.0987 35.2232 26.0987 31.676C26.0987 28.1288 23.2232 25.2532 19.676 25.2532C16.1288 25.2532 13.2532 28.1288 13.2532 31.676C13.2532 35.2232 16.1288 38.0987 19.676 38.0987ZM19.6916 37.3155C22.8149 37.3155 25.3468 34.7836 25.3468 31.6603C25.3468 28.5371 22.8149 26.0052 19.6916 26.0052C16.5684 26.0052 14.0365 28.5371 14.0365 31.6603C14.0365 34.7836 16.5684 37.3155 19.6916 37.3155ZM19.3725 27.0912L23.4666 34.1937L23.9056 33.4321L20.2505 27.0912H19.3725ZM15.4464 33.4192L18.9504 27.3403L18.9577 27.3528L18.9646 27.3409L23.1171 34.5448H22.2391L21.19 32.7248C20.7133 32.5741 20.2058 32.4929 19.6792 32.4929C19.4078 32.4929 19.143 32.5118 18.8854 32.5496L19.3911 31.6738C19.4866 31.6691 19.5826 31.6667 19.6792 31.6667C20.0009 31.6667 20.3165 31.6928 20.624 31.7429L18.9574 28.8516L15.8854 34.1809L15.4464 33.4192ZM17.8286 33.3268L19.4031 30.5953L18.9641 29.8337L16.2485 34.5447H17.1266L17.1349 34.5303C17.888 34.0768 18.7521 33.8477 19.6957 33.8477C20.2983 33.8477 20.876 33.9541 21.411 34.1492L20.8228 33.1303C20.4515 33.0578 20.0741 33.0214 19.6957 33.0216C19.0428 33.0216 18.4148 33.1289 17.8286 33.3268Z" fill="url(#paint0_linear_3467_8850)"/>
<path fill-rule="evenodd" clip-rule="evenodd" d="M31.0256 32.4431H32.4629L31.7406 30.3569L31.0256 32.4431ZM33.0479 34.1564L32.723 33.2173H30.7583L30.4333 34.1564H29.3571L31.1411 29.1382H32.3474L34.1241 34.1564H33.0479Z" fill="url(#paint1_linear_3467_8850)"/>
<path fill-rule="evenodd" clip-rule="evenodd" d="M35.5578 33.6547C35.1918 33.2819 35.0089 32.7872 35.0089 32.1707C35.0089 31.5542 35.1918 31.0596 35.5578 30.6868C35.9237 30.314 36.398 30.1277 36.9807 30.1277C37.467 30.1277 37.8738 30.2448 38.2013 30.4789C38.5287 30.7131 38.7477 31.0453 38.8586 31.4753H37.7607C37.6307 31.1456 37.3707 30.9807 36.9807 30.9807C36.6869 30.9807 36.457 31.0871 36.2909 31.2997C36.1248 31.5125 36.0417 31.8028 36.0417 32.1707C36.0417 32.5388 36.1248 32.8291 36.2909 33.0417C36.457 33.2544 36.6869 33.3607 36.9807 33.3607C37.3659 33.3607 37.6259 33.1935 37.7607 32.8589H38.8586C38.7431 33.2747 38.5203 33.6045 38.1905 33.8482C37.8606 34.0919 37.4574 34.2138 36.9807 34.2138C36.398 34.2138 35.9237 34.0275 35.5578 33.6547Z" fill="url(#paint2_linear_3467_8850)"/>
<path fill-rule="evenodd" clip-rule="evenodd" d="M42.8039 33.0275C43.0157 32.8196 43.1217 32.5341 43.1217 32.1708C43.1217 31.8077 43.0157 31.5221 42.8039 31.3141C42.592 31.1062 42.344 31.0023 42.06 31.0023C41.7758 31.0023 41.5291 31.1051 41.3197 31.3105C41.1101 31.5161 41.0054 31.8005 41.0054 32.1636C41.0054 32.5269 41.1113 32.8136 41.3232 33.0239C41.5351 33.2342 41.7819 33.3393 42.0635 33.3393C42.3453 33.3393 42.592 33.2354 42.8039 33.0275ZM40.5106 33.6367C40.1518 33.2521 39.9725 32.761 39.9725 32.1636C39.9725 31.5663 40.1506 31.0775 40.507 30.6976C40.8633 30.3176 41.3159 30.1277 41.8649 30.1277C42.4138 30.1277 42.8327 30.3524 43.1216 30.8015V30.185H44.1328V34.1565H43.1216V33.4898C42.8183 33.9726 42.3969 34.2138 41.8576 34.2138C41.3183 34.2138 40.8692 34.0215 40.5106 33.6367Z" fill="url(#paint3_linear_3467_8850)"/>
<path fill-rule="evenodd" clip-rule="evenodd" d="M45.6467 29.2H46.665V34.2106H45.6467V29.2Z" fill="url(#paint4_linear_3467_8850)"/>
<path fill-rule="evenodd" clip-rule="evenodd" d="M50.6709 33.0116C50.8827 32.8038 50.9886 32.5183 50.9886 32.155C50.9886 31.7919 50.8827 31.5062 50.6709 31.2983C50.4591 31.0905 50.2109 30.9865 49.9271 30.9865C49.6429 30.9865 49.396 31.0893 49.1868 31.2948C48.9771 31.5003 48.8725 31.7847 48.8725 32.1478C48.8725 32.5111 48.9784 32.7978 49.1902 33.0081C49.402 33.2184 49.6489 33.3235 49.9305 33.3235C50.2122 33.3235 50.4591 33.2196 50.6709 33.0116ZM48.3778 33.621C48.0191 33.2363 47.8395 32.7453 47.8395 32.1478C47.8395 31.5505 48.0175 31.0617 48.374 30.6818C48.7303 30.3018 49.183 30.1119 49.7319 30.1119C50.2808 30.1119 50.6997 30.3366 50.9886 30.7858V30.1692H51.9999V34.1407H50.9886V33.4741C50.6853 33.9568 50.2639 34.1981 49.7247 34.1981C49.1855 34.1981 48.7362 34.0057 48.3778 33.621Z" fill="url(#paint5_linear_3467_8850)"/>
<defs>
<linearGradient id="paint0_linear_3467_8850" x1="26.4904" y1="39.352" x2="15.1644" y2="25.3629" gradientUnits="userSpaceOnUse">
<stop stop-color="#5A81FF"/>
<stop offset="0.52" stop-color="#E40C5B"/>
<stop offset="1" stop-color="#FF4C3B"/>
</linearGradient>
<linearGradient id="paint1_linear_3467_8850" x1="52.2726" y1="35.0341" x2="50.4852" y2="25.9066" gradientUnits="userSpaceOnUse">
<stop stop-color="#645AFF"/>
<stop offset="0.02" stop-color="#645AFF"/>
<stop offset="0.48" stop-color="#E40C5B"/>
<stop offset="1" stop-color="#FF4C3B"/>
</linearGradient>
<linearGradient id="paint2_linear_3467_8850" x1="52.2725" y1="35.0342" x2="50.4851" y2="25.9067" gradientUnits="userSpaceOnUse">
<stop stop-color="#645AFF"/>
<stop offset="0.02" stop-color="#645AFF"/>
<stop offset="0.48" stop-color="#E40C5B"/>
<stop offset="1" stop-color="#FF4C3B"/>
</linearGradient>
<linearGradient id="paint3_linear_3467_8850" x1="52.2725" y1="35.0342" x2="50.4851" y2="25.9067" gradientUnits="userSpaceOnUse">
<stop stop-color="#645AFF"/>
<stop offset="0.02" stop-color="#645AFF"/>
<stop offset="0.48" stop-color="#E40C5B"/>
<stop offset="1" stop-color="#FF4C3B"/>
</linearGradient>
<linearGradient id="paint4_linear_3467_8850" x1="52.2725" y1="35.0342" x2="50.4851" y2="25.9067" gradientUnits="userSpaceOnUse">
<stop stop-color="#645AFF"/>
<stop offset="0.02" stop-color="#645AFF"/>
<stop offset="0.48" stop-color="#E40C5B"/>
<stop offset="1" stop-color="#FF4C3B"/>
</linearGradient>
<linearGradient id="paint5_linear_3467_8850" x1="52.2725" y1="35.0342" x2="50.4851" y2="25.9067" gradientUnits="userSpaceOnUse">
<stop stop-color="#645AFF"/>
<stop offset="0.02" stop-color="#645AFF"/>
<stop offset="0.48" stop-color="#E40C5B"/>
<stop offset="1" stop-color="#FF4C3B"/>
</linearGradient>
</defs>
</svg>
