<svg width="64" height="64" viewBox="0 0 64 64" fill="none" xmlns="http://www.w3.org/2000/svg">
<path d="M0 24C0 10.7452 10.7452 0 24 0H40C53.2548 0 64 10.7452 64 24V40C64 53.2548 53.2548 64 40 64H24C10.7452 64 0 53.2548 0 40V24Z" fill="#F3F5F6"/>
<path d="M17.8139 33.2156V30.1194C17.8139 30.1035 17.806 30.0875 17.798 30.0796C17.7901 30.0716 17.7741 30.0637 17.7582 30.0637H17.3125C17.2966 30.0637 17.2807 30.0716 17.2727 30.0796C17.2647 30.0875 17.2568 30.1035 17.2568 30.1194V33.7171C17.2568 33.733 17.2647 33.7489 17.2727 33.7569C17.2807 33.7648 17.2966 33.7728 17.3125 33.7728H19.6048C19.6207 33.7728 19.6367 33.7648 19.6446 33.7569C19.6526 33.7489 19.6605 33.733 19.6605 33.7171V33.2713C19.6605 33.2554 19.6526 33.2395 19.6446 33.2315C19.6367 33.2236 19.6207 33.2156 19.6048 33.2156H17.8139Z" fill="black"/>
<path d="M23.5528 30.0716H20.8863C20.8545 30.0716 20.8306 30.0955 20.8306 30.1273V30.5731C20.8306 30.6049 20.8545 30.6288 20.8863 30.6288H23.5528C23.5846 30.6288 23.6085 30.6049 23.6085 30.5731V30.1273C23.6085 30.0955 23.5846 30.0716 23.5528 30.0716Z" fill="black"/>
<path d="M23.5528 33.2156H20.8863C20.8545 33.2156 20.8306 33.2395 20.8306 33.2714V33.7171C20.8306 33.7489 20.8545 33.7728 20.8863 33.7728H23.5528C23.5846 33.7728 23.6085 33.7489 23.6085 33.7171V33.2714C23.6085 33.2395 23.5846 33.2156 23.5528 33.2156Z" fill="black"/>
<path d="M23.5528 31.6397H20.8863C20.8545 31.6397 20.8306 31.6636 20.8306 31.6954V32.1411C20.8306 32.173 20.8545 32.1968 20.8863 32.1968H23.5528C23.5846 32.1968 23.6085 32.173 23.6085 32.1411V31.6954C23.6085 31.6636 23.5846 31.6397 23.5528 31.6397Z" fill="black"/>
<path d="M43.1013 30.0716H40.4349C40.403 30.0716 40.3792 30.0955 40.3792 30.1273V30.5731C40.3792 30.6049 40.403 30.6288 40.4349 30.6288H43.1013C43.1331 30.6288 43.157 30.6049 43.157 30.5731V30.1273C43.157 30.0955 43.1331 30.0716 43.1013 30.0716Z" fill="black"/>
<path d="M43.1013 33.2156H40.4349C40.403 33.2156 40.3792 33.2395 40.3792 33.2714V33.7171C40.3792 33.7489 40.403 33.7728 40.4349 33.7728H43.1013C43.1331 33.7728 43.157 33.7489 43.157 33.7171V33.2714C43.157 33.2395 43.1331 33.2156 43.1013 33.2156Z" fill="black"/>
<path d="M43.1013 31.6397H40.4349C40.403 31.6397 40.3792 31.6636 40.3792 31.6954V32.1411C40.3792 32.173 40.403 32.1968 40.4349 32.1968H43.1013C43.1331 32.1968 43.157 32.173 43.157 32.1411V31.6954C43.157 31.6636 43.1331 31.6397 43.1013 31.6397Z" fill="black"/>
<path d="M32.3878 30.0716H31.9421C31.9102 30.0716 31.8864 30.0955 31.8864 30.1273V33.7171C31.8864 33.7489 31.9102 33.7728 31.9421 33.7728H32.3878C32.4196 33.7728 32.4435 33.7489 32.4435 33.7171V30.1194C32.4435 30.0955 32.4196 30.0716 32.3878 30.0716Z" fill="black"/>
<path d="M31.2735 31.6396H29.8487V30.1194C29.8487 30.1035 29.8407 30.0875 29.8328 30.0796C29.8248 30.0716 29.8089 30.0637 29.793 30.0637H29.3473C29.3313 30.0637 29.3154 30.0716 29.3075 30.0796C29.2995 30.0875 29.2915 30.1035 29.2915 30.1194V31.6396H28.7901C28.7742 31.6396 28.7583 31.6476 28.7503 31.6556C28.7423 31.6635 28.7344 31.6794 28.7344 31.6954V32.1411C28.7344 32.157 28.7423 32.1729 28.7503 32.1809C28.7583 32.1888 28.7742 32.1968 28.7901 32.1968H29.2915V33.7171C29.2915 33.733 29.2995 33.7489 29.3075 33.7569C29.3154 33.7648 29.3313 33.7728 29.3473 33.7728H29.793C29.8089 33.7728 29.8248 33.7648 29.8328 33.7569C29.8407 33.7489 29.8487 33.733 29.8487 33.7171V32.1968H31.2735C31.2894 32.1968 31.3053 32.1888 31.3133 32.1809C31.3212 32.1729 31.3292 32.157 31.3292 32.1411V31.6954C31.3292 31.6794 31.3212 31.6635 31.3133 31.6556C31.3053 31.6476 31.2894 31.6396 31.2735 31.6396Z" fill="black"/>
<path d="M15.2112 32.1968H15.8241C15.84 32.1968 15.8559 32.1888 15.8639 32.1809C15.8719 32.1729 15.8798 32.157 15.8798 32.1411V31.6954C15.8798 31.6794 15.8719 31.6635 15.8639 31.6556C15.8559 31.6476 15.84 31.6396 15.8241 31.6396H14.9645L14.2879 30.1114C14.28 30.0955 14.272 30.0875 14.264 30.0796C14.2561 30.0716 14.2402 30.0637 14.2242 30.0637H13.6671C13.6512 30.0637 13.6352 30.0716 13.6273 30.0796C13.6114 30.0875 13.6034 30.0955 13.6034 30.1114L12.9268 31.6396H12.0513C12.0433 31.6396 12.0354 31.6396 12.0274 31.6476C12.0195 31.6476 12.0115 31.6556 12.0115 31.6635C12.0035 31.6715 12.0035 31.6715 12.0035 31.6794C12.0035 31.6874 12.0035 31.6954 12.0035 31.7033V32.149C12.0035 32.165 12.0115 32.1809 12.0195 32.1888C12.0274 32.1968 12.0433 32.2048 12.0593 32.2048H12.6721L12.0035 33.7011C12.0035 33.7091 11.9956 33.7171 12.0035 33.725C12.0035 33.733 12.0035 33.7409 12.0115 33.7489C12.0195 33.7569 12.0195 33.7648 12.0274 33.7648C12.0354 33.7648 12.0433 33.7728 12.0513 33.7728H12.5448C12.5607 33.7728 12.5766 33.7648 12.5846 33.7569C12.6005 33.7489 12.6085 33.7409 12.6085 33.725L13.9297 30.7482L15.251 33.725C15.259 33.7409 15.2669 33.7489 15.2749 33.7569C15.2908 33.7648 15.2988 33.7728 15.3147 33.7728H15.8082C15.8161 33.7728 15.8241 33.7728 15.8321 33.7648C15.84 33.7569 15.848 33.7569 15.8559 33.7489C15.8639 33.7409 15.8639 33.733 15.8639 33.725C15.8639 33.7171 15.8639 33.7091 15.8559 33.7011L15.2112 32.1968Z" fill="black"/>
<path d="M27.8191 30.8915C27.7156 30.6447 27.5405 30.4378 27.3256 30.2945C27.1027 30.1512 26.848 30.0716 26.5853 30.0716H25.0173C25.0014 30.0716 24.9855 30.0796 24.9775 30.0875C24.9696 30.0955 24.9616 30.1114 24.9616 30.1273V30.5731C24.9616 30.589 24.9696 30.6049 24.9775 30.6129C24.9855 30.6208 25.0014 30.6288 25.0173 30.6288H26.5853C26.6888 30.6288 26.7923 30.6527 26.8878 30.6925C27.0311 30.7482 27.1505 30.8517 27.238 30.979C27.3256 31.1064 27.3733 31.2655 27.3733 31.4168C27.3733 31.5203 27.3495 31.6237 27.3097 31.7192C27.246 31.8625 27.1505 31.9819 27.0231 32.0695C26.8958 32.157 26.7366 32.2048 26.5853 32.2048H25.0173C25.0014 32.2048 24.9855 32.2127 24.9775 32.2207C24.9696 32.2286 24.9616 32.2446 24.9616 32.2605V33.7171C24.9616 33.733 24.9696 33.7489 24.9775 33.7569C24.9855 33.7648 25.0014 33.7728 25.0173 33.7728H25.4631C25.479 33.7728 25.4949 33.7648 25.5029 33.7569C25.5108 33.7489 25.5188 33.733 25.5188 33.7171V32.754H26.5853C26.9435 32.754 27.2858 32.6107 27.5325 32.364C27.7872 32.1093 27.9225 31.767 27.9225 31.4168C27.9305 31.2337 27.8907 31.0506 27.8191 30.8915Z" fill="black"/>
<path d="M47.2482 32.165C47.3994 31.9421 47.479 31.6794 47.479 31.4168C47.479 31.2417 47.4472 31.0666 47.3755 30.8994C47.3119 30.7402 47.2084 30.589 47.081 30.4616C46.9537 30.3343 46.8104 30.2388 46.6433 30.1671C46.4841 30.1035 46.309 30.0637 46.1259 30.0637H44.5579C44.542 30.0637 44.526 30.0716 44.5181 30.0796C44.5101 30.0875 44.5022 30.1035 44.5022 30.1194V30.5651C44.5022 30.581 44.5101 30.5969 44.5181 30.6049C44.526 30.6129 44.542 30.6208 44.5579 30.6208H46.1259C46.2294 30.6208 46.3328 30.6447 46.4284 30.6845C46.5716 30.7482 46.691 30.8437 46.7786 30.971C46.8661 31.0984 46.9059 31.2496 46.9059 31.4088C46.9059 31.5123 46.8821 31.6158 46.8423 31.7113C46.7786 31.8545 46.6831 31.9739 46.5557 32.0615C46.4284 32.149 46.2692 32.1968 46.1179 32.1968H44.5499C44.534 32.1968 44.5181 32.2048 44.5101 32.2127C44.5022 32.2207 44.4942 32.2366 44.4942 32.2525V33.7171C44.4942 33.733 44.5022 33.7489 44.5101 33.7569C44.5181 33.7648 44.534 33.7728 44.5499 33.7728H44.9956C45.0116 33.7728 45.0275 33.7648 45.0354 33.7569C45.0434 33.7489 45.0514 33.733 45.0514 33.7171V32.754H46.1179C46.2135 32.754 46.301 32.746 46.3965 32.7221L46.8502 33.7409C46.8582 33.7489 46.8582 33.7569 46.8741 33.7648C46.8821 33.7728 46.89 33.7728 46.9059 33.7728H47.4153C47.4233 33.7728 47.4313 33.7728 47.4392 33.7648C47.4472 33.7569 47.4551 33.7569 47.4631 33.7489C47.4711 33.7409 47.4711 33.733 47.4711 33.725C47.4711 33.7171 47.4711 33.7091 47.4631 33.7011L46.9298 32.4913C47.0651 32.3958 47.1686 32.2844 47.2482 32.165Z" fill="black"/>
<path d="M39.1614 30.0716H36.4949C36.479 30.0716 36.4631 30.0796 36.4551 30.0875C36.4472 30.0955 36.4392 30.1114 36.4392 30.1273V30.5731C36.4392 30.589 36.4472 30.6049 36.4551 30.6129C36.4631 30.6208 36.479 30.6288 36.4949 30.6288H38.3893L37.6491 31.568C37.6411 31.576 37.6411 31.5839 37.6411 31.5919C37.6411 31.5998 37.6411 31.6078 37.6491 31.6158C37.6491 31.6237 37.657 31.6317 37.665 31.6317C37.6729 31.6396 37.6809 31.6396 37.6889 31.6396H38.254C38.2699 31.6396 38.2858 31.6396 38.3017 31.6317C38.3176 31.6237 38.3336 31.6158 38.3415 31.5998L39.1932 30.5094C39.2091 30.4935 39.2171 30.4696 39.2171 30.4378V30.1194C39.2171 30.1114 39.2171 30.1035 39.2091 30.0955C39.2091 30.0875 39.2012 30.0796 39.1932 30.0796C39.1852 30.0716 39.1852 30.0716 39.1773 30.0716C39.1693 30.0716 39.1693 30.0716 39.1614 30.0716Z" fill="black"/>
<path d="M39.1613 33.2157H37.0759L37.8162 32.2764C37.8241 32.2685 37.8241 32.2605 37.8241 32.2526C37.8241 32.2446 37.8241 32.2366 37.8162 32.2287C37.8162 32.2207 37.8082 32.2128 37.8002 32.2128C37.7923 32.2048 37.7843 32.2048 37.7764 32.2048H37.2112C37.1953 32.2048 37.1794 32.2048 37.1635 32.2128C37.1476 32.2207 37.1316 32.2287 37.1237 32.2446L36.28 33.3191C36.2641 33.3351 36.2561 33.3589 36.2561 33.3908V33.7171C36.2561 33.733 36.2641 33.7489 36.272 33.7569C36.28 33.7649 36.2959 33.7728 36.3118 33.7728H39.1613C39.1772 33.7728 39.1932 33.7649 39.2011 33.7569C39.2091 33.7489 39.217 33.733 39.217 33.7171V33.2714C39.217 33.2634 39.217 33.2555 39.2091 33.2475C39.2091 33.2395 39.2011 33.2316 39.2011 33.2316C39.1932 33.2236 39.1932 33.2236 39.1852 33.2157C39.1772 33.2157 39.1693 33.2157 39.1613 33.2157Z" fill="black"/>
<path d="M51.4906 32.1968C51.4747 32.1968 51.4667 32.2048 51.4588 32.2127C51.4508 32.2207 51.4428 32.2366 51.4428 32.2446C51.4269 32.3321 51.403 32.4197 51.3712 32.4993C51.2916 32.7301 51.1404 32.9291 50.9334 33.0724C50.7344 33.2077 50.5036 33.2793 50.2648 33.2714C50.1056 33.2714 49.9465 33.2395 49.7952 33.1758C49.5803 33.0803 49.3972 32.9291 49.2699 32.7222C49.1823 32.5709 49.1187 32.4117 49.0868 32.2366C49.0868 32.2207 49.0789 32.2127 49.0709 32.2048C49.063 32.1968 49.047 32.1889 49.0311 32.1889H48.5774C48.5695 32.1889 48.5615 32.1889 48.5535 32.1968C48.5456 32.1968 48.5376 32.2048 48.5376 32.2127C48.5297 32.2207 48.5297 32.2287 48.5297 32.2366C48.5297 32.2446 48.5297 32.2525 48.5297 32.2605C48.5535 32.4117 48.5854 32.555 48.6411 32.6903C48.7605 33.0246 48.9834 33.3112 49.2699 33.5181C49.5644 33.7251 49.9067 33.8285 50.2648 33.8206C50.4957 33.8206 50.7344 33.7728 50.9493 33.6853C51.2757 33.5499 51.5463 33.3112 51.7294 33.0167C51.8727 32.7858 51.9602 32.5232 52 32.2525C52 32.2446 52 32.2366 52 32.2287C52 32.2207 51.992 32.2127 51.992 32.2048C51.9841 32.1968 51.9841 32.1968 51.9761 32.1889C51.9682 32.1889 51.9602 32.1809 51.9522 32.1809H51.4906V32.1968Z" fill="black"/>
<path d="M49.0311 31.6397C49.047 31.6397 49.055 31.6317 49.063 31.6237C49.0709 31.6158 49.0789 31.5999 49.0789 31.5919C49.0948 31.5043 49.1187 31.4168 49.1505 31.3292C49.2301 31.0984 49.3813 30.8994 49.5803 30.7641C49.7793 30.6288 50.0101 30.5572 50.2489 30.5651C50.4081 30.5651 50.5673 30.597 50.7185 30.6606C50.9334 30.7482 51.1165 30.9074 51.2439 31.1143C51.3314 31.2656 51.3951 31.4327 51.4269 31.5999C51.4269 31.6158 51.4349 31.6237 51.4429 31.6317C51.4508 31.6397 51.4667 31.6476 51.4747 31.6476H51.9284C51.9363 31.6476 51.9443 31.6476 51.9523 31.6397C51.9602 31.6397 51.9682 31.6317 51.9682 31.6237C51.9761 31.6158 51.9761 31.6078 51.9761 31.5999C51.9761 31.5919 51.9761 31.5839 51.9761 31.576C51.9523 31.4248 51.9204 31.2815 51.8647 31.1382C51.7453 30.8039 51.5224 30.5094 51.2279 30.3025C50.9414 30.1035 50.5912 30 50.241 30C50.0101 30 49.7714 30.0478 49.5565 30.1353C49.2301 30.2706 48.9595 30.5094 48.7764 30.8039C48.6331 31.0347 48.5456 31.2974 48.5058 31.568C48.5058 31.576 48.5058 31.5839 48.5058 31.5919C48.5058 31.5999 48.5138 31.6078 48.5138 31.6158C48.5217 31.6237 48.5217 31.6237 48.5297 31.6317C48.5376 31.6317 48.5456 31.6397 48.5536 31.6397H49.0311Z" fill="black"/>
</svg>
