<svg width="64" height="64" viewBox="0 0 64 64" fill="none" xmlns="http://www.w3.org/2000/svg">
<path d="M0 24C0 10.7452 10.7452 0 24 0H40C53.2548 0 64 10.7452 64 24V40C64 53.2548 53.2548 64 40 64H24C10.7452 64 0 53.2548 0 40V24Z" fill="#F3F5F6"/>
<g clip-path="url(#clip0_3467_8795)">
<path d="M52 32.0002C52 20.9441 43.0344 12.0002 32 12.0002C20.9439 12.0002 12 20.9441 12 32.0002C12 43.0347 20.9439 52.0002 32 52.0002C43.0344 52.0002 52 43.0347 52 32.0002Z" fill="url(#paint0_radial_3467_8795)"/>
<path d="M45.5991 25.7505C45.5129 26.2462 45.4267 26.4833 45.2974 26.7419C45.1681 27.0436 45.0387 27.3669 44.9094 28.0566C44.8663 28.3152 44.8232 28.5307 44.8017 28.7031V28.7247C44.7586 29.0048 44.737 29.1988 44.6293 29.5221C44.5431 29.8022 44.3922 30.2548 44.0258 30.729C43.7241 31.1169 43.2284 31.785 42.5603 31.8712C42.4956 31.8712 42.3879 31.8712 42.3232 31.8497C40.4267 30.8798 38.8103 30.1686 38.25 30.0178C37.6034 29.8238 37.6896 28.4014 37.7543 27.1514C37.7974 26.591 37.8189 26.0522 37.7974 25.5997C37.7112 24.0048 37.431 22.2807 36.0517 21.4402C35.2327 20.9445 34.1551 20.7936 33.1422 20.7936C33.3362 20.7074 33.5301 20.5781 33.7672 20.4488C34.3706 20.104 35.1034 19.6729 35.8577 19.5867C36.0948 19.5652 36.3319 19.5436 36.5689 19.5005C38.056 19.3281 39.3491 19.1772 40.7069 19.6514C41.3319 19.8669 42.5819 20.5566 42.9051 21.2247C43.1422 21.6772 43.5301 22.0436 44.2844 22.7548C44.6939 23.1212 44.9525 23.3367 45.1465 23.5091C45.4267 23.7247 45.4698 23.7893 45.556 23.9402C45.8146 24.4574 45.7284 24.9962 45.5991 25.7505Z" fill="white"/>
<path d="M38.7241 32.2807C38.8103 32.3023 38.8534 32.41 38.7887 32.4962C38.5948 32.7979 38.3577 33.229 38.0775 33.7247C37.9482 33.9617 37.8189 34.1988 37.7112 34.3712C37.3448 34.9962 37.3232 35.535 37.3017 35.9445C37.2801 36.3971 37.2586 36.5911 36.9784 36.7635C36.7629 36.9143 36.5258 36.9574 34.9741 37.1945C34.6939 37.2376 34.5862 37.2807 34.4784 37.3454C34.4569 37.3669 34.4137 37.3669 34.3922 37.3885C34.306 37.4316 34.2198 37.3454 34.2198 37.2592C34.2413 37.0436 34.2413 36.7635 34.2413 36.3971V36.3324C34.2413 36.0307 34.2413 35.7721 34.2198 35.5781C34.1982 35.1902 34.1982 35.0178 34.306 34.8454C34.4353 34.6298 34.5431 34.5652 34.6939 34.4574C34.931 34.3066 35.2543 34.1126 35.7068 33.4661C35.9655 33.1212 36.0086 32.9273 36.0517 32.7764C36.0732 32.7117 36.0732 32.6902 36.2672 32.5393C36.4612 32.3885 37.0862 31.9143 37.8836 32.0436C38.1422 32.0867 38.4224 32.1729 38.7241 32.2807Z" fill="white"/>
<path d="M32.5388 39.4359C32.4957 39.479 32.4741 39.5005 32.4095 39.5005C32.2371 39.5005 32.1293 39.4574 32.0646 39.3712C31.9138 39.1772 31.9353 38.7893 31.9569 38.5522L32.625 38.3798C32.6681 38.7462 32.6896 39.2419 32.5388 39.4359Z" fill="white"/>
<path d="M32.5818 37.0652C32.5603 37.1514 32.5603 37.2591 32.5603 37.3885C32.5603 37.4316 32.5603 37.4747 32.5603 37.5178C32.5603 37.6255 32.5603 37.7979 32.5603 37.8841C32.3448 37.9488 32.1724 37.9488 31.9568 37.9488C31.9568 37.8841 31.9568 37.7764 31.9568 37.7117C31.9568 37.6686 31.9568 37.604 31.9568 37.5609C31.9568 37.4962 31.9568 37.4531 31.9568 37.3885C31.9568 37.2591 31.9568 37.0652 31.9784 37.0005C32.0431 37.0005 32.1077 36.979 32.1724 36.9574C32.3017 36.9359 32.4956 36.8928 32.6034 36.9143C32.6034 36.9574 32.6034 37.0221 32.5818 37.0652Z" fill="white"/>
<path d="M31.375 39.2419C31.3534 39.5867 31.2456 39.9962 30.9224 40.0609C30.7715 40.0824 30.7069 40.0393 30.6638 39.9962C30.4482 39.8023 30.4267 39.1988 30.4482 38.7678C30.5991 38.7678 30.7715 38.7462 30.987 38.7031C31.1163 38.6816 31.2456 38.6385 31.3534 38.6169C31.375 38.7893 31.3965 39.0048 31.375 39.2419Z" fill="white"/>
<path d="M31.2241 38.035L30.5129 38.2936C30.556 38.0134 30.5991 37.6255 30.6207 37.3669C30.6422 37.1945 30.6853 37.1298 30.7069 37.1083C30.7069 37.1083 30.7284 37.0867 30.75 37.0867C30.75 37.0867 30.75 37.0867 30.7715 37.0867H30.7931L31.2457 37.0652C31.2241 37.2807 31.2241 37.7548 31.2241 38.035Z" fill="white"/>
<path d="M30.0603 37.8195C30.0172 37.9272 29.9741 38.2289 29.9526 38.4445L29.0689 38.4229C29.112 38.1427 29.1982 37.8626 29.2629 37.647C29.3491 37.4315 29.4138 37.2591 29.5 37.216C29.5862 37.1729 29.7801 37.1514 29.9095 37.2591C30.1034 37.3884 30.1465 37.5824 30.0603 37.8195Z" fill="white"/>
<path d="M29.737 40.5566C29.6724 40.6428 29.5862 40.7075 29.5 40.7075C29.3922 40.729 29.3276 40.6859 29.2629 40.6428C28.9827 40.3842 29.0043 39.5437 29.0258 39.1342C29.3922 39.048 29.8017 38.9833 29.9957 38.9618C29.9957 39.285 30.0172 40.1687 29.737 40.5566Z" fill="white"/>
<path d="M28.5732 38.3799C28.5301 38.4876 28.487 38.5954 28.4655 38.7031C28.3577 38.7463 28.0344 38.7031 27.7112 38.6385L27.9267 37.2376C28.2931 37.1299 28.7241 37.1083 28.8103 37.2161C28.9612 37.3669 28.681 38.0781 28.5732 38.3799Z" fill="white"/>
<path d="M28.1638 40.7505C27.9914 40.966 27.7327 41.0738 27.3664 41.0522C27.1077 41.0522 27.0215 40.9444 26.9784 40.8798C26.7845 40.5565 26.9784 39.8022 27.1724 39.3281L28.3793 39.3927C28.4008 39.4789 28.4008 39.5867 28.4008 39.6944C28.4224 40.0608 28.3793 40.4919 28.1638 40.7505Z" fill="white"/>
<path d="M38.1637 30.5566C37.0646 30.2549 37.1724 28.66 37.2586 27.1083C37.2801 26.5695 37.3232 26.0523 37.3017 25.6212C37.2155 24.1773 36.9784 22.604 35.8146 21.8928C34.5646 21.1385 32.5172 21.3109 31.2672 21.4618C30.8146 21.5911 30.3836 21.6988 30.0387 21.6773C29.306 21.6342 28.7241 21.3324 28.2068 21.0523C27.8189 20.8368 27.4741 20.6428 27.1293 20.6428C27.1077 20.6428 27.0862 20.6428 27.0862 20.6428C26.1163 20.7074 25.6637 20.9445 25.2543 21.3109C25.1465 21.3971 25.0172 21.6557 24.6077 22.8411C24.3922 23.4445 24.3706 23.7678 24.3275 24.0695C24.2844 24.3497 24.2629 24.6514 24.112 25.104C24.0043 25.4057 23.9181 25.6643 23.8534 25.923C23.6594 26.5911 23.487 27.1299 23.0129 27.7764C22.9482 27.8411 22.8836 27.9704 22.7974 28.0781C22.6896 28.2506 22.5603 28.4661 22.3663 28.7031C22.237 28.8756 21.9568 29.5221 21.9784 29.7161C22 30.0393 22.1077 30.2333 22.2155 30.4488C22.3232 30.6643 22.4741 30.923 22.4956 31.2893V31.354C22.5387 31.9143 22.4525 32.1945 21.3965 33.1428C20.7284 33.7462 20.2327 34.3281 19.9094 34.7592C19.8879 34.8023 19.9094 34.8454 19.9741 34.8454C19.9956 34.8454 19.9956 34.8454 19.9956 34.8454C20.0172 34.8454 20.0387 34.8454 20.0603 34.8454C20.0818 34.8454 20.1034 34.8454 20.125 34.8454C20.1465 34.8454 20.1681 34.8454 20.1896 34.8454C20.4482 34.8669 20.7068 34.9747 20.8793 35.1687C20.9008 35.2118 20.9655 35.2118 21.0086 35.1902C21.181 35.1256 21.375 35.1256 21.5474 35.1471C21.7629 35.1687 22 35.2333 22.1508 35.3842C22.1939 35.4273 22.2586 35.4488 22.3232 35.4273C22.4956 35.3842 22.6896 35.3842 22.862 35.4488C22.9913 35.4919 23.1206 35.5781 23.2068 35.6859C23.2715 35.7506 23.3793 35.7721 23.4655 35.729C23.5086 35.7074 23.5732 35.6643 23.6379 35.6428C23.875 35.5566 24.1336 35.5997 24.3491 35.6859C24.4568 35.729 24.5646 35.7506 24.6724 35.8368C24.8448 35.9661 24.9741 36.1385 25.0387 36.3324C25.0818 36.4402 25.2327 36.4833 25.3189 36.3971C25.4913 36.2678 25.6206 36.2462 25.75 36.2893C25.8146 36.3109 25.8577 36.354 25.9008 36.4187C25.9655 36.5049 26.0732 36.5911 26.1594 36.548C26.5258 36.4402 26.9568 36.5049 27.2801 36.6773C27.3879 36.7419 27.5172 36.8281 27.5818 36.9574V36.8928C27.5818 36.8712 27.6034 36.8497 27.6249 36.8281L27.6896 36.8066C27.862 36.7419 28.7672 36.4833 29.112 36.8497C29.1336 36.8712 29.1551 36.8712 29.1767 36.8497C29.2198 36.8066 29.2629 36.7635 29.2844 36.7635C29.5215 36.6342 29.9094 36.6126 30.1681 36.8497C30.2112 36.8928 30.2974 36.8712 30.3405 36.8281C30.362 36.785 30.3836 36.7635 30.4267 36.7419C30.5129 36.6557 30.6422 36.6342 30.7715 36.6342L31.2672 36.6126C31.3965 36.6126 31.7844 36.5695 31.8922 36.548H31.9137C31.9568 36.548 32.0215 36.5264 32.0862 36.5049C32.3232 36.4618 32.6034 36.3971 32.8189 36.5049C33.0344 36.6126 33.0129 36.8497 32.9913 37.0652C32.9913 37.1514 32.9698 37.2376 32.9698 37.3238C32.9698 37.3669 32.9698 37.41 32.9698 37.4531C32.9698 37.6471 32.9698 37.8195 32.9482 37.9488L32.9698 38.0566C32.9698 38.0566 32.9698 38.0566 32.9698 38.0781C32.9913 38.1643 33.0991 38.229 33.1637 38.1643C33.3362 38.0566 33.5086 37.9273 33.5732 37.8411V37.8195C33.5732 37.798 33.5948 37.7549 33.6163 37.6687C33.6379 37.4747 33.681 37.1083 33.681 36.354C33.681 36.3109 33.681 36.2893 33.681 36.2678C33.681 35.9876 33.681 35.7506 33.6594 35.5566C33.6379 35.1471 33.6163 34.8238 33.8318 34.5006C34.0258 34.1773 34.2198 34.0695 34.4137 33.9402C34.6293 33.8109 34.8663 33.66 35.2758 33.0997C35.4698 32.8195 35.4913 32.7118 35.5129 32.6256C35.556 32.41 35.6206 32.2807 35.9439 32.0652C36.2025 31.8712 36.9568 31.2893 37.9913 31.4618C38.3362 31.5264 38.875 31.6988 39.4353 31.9143C39.4568 31.9143 39.4784 31.9359 39.4999 31.9359H39.5215C40.0172 32.1299 40.4698 32.3454 40.7931 32.5178C40.8577 32.5609 40.9439 32.5393 41.0086 32.4747C41.1163 32.3454 41.2241 32.2807 41.3318 32.1945C41.375 32.173 41.4181 32.1514 41.4396 32.1299C41.4612 32.1299 41.4612 32.1083 41.4612 32.1083C41.5474 32.0437 41.5474 31.8712 41.4396 31.8281C39.9956 31.1169 38.6163 30.6859 38.1637 30.5566ZM27.7758 30.8799C27.431 32.3454 25.1465 33.9833 24.112 33.9833H24.0905C24.0689 33.9833 24.0474 33.9833 24.0474 33.9833C24.0258 33.9833 24.0043 33.9833 23.9827 33.9618C23.9612 33.9618 23.9612 33.9618 23.9396 33.9618C23.7456 33.8971 23.487 33.7678 23.2931 33.5738C23.1637 33.4445 23.056 33.2721 23.0129 33.1212C23.0129 33.0997 22.9913 33.0566 22.9913 33.035C22.9267 32.7764 22.862 32.4747 23.0775 31.9574C23.0991 31.8928 23.1422 31.8281 23.1637 31.7635C23.1637 31.7419 23.1853 31.7204 23.1853 31.6988C23.2068 31.6342 23.2284 31.5911 23.25 31.548C23.2715 31.4618 23.3146 31.3971 23.3362 31.354C23.3362 31.3324 23.3577 31.3109 23.3577 31.2893C23.4224 31.1169 23.4224 31.0523 23.4439 30.9876C23.4439 30.9445 23.4655 30.8583 23.487 30.7721C23.5517 30.4919 23.5948 30.2549 23.6163 30.0609C23.6594 29.6945 23.7241 29.3712 23.9181 29.0695C23.9612 29.0264 23.9827 28.9833 24.0258 28.9402C24.0474 28.9187 24.0474 28.9187 24.0689 28.8971C24.0905 28.8756 24.0905 28.8756 24.112 28.854C24.1551 28.8109 24.2198 28.7893 24.2629 28.7678C24.2844 28.7678 24.306 28.7462 24.3275 28.7462C24.3706 28.7247 24.4137 28.7247 24.4568 28.7031C24.6508 28.66 24.8663 28.66 25.125 28.6816C25.4051 28.7031 25.6637 28.7462 25.8793 28.8109C26.0732 28.854 26.2456 28.9187 26.3749 28.9833C26.3965 28.9833 26.3965 29.0049 26.4181 29.0049C26.4396 29.0264 26.4612 29.0264 26.5043 29.048C26.5474 29.0695 26.5689 29.0695 26.612 29.0911C26.6551 29.1126 26.6982 29.1342 26.7413 29.1557L26.7844 29.1773C26.9353 29.2419 27.0862 29.3281 27.1939 29.4143C27.2586 29.4574 27.3017 29.5006 27.3448 29.5437C27.3663 29.5652 27.3879 29.5652 27.3879 29.5868C27.4094 29.6083 27.4094 29.6083 27.431 29.6299C27.8836 30.0178 27.862 30.5566 27.7758 30.8799ZM28.8534 25.298L28.8103 25.5566C28.7025 26.16 28.4655 26.979 27.6034 27.1945C26.7629 27.3885 26.5689 27.4316 25.987 27.4747C25.9655 27.4747 25.9655 27.4747 25.9439 27.4747C25.5129 27.4747 24.6724 27.1945 24.5215 26.5264C24.4353 26.0954 24.6293 25.7721 24.931 25.2549C24.9741 25.1687 25.0387 25.0824 25.1034 24.9747C25.5344 24.2635 25.6853 23.7462 25.8146 23.3368C25.9439 22.9273 26.0517 22.604 26.3318 22.3238C26.3965 22.2592 26.4612 22.1945 26.5474 22.1514C26.5905 22.1083 26.6551 22.0868 26.7198 22.0437C26.806 22.0006 26.8922 21.979 26.9784 21.9359C27.1724 21.8712 27.3879 21.8497 27.5818 21.8497C27.9913 21.8497 28.4008 21.9574 28.681 22.1945C28.8103 22.3023 29.0043 22.4962 29.112 23.1212C29.1551 23.4445 29.0689 24.0264 28.8534 25.298ZM35.0387 27.0221C34.737 27.5393 34.5862 27.8195 34.3275 28.035C33.8103 28.4661 33.2284 28.5523 32.7327 28.5523C32.3879 28.5523 32.0862 28.4876 31.8922 28.4661C31.375 28.3799 30.4482 28.2074 30.1249 27.4531C30.0603 27.3023 30.0603 27.2161 30.0603 27.0868C30.0603 26.979 30.0603 26.7635 29.9956 26.3109V26.2893C29.9741 26.0738 29.9525 25.8368 29.9956 25.535V25.4919C30.1681 24.5868 30.2327 24.4574 30.2543 24.3712C30.3405 24.1988 30.556 24.1126 30.7499 24.2204C30.9224 24.3066 30.987 24.5221 30.9224 24.6945C30.9008 24.7376 30.8577 24.9316 30.7068 25.6428V25.6859C30.6637 25.8799 30.6853 26.0307 30.7068 26.2247V26.2462C30.7715 26.7635 30.7715 26.979 30.7715 27.1083C30.7715 27.1299 30.7715 27.1514 30.7715 27.173V27.1945C30.8362 27.3454 30.9655 27.4316 31.1163 27.5178C31.2241 27.5609 31.3318 27.4747 31.3103 27.3669C31.1594 26.5695 31.1594 25.6428 31.4612 25.0609C31.5689 24.8669 31.7413 24.5652 31.9137 24.2635C31.9353 24.2419 31.9568 24.1988 31.9568 24.1773C31.9784 24.1557 31.9784 24.1342 32 24.1126C32.0862 23.9833 32.1508 23.8756 32.2155 23.7678C32.2155 23.7462 32.237 23.7462 32.237 23.7247L32.2586 23.7031C32.2801 23.6816 32.2801 23.66 32.3017 23.6385C32.3017 23.6385 32.3017 23.6169 32.3232 23.6169L32.3448 23.5954C32.3448 23.5738 32.3663 23.5738 32.3663 23.5523C32.431 23.4661 32.4956 23.3799 32.5387 23.2937C32.625 23.1859 32.5172 23.0566 32.4094 23.0997C32.1077 23.229 31.9137 23.3799 31.8706 23.4014C31.7198 23.5307 31.4827 23.5092 31.3534 23.3368C31.2241 23.1859 31.2456 22.9488 31.4181 22.8195C31.612 22.6687 32.6034 21.9574 33.7887 22.2807C34.6508 22.5178 35.0818 23.1859 35.2543 23.423C35.3836 23.6169 35.8146 24.2204 35.7931 25.0824C35.7931 25.7074 35.5344 26.1816 35.0387 27.0221Z" fill="white"/>
<path d="M27.3233 22.6039C27.2586 22.7548 27.194 22.9272 27.1077 23.1212C26.9353 23.5737 26.7198 24.091 26.6121 24.2849C26.4396 24.6082 26.3103 24.8237 26.2026 24.9746C26.0733 25.1686 25.9871 25.3194 25.9008 25.5349C25.7715 25.9013 25.75 26.3108 25.8362 26.7634C25.5991 26.7418 25.2327 26.591 25.1896 26.3755C25.1681 26.2246 25.2543 26.0737 25.5129 25.6212C25.556 25.5349 25.6207 25.4272 25.6853 25.341C26.1379 24.5651 26.3319 23.9832 26.4612 23.5522C26.6121 23.0996 26.6767 22.9056 26.9138 22.7332C27.0646 22.6686 27.194 22.6255 27.3233 22.6039Z" fill="white"/>
<path d="M26.8707 38.8971C26.6121 39.4143 26.3103 39.8884 26.1164 40.1255C25.9439 39.6945 25.6638 38.6815 25.75 37.8841C25.75 37.8626 25.75 37.841 25.75 37.8195C25.7715 37.5608 25.8362 37.3453 25.9655 37.1514C26.0517 37.0221 26.2672 36.9574 26.5043 36.9574C26.6767 36.9574 26.8707 37.0005 27.0431 37.0867C27.1293 37.1298 27.2586 37.2376 27.2586 37.5177C27.3017 37.9057 27.1077 38.4229 26.8707 38.8971Z" fill="white"/>
<path d="M40.6638 33.1427C40.6853 33.1643 40.6853 33.1859 40.6853 33.2074C40.6207 33.3583 40.5129 33.466 40.4051 33.5953C40.2758 33.7462 40.125 33.9186 39.9957 34.1988C39.8017 34.5867 39.737 34.9315 39.7155 35.8367C39.6724 36.8927 39.7155 37.4746 39.7586 37.9057C39.7801 38.3152 39.8017 38.5738 39.737 38.9833C39.5862 39.8022 39.2414 40.341 38.7888 41.0307C38.2284 41.8927 37.6681 42.7764 36.7198 43.0565C36.6336 43.0781 36.6336 43.0781 36.375 43.0781C36.1595 43.0781 35.7931 43.0781 35.125 43.0996C33.875 43.1427 33.25 43.1643 32.7327 43.2721C32.1724 43.3798 31.8922 43.5091 31.5905 43.6169C31.3319 43.7246 31.0948 43.8109 30.6422 43.9186C30.362 43.9833 29.9526 44.0264 28.5517 44.0479C27.0862 44.0479 26.2026 44.0479 25.0603 43.9186C23.4655 43.7462 22.6681 43.6384 22.1293 43.3583C20.8793 42.6902 20.3405 41.4833 19.4784 39.5005C19.4784 39.479 19.5 39.4574 19.5215 39.4574C19.5646 39.479 19.6077 39.5005 19.6508 39.5221C19.6939 39.5436 19.737 39.5436 19.7586 39.5436C19.8448 39.5652 19.931 39.5652 20.0172 39.5436C20.0388 39.5436 20.0388 39.5436 20.0603 39.5221C20.0819 39.5221 20.1034 39.5221 20.1034 39.5436C20.1681 39.6945 20.2543 39.8238 20.4051 39.91C20.556 39.9962 20.7284 39.9962 20.8793 39.9962C21.0517 39.9962 21.2241 39.9746 21.3965 39.9531C21.4827 39.9531 21.5689 39.9962 21.612 40.0609C21.7629 40.4488 21.9569 40.7074 22.2586 40.7505C22.2801 40.7505 22.3017 40.7505 22.3233 40.7505C22.3879 40.7505 22.4957 40.729 22.625 40.6427C22.7327 40.5565 22.9051 40.6212 22.9914 40.729C23.056 40.8367 23.1422 40.9014 23.2284 40.966C23.5301 41.2677 24.2629 41.4186 24.8664 41.4186C25.1896 41.4186 25.4914 41.3755 25.6638 41.2893C25.9224 41.16 25.9224 40.9876 25.9008 40.9014C25.8793 40.7721 25.8577 40.6212 25.8362 40.4919C25.8362 40.4703 25.8577 40.4703 25.8577 40.4919C25.9008 40.5781 25.9439 40.6643 26.0517 40.6859C26.0733 40.6859 26.0733 40.6859 26.0948 40.6859C26.2672 40.6859 26.5258 40.7505 26.5689 40.9014C26.5905 40.9876 26.6336 41.0522 26.6767 41.1384C26.7845 41.2893 26.9784 41.4833 27.3879 41.5048H27.4095C27.8836 41.5048 28.25 41.354 28.487 41.0522C28.5086 41.0307 28.5086 41.0091 28.5301 40.9876C28.6164 40.8583 28.875 40.8583 28.9827 40.966C29.112 41.0738 29.2629 41.1384 29.4353 41.1384C29.4569 41.1384 29.5 41.1384 29.5215 41.1384C29.737 41.1169 29.9095 41.0091 30.0603 40.8152C30.1465 40.6859 30.2112 40.535 30.2543 40.3626C30.2758 40.3195 30.3405 40.2979 30.3836 40.341C30.4698 40.4272 30.6207 40.5134 30.8362 40.5134C30.8793 40.5134 30.9439 40.5134 31.0086 40.4919C31.4181 40.4057 31.6336 40.0609 31.7198 39.6945C31.7198 39.6729 31.7414 39.6729 31.7414 39.6945C31.8491 39.8238 32.0431 39.9746 32.3664 39.9746C32.3879 39.9746 32.4095 39.9746 32.4095 39.9746C32.5819 39.9746 32.7327 39.8884 32.8405 39.7591C32.9698 39.5867 33.0129 39.3281 33.0345 39.091C33.0345 39.0264 33.0776 38.9617 33.1638 38.9186C33.5086 38.7677 33.9396 38.4445 34.0689 38.229C34.0689 38.229 34.0689 38.2074 34.0905 38.2074C34.112 38.1427 34.1767 38.0996 34.2198 38.0996C34.5 38.0565 34.6077 37.9919 34.7155 37.9488C34.8017 37.9057 34.8664 37.8841 35.0819 37.841C36.6551 37.604 36.9569 37.5393 37.3017 37.3238C37.8189 36.979 37.8405 36.5048 37.862 36.0522C37.8836 35.6643 37.9051 35.2333 38.2069 34.716C38.3146 34.5221 38.4439 34.3065 38.5733 34.0479C38.8103 33.6169 39.1336 33.0134 39.3707 32.6902C39.4138 32.6255 39.5 32.604 39.5646 32.6471C40.1034 32.841 40.5776 33.0565 40.6638 33.1427Z" fill="white"/>
<path d="M25.3621 37.841C25.2974 38.3798 25.2543 39.1125 25.3405 40.0608C25.3621 40.3194 25.4052 40.5996 25.4483 40.8798C25.3836 40.9229 25.1465 40.9875 24.7586 40.966C24.1983 40.9444 23.6379 40.8151 23.4655 40.6212L23.4439 40.5996C23.3146 40.4919 23.2069 40.4057 23.2069 40.2117C23.2069 40.147 23.2284 40.0824 23.2931 39.9746C23.3362 39.9315 23.3793 39.8669 23.4224 39.7807C23.5086 39.6513 23.6379 39.5005 23.7672 39.285C24.1336 38.6815 24.2629 38.4875 24.4353 38.2505C24.4569 38.2289 24.4569 38.2074 24.4784 38.1858C24.5862 38.0565 24.6939 37.8841 24.8879 37.6039C25.0172 37.41 25.125 37.2375 25.2327 37.1082C25.3836 36.8927 25.4914 36.785 25.556 36.7203C25.556 36.8065 25.5345 36.9358 25.5129 37.0651C25.4267 37.3238 25.3836 37.5608 25.3621 37.841Z" fill="white"/>
<path d="M25.0819 29.3496C25.0819 29.3712 25.0819 29.3712 25.0819 29.3496C24.9957 29.4574 24.9095 29.5867 24.8017 29.8022C24.5215 30.4057 24.5215 30.7505 24.5215 31.0307C24.5215 31.1815 24.5215 31.2893 24.4784 31.4186C24.4569 31.5048 24.4138 31.6126 24.3491 31.7203C24.1983 32.0867 23.9827 32.5608 24.069 33.2074C23.9396 33.1427 23.7457 32.9919 23.7026 32.9272C23.7026 32.8841 23.681 32.8626 23.681 32.8194C23.6379 32.6255 23.6164 32.4962 23.7241 32.1944C24.069 31.4186 24.1121 31.2246 24.1336 31.0091C24.1336 30.966 24.1552 30.9229 24.1552 30.8582C24.2198 30.5565 24.2629 30.2979 24.2845 30.0824C24.3276 29.7591 24.3707 29.5436 24.4784 29.3927C24.5215 29.3281 24.6293 29.3065 24.7802 29.3065C24.8448 29.3065 24.9095 29.3065 24.9957 29.3281H25.0172C25.0819 29.3496 25.0819 29.3496 25.0819 29.3496Z" fill="white"/>
<path d="M24.6508 37.0437C24.6293 36.8497 24.6077 36.6773 24.5215 36.4833C24.5215 36.4833 24.5 36.4402 24.5 36.4187C24.4784 36.3971 24.4784 36.3756 24.4568 36.354L24.4353 36.3324C24.4137 36.3109 24.4137 36.3109 24.3922 36.3109L24.3706 36.2893C24.3491 36.2893 24.3491 36.2678 24.3275 36.2678H24.306C24.1982 36.2247 24.0905 36.1816 23.9612 36.16C23.9396 36.16 23.9181 36.16 23.9181 36.16C23.8965 36.16 23.8965 36.16 23.875 36.16H23.8534C23.8318 36.16 23.8103 36.1816 23.7672 36.1816C23.7456 36.1816 23.7456 36.2031 23.7241 36.2031L23.7025 36.2247C23.681 36.2462 23.681 36.2462 23.6594 36.2678L23.6379 36.2893V36.3109C23.5948 36.3756 23.5517 36.4402 23.5086 36.5049C23.4008 36.6557 23.2931 36.8281 23.1853 36.979C23.0775 37.1299 22.9913 37.2592 22.8836 37.41C22.8189 37.4962 22.7758 37.5609 22.7112 37.6471C22.7112 37.6687 22.6896 37.6687 22.6896 37.6902C22.7543 37.7118 22.8189 37.7118 22.8836 37.7333C23.0344 37.7549 23.1853 37.7764 23.3146 37.798C23.6163 37.8411 23.9396 37.8626 24.2413 37.8411C24.2629 37.8411 24.2629 37.8411 24.2844 37.8411C24.3491 37.7333 24.4568 37.604 24.5646 37.4316C24.6293 37.3454 24.6939 37.2592 24.737 37.173C24.6724 37.1514 24.6508 37.0868 24.6508 37.0437Z" fill="white"/>
<path d="M23.5517 38.3151C23.5301 38.5522 23.2715 39.1557 22.862 39.7376C22.5172 40.2117 22.3017 40.341 22.2586 40.341C22.0862 40.3195 21.9353 39.91 21.806 39.5005C21.7629 39.3281 21.6983 39.1772 21.6767 39.0264C21.5905 38.7246 21.5689 38.2936 21.5905 38.035C21.9353 38.2289 22.5388 38.272 23.4008 38.272C23.4439 38.2936 23.5086 38.2936 23.5517 38.3151Z" fill="white"/>
<path d="M22.9482 36.3755C22.7974 36.6126 22.6465 36.8281 22.4957 37.0436C22.4095 37.1514 22.3448 37.2591 22.2586 37.3669C22.2155 37.4316 22.1508 37.4962 22.1077 37.5609C21.9784 37.5393 21.8707 37.4962 21.7414 37.4747C21.6336 37.4531 21.5474 37.41 21.4396 37.3669C21.4181 37.3669 21.3965 37.3454 21.375 37.3454C21.3534 37.3238 21.3319 37.2807 21.3103 37.2591C21.3534 37.1945 21.375 37.1083 21.4181 37.0436C21.4827 36.9143 21.5474 36.785 21.6336 36.6557C21.7629 36.4402 21.9138 36.2031 22.1508 36.0523C22.1724 36.0523 22.1724 36.0307 22.1939 36.0307C22.2801 35.9876 22.3664 35.9445 22.4741 35.9229C22.4957 35.9229 22.5603 35.9229 22.6034 35.9229H22.625C22.625 35.9229 22.625 35.9229 22.6465 35.9229C22.6681 35.9229 22.6896 35.9445 22.7327 35.9445C22.7327 35.9445 22.7543 35.9445 22.7543 35.966C22.7758 35.9876 22.7974 35.9876 22.8189 36.0092C22.7758 35.9876 22.862 36.0738 22.862 36.0523C22.9051 36.1816 22.9267 36.2462 22.9482 36.3755Z" fill="white"/>
<path d="M21.7844 35.7505C21.5043 35.966 21.3103 36.2677 21.1594 36.591C21.0732 36.7634 20.987 36.9358 20.9008 37.1082C20.9008 37.1298 20.8793 37.1513 20.8793 37.1513C20.7931 37.1298 20.7069 37.1082 20.6422 37.0867C20.556 37.0651 20.4698 37.022 20.3836 37.0005C20.3405 36.9789 20.3189 36.9574 20.2758 36.9358C20.362 36.785 20.4482 36.6341 20.556 36.4832C20.6853 36.2893 20.8362 36.0737 20.987 35.9013C21.0517 35.8367 21.1163 35.7505 21.181 35.7074C21.2672 35.6643 21.3534 35.6643 21.4612 35.6858C21.5689 35.6858 21.6767 35.6858 21.7629 35.7289C21.7413 35.7289 21.7629 35.7505 21.7844 35.7505Z" fill="white"/>
<path d="M21.3534 39.4143C21.3319 39.4358 21.3319 39.4358 21.3103 39.4574H21.2888C21.2241 39.4574 21.1595 39.4789 21.0948 39.4789C20.9655 39.4789 20.8362 39.5005 20.7069 39.4789C20.6422 39.4789 20.5776 39.4574 20.5345 39.4143C20.4914 39.3496 20.4698 39.2203 20.4483 39.1341C20.3621 38.66 20.3621 38.1858 20.4052 37.7117C20.6422 37.7979 20.9008 37.8626 21.1595 37.9057C21.0948 38.3367 21.2026 38.9617 21.2457 39.1341C21.3103 39.2203 21.3319 39.3281 21.3534 39.4143Z" fill="white"/>
<path d="M20.5776 35.5997C20.362 35.8583 20.1681 36.1385 19.9957 36.4402C19.931 36.5479 19.8448 36.6773 19.7801 36.8066C19.6939 36.785 19.6077 36.7419 19.5431 36.6988C19.4784 36.6557 19.4138 36.6126 19.3707 36.5695C19.3491 36.5479 19.306 36.5264 19.2845 36.5048C19.2845 36.5048 19.2629 36.5048 19.2629 36.4833C19.2845 36.4186 19.3276 36.3755 19.3276 36.3324C19.3707 36.2247 19.4138 36.1385 19.4784 36.0523C19.5862 35.8798 19.6939 35.7074 19.8232 35.535C19.8663 35.4704 19.9095 35.4057 19.9957 35.3842C20.0603 35.3626 20.1465 35.3842 20.2112 35.3842C20.3405 35.4057 20.4698 35.4919 20.5776 35.5997Z" fill="white"/>
<path d="M18.9181 36.7419C18.9181 36.7204 18.9396 36.7204 18.9181 36.7419C19.0043 36.8281 19.0689 36.8928 19.1552 36.9575C19.1983 36.979 19.2198 37.0221 19.2629 37.0437C19.2629 37.0437 19.2629 37.0437 19.2629 37.0652C19.1767 37.4316 19.112 37.8195 19.112 38.2074C19.112 38.229 19.0905 38.229 19.0905 38.2074C18.9827 37.7549 18.8534 37.0221 18.9181 36.7419Z" fill="white"/>
<path d="M19.9741 37.5393C19.931 37.8625 19.9094 38.1858 19.931 38.5091C19.931 38.6815 19.9525 38.8539 19.9741 39.0479C19.931 39.0479 19.8879 39.0479 19.8448 39.0479H19.8232H19.8017C19.7586 39.0263 19.7586 39.0263 19.7155 39.0048C19.6724 38.9832 19.6293 38.9186 19.5862 38.8539C19.5 38.7031 19.4784 38.5306 19.4784 38.3582C19.4568 38.035 19.5 37.6901 19.5646 37.3669C19.6077 37.3884 19.6724 37.41 19.737 37.4315C19.8232 37.4746 19.8879 37.5177 19.9741 37.5393Z" fill="white"/>
<mask id="mask0_3467_8795" style="mask-type:luminance" maskUnits="userSpaceOnUse" x="12" y="12" width="40" height="41">
<path d="M52 32.0002C52 20.9441 43.0344 12.0002 32 12.0002C20.9439 12.0002 12 20.9441 12 32.0002C12 43.0347 20.9439 52.0002 32 52.0002C43.0344 52.0002 52 43.0347 52 32.0002Z" fill="white"/>
</mask>
<g mask="url(#mask0_3467_8795)">
<g opacity="0.8">
<path opacity="0.8" d="M28.4654 54.3495C26.9999 54.3495 25.6206 54.2633 24.4568 54.1771L24.1335 54.1555L23.8103 54.1124C23.6594 54.0909 23.487 54.0693 23.293 54.0478C22.1723 53.9185 20.0818 53.703 17.7758 52.6254L17.4094 52.453L17.0861 52.259C12.6465 49.759 11.0085 46.0305 10.1034 44.0262C10.0387 43.8969 9.97406 43.7461 9.9094 43.5952C9.45681 42.6685 9.17664 41.8495 8.93957 41.0736L8.89647 40.9012L8.85337 40.7288C8.20681 38.4443 8.05595 36.4831 8.33613 34.5219C8.63785 32.5607 9.34906 30.7935 10.6206 28.9185L11.2672 27.8624C11.3965 27.6469 11.4827 27.4099 11.5473 27.1728C12.043 24.7159 13.1637 22.9702 13.7241 22.1297C13.8749 21.1167 14.1335 20.1254 14.4784 19.1555L14.5215 19.0047L14.5861 18.8538C14.5861 18.8323 14.6077 18.7892 14.6292 18.7245C14.8878 17.9702 15.4697 16.2245 16.9568 14.3711L17.5172 13.7245L18.0991 13.2073C19.5646 11.8711 21.3318 10.8797 23.2284 10.3193C24.2844 9.99606 25.3835 9.80209 26.5042 9.73744H26.612H26.7628C26.9568 9.73744 27.1508 9.71589 27.3232 9.71589C28.0128 9.71589 28.7025 9.78054 29.3922 9.8883C29.8232 9.95296 30.2542 9.90985 30.6637 9.73744C31.8491 9.24175 33.0775 8.91847 34.3491 8.74606C34.4568 8.72451 34.543 8.72451 34.6292 8.70296C34.8232 8.6814 35.1465 8.6383 35.5344 8.5952C36.2025 8.53054 37.237 8.44434 38.3361 8.44434C40.5128 8.44434 42.3878 8.72451 44.0689 9.3064L44.2197 9.34951L44.3491 9.39261C48.056 10.7935 49.9309 12.7547 51.2887 14.4573L51.3534 14.5435L51.5473 14.7159C52.7758 15.6642 53.8103 16.8495 54.6292 18.1642L54.8878 18.5736L55.1034 19.0047C56.9137 22.69 56.3318 26.1167 56.1163 27.3883L56.0947 27.453C55.9439 28.4012 55.6853 29.328 55.362 30.2331C55.2327 31.0952 55.0387 31.9573 54.7585 32.7762C54.2844 34.2417 53.5732 35.6426 52.668 36.8926C52.1508 37.6254 51.5473 38.3366 50.9008 38.9616C50.6637 39.1771 50.5128 39.4788 50.4697 39.8021C50.4482 39.9961 50.4051 40.19 50.3835 40.384C49.8447 43.2288 48.6163 45.2116 48.0991 46.009L46.5689 48.2073C44.7154 50.5133 42.5172 52.0219 39.8663 52.8409L39.2197 53.0349L38.5301 53.1642C37.7327 53.315 36.9353 53.3797 36.1163 53.3797C36.0085 53.3797 35.9008 53.3797 35.7715 53.3797H35.7284H35.5991H35.4482C35.1465 53.3797 34.8447 53.4443 34.543 53.5305C32.7758 54.0909 30.8361 54.3495 28.4654 54.3495Z" stroke="url(#paint1_linear_3467_8795)" stroke-width="0.227457" stroke-miterlimit="10"/>
<path opacity="0.8" d="M28.4655 52.8192C27.0646 52.8192 25.7069 52.733 24.5862 52.6468L24.3276 52.6252L24.0689 52.5821C23.8965 52.5606 23.7026 52.539 23.5086 52.5175C22.4095 52.4097 20.5991 52.1942 18.5733 51.2459L18.2715 51.095L17.9914 50.9442C14.0474 48.7675 12.6034 45.5132 11.7414 43.5735C11.6767 43.4442 11.6121 43.2718 11.5258 43.1209C11.1164 42.3019 10.8577 41.5261 10.6422 40.8364L10.5991 40.6856L10.556 40.5563C9.99567 38.5088 9.84481 36.7847 10.1034 35.0821C10.3621 33.4011 11.0086 31.8278 12.1293 30.1899L12.9698 28.8321C13.1207 28.595 13.2284 28.3149 13.2715 28.0347C13.681 25.7071 14.7802 24.0692 15.2758 23.3149L15.3405 23.2287L15.3621 23.1856C15.3621 23.164 15.3836 23.1425 15.3836 23.1209C15.4052 23.0132 15.4483 22.9269 15.4698 22.8407C15.5991 21.8925 15.8362 20.9442 16.1595 20.039L16.2026 19.9097L16.2457 19.7804C16.2672 19.7373 16.2672 19.6942 16.3103 19.5649C16.5474 18.8537 17.0431 17.3666 18.3362 15.7718L18.8103 15.2114L19.2845 14.7804C20.556 13.6166 22.0862 12.7545 23.7241 12.2804C24.6724 12.0002 25.6207 11.8278 26.6121 11.7847H26.6983H26.8276C27 11.7847 27.1508 11.7632 27.3017 11.7632C28.0129 11.7632 28.7026 11.5692 29.3922 11.6985C29.931 11.8063 30.4698 11.7416 30.9655 11.5261C31.8922 11.1166 33.1422 10.9657 34.5646 10.7718C34.6724 10.7502 34.7586 10.7502 34.8233 10.7287C35.0172 10.7071 35.3189 10.664 35.6638 10.6425C36.2888 10.5778 37.2586 10.5132 38.3146 10.5132C40.2974 10.5132 41.9784 10.7718 43.4655 11.2675L43.5948 11.3106L43.7026 11.3537C46.9784 12.6037 48.5948 14.2416 49.8664 15.858C49.931 15.9442 50.0172 16.0304 50.0388 16.0735L50.0603 16.095L50.2974 16.3106L50.3189 16.3537C51.4181 17.1942 52.3448 18.2287 53.056 19.3925L53.2715 19.7373L53.4439 20.1037C54.9957 23.2718 54.5215 26.1813 54.306 27.4097L54.2845 27.4744C54.1336 28.3795 53.8965 29.2416 53.5733 30.1037C53.4655 30.9226 53.2715 31.7416 53.0129 32.5175C52.5819 33.8106 51.9569 35.039 51.1595 36.1597C50.6207 36.9356 49.9741 37.6468 49.2845 38.2718C48.9612 38.5735 48.7457 38.9614 48.7026 39.414C48.6595 39.7373 48.6164 40.039 48.5733 40.3623C48.0991 42.8838 47.0215 44.608 46.5043 45.3838L45.2543 47.1942C43.5948 49.3278 41.6336 50.7071 39.2629 51.4399L38.7241 51.6123L38.1422 51.72C37.4526 51.8494 36.7414 51.914 36.0517 51.8925C35.9439 51.8925 35.8362 51.8925 35.7284 51.8925H35.7069H35.6422C35.6422 51.8925 35.6207 51.8925 35.5776 51.8925H35.4483H35.3189H35.0819C34.7586 51.914 34.4353 51.9571 34.112 52.0649C32.5388 52.5821 30.7069 52.8192 28.4655 52.8192Z" stroke="url(#paint2_linear_3467_8795)" stroke-width="0.227457" stroke-miterlimit="10"/>
<path opacity="0.8" d="M28.4655 51.0304C27.1293 51.0304 25.8146 50.9442 24.7155 50.8579L24.5 50.8364L24.2844 50.8148C24.0905 50.7933 23.875 50.7717 23.6594 50.7502C22.625 50.6424 21.0517 50.47 19.2844 49.6295L19.0474 49.5217L18.8319 49.3924C15.4482 47.4959 14.1982 44.6942 13.3793 42.8407C13.3146 42.6898 13.2284 42.4959 13.1638 42.345C12.7974 41.6123 12.5603 40.9226 12.3663 40.276L12.3232 40.1683L12.3017 40.0605C11.806 38.2933 11.6767 36.7847 11.8922 35.3623C12.1077 33.9183 12.6896 32.5605 13.681 31.1166L13.8103 30.9442L13.9396 30.7717C14.0258 30.664 14.0905 30.5562 14.1767 30.47L14.6724 29.5433C14.8448 29.2416 14.9525 28.9183 14.9956 28.5735C15.3189 26.5045 16.3103 25.0174 16.7629 24.3278C16.7844 24.2847 16.8275 24.2416 16.8491 24.22L16.9569 24.0692C17 23.9829 17.0431 23.8752 17.0862 23.7459C17.1293 23.6166 17.1939 23.4226 17.237 23.2502C17.3448 22.3666 17.5603 21.5045 17.862 20.664L17.9051 20.5562L17.9482 20.4485C17.9698 20.3623 18.0129 20.2976 18.056 20.1467C18.2715 19.4786 18.681 18.2502 19.7801 16.914L20.1465 16.4614L20.5344 16.1166C21.612 15.1252 22.9051 14.414 24.306 13.9829C25.125 13.7459 25.9439 13.595 26.806 13.5519H26.8706H26.9784C27.1077 13.5519 27.237 13.5519 27.3879 13.5519C28.1206 13.5519 28.8319 13.6381 29.5431 13.8321C30.1465 13.9829 30.7931 13.9183 31.3534 13.6381C32.2586 13.2071 33.4655 12.7329 34.8663 12.5605C34.9525 12.539 35.0388 12.539 35.1034 12.5174C35.2758 12.4959 35.556 12.4528 35.9008 12.4312C36.4827 12.3666 37.4094 12.3019 38.3793 12.3019C40.1465 12.3019 41.6336 12.5174 42.9482 12.97L43.0344 13.0131L43.1206 13.0562C46.1379 14.1985 47.4741 15.6855 48.5086 17.0002C48.7456 17.2804 48.7672 17.3235 48.9181 17.4743L49.112 17.6467L49.1767 17.7329C49.6724 18.1209 50.6853 18.9183 51.5689 20.3623L51.7413 20.6424L51.8922 20.9226C53.2069 23.5735 52.7974 25.9873 52.6034 27.151L52.5819 27.2157C52.4525 28.0562 52.2155 28.8967 51.8706 29.6942V29.7588C51.7844 30.5131 51.612 31.2674 51.375 31.9786C51.0086 33.1209 50.4698 34.1769 49.7586 35.1467C49.1767 35.9873 48.4655 36.7416 47.6681 37.3881C47.4741 37.539 47.3232 37.7329 47.2155 37.9485C47.1077 38.164 47.0431 38.401 47.0215 38.6381C47 39.1123 46.9353 39.5864 46.8491 40.0605C46.4396 42.2373 45.4913 43.7459 45.0172 44.5002L44.0474 45.9226C42.6034 47.8623 40.8793 49.1123 38.7888 49.7588L38.3577 49.8881L37.8836 49.9743C37.3017 50.0821 36.6982 50.1252 36.0948 50.1252C36.0086 50.1252 35.9008 50.1252 35.7931 50.1252H35.7715H35.6638C35.6422 50.1252 35.5991 50.1252 35.4913 50.1252H35.3836H35.2974L34.8017 50.1467C34.4569 50.1683 34.112 50.2114 33.7888 50.3407C32.3017 50.8148 30.5991 51.0304 28.4655 51.0304Z" stroke="url(#paint3_linear_3467_8795)" stroke-width="0.213233" stroke-miterlimit="10"/>
<path opacity="0.8" d="M28.4655 49.2416C27.194 49.2416 25.9224 49.1554 24.8664 49.0692L24.7155 49.0476L24.5647 49.0261C24.3491 49.0045 24.1121 48.9614 23.8966 48.9398C22.9267 48.8321 21.5905 48.6812 20.0819 47.9916L19.9095 47.9054L19.7371 47.8192C16.8707 46.2028 15.8147 43.8321 15.0388 42.1079C14.9526 41.9355 14.8664 41.7416 14.8017 41.5692C14.4785 40.9011 14.2629 40.2761 14.0905 39.7373L14.069 39.6511L14.0043 39.5864C13.1638 36.6123 13.4871 34.5217 15.125 32.1295L15.2112 32.0002L15.2974 31.8709C15.4052 31.7416 15.5129 31.5907 15.6207 31.4614C15.7716 31.2674 15.9224 31.0519 16.0948 30.8579C16.2026 30.7286 16.2888 30.5778 16.3535 30.4269L16.5474 29.9528C16.6336 29.7373 16.6767 29.5217 16.6983 29.3062C16.8707 27.3881 17.7974 26.0088 18.25 25.3192C18.2931 25.2761 18.3362 25.1898 18.3578 25.1683L18.4655 24.9959L18.5086 24.9528C18.5733 24.845 18.681 24.5864 18.7672 24.3278C18.8103 24.1554 18.8966 23.8752 18.9828 23.6381V23.6166C19.069 22.8192 19.2629 22.0217 19.5431 21.2674L19.5647 21.2028L19.5862 21.1381C19.6293 21.0088 19.6724 20.9011 19.7155 20.7502C19.9095 20.1683 20.2328 19.1769 21.1164 18.0778L21.3966 17.733L21.6767 17.4743C23.7672 15.5778 26.0948 15.4269 26.8707 15.3623H26.9138H27C27.1078 15.3623 27.2155 15.3623 27.3233 15.3623C28.25 15.3623 29.1552 15.5562 30.0172 15.9226C30.1681 15.9873 30.3405 16.0088 30.4914 16.0088C30.6638 16.0088 30.8147 15.9657 30.9655 15.8795C31.7629 15.4269 33.2069 14.5864 35.0603 14.3709C35.1466 14.3493 35.2328 14.3493 35.2974 14.3493C35.4698 14.3278 35.7285 14.3062 36.0302 14.2631C36.5905 14.22 37.431 14.1554 38.3362 14.1554C39.9095 14.1554 41.2026 14.3493 42.3017 14.7157L42.3664 14.7373L42.431 14.7588C45.0172 15.7286 46.1164 16.9571 47.0431 18.1209C47.2802 18.4442 47.4095 18.5735 47.6681 18.8321L47.819 18.9614L47.9267 19.0907L48.0129 19.1554C48.444 19.5002 49.2629 20.1252 49.9957 21.3105L50.125 21.5261L50.2328 21.7416C51.2888 23.8967 50.944 25.8364 50.7716 26.8709V26.9355C50.6422 27.6898 50.4267 28.4442 50.125 29.1554L50.1035 29.22C50.1035 29.2416 50.1035 29.2416 50.0819 29.2847C50.0603 29.3493 50.0603 29.414 50.0603 29.4786L50.0388 29.5648C49.9741 30.2114 49.8233 30.8364 49.6078 31.4398C49.2845 32.4097 48.8319 33.3148 48.2285 34.1338C47.6466 34.9743 46.9785 35.664 46.2457 36.2028C45.9224 36.4398 45.6638 36.7416 45.4698 37.1079C45.2759 37.4743 45.1897 37.8623 45.1897 38.2717C45.1897 38.7674 45.125 39.2847 45.0388 39.7804C44.694 41.6338 43.9181 42.8838 43.4224 43.6381L42.7112 44.6942C41.4612 46.4398 39.9741 47.5605 38.1853 48.1209L38.0991 48.1424C37.9483 48.1855 37.7974 48.2286 37.6466 48.2502L37.5388 48.2717C37.0431 48.3579 36.5474 48.4011 36.0517 48.4011C35.9655 48.4011 35.8793 48.4011 35.7931 48.4011H35.7716C35.7285 48.4011 35.6853 48.4011 35.6422 48.4011C35.5991 48.4011 35.5129 48.4011 35.3405 48.4011H35.2759H35.2112C34.9741 48.4011 34.6724 48.4226 34.4138 48.4226C34.0474 48.4442 33.7026 48.5088 33.3578 48.6381C32.0647 49.0261 30.4914 49.2416 28.4655 49.2416Z" stroke="url(#paint4_linear_3467_8795)" stroke-width="0.19903" stroke-miterlimit="10"/>
<path opacity="0.8" d="M28.4655 47.4528C27.2371 47.4528 26.0302 47.3666 24.9957 47.2804H24.8879L24.7802 47.2589C24.5431 47.2158 24.2845 47.1942 24.0474 47.1727C23.1422 47.0649 22.0215 46.9572 20.8146 46.3753L20.6853 46.3106L20.5776 46.2459C18.2284 44.9313 17.3448 42.9485 16.6552 41.3537C16.569 41.1597 16.4828 40.9658 16.3965 40.7503C16.1164 40.1899 15.9224 39.6296 15.7715 39.1554L15.75 39.0908L15.7284 39.0261C15.0388 36.5692 15.2759 35.0175 16.6121 33.0778L16.6767 32.9916L16.7414 32.9054C16.8491 32.7546 16.9569 32.6253 17.0646 32.4744C17.4095 32.0218 17.7543 31.5692 18.25 31.0304C18.3578 30.9227 18.4224 30.7503 18.444 30.5994L18.4655 30.1037L18.444 29.9097V29.7158C18.4871 28.1209 19.2845 26.9356 19.7155 26.289C19.7586 26.2244 19.8233 26.1382 19.8448 26.0951L19.9095 25.9873L19.9741 25.9011C20.0603 25.7718 20.2543 25.3192 20.4267 24.9097C20.4914 24.7373 20.5776 24.3925 20.6853 24.1123C20.7069 24.0261 20.7069 24.0046 20.7284 23.8106C20.7931 23.1425 20.9655 22.4744 21.181 21.8494L21.2026 21.8063L21.2241 21.7632C21.2888 21.5908 21.3319 21.4615 21.3965 21.289C21.569 20.7718 21.8276 20.0175 22.4957 19.177L22.6896 18.9399L22.8836 18.7675C24.3491 17.4528 25.9224 17.1942 27 17.1296H27.0431H27.0862C27.1724 17.1296 27.2371 17.1296 27.3233 17.1296C28.2284 17.1296 29.3276 17.5606 29.9095 17.8408C30.0388 17.9054 30.1896 17.9485 30.3405 17.9485C30.4914 17.9485 30.6422 17.927 30.7931 17.8839C31.1595 17.7546 31.5043 17.6037 31.8276 17.4313C32.5603 17.0003 33.7672 16.3106 35.2759 16.1382C35.3621 16.1166 35.4267 16.1166 35.4914 16.1166C35.6422 16.0951 35.8793 16.0735 36.181 16.0304C36.6983 15.9873 37.4741 15.9227 38.3146 15.9227C39.6724 15.9227 40.7931 16.0735 41.6983 16.3968L41.7414 16.4184L41.7845 16.4399C43.9396 17.2589 44.8017 18.1856 45.6207 19.2416C45.8793 19.5865 46.0733 19.8235 46.4612 20.1684L46.5474 20.2546L46.6336 20.3408C46.7198 20.427 46.806 20.4916 46.8922 20.5563C47.2586 20.8365 47.8836 21.3322 48.4224 22.2373L48.5086 22.3666L48.5733 22.5175C49.3707 24.1339 49.1121 25.664 48.9612 26.5692V26.6339C48.8534 27.2589 48.681 27.8623 48.4224 28.4442C48.3577 28.5951 48.3146 28.7459 48.2715 28.9184C48.25 29.0261 48.2284 29.1339 48.2284 29.2201L48.2069 29.3063C48.1422 29.8235 48.0345 30.3408 47.8621 30.8365C47.6034 31.6339 47.2155 32.3882 46.7414 33.0563C46.0086 34.0908 45.1681 34.8235 44.1552 35.2977C43.9181 35.4054 43.7026 35.5778 43.5517 35.8149C43.4009 36.0304 43.3146 36.3106 43.2931 36.5692C43.2931 36.677 43.2931 36.7632 43.2931 36.8278C43.3362 37.6037 43.4009 38.4873 43.2284 39.414C42.9483 40.9227 42.3017 41.9356 41.8276 42.6899C41.8276 42.6899 39.6293 45.7503 37.625 46.3753L37.4095 46.4399L37.1724 46.483C36.7845 46.5477 36.3965 46.5908 35.9871 46.5908C35.9224 46.5908 35.8362 46.5908 35.75 46.5908C35.7069 46.5908 35.6422 46.5908 35.5776 46.5908C35.4914 46.5908 35.3621 46.5908 35.1681 46.6123H35.125H35.0819C34.306 46.6339 33.5948 46.6554 33.3793 46.6985C33.2715 46.7201 33.1638 46.7416 33.056 46.7847C32 47.2373 30.5129 47.4528 28.4655 47.4528Z" stroke="url(#paint5_linear_3467_8795)" stroke-width="0.184806" stroke-miterlimit="10"/>
<path opacity="0.8" d="M28.4655 45.6856C27.3017 45.6856 26.1379 45.5994 25.1465 45.5347H25.1034H25.0603C24.7801 45.4916 24.5215 45.47 24.2844 45.4485C23.4439 45.3623 22.5603 45.2545 21.612 44.8235L21.5474 44.8019L21.4827 44.7804C19.6508 43.7459 18.9612 42.2157 18.3146 40.7287C18.2284 40.5131 18.1207 40.2976 18.0129 40.0821C17.7974 39.6511 17.625 39.1769 17.4957 38.7244V38.7028V38.6812C16.9353 36.72 17.0862 35.7287 18.1207 34.22L18.1422 34.1769L18.1638 34.1338C18.2931 33.983 18.4008 33.8321 18.5086 33.7028C19.0043 33.0562 19.4353 32.4959 20.4051 31.5907C20.4698 31.5261 20.5344 31.4399 20.556 31.3321C20.5776 31.2459 20.5776 31.1381 20.5344 31.0519L20.362 30.5562C20.3189 30.4054 20.2974 30.233 20.2974 30.0821V29.9528V29.845C20.3405 28.7675 20.9008 27.9269 21.2672 27.3666C21.3319 27.2804 21.375 27.1942 21.4181 27.1295L21.4612 27.0649L21.5043 27.0002C21.6982 26.7416 22.0215 25.9873 22.1939 25.5347C22.237 25.3838 22.3448 25.0175 22.4526 24.7373C22.5172 24.5218 22.5603 24.3062 22.5819 24.0907C22.6465 23.5519 22.7543 23.0131 22.9482 22.5175V22.4959V22.4744C23.0344 22.2588 23.0991 22.0864 23.1422 21.914C23.2931 21.4614 23.4655 20.9442 23.9396 20.3623L24.0258 20.2545L24.112 20.1683C25.1465 19.22 26.2888 19.0476 27.1508 18.983H27.1724H27.1939C27.237 18.983 27.3017 18.983 27.3448 18.983C28.2069 18.983 28.8534 19.3278 29.2844 19.5649L29.3922 19.608H29.4138C29.5431 19.6726 29.6293 19.7373 29.737 19.7804C29.9957 19.9097 30.3189 19.9528 30.5991 19.8666C31.2026 19.7157 32.1293 19.3494 32.7327 19.0045H32.7543C33.4008 18.6166 34.3922 18.0562 35.556 17.9269C35.6207 17.9054 35.7069 17.9054 35.7715 17.9054C35.9008 17.8838 36.1379 17.8623 36.3965 17.8407C36.8707 17.7976 37.6034 17.733 38.3577 17.733C39.5215 17.733 40.4482 17.8623 41.1594 18.0994H41.181H41.2026C42.9267 18.7459 43.5732 19.4356 44.2629 20.3407C44.5431 20.7071 44.8232 21.0519 45.3405 21.5045L45.3836 21.5476L45.4267 21.5907C45.556 21.72 45.7069 21.8494 45.8793 21.9787C46.181 22.2157 46.612 22.539 46.9784 23.164L47.0215 23.2287L47.0646 23.2933C47.6034 24.414 47.431 25.47 47.3017 26.2675V26.3321C47.2155 26.8278 47.0862 27.3019 46.8707 27.7761C46.7629 28.0347 46.6767 28.3149 46.6336 28.595C46.612 28.7675 46.5905 28.8968 46.5689 29.0045L46.5474 29.0907C46.5043 29.5002 46.4181 29.8881 46.2888 30.2761C46.0948 30.9011 45.7931 31.483 45.4051 32.0218C44.7586 32.97 44.0258 33.5519 43.056 33.8537C42.5819 34.0045 42.1939 34.3062 41.9353 34.7157L41.8491 34.8235L41.7629 34.9312C41.5258 35.2114 41.5905 36.289 41.6336 36.9356C41.6767 37.6468 41.7198 38.3795 41.5905 39.0692C41.375 40.2545 40.8577 41.0519 40.4051 41.7416C40.4051 41.7416 38.7241 44.1769 37.1939 44.6295L37.0862 44.6726L36.9784 44.6942C36.6982 44.7373 36.3965 44.7804 36.0948 44.7804C36.0301 44.7804 35.9655 44.7804 35.8793 44.7804C35.8146 44.7804 35.75 44.7804 35.6638 44.7804C35.556 44.7804 35.4051 44.7804 35.1465 44.8019H35.125H35.1034C34.0905 44.845 33.4655 44.8666 33.1207 44.9312C32.8836 44.9744 32.6681 45.039 32.4526 45.1252C31.5258 45.4916 30.2758 45.6856 28.4655 45.6856Z" stroke="url(#paint6_linear_3467_8795)" stroke-width="0.184806" stroke-miterlimit="10"/>
</g>
</g>
</g>
<defs>
<radialGradient id="paint0_radial_3467_8795" cx="0" cy="0" r="1" gradientUnits="userSpaceOnUse" gradientTransform="translate(32.0007 34.0897) rotate(90) scale(22.4667)">
<stop offset="0.1667" stop-color="#073183"/>
<stop offset="1" stop-color="#0054F9"/>
</radialGradient>
<linearGradient id="paint1_linear_3467_8795" x1="9.19901" y1="7.50362" x2="55.024" y2="55.5996" gradientUnits="userSpaceOnUse">
<stop offset="0.2057" stop-color="#89D0FF"/>
<stop offset="0.3984" stop-color="#EBBF9A"/>
<stop offset="0.6015" stop-color="#EB8280"/>
<stop offset="0.8411" stop-color="#A281FF"/>
</linearGradient>
<linearGradient id="paint2_linear_3467_8795" x1="10.9761" y1="9.57292" x2="53.2216" y2="54.0935" gradientUnits="userSpaceOnUse">
<stop offset="0.2057" stop-color="#89D0FF"/>
<stop offset="0.3984" stop-color="#EBBF9A"/>
<stop offset="0.6015" stop-color="#EB80DA"/>
<stop offset="0.8411" stop-color="#A281FF"/>
</linearGradient>
<linearGradient id="paint3_linear_3467_8795" x1="12.7708" y1="11.3622" x2="51.4362" y2="52.3065" gradientUnits="userSpaceOnUse">
<stop offset="0.2057" stop-color="#89D0FF"/>
<stop offset="0.3984" stop-color="#EBBF9A"/>
<stop offset="0.6015" stop-color="#EB8280"/>
<stop offset="0.8411" stop-color="#A281FF"/>
</linearGradient>
<linearGradient id="paint4_linear_3467_8795" x1="14.5631" y1="13.1577" x2="49.6404" y2="50.5146" gradientUnits="userSpaceOnUse">
<stop offset="0.2057" stop-color="#89D0FF"/>
<stop offset="0.3984" stop-color="#EBBF9A"/>
<stop offset="0.6015" stop-color="#EB80E7"/>
<stop offset="0.8411" stop-color="#A281FF"/>
</linearGradient>
<linearGradient id="paint5_linear_3467_8795" x1="16.3449" y1="14.9567" x2="47.8409" y2="48.7235" gradientUnits="userSpaceOnUse">
<stop offset="0.2057" stop-color="#89D0FF"/>
<stop offset="0.3984" stop-color="#EBBF9A"/>
<stop offset="0.6015" stop-color="#EB80D3"/>
<stop offset="0.8411" stop-color="#A281FF"/>
</linearGradient>
<linearGradient id="paint6_linear_3467_8795" x1="18.1498" y1="16.7339" x2="46.0614" y2="46.9243" gradientUnits="userSpaceOnUse">
<stop offset="0.2057" stop-color="#89D0FF"/>
<stop offset="0.3984" stop-color="#EBBF9A"/>
<stop offset="0.6015" stop-color="#A280EB"/>
<stop offset="0.8411" stop-color="#A281FF"/>
</linearGradient>
<clipPath id="clip0_3467_8795">
<rect width="40" height="40" fill="white" transform="translate(12 12.0002)"/>
</clipPath>
</defs>
</svg>
