<svg xmlns="http://www.w3.org/2000/svg" width="56" height="57" viewBox="0 0 56 57" fill="none">
  <path d="M0 18.8874C0 8.57806 8.35735 0.220703 18.6667 0.220703H37.3333C47.6426 0.220703 56 8.57805 56 18.8874V37.554C56 47.8633 47.6426 56.2207 37.3333 56.2207H18.6667C8.35735 56.2207 0 47.8633 0 37.554V18.8874Z" fill="#2F374A"/>
  <path d="M32.6048 26.8065L35.7443 21.4794L44.2064 34.6595L44.2104 37.1891L44.183 19.7834C44.1628 19.358 43.9369 18.9688 43.5764 18.7392L28.3413 9.97569C27.9851 9.80046 27.5329 9.80248 27.1773 9.98124C27.1292 10.0052 27.0839 10.0314 27.041 10.06L26.9878 10.0934L12.1998 18.6629L12.1425 18.689C12.0687 18.7229 11.994 18.766 11.9241 18.8162C11.6436 19.0171 11.4575 19.3146 11.3973 19.648C11.3882 19.6986 11.3815 19.75 11.3784 19.8022L11.4017 33.9859L19.2838 21.769C20.2762 20.149 22.4383 19.6273 24.4454 19.6557L26.8011 19.7178L12.9209 41.9778L14.557 42.9197L28.6034 19.7404L34.8121 19.7178L20.8019 43.4821L26.6403 46.8403L27.3378 47.2414C27.633 47.3613 27.9809 47.3675 28.2784 47.26L43.7276 38.3068L40.774 40.0185L32.6048 26.8065ZM33.8025 44.0585L27.9057 34.8035L31.5054 28.6951L39.2499 40.9017L33.8025 44.0585Z" fill="#2D374B"/>
  <path d="M28.0876 32.1753L32.4243 38.9818L36.4304 36.6602L30.7349 27.6831L28.0876 32.1753Z" fill="#28A0F0"/>
  <path d="M40.0795 33.9274L40.0765 32.0672L33.8533 22.3741L31.5444 26.292L37.5522 36.0082L39.7244 34.7494C39.9374 34.5763 40.0664 34.3224 40.0799 34.0484L40.0795 33.9274Z" fill="#28A0F0"/>
  <path d="M14 35.6814L17.0674 37.449L27.2753 21.0785L25.5427 21.0328C24.0667 21.0119 22.4766 21.3957 21.7468 22.5869L15.9501 31.5715L14 34.5679V35.6814Z" fill="white"/>
  <path d="M33.1663 21.0773L28.6003 21.0939L18.2703 38.1404L21.881 40.2193L22.8628 38.5541L33.1663 21.0773Z" fill="white"/>
  <path d="M42.0027 21.0558C41.9645 20.1009 41.4475 19.2268 40.6376 18.7178L29.2865 12.1901C28.4854 11.7867 27.4847 11.7862 26.6821 12.1898C26.5873 12.2377 15.6434 18.5846 15.6434 18.5846C15.492 18.6573 15.3461 18.7438 15.2089 18.842C14.4859 19.3602 14.0453 20.1654 14 21.0499V34.5687L15.9501 31.5725L15.9331 21.1413C15.9354 21.1031 15.9402 21.0656 15.947 21.0286C15.9911 20.7831 16.1281 20.5642 16.3344 20.4162C16.3859 20.3794 27.5166 13.9364 27.552 13.9188C27.8136 13.7874 28.1462 13.7858 28.4081 13.9147L39.6124 20.3594C39.8773 20.5282 40.0435 20.8144 40.0583 21.1274V34.0489C40.0448 34.3229 39.9364 34.5768 39.7234 34.7499L37.5512 36.0087L36.4304 36.6583L32.4243 38.9799L28.3618 41.3343C28.1428 41.4133 27.887 41.4088 27.67 41.3206L22.8634 38.5559L21.8814 40.2213L26.201 42.7084C26.3439 42.7896 26.4712 42.8617 26.5756 42.9202C26.7373 43.0108 26.8475 43.0716 26.8865 43.0905C27.1934 43.2397 27.6353 43.3264 28.0333 43.3264C28.3982 43.3264 28.7542 43.2593 29.0908 43.1274L40.8911 36.2937C41.5683 35.7688 41.9668 34.9774 42.0027 34.1202V21.0558Z" fill="#96BEDC"/>
</svg>