<svg width="64" height="64" viewBox="0 0 64 64" fill="none" xmlns="http://www.w3.org/2000/svg">
<path d="M0 24C0 10.7452 10.7452 0 24 0H40C53.2548 0 64 10.7452 64 24V40C64 53.2548 53.2548 64 40 64H24C10.7452 64 0 53.2548 0 40V24Z" fill="#313C41"/>
<g clip-path="url(#clip0_3467_8863)">
<path d="M15.616 24.16V39.84C15.616 40.848 16.144 41.76 17.024 42.272L30.608 50.112C31.472 50.608 32.544 50.608 33.408 50.112L46.992 42.272C47.856 41.776 48.4 40.848 48.4 39.84V24.16C48.4 23.152 47.872 22.24 46.992 21.728L33.408 13.888C32.544 13.392 31.472 13.392 30.608 13.888L17.024 21.728C16.16 22.224 15.632 23.152 15.632 24.16H15.616Z" fill="#213147"/>
<path d="M34.9598 35.0388L33.0238 40.3508C32.9758 40.4948 32.9758 40.6548 33.0238 40.8148L36.3518 49.9508L40.2078 47.7268L35.5838 35.0388C35.4718 34.7508 35.0718 34.7508 34.9598 35.0388Z" fill="#12AAFF"/>
<path d="M38.848 26.1105C38.736 25.8225 38.336 25.8225 38.224 26.1105L36.288 31.4225C36.24 31.5665 36.24 31.7265 36.288 31.8865L41.744 46.8465L45.6 44.6225L38.848 26.1265V26.1105Z" fill="#12AAFF"/>
<path d="M32 14.48C32.096 14.48 32.192 14.512 32.272 14.56L46.96 23.04C47.136 23.136 47.232 23.328 47.232 23.52V40.48C47.232 40.672 47.12 40.864 46.96 40.96L32.272 49.44C32.192 49.488 32.096 49.52 32 49.52C31.904 49.52 31.808 49.488 31.728 49.44L17.04 40.96C16.864 40.864 16.768 40.672 16.768 40.48V23.504C16.768 23.312 16.88 23.12 17.04 23.024L31.728 14.544C31.808 14.496 31.904 14.464 32 14.464V14.48ZM32 12C31.472 12 30.96 12.128 30.48 12.4L15.792 20.88C14.848 21.424 14.272 22.416 14.272 23.504V40.464C14.272 41.552 14.848 42.544 15.792 43.088L30.48 51.568C30.944 51.84 31.472 51.968 32 51.968C32.528 51.968 33.04 51.84 33.52 51.568L48.208 43.088C49.152 42.544 49.728 41.552 49.728 40.464V23.504C49.728 22.416 49.152 21.424 48.208 20.88L33.504 12.4C33.04 12.128 32.512 12 31.984 12H32Z" fill="#9DCCED"/>
<path d="M22.272 46.864L23.632 43.152L26.352 45.408L23.808 47.744L22.272 46.864Z" fill="#213147"/>
<path d="M30.752 22.3039H27.024C26.752 22.3039 26.496 22.4799 26.4 22.7359L18.416 44.6239L22.272 46.8479L31.072 22.7359C31.152 22.5119 30.992 22.2879 30.768 22.2879L30.752 22.3039Z" fill="white"/>
<path d="M37.28 22.3039H33.552C33.28 22.3039 33.024 22.4799 32.928 22.7359L23.808 47.7279L27.664 49.9519L37.584 22.7359C37.664 22.5119 37.504 22.2879 37.28 22.2879V22.3039Z" fill="white"/>
</g>
<defs>
<clipPath id="clip0_3467_8863">
<rect width="40" height="40" fill="white" transform="translate(12 12)"/>
</clipPath>
</defs>
</svg>
