<svg width="64" height="64" viewBox="0 0 64 64" fill="none" xmlns="http://www.w3.org/2000/svg">
<g clip-path="url(#clip0_3467_8930)">
<path d="M0 24C0 10.7452 10.7452 0 24 0H40C53.2548 0 64 10.7452 64 24V40C64 53.2548 53.2548 64 40 64H24C10.7452 64 0 53.2548 0 40V24Z" fill="#F3F5F6"/>
<path d="M31.9136 16.2305C33.3933 16.2305 34.7239 17.0527 35.3861 18.3762L46.3049 40.2147C46.9109 41.4273 46.8475 42.8388 46.1354 43.9921C45.4226 45.1453 44.1885 45.8337 42.8325 45.8337H20.9948C19.6396 45.8337 18.4047 45.1453 17.6927 43.9921C16.9798 42.8388 16.9164 41.4273 17.5232 40.2147L28.4412 18.3762C29.1034 17.0527 30.434 16.2305 31.9136 16.2305ZM31.9136 13.5612C29.4321 13.5612 27.1635 14.9632 26.0538 17.1826L15.135 39.021C14.1196 41.0519 14.2281 43.4638 15.4218 45.3948C16.6154 47.3259 18.7239 48.5022 20.9948 48.5022H42.8333C45.1041 48.5022 47.2127 47.3267 48.4063 45.3948C49.6 43.4638 49.7085 41.0519 48.6931 39.021L37.7735 17.1826C36.6637 14.9632 34.3952 13.5612 31.9136 13.5612Z" fill="#5DEB5A"/>
</g>
<defs>
<clipPath id="clip0_3467_8930">
<path d="M0 24C0 10.7452 10.7452 0 24 0H40C53.2548 0 64 10.7452 64 24V40C64 53.2548 53.2548 64 40 64H24C10.7452 64 0 53.2548 0 40V24Z" fill="white"/>
</clipPath>
</defs>
</svg>
