<svg width="64" height="64" viewBox="0 0 64 64" fill="none" xmlns="http://www.w3.org/2000/svg">
<path d="M0 24C0 10.7452 10.7452 0 24 0H40C53.2548 0 64 10.7452 64 24V40C64 53.2548 53.2548 64 40 64H24C10.7452 64 0 53.2548 0 40V24Z" fill="#F3F5F6"/>
<path d="M12.7201 33.2224V33.2247C13.7389 37.25 17.0357 40.3724 21.5181 41.2525C20.4583 40.1442 20.1126 38.3977 20.9859 36.8853C20.9859 36.8853 29.1267 22.8788 29.4466 22.4975C29.4519 22.4907 29.4572 22.4838 29.4625 22.477C31.5426 19.5744 35.4686 17.5739 39.9358 17.5739C40.7802 17.5739 41.6042 17.6437 42.3987 17.7763L42.1212 17.4504C36.1129 10.8037 24.9058 11.602 20.146 19.8458L13.8109 30.8179C13.2712 31.7526 12.7216 33.2148 12.7186 33.2224H12.7201Z" fill="url(#paint0_linear_3467_8840)"/>
<path d="M44.4515 42.4176C44.4515 40.9728 44.1703 39.5802 43.651 38.2741C43.3243 40.0502 41.9181 41.5216 40.0427 41.5216H24.3297L23.8597 41.5011H23.8559C18.1986 41.3905 13.9072 37.9239 12.7186 33.2262V33.2247C9.6985 41.7642 16.6264 50.8207 25.438 50.8207H38.8449C39.6189 50.8207 40.9758 50.6311 41.0228 50.6258C43.1749 48.3449 44.4523 45.5021 44.4523 42.4184L44.4515 42.4176Z" fill="url(#paint1_linear_3467_8840)"/>
<path d="M50.1938 30.8307L43.8511 19.845C43.419 19.0968 42.4002 17.7793 42.3987 17.777C41.6035 17.6444 40.7795 17.5746 39.9358 17.5746C35.4686 17.5746 31.5426 19.5752 29.4625 22.4777C29.461 22.4793 29.4602 22.4815 29.4587 22.483C31.1052 20.9419 33.932 21.18 35.1509 23.2911L43.0112 36.9058C43.0286 36.9361 43.4077 37.704 43.4077 37.704L43.5327 37.9868C44.1286 39.3755 44.4523 40.8659 44.4523 42.4176C44.4523 45.5006 43.1749 48.3441 41.0221 50.6251C49.8595 49.0741 54.9164 39.0109 50.1938 30.83V30.8307Z" fill="url(#paint2_linear_3467_8840)"/>
<defs>
<linearGradient id="paint0_linear_3467_8840" x1="18.9832" y1="39.9016" x2="34.4816" y2="13.3046" gradientUnits="userSpaceOnUse">
<stop stop-color="#A02B23"/>
<stop offset="0.35" stop-color="#C0662F"/>
<stop offset="1" stop-color="#F4C844"/>
</linearGradient>
<linearGradient id="paint1_linear_3467_8840" x1="43.6487" y1="42.0363" x2="12.918" y2="42.0189" gradientUnits="userSpaceOnUse">
<stop stop-color="#A02B23"/>
<stop offset="0.35" stop-color="#C0662F"/>
<stop offset="1" stop-color="#F4C844"/>
</linearGradient>
<linearGradient id="paint2_linear_3467_8840" x1="33.556" y1="19.839" x2="48.7375" y2="46.1533" gradientUnits="userSpaceOnUse">
<stop stop-color="#A02B23"/>
<stop offset="0.35" stop-color="#C0662F"/>
<stop offset="1" stop-color="#F4C844"/>
</linearGradient>
</defs>
</svg>
