<svg xmlns="http://www.w3.org/2000/svg" width="56" height="57" viewBox="0 0 56 57" fill="none">
  <g clip-path="url(#clip0_2881_13869)">
    <path d="M0 18.8874C0 8.57806 8.35735 0.220703 18.6667 0.220703H37.3333C47.6426 0.220703 56 8.57805 56 18.8874V37.554C56 47.8633 47.6426 56.2207 37.3333 56.2207H18.6667C8.35735 56.2207 0 47.8633 0 37.554V18.8874Z" fill="#0052FF"/>
    <mask id="mask0_2881_13869" style="mask-type:luminance" maskUnits="userSpaceOnUse" x="0" y="0" width="56" height="57">
      <path d="M49 0.220703H7C3.13401 0.220703 0 3.35471 0 7.2207V49.2207C0 53.0867 3.13401 56.2207 7 56.2207H49C52.866 56.2207 56 53.0867 56 49.2207V7.2207C56 3.35471 52.866 0.220703 49 0.220703Z" fill="white"/>
    </mask>
    <g mask="url(#mask0_2881_13869)">
      <path d="M27.9728 44.554C37.0085 44.554 44.3334 37.2414 44.3334 28.2207C44.3334 19.2 37.0085 11.8873 27.9728 11.8873C19.4007 11.8873 12.3684 18.4687 11.6692 26.8462H35.9472V29.566H11.6667C12.352 37.9574 19.3907 44.554 27.9728 44.554Z" fill="white"/>
    </g>
  </g>
  <defs>
    <clipPath id="clip0_2881_13869">
      <path d="M0 18.8874C0 8.57806 8.35735 0.220703 18.6667 0.220703H37.3333C47.6426 0.220703 56 8.57805 56 18.8874V37.554C56 47.8633 47.6426 56.2207 37.3333 56.2207H18.6667C8.35735 56.2207 0 47.8633 0 37.554V18.8874Z" fill="white"/>
    </clipPath>
  </defs>
</svg>