<svg width="64" height="64" viewBox="0 0 64 64" fill="none" xmlns="http://www.w3.org/2000/svg">
<g clip-path="url(#clip0_3467_8978)">
<path d="M0 24C0 10.7452 10.7452 0 24 0H40C53.2548 0 64 10.7452 64 24V40C64 53.2548 53.2548 64 40 64H24C10.7452 64 0 53.2548 0 40V24Z" fill="#0052FF"/>
<mask id="mask0_3467_8978" style="mask-type:luminance" maskUnits="userSpaceOnUse" x="0" y="0" width="64" height="64">
<path d="M56 0H8C3.58172 0 0 3.58172 0 8V56C0 60.4183 3.58172 64 8 64H56C60.4183 64 64 60.4183 64 56V8C64 3.58172 60.4183 0 56 0Z" fill="white"/>
</mask>
<g mask="url(#mask0_3467_8978)">
<path d="M31.9665 52.0002C43.0306 52.0002 51.9999 43.046 51.9999 32.0002C51.9999 20.9545 43.0306 12.0002 31.9665 12.0002C21.4701 12.0002 12.8591 20.059 12.0029 30.3171H41.7311V33.6476H11.9999C12.839 43.9227 21.4578 52.0002 31.9665 52.0002Z" fill="white"/>
</g>
</g>
<defs>
<clipPath id="clip0_3467_8978">
<path d="M0 24C0 10.7452 10.7452 0 24 0H40C53.2548 0 64 10.7452 64 24V40C64 53.2548 53.2548 64 40 64H24C10.7452 64 0 53.2548 0 40V24Z" fill="white"/>
</clipPath>
</defs>
</svg>
