<svg width="64" height="64" viewBox="0 0 64 64" fill="none" xmlns="http://www.w3.org/2000/svg">
<path d="M0 24C0 10.7452 10.7452 0 24 0H40C53.2548 0 64 10.7452 64 24V40C64 53.2548 53.2548 64 40 64H24C10.7452 64 0 53.2548 0 40V24Z" fill="#F3F5F6"/>
<g clip-path="url(#clip0_3467_9008)">
<path d="M32 12C24.6328 12 18.1875 15.9844 14.7188 21.9219H49.2734C45.8125 15.9844 39.3672 12 32 12Z" fill="#27A4E0"/>
<path d="M12 31.9922H52C52 28.3281 51.0078 24.8906 49.2891 21.9375H14.7109C12.9922 24.8906 12 28.3281 12 31.9922Z" fill="#F81515"/>
<path d="M14.7109 42.0625H49.2812C51.0078 39.1094 52 35.6719 52 32.0078H12C12 35.6719 12.9922 39.1094 14.7109 42.0625Z" fill="#FBB92B"/>
<path d="M32 52C39.3672 52 45.8125 48.0156 49.2812 42.0781H14.7188C18.1875 48.0156 24.6328 52 32 52Z" fill="#54E226"/>
</g>
<defs>
<clipPath id="clip0_3467_9008">
<rect width="40" height="40" fill="white" transform="translate(12 12)"/>
</clipPath>
</defs>
</svg>
