<svg width="64" height="64" viewBox="0 0 64 64" fill="none" xmlns="http://www.w3.org/2000/svg">
<path d="M0 24C0 10.7452 10.7452 0 24 0H40C53.2548 0 64 10.7452 64 24V40C64 53.2548 53.2548 64 40 64H24C10.7452 64 0 53.2548 0 40V24Z" fill="#F47226"/>
<mask id="mask0_3467_9031" style="mask-type:luminance" maskUnits="userSpaceOnUse" x="12" y="22" width="41" height="21">
<path d="M52.0001 22.0002H12.0001V42.0002H52.0001V22.0002Z" fill="white"/>
</mask>
<g mask="url(#mask0_3467_9031)">
<path d="M27.8958 30.5477C27.8682 30.4611 27.8492 30.3723 27.8342 30.2826C27.8275 30.2411 27.8196 30.1997 27.8106 30.1588C27.7912 30.0696 27.7693 29.9809 27.7459 29.8926C28.1346 29.3002 29.9927 26.2094 27.8782 24.2259C25.5315 22.0243 22.7895 24.9099 22.7895 24.9099L22.7979 24.9228C21.5655 24.5455 20.2292 24.5012 18.9291 24.9097C18.913 24.8929 16.18 22.0308 13.8401 24.2259C11.4995 26.4215 14.027 29.974 14.0402 29.9926C14.0133 30.076 13.9916 30.1615 13.9772 30.248C13.724 31.7682 12.0002 32.2374 12.0002 34.8852C12.0002 37.5332 13.8036 39.7112 17.4843 39.7112H18.9947C19.0015 39.7209 19.6235 40.6085 20.9004 40.6075C22.0858 40.6066 22.8687 39.7188 22.8755 39.7112H24.3166C27.9973 39.7112 29.8007 37.5843 29.8007 34.8852C29.8007 32.4194 28.3056 31.8429 27.8958 30.5477Z" fill="#F9F4D6"/>
<path d="M51.8127 26.6894C51.8127 26.6894 52.1241 23.7878 49.7581 23.1642V22.0004H47.926V23.1351C45.4301 23.6911 45.7518 26.6894 45.7518 26.6894V27.187C45.7518 27.187 45.43 30.1862 47.9267 30.7414L47.9266 33.2325C45.2958 33.7151 45.6283 36.8121 45.6283 36.8121V37.3096C45.6283 37.3096 45.3066 40.3081 47.8024 40.8639V41.9988H49.6346V40.8348C52.0007 40.2114 51.6894 37.3096 51.6894 37.3096C51.7927 37.3096 51.8766 37.2251 51.8766 37.1211V37.0007C51.8766 36.8965 51.7927 36.8121 51.6894 36.8121C51.6894 36.8121 51.998 33.9354 49.6654 33.2951V30.7414H49.6378C52.1344 30.1862 51.8127 27.187 51.8127 27.187C51.9161 27.187 52 27.1025 52 26.9984V26.8781C52 26.7739 51.9163 26.6894 51.8127 26.6894ZM50.3197 36.8121H50.152C50.0487 36.8121 49.9647 36.8965 49.9647 37.0007V37.1211C49.9647 37.2251 50.0487 37.3096 50.152 37.3096H50.3197C50.3197 39.1096 49.726 39.4125 49.5263 39.4634C49.4935 39.4719 49.4617 39.4473 49.4617 39.4133V38.8394C49.4617 38.5224 49.2609 38.3485 49.0601 38.2541C48.8064 38.1347 48.511 38.1347 48.2574 38.2541C48.0566 38.3485 47.8558 38.5224 47.8558 38.8394V39.4133C47.8558 39.4468 47.8246 39.4719 47.7923 39.4638C47.5937 39.4136 46.9978 39.1131 46.9978 37.3096V36.8121C46.9978 35.0121 47.5914 34.7093 47.7912 34.6582C47.824 34.6499 47.8558 34.6744 47.8558 34.7085V35.2822C47.8558 35.5994 48.0566 35.7731 48.2574 35.8678C48.511 35.9871 48.8064 35.9871 49.0601 35.8678C49.2609 35.7731 49.4617 35.5994 49.4617 35.2822V34.7085C49.4617 34.6748 49.4927 34.6498 49.5252 34.6579C49.7238 34.7081 50.3197 35.0087 50.3197 36.8121ZM50.2755 27.187H50.4432C50.4432 28.9905 49.8474 29.2911 49.6487 29.3411C49.6163 29.3493 49.585 29.3242 49.585 29.2907V28.7168C49.585 28.3998 49.3844 28.2259 49.1837 28.1314C48.93 28.0121 48.6346 28.0121 48.3807 28.1314C48.1801 28.2259 47.9794 28.3998 47.9794 28.7168V29.2907C47.9794 29.3247 47.9475 29.3493 47.9147 29.3408C47.7149 29.2899 47.1214 28.987 47.1214 27.187V26.6894C47.1214 24.8859 47.7172 24.5853 47.9158 24.5353C47.9481 24.5271 47.9794 24.5524 47.9794 24.5859V25.1596C47.9794 25.4768 48.1801 25.6505 48.3807 25.7451C48.6346 25.8645 48.93 25.8645 49.1837 25.7451C49.3844 25.6505 49.585 25.4768 49.585 25.1596V24.5859C49.585 24.5518 49.6169 24.5273 49.6498 24.5356C49.8495 24.5865 50.4432 24.8894 50.4432 26.6894H50.2755C50.1721 26.6894 50.0883 26.7739 50.0883 26.8781V26.9984C50.0883 27.1025 50.1721 27.187 50.2755 27.187Z" fill="#F9F4D6"/>
<path d="M42.7592 31.8139C42.7592 31.8139 43.0826 28.7981 40.5632 28.255V25.5454C43.0155 24.9667 42.6974 22.0004 42.6974 22.0004C42.6974 22.0004 41.322 22.0004 41.3278 22.0004C41.3278 23.8039 40.7318 24.1045 40.5334 24.1545C40.5009 24.1627 40.4697 24.1374 40.4697 24.1041V23.5302C40.4697 23.2131 40.2689 23.0393 40.0683 22.9448C39.8146 22.8254 39.5191 22.8254 39.2654 22.9448C39.0648 23.0393 38.864 23.2131 38.864 23.5302V24.1041C38.864 24.1381 38.8322 24.1625 38.7992 24.1542C38.5995 24.1033 38.0058 23.8004 38.0058 22.0004C38.0117 22.0004 36.6363 22.0004 36.6363 22.0004C36.6363 22.0004 36.3062 25.0785 38.9108 25.5753V28.2511C36.3731 28.7845 36.698 31.8138 36.698 31.8138V32.3113C36.698 32.3113 36.3731 35.3405 38.9108 35.8739V38.4254C36.3062 38.9224 36.6363 42.0004 36.6363 42.0004C36.6363 42.0004 38.0117 42.0004 38.0058 42.0004C38.0058 40.1968 38.6018 39.8962 38.8003 39.8462C38.8328 39.8381 38.864 39.8631 38.864 39.8967V40.4705C38.864 40.7876 39.0648 40.9614 39.2654 41.0559C39.5191 41.1754 39.8146 41.1754 40.0683 41.0559C40.2689 40.9614 40.4697 40.7876 40.4697 40.4705V39.8967C40.4697 39.8627 40.5015 39.8382 40.5345 39.8465C40.7342 39.8974 41.3278 40.2004 41.3278 42.0004C41.322 42.0004 42.6974 42.0004 42.6974 42.0004C42.6974 42.0004 43.0155 39.0341 40.5632 38.4553V35.8702C43.0826 35.327 42.7592 32.3111 42.7592 32.3111C42.8626 32.3111 42.9465 32.2268 42.9465 32.1227V32.0022C42.9465 31.8981 42.8626 31.8139 42.7592 31.8139ZM41.2218 32.3114H41.3895C41.3895 34.115 40.7937 34.4156 40.5951 34.4656C40.5628 34.4738 40.5314 34.4487 40.5314 34.4151V33.8413C40.5314 33.5242 40.3308 33.3504 40.13 33.2559C39.8763 33.1364 39.5809 33.1364 39.3272 33.2559C39.1265 33.3504 38.9258 33.5242 38.9258 33.8413V34.4151C38.9258 34.4491 38.8938 34.4736 38.8611 34.4653C38.6614 34.4144 38.0677 34.1114 38.0677 32.3114V31.8139C38.0677 30.0104 38.6635 29.7098 38.8622 29.6598C38.8945 29.6516 38.9258 29.6768 38.9258 29.7104V30.2841C38.9258 30.6013 39.1265 30.775 39.3272 30.8694C39.5809 30.9888 39.8763 30.9888 40.13 30.8694C40.3308 30.775 40.5314 30.6013 40.5314 30.2841V29.7104C40.5314 29.6762 40.5634 29.6518 40.5962 29.6601C40.7958 29.711 41.3895 30.0139 41.3895 31.8139H41.2218C41.1185 31.8139 41.0346 31.8984 41.0346 32.0025V32.1228C41.0346 32.227 41.1185 32.3114 41.2218 32.3114Z" fill="#F9F4D6"/>
</g>
</svg>
