<svg width="64" height="64" viewBox="0 0 64 64" fill="none" xmlns="http://www.w3.org/2000/svg">
<path d="M0 24C0 10.7452 10.7452 0 24 0H40C53.2548 0 64 10.7452 64 24V40C64 53.2548 53.2548 64 40 64H24C10.7452 64 0 53.2548 0 40V24Z" fill="black"/>
<path d="M12 14.8556V22.1144C13.6476 21.246 15.2826 21.3516 16.905 21.1745V14C15.1248 14 13.6476 14.0153 12 14.8556Z" fill="#DC6529"/>
<path d="M26.3806 15.6567C24.832 15.1008 23.2709 14.6138 21.6981 14.3022V21.3932C23.2709 21.6783 24.8313 22.1381 26.3806 22.6668V15.6567Z" fill="#DC6529"/>
<path d="M21.6982 28.4867V21.3956C20.1136 21.1087 18.5164 20.9989 16.9066 21.1751V28.3496C18.5164 28.1454 20.1136 28.227 21.6982 28.4867Z" fill="#DC6529"/>
<path d="M12 29.3737V36.6323C13.6476 35.7068 15.2826 35.7564 16.905 35.523V28.3486C15.2247 28.4866 13.6476 28.4763 12 29.3737Z" fill="#DC6529"/>
<path d="M21.6981 28.4858V35.577C23.2709 35.8076 24.8313 36.2139 26.3806 36.689V29.6787C24.832 29.1765 23.2709 28.7432 21.6981 28.4858Z" fill="#DC6529"/>
<path d="M16.9066 35.5224V42.6969C18.5164 42.4373 20.1136 42.4647 21.6982 42.6689V35.5777C20.1136 35.3453 18.5164 35.2909 16.9066 35.5224Z" fill="#DC6529"/>
<path d="M48.129 32.4383C49.9527 30.9203 50.9794 28.481 50.9794 25.9713C50.9794 22.0823 48.583 20.4901 43.5967 19.9964V16.608C42.5356 16.5535 41.4696 16.436 40.397 16.2708V19.655C39.3957 19.5095 38.3901 19.3213 37.3788 19.1026V15.6919C36.2835 15.445 35.1831 15.1615 34.0751 14.855C34.0751 16.001 34.0751 17.1478 34.0751 18.2937C33.0412 18.0162 32.003 17.719 30.9579 17.4134V24.3445C29.4437 23.7858 27.9186 23.1925 26.3811 22.6681V29.6781C27.918 30.177 29.4437 30.7441 30.9579 31.2763V38.2072C29.4437 37.7015 27.9186 37.1608 26.3811 36.6884V43.6986C27.918 44.1437 29.4437 44.6579 30.9579 45.1381C32.0021 45.3715 33.0412 45.597 34.0751 45.803C34.0751 46.949 34.0751 48.0958 34.0751 49.2418C35.1822 49.4529 36.2835 49.6409 37.3788 49.7934V46.3828C38.3901 46.5319 39.3966 46.6501 40.397 46.7268V50.1109C41.4696 50.1833 42.5356 50.208 43.5967 50.1716V46.8094C49.1261 46.5072 52 42.1489 52 37.8028C52 34.5949 50.5269 33.0402 48.129 32.4383ZM37.3879 24.6771C38.3961 24.8816 39.399 25.0545 40.3961 25.1856C40.8419 25.2442 41.2867 25.2945 41.7298 25.3353C41.8147 25.3429 41.8976 25.3524 41.9792 25.3627C41.9994 25.3651 42.0194 25.3678 42.0396 25.3702C42.1152 25.3796 42.1898 25.3898 42.262 25.4018C42.2669 25.4018 42.272 25.4036 42.2771 25.4042C42.3569 25.4171 42.434 25.4316 42.5096 25.446C42.5229 25.4487 42.5365 25.4511 42.5491 25.4544C42.6214 25.4689 42.6918 25.4842 42.7607 25.5013C42.7631 25.5013 42.7656 25.5022 42.7682 25.5031C42.8436 25.5218 42.9167 25.5413 42.9871 25.5627C42.9913 25.5644 42.9965 25.5653 43.0016 25.5669C43.218 25.6324 43.416 25.7091 43.5949 25.8002C44.4342 26.2233 44.8613 26.9486 44.8613 28.0188C44.8613 29.1095 44.4342 29.885 43.5949 30.2783C43.416 30.3619 43.2171 30.4274 43.0007 30.4741C42.9965 30.475 42.9913 30.4759 42.9871 30.4776C42.9158 30.493 42.8429 30.5056 42.7674 30.5168C42.7649 30.5168 42.7622 30.5168 42.7598 30.5176C42.6909 30.5279 42.6205 30.5354 42.5483 30.5414C42.5349 30.5423 42.5223 30.5441 42.5089 30.5448C42.4331 30.5508 42.356 30.5552 42.2763 30.5568C42.2711 30.5568 42.2663 30.5568 42.2611 30.5568C42.1889 30.5585 42.1143 30.5576 42.0387 30.5568C42.0187 30.5568 41.9985 30.5561 41.9776 30.5552C41.896 30.5525 41.8138 30.5483 41.7283 30.5414C41.2843 30.5065 40.8403 30.4623 40.3945 30.4094C39.3966 30.2921 38.3944 30.1321 37.3864 29.9412V24.6798L37.3879 24.6771ZM43.5958 41.2662C43.5311 41.2762 43.4647 41.2856 43.3976 41.2934C43.3782 41.296 43.3582 41.2976 43.3389 41.2994C43.2893 41.3045 43.2398 41.3087 43.1893 41.3129C43.166 41.3147 43.1425 41.3162 43.1189 41.3171C43.0687 41.3207 43.0173 41.3222 42.9653 41.324C42.9436 41.324 42.9218 41.3258 42.8991 41.3258C42.8251 41.3274 42.7514 41.3274 42.6749 41.3258C41.9178 41.3105 41.1583 41.2654 40.3961 41.1962C39.3981 41.106 38.3961 40.974 37.3879 40.8116V35.2775C38.3961 35.4546 39.399 35.6004 40.3961 35.7051C41.1592 35.7851 41.9187 35.8404 42.6749 35.8659C42.7514 35.8686 42.826 35.8719 42.8991 35.8762C42.9218 35.8779 42.9436 35.8786 42.9653 35.8804C43.0167 35.8839 43.0687 35.8873 43.1182 35.8915C43.1416 35.8933 43.1651 35.8957 43.1887 35.8975C43.2389 35.9017 43.2885 35.9077 43.338 35.9128C43.3573 35.9153 43.3773 35.9171 43.3967 35.9195C43.464 35.9279 43.5302 35.9366 43.5949 35.9468C45.12 36.1766 45.9157 36.9377 45.9157 38.4899C45.9157 40.0292 45.1208 41.01 43.5958 41.2662Z" fill="#DC6529"/>
</svg>
