<svg width="64" height="64" viewBox="0 0 64 64" fill="none" xmlns="http://www.w3.org/2000/svg">
<path d="M0 24C0 10.7452 10.7452 0 24 0H40C53.2548 0 64 10.7452 64 24V40C64 53.2548 53.2548 64 40 64H24C10.7452 64 0 53.2548 0 40V24Z" fill="black"/>
<path d="M43.5178 31.9817L49.8256 28.8385L52 22.1647L47.6512 19H18.6954L12 23.9731H46.0366L44.2282 29.5705H30.5791L29.2659 33.6609H42.915L39.0829 45.437L45.4769 42.2723L47.7589 35.211L43.4747 32.0678L43.5178 31.9817Z" fill="#FCFC03"/>
<path d="M21.6234 40.3776L25.5631 28.1064L21.1928 24.834L14.6266 45.4368H39.083L40.7192 40.3776H21.6234Z" fill="#FCFC03"/>
</svg>
