<svg xmlns="http://www.w3.org/2000/svg" width="56" height="57" viewBox="0 0 56 57" fill="none">
  <path d="M0 18.8874C0 8.57806 8.35735 0.220703 18.6667 0.220703H37.3333C47.6426 0.220703 56 8.57805 56 18.8874V37.554C56 47.8633 47.6426 56.2207 37.3333 56.2207H18.6667C8.35735 56.2207 0 47.8633 0 37.554V18.8874Z" fill="#F0B90B"/>
  <path d="M17.1793 28.4957L17.1968 34.9205L22.6559 38.1329V41.8943L14.0019 36.8188V26.617L17.1793 28.4957ZM17.1793 22.0709V25.8148L14 23.9341V20.1902L17.1793 18.3094L20.3741 20.1902L17.1793 22.0709ZM24.9357 20.1902L28.1151 18.3094L31.31 20.1902L28.1151 22.0709L24.9357 20.1902Z" fill="white"/>
  <path d="M19.4768 33.5889V29.8275L22.6561 31.7082V35.452L19.4768 33.5889ZM24.9359 39.4802L28.1153 41.3609L31.3101 39.4802V43.224L28.1153 45.1048L24.9359 43.224V39.4802ZM35.8699 20.1902L39.0492 18.3094L42.244 20.1902V23.9341L39.0492 25.8148V22.0709L35.8699 20.1902ZM39.0492 34.9205L39.0667 28.4957L42.246 26.615V36.8168L33.5919 41.8925V38.131L39.0492 34.9205Z" fill="white"/>
  <path d="M36.7689 33.5914L33.5896 35.4546V31.7107L36.7689 29.83V33.5914Z" fill="white"/>
  <path d="M36.7692 23.4034L36.7868 27.1648L31.3121 30.3772V36.8176L28.1327 38.6808L24.9534 36.8176V30.3772L19.4788 27.1648V23.4034L22.6716 21.5226L28.1133 24.7506L33.5881 21.5226L36.7829 23.4034H36.7692ZM19.4768 16.9805L28.1153 11.8873L36.7692 16.9805L33.59 18.8612L28.1153 15.6332L22.6561 18.8612L19.4768 16.9805Z" fill="white"/>
</svg>