<svg width="64" height="64" viewBox="0 0 64 64" fill="none" xmlns="http://www.w3.org/2000/svg">
<path d="M0 24C0 10.7452 10.7452 0 24 0H40C53.2548 0 64 10.7452 64 24V40C64 53.2548 53.2548 64 40 64H24C10.7452 64 0 53.2548 0 40V24Z" fill="#F0B90B"/>
<path d="M18.8285 31.9997L18.8496 39.7363L25.4234 43.6046V48.1341L15.0023 42.0222V29.7373L18.8285 31.9997ZM18.8285 24.2629V28.7713L15 26.5066V21.9982L18.8285 19.7334L22.6757 21.9982L18.8285 24.2629ZM28.1688 21.9982L31.9973 19.7334L35.8446 21.9982L31.9973 24.2629L28.1688 21.9982Z" fill="white"/>
<path d="M21.5952 38.1328V33.6033L25.4237 35.868V40.3763L21.5952 38.1328ZM28.1691 45.2271L31.9976 47.4919L35.8448 45.2271V49.7354L31.9976 52.0001L28.1691 49.7354V45.2271ZM41.3356 21.9982L45.1641 19.7334L49.0113 21.9982V26.5066L45.1641 28.7713V24.2629L41.3356 21.9982ZM45.1641 39.7363L45.1852 31.9997L49.0137 29.7349V42.0198L38.5925 48.1319V43.6024L45.1641 39.7363Z" fill="white"/>
<path d="M42.4179 38.1359L38.5894 40.3796V35.8712L42.4179 33.6064V38.1359Z" fill="white"/>
<path d="M42.4186 25.8675L42.4398 30.397L35.8471 34.2654V42.0208L32.0186 44.2645L28.1901 42.0208V34.2654L21.5976 30.397V25.8675L25.4424 23.6028L31.9952 27.4898L38.5879 23.6028L42.4351 25.8675H42.4186ZM21.5952 18.1331L31.9976 12L42.4186 18.1331L38.5903 20.3979L31.9976 16.5107L25.4237 20.3979L21.5952 18.1331Z" fill="white"/>
</svg>
