<svg width="64" height="64" viewBox="0 0 64 64" fill="none" xmlns="http://www.w3.org/2000/svg">
<path d="M0 24C0 10.7452 10.7452 0 24 0H40C53.2548 0 64 10.7452 64 24V40C64 53.2548 53.2548 64 40 64H24C10.7452 64 0 53.2548 0 40V24Z" fill="#F3F5F6"/>
<g clip-path="url(#clip0_3467_9043)">
<path d="M32.1074 38.6667H13.8518V12H32.1074C38.374 12 43.4518 17.0778 43.4518 23.3407V27.3222C43.4518 33.5889 38.374 38.6667 32.1074 38.6667Z" fill="#AEDB01"/>
<path d="M36.8111 52H13.8518V38.6666C13.8518 31.3037 19.8222 25.3333 27.1888 25.3333H36.8111C44.1777 25.3333 50.1481 31.3037 50.1481 38.6666C50.1481 46.0296 44.1777 52 36.8111 52Z" fill="#B0B1AC"/>
<path d="M43.4518 27.1037V27.3259C43.4518 33.5926 38.374 38.6666 32.1037 38.6666H13.8518C13.8518 34.9852 15.3481 31.6518 17.7555 29.237C20.1703 26.8222 23.5037 25.3333 27.1925 25.3333H36.8111C39.2296 25.337 41.4963 25.9815 43.4518 27.1037Z" fill="#5D6D3C"/>
</g>
<defs>
<clipPath id="clip0_3467_9043">
<rect width="36.2963" height="40" fill="white" transform="translate(13.8518 12)"/>
</clipPath>
</defs>
</svg>
