<svg width="64" height="64" viewBox="0 0 64 64" fill="none" xmlns="http://www.w3.org/2000/svg">
<path d="M0 24C0 10.7452 10.7452 0 24 0H40C53.2548 0 64 10.7452 64 24V40C64 53.2548 53.2548 64 40 64H24C10.7452 64 0 53.2548 0 40V24Z" fill="#F25D00"/>
<path d="M19 26.9192V37.0824C19 37.4322 19.2834 37.7158 19.6333 37.7158H29.7965C30.1463 37.7158 30.4299 37.4322 30.4299 37.0824V26.9192C30.4299 26.5694 30.1463 26.2859 29.7965 26.2859H19.6333C19.2834 26.2859 19 26.5694 19 26.9192Z" fill="white"/>
<path d="M19.0038 41.2022V51.3654C19.0038 51.7153 19.2874 51.9987 19.6372 51.9987H29.8004C30.1502 51.9987 30.4338 51.7153 30.4338 51.3654V41.2022C30.4338 40.8524 30.1502 40.5688 29.8004 40.5688H19.6372C19.2874 40.5688 19.0038 40.8524 19.0038 41.2022Z" fill="white"/>
<path d="M33.2855 41.2031V51.3664C33.2855 51.7162 33.5689 51.9998 33.9188 51.9998H44.082C44.4317 51.9998 44.7153 51.7162 44.7153 51.3664V41.2031C44.7153 40.8534 44.4317 40.5698 44.082 40.5698H33.9188C33.5689 40.5698 33.2855 40.8534 33.2855 41.2031Z" fill="white"/>
<path d="M33.2855 26.9158V37.0791C33.2855 37.4289 33.5689 37.7125 33.9188 37.7125H44.082C44.4317 37.7125 44.7153 37.4289 44.7153 37.0791V26.9158C44.7153 26.5661 44.4317 26.2825 44.082 26.2825H33.9188C33.5689 26.2825 33.2855 26.5661 33.2855 26.9158Z" fill="white"/>
<path d="M29.7965 11.9999H19.6333C19.2835 11.9999 19 12.2834 19 12.6332V22.7965C19 23.1463 19.2835 23.4299 19.6333 23.4299H29.7965C30.1463 23.4299 30.4299 23.1463 30.4299 22.7965V12.6332C30.4299 12.2834 30.1463 11.9999 29.7965 11.9999Z" fill="white"/>
</svg>
