<svg width="64" height="64" viewBox="0 0 64 64" fill="none" xmlns="http://www.w3.org/2000/svg">
<path d="M0 24C0 10.7452 10.7452 0 24 0H40C53.2548 0 64 10.7452 64 24V40C64 53.2548 53.2548 64 40 64H24C10.7452 64 0 53.2548 0 40V24Z" fill="#F3F5F6"/>
<g clip-path="url(#clip0_3467_8996)">
<path d="M47.0777 51.0228L44.2616 52.0001L41.4635 43.6458C41.4635 43.6458 41.0975 42.2668 39.9863 42.2668H23.8667C23.8667 42.2668 22.983 42.0749 22.3136 43.9939C21.6442 45.9084 19.7074 51.9867 19.7074 51.9867L16.7932 50.9915L19.8234 41.7937C19.8234 41.7937 21.0105 39.1473 23.9068 39.1473H40.1782C40.1782 39.1473 43.32 39.0536 44.3732 42.423C45.4264 45.7924 47.0777 51.0272 47.0777 51.0272V51.0228Z" fill="#211D1D"/>
<path d="M51.8662 45.0069L49.1126 46.2833L45.1943 37.7816C45.1943 37.7816 44.632 36.4651 43.7171 36.4026C42.9718 36.3536 20.6891 36.358 20.1268 36.4026C19.5645 36.4473 19.2566 36.2688 18.1319 38.6474C17.11 40.8074 14.7848 46.2386 14.7848 46.2386L12.0001 44.9846L16.0835 35.9207C16.0835 35.9207 17.0609 33.2564 20.167 33.2742C23.0633 33.2921 42.8022 33.2296 43.909 33.2742C45.0158 33.3189 46.6804 33.4438 48.0326 36.3982C49.6437 39.7587 51.8617 45.0069 51.8617 45.0069H51.8662Z" fill="#211D1D"/>
<path d="M12.0001 18.7834L14.7536 17.5071L18.6719 26.0087C18.6719 26.0087 19.2342 27.3252 20.1491 27.3877C20.8944 27.4368 43.1771 27.4323 43.7394 27.3877C44.3018 27.3431 44.6097 27.5216 45.7343 25.1429C46.7563 22.9829 49.0814 17.5517 49.0814 17.5517L51.8662 18.8058L47.7827 27.8697C47.7827 27.8697 46.8054 30.534 43.6993 30.5161C40.8029 30.4983 21.064 30.5607 19.9572 30.5161C18.8504 30.4715 17.1858 30.3465 15.8336 27.3922C14.2181 24.0317 12.0001 18.7834 12.0001 18.7834Z" fill="#FFD966"/>
<path d="M16.7932 12.9774L19.6092 12.0001L22.4073 20.3544C22.4073 20.3544 22.7733 21.7334 23.8845 21.7334H40.0041C40.0041 21.7334 40.8878 21.9253 41.5572 20.0063C42.2266 18.0873 44.1635 12.0179 44.1635 12.0179L47.0777 13.0131L44.0474 22.2109C44.0474 22.2109 42.8603 24.8574 39.964 24.8574H23.6926C23.6926 24.8574 20.5508 24.9511 19.4976 21.5817C18.4444 18.2123 16.7932 12.9774 16.7932 12.9774Z" fill="#FFD966"/>
</g>
<defs>
<clipPath id="clip0_3467_8996">
<rect width="39.8706" height="40" fill="white" transform="translate(12 12)"/>
</clipPath>
</defs>
</svg>
