<svg width="64" height="64" viewBox="0 0 64 64" fill="none" xmlns="http://www.w3.org/2000/svg">
<path d="M0 24C0 10.7452 10.7452 0 24 0H40C53.2548 0 64 10.7452 64 24V40C64 53.2548 53.2548 64 40 64H24C10.7452 64 0 53.2548 0 40V24Z" fill="#FCFF52"/>
<path d="M47.9976 48H16V16H48V27.1705H42.6899C40.8596 23.0947 36.7392 20.2577 32.0241 20.2577C25.5242 20.2577 20.26 25.568 20.26 32.0216C20.26 38.4775 25.5242 43.7423 32.0241 43.7423C36.8308 43.7423 40.9512 40.8121 42.7815 36.6476H48V48H47.9976Z" fill="black"/>
</svg>
