<svg width="64" height="64" viewBox="0 0 64 64" fill="none" xmlns="http://www.w3.org/2000/svg">
<g clip-path="url(#clip0_3467_9118)">
<path d="M0 24C0 10.7452 10.7452 0 24 0H40C53.2548 0 64 10.7452 64 24V40C64 53.2548 53.2548 64 40 64H24C10.7452 64 0 53.2548 0 40V24Z" fill="#F3F5F6"/>
<path d="M64 0H0V64H64V0Z" fill="#FF1256"/>
<path d="M23.8888 21.4594L29.6062 17.928C30.1107 17.6338 30.1107 17.0452 29.7534 16.6878L24.9818 12.0634C24.8977 11.9793 24.7296 11.9793 24.6455 12.0634L24.183 12.5259C23.5945 13.1144 23.6155 14.0393 24.183 14.6279L26.0538 16.3515C26.3691 16.6668 26.3061 17.1923 25.9277 17.4236L23.6996 18.7899C23.0059 19.2103 22.7957 20.1351 23.2161 20.8288L23.5524 21.3753C23.6155 21.4804 23.7626 21.5225 23.8888 21.4594Z" fill="white"/>
<path d="M29.396 40.3777C29.8585 38.3388 29.3119 36.2157 27.9036 34.6602L24.2881 30.5613C22.2702 28.2912 22.7747 24.7388 25.3391 23.1202L31.2458 19.3366C31.6241 19.0844 32.1286 19.1474 32.465 19.4417C34.63 21.4386 42.1552 28.6065 41.8189 36.0266C41.8189 36.0266 41.8189 47.5456 30.4891 51.8547C28.8285 52.4853 27.1258 50.9718 27.5673 49.2272C29.1438 43.0263 29.417 40.3357 29.417 40.3357L29.396 40.3777ZM30.8674 22.6367C29.9636 23.2043 28.2189 24.3184 26.7265 25.2643C25.7175 25.8949 25.5283 27.2612 26.3061 28.165L30.0897 32.5372C32.2548 34.9125 33.1166 38.2126 32.3809 41.3446L31.7503 44.1193C31.477 45.3174 32.9064 46.1582 33.8313 45.3595C37.8041 41.9332 43.3954 33.6723 31.7503 22.7208C31.519 22.4896 31.1617 22.4686 30.8674 22.6367Z" fill="white"/>
</g>
<defs>
<clipPath id="clip0_3467_9118">
<path d="M0 24C0 10.7452 10.7452 0 24 0H40C53.2548 0 64 10.7452 64 24V40C64 53.2548 53.2548 64 40 64H24C10.7452 64 0 53.2548 0 40V24Z" fill="white"/>
</clipPath>
</defs>
</svg>
