<svg width="64" height="64" viewBox="0 0 64 64" fill="none" xmlns="http://www.w3.org/2000/svg">
<path d="M0 24C0 10.7452 10.7452 0 24 0H40C53.2548 0 64 10.7452 64 24V40C64 53.2548 53.2548 64 40 64H24C10.7452 64 0 53.2548 0 40V24Z" fill="#F3F5F6"/>
<path fill-rule="evenodd" clip-rule="evenodd" d="M32.4541 16.1543L18.7386 24.0772V39.9337L32.4541 47.8565L46.1697 39.9337V24.0772L32.4541 16.1543ZM33.0302 12.1549C32.6715 11.9484 32.2368 11.9484 31.8781 12.1549L15.576 21.5775C15.2174 21.784 15 22.1644 15 22.5774V41.4226C15 41.8356 15.2174 42.216 15.576 42.4225L31.8781 51.8451C32.2368 52.0516 32.6715 52.0516 33.0302 51.8451L49.3323 42.4225C49.6909 42.216 49.9083 41.8356 49.9083 41.4226V22.5774C49.9083 22.1644 49.6909 21.784 49.3323 21.5775L33.0302 12.1549Z" fill="#FF9211"/>
<path d="M32.4768 21.8639L23.728 26.9175V37.0249L32.4225 42.0459C32.4551 42.0677 32.4768 42.1003 32.4768 42.1437V43.8718C32.4768 43.9587 32.379 44.013 32.3029 43.9696L22.4347 38.2747C22.163 38.1225 22 37.84 22 37.5248V26.4176C22 26.1133 22.163 25.8199 22.4347 25.6677L32.0421 20.1141C32.3138 19.962 32.6399 19.962 32.9007 20.1141L42.8124 25.8199C42.8885 25.8633 42.8885 25.972 42.8124 26.0155C42.2255 26.3633 41.9321 26.5154 41.2691 26.8849C41.2365 26.9067 41.193 26.9067 41.1604 26.8849L32.4768 21.8639Z" fill="#FF9211"/>
<path d="M34 31.7429C34 31.6994 34.0217 31.656 34.0652 31.6451L42.7597 27.0153C42.8358 26.9718 42.9336 27.0262 42.9336 27.1131V38.3833C42.9336 38.4268 42.9118 38.4594 42.8792 38.4811L34.1848 43.5348C34.1087 43.5783 34.0109 43.5239 34.0109 43.437V31.7429H34Z" fill="#FF9211"/>
</svg>
