<svg width="64" height="64" viewBox="0 0 64 64" fill="none" xmlns="http://www.w3.org/2000/svg">
<path d="M0 24C0 10.7452 10.7452 0 24 0H40C53.2548 0 64 10.7452 64 24V40C64 53.2548 53.2548 64 40 64H24C10.7452 64 0 53.2548 0 40V24Z" fill="#F5911A"/>
<path d="M21.2686 35.1553C23.9028 32.002 22.7653 27.7215 21.8673 25.9753C24.7497 26.4079 26.7078 28.5534 27.7549 31.6163C28.8021 34.6791 28.333 38.8261 28.232 40.1908C28.7501 39.4199 30.0769 38.3582 31.9851 37.0692C33.8931 35.7803 36.5977 35.1865 37.1157 35.1232C37.6337 35.0603 38.9731 35.1865 39.7441 36.0204C40.3425 36.6684 40.1799 37.7488 40.0118 38.2512C40.0183 38.2714 40.0114 38.2861 39.9967 38.2953C40.0017 38.2811 40.0068 38.2664 40.0118 38.2512C39.9857 38.1644 39.7189 37.9734 38.7803 37.6497C37.6227 37.2506 36.9674 37.9821 36.7846 38.3981C36.4687 39.1131 35.7767 40.8328 35.5374 41.99C35.2977 43.1476 34.3399 44.7011 33.8908 45.3329L31.6458 46.7798H30.0993C29.9662 46.8129 29.2611 46.7697 27.505 46.3308C28.2533 47.7777 29.8498 47.6776 31.097 47.977C30.8178 49.8927 29.617 50.6711 29.0516 50.8208C28.1702 51.0205 25.9883 51.1202 24.3119 49.9226C22.6356 48.7255 23.2144 46.9295 23.7132 46.1811L22.017 43.5866C20.6699 42.0901 18.6344 38.3081 21.2686 35.1553Z" fill="white"/>
<path d="M29.7182 36.9047L29.9538 35.2557L31.472 35.7269L29.7182 36.9047Z" fill="white"/>
<path d="M39.3788 34.2079C38.3313 33.6427 37.3367 33.7455 36.9703 33.8677C37.2003 33.0301 36.6121 32.4712 36.2893 32.2968C36.5859 32.384 37.3156 32.6058 37.8602 32.7945C38.5407 33.0301 39.3264 33.6321 39.3788 34.2079Z" fill="white"/>
<path d="M35.0589 34.1298L33.0692 34.8365C32.345 34.5747 30.6658 33.9778 29.7444 33.6848C29.912 32.512 29.2907 30.8051 28.9591 30.0983L29.98 29.9935C31.2453 30.2379 33.9908 30.9255 34.8495 31.7213C35.7082 32.5171 35.3468 33.6586 35.0589 34.1298Z" fill="white"/>
<path d="M28.723 28.199L28.8136 28.2268C28.7823 28.2192 28.7521 28.2099 28.723 28.199L27.5987 27.8545C27.4093 27.4626 26.7405 26.5535 25.5805 26.0518C25.6197 25.0721 26.0508 23.9552 27.5791 24.0336C28.7077 24.3158 29.63 24.6476 29.95 24.7782C29.6104 24.6672 28.8331 24.6763 28.4413 25.6012C27.9705 26.7122 28.0065 27.9318 28.723 28.199Z" fill="white"/>
<path d="M29.48 26.5223C29.2292 27.8077 29.9371 28.5078 30.3225 28.6973C31.4787 29.1806 33.9868 30.159 34.7702 30.206C35.7501 30.2648 36.2791 30.2452 36.8279 28.9912C37.2669 27.988 36.6189 27.1493 36.2401 26.8554L31.7919 25.3271C31.126 25.1899 29.7308 25.2369 29.48 26.5223Z" fill="white"/>
<path d="M38.5718 31.4204L36.4944 30.7348C36.8406 30.7609 37.6465 30.5114 38.1011 29.3044C38.5557 28.0974 37.9643 27.4561 37.6116 27.2862L40.0412 28.1288C40.3939 28.4815 40.9972 29.4298 40.5899 30.4017C40.1822 31.3735 39.0746 31.486 38.5718 31.4204Z" fill="white"/>
<path d="M39.6298 26.5615L37.6309 25.9345C37.951 25.9737 38.7206 25.7621 39.2377 24.6021C39.7552 23.4421 39.127 22.7341 38.7482 22.5251L41.0602 23.3089C41.4781 23.5963 42.1967 24.4571 41.7265 25.6014C41.2558 26.7457 40.1326 26.7183 39.6298 26.5615Z" fill="white"/>
<path d="M31.4002 22.0156C31.0554 23.207 31.9228 24.0012 32.3994 24.2494C33.3793 24.6217 35.4838 25.382 36.0638 25.4446C36.7884 25.523 37.4745 25.2487 37.9837 24.0926C38.3915 23.1678 37.6705 22.3487 37.2591 22.0549L33.5359 20.8008C32.9679 20.7094 31.7451 20.8243 31.4002 22.0156Z" fill="white"/>
<path d="M28.6962 22.9754L30.9497 23.7396C30.5741 23.6123 29.9345 23.0303 30.3812 21.7214C30.828 20.4125 31.7432 20.2355 32.145 20.3106L29.7347 19.5661C29.186 19.4681 28.026 19.6091 27.7752 20.9572C27.5244 22.3053 28.2847 22.8644 28.6962 22.9754Z" fill="white"/>
<path d="M38.137 20.929C38.1274 20.9262 38.1182 20.9232 38.1095 20.9201L38.137 20.929C38.5112 21.0411 39.3006 20.9183 39.6813 19.5649C40.0716 18.1771 39.5233 17.5927 39.2 17.474L41.2067 18.1112C41.8078 18.3642 42.8603 19.1848 42.2638 20.4429C41.6678 21.7009 40.6056 21.7262 40.1492 21.5816L38.137 20.929Z" fill="white"/>
<path d="M31.1746 18.599L33.3709 19.3717C33.0499 19.1865 32.5035 18.5095 32.8828 17.2841C33.2626 16.0586 34.1437 15.8606 34.5368 15.9148L32.3814 15.1963C31.7803 15.1241 30.5189 15.3075 30.2801 16.6197C30.0415 17.932 30.7769 18.4861 31.1746 18.599Z" fill="white"/>
<path d="M35.8521 16.3757C34.6912 16.1588 34.0309 17.171 33.8454 17.7042C33.5418 18.6369 34.2251 19.4395 34.6044 19.7241C35.115 19.9455 36.2341 20.3938 36.6244 20.4155C37.1126 20.4426 38.1563 20.4697 38.6444 19.1683C39.0347 18.1272 38.3372 17.3337 37.9396 17.0671C37.727 16.927 37.0124 16.5926 35.8521 16.3757Z" fill="white"/>
<path d="M36.1361 15.2776C35.1604 14.7788 35.1966 13.696 35.3367 13.217C35.868 11.8831 36.9586 11.7936 37.438 11.9156L39.4713 12.6477C39.8914 12.9866 40.5963 13.9138 40.054 14.9116C39.5117 15.9093 38.608 16.0232 38.2241 15.9554C37.9348 15.9374 37.1124 15.7765 36.1361 15.2776Z" fill="white"/>
</svg>
