<svg width="64" height="64" viewBox="0 0 64 64" fill="none" xmlns="http://www.w3.org/2000/svg">
<path d="M0 24C0 10.7452 10.7452 0 24 0H40C53.2548 0 64 10.7452 64 24V40C64 53.2548 53.2548 64 40 64H24C10.7452 64 0 53.2548 0 40V24Z" fill="#00467A"/>
<path d="M13.3935 28.7148C12.7509 28.7148 12.4653 29.0004 12.4653 29.5716C12.4653 29.5716 12.4653 42.4287 12.4653 44.2851C12.4653 44.9276 12.7509 45.1418 13.3935 45.1418C20.4656 45.2132 29.1066 38.9284 36.25 34.0001V17C29.1798 21.8569 20.3228 28.7862 13.3935 28.7148Z" fill="url(#paint0_linear_3467_9108)"/>
<path d="M50.6065 35.3566C51.2491 35.3566 51.5347 35.071 51.5347 34.4998C51.5347 34.4998 51.5347 21.6427 51.5347 19.7863C51.5347 19.1438 51.2491 18.9296 50.6065 18.9296C43.4631 18.8582 34.8935 25.143 27.75 30.0713V47C34.8221 42.1431 43.6791 35.2138 50.6065 35.3566Z" fill="url(#paint1_linear_3467_9108)"/>
<path d="M36.25 34.0001V24.2863C33.3209 26.1426 30.3935 28.1436 27.6786 29.9999V39.7137C30.6791 37.8574 33.5369 35.8564 36.25 34.0001Z" fill="#194AAD"/>
<defs>
<linearGradient id="paint0_linear_3467_9108" x1="26.5334" y1="43.0482" x2="22.3693" y2="19.4493" gradientUnits="userSpaceOnUse">
<stop offset="0.1" stop-color="#194AAD"/>
<stop offset="0.5" stop-color="#248FCB"/>
<stop offset="0.8" stop-color="#2BBFDF"/>
</linearGradient>
<linearGradient id="paint1_linear_3467_9108" x1="42.283" y1="17.3748" x2="36.7766" y2="48.5995" gradientUnits="userSpaceOnUse">
<stop offset="0.1" stop-color="#194AAD"/>
<stop offset="0.5" stop-color="#248FCB"/>
<stop offset="0.8" stop-color="#2BBFDF"/>
</linearGradient>
</defs>
</svg>
