<svg width="64" height="64" viewBox="0 0 64 64" fill="none" xmlns="http://www.w3.org/2000/svg">
<path d="M0 24C0 10.7452 10.7452 0 24 0H40C53.2548 0 64 10.7452 64 24V40C64 53.2548 53.2548 64 40 64H24C10.7452 64 0 53.2548 0 40V24Z" fill="#F3F5F6"/>
<path fill-rule="evenodd" clip-rule="evenodd" d="M51.6872 19.8909L44.2905 14.1906L44.0753 14.0244H34.244L34.024 14.1906L32.0148 15.7403L29.9761 14.1662L29.7561 14H19.9297L19.7096 14.1662L12.3179 19.8714L12.0001 20.1109V30.9689L12.1662 31.1841L14.3515 34.044L12.1662 36.8991L12.0001 37.1189V43.7042L12.3179 43.9486L19.7096 49.6489L19.9297 49.82H29.7561L29.9761 49.6489L31.9854 48.0992L34.024 49.6733L34.244 49.8445H44.0753L44.2905 49.6733L51.6872 43.973L52.0001 43.7286V37.1435L51.8339 36.9235L49.6486 34.0684L51.8339 31.2085L52.0001 30.9934V20.1353L51.6872 19.8909ZM19.3919 47.3561L13.6232 42.9073V37.6666L16.0187 34.5377L16.3951 34.0488L16.0187 33.56L13.6232 30.4262V22.1594L19.3919 26.613V47.3561ZM28.6805 48.1969H21.0248V27.0237H28.6805V48.1969ZM33.7209 47.3806L32.4889 46.4321L32.0001 46.0509L31.5112 46.4321L30.3086 47.3561V26.613L32.0049 25.3028L33.7307 26.6374L33.7209 47.3806ZM43.0096 48.2215H35.3587V27.0481H43.0096V48.2215ZM43.5474 25.4251H34.8209L33.3543 24.281L38.2382 20.5119L37.4071 19.8714L34.9627 18.0038L33.633 19.0256L35.5592 20.4922L32.4694 22.8779L31.9805 23.2348L30.6508 24.2615L29.1841 25.381H20.4626L14.1071 20.4922L20.4626 15.6035H29.1841L30.6508 16.7474L26.5931 19.8714L25.762 20.5167L26.5931 21.1571L29.0375 23.0246L30.3673 22.0028L28.4411 20.5363L33.3347 16.767L34.8013 15.6474H43.5278L49.8832 20.5363L43.5474 25.4251ZM50.3917 30.4409L47.9962 33.5747L47.6197 34.0635L47.9962 34.5524L50.3917 37.6813V42.922L44.6229 47.3708V26.6374L50.3917 22.1838V30.4409Z" fill="#0CC2FF"/>
</svg>
