<svg width="64" height="64" viewBox="0 0 64 64" fill="none" xmlns="http://www.w3.org/2000/svg">
<path d="M0 24C0 10.7452 10.7452 0 24 0H40C53.2548 0 64 10.7452 64 24V40C64 53.2548 53.2548 64 40 64H24C10.7452 64 0 53.2548 0 40V24Z" fill="#313C41"/>
<g clip-path="url(#clip0_3467_9155)">
<path d="M51.6718 42.6944C51.3224 38.5776 49.6652 34.6806 46.9426 31.5729C44.22 28.4653 40.5746 26.3101 36.5395 25.4224C36.7211 25.2785 36.8952 25.1245 37.0617 24.963C38.5379 23.486 39.0609 21.6157 38.2333 20.7881C37.4885 20.0434 35.9044 20.3932 34.5203 21.5413C34.2584 19.4919 33.2308 17.958 31.999 17.958C30.7672 17.958 29.7395 19.4978 29.4776 21.5413C28.0944 20.3865 26.5103 20.0425 25.7655 20.7881C24.9354 21.6174 25.4609 23.4827 26.937 24.963C27.1031 25.1281 27.2779 25.2839 27.4609 25.43C23.4288 26.3202 19.7868 28.476 17.0668 31.5827C14.3467 34.6894 12.6909 38.5842 12.3412 42.6986L12.0199 46.4978H17.0023L17.2893 43.1204C17.5943 39.526 19.2377 36.1772 21.8943 33.737C24.5509 31.2968 28.0269 29.943 31.6341 29.9438H32.3789C35.9857 29.9437 39.4611 31.2977 42.1171 33.7379C44.7731 36.178 46.4162 39.5265 46.7211 43.1204L47.0082 46.4978H51.999L51.6718 42.6944Z" fill="#FFE804"/>
<path d="M27.1303 42.6927C28.1189 42.6927 28.9203 41.2675 28.9203 39.5094C28.9203 37.7514 28.1189 36.3262 27.1303 36.3262C26.1418 36.3262 25.3404 37.7514 25.3404 39.5094C25.3404 41.2675 26.1418 42.6927 27.1303 42.6927Z" fill="#FFE804"/>
<path d="M36.8801 42.6927C37.8687 42.6927 38.6701 41.2675 38.6701 39.5094C38.6701 37.7514 37.8687 36.3262 36.8801 36.3262C35.8916 36.3262 35.0902 37.7514 35.0902 39.5094C35.0902 41.2675 35.8916 42.6927 36.8801 42.6927Z" fill="#FFE804"/>
</g>
<defs>
<clipPath id="clip0_3467_9155">
<rect width="40" height="28.5356" fill="white" transform="translate(12.0001 18)"/>
</clipPath>
</defs>
</svg>
