<svg width="64" height="64" viewBox="0 0 64 64" fill="none" xmlns="http://www.w3.org/2000/svg">
<path d="M0 24C0 10.7452 10.7452 0 24 0H40C53.2548 0 64 10.7452 64 24V40C64 53.2548 53.2548 64 40 64H24C10.7452 64 0 53.2548 0 40V24Z" fill="#102C24"/>
<path d="M50.1828 17.9144C50.077 16.0243 50.5494 14.1506 51.5352 12.5212H19.9745C19.6893 12.5212 19.4124 12.5702 19.1518 12.676C18.891 12.782 18.6547 12.9368 18.451 13.1322C18.2475 13.3278 18.0925 13.5558 17.9786 13.8166C17.8726 14.0691 17.8156 14.3462 17.8156 14.6232V21.2138C17.8156 21.4909 17.8726 21.7679 17.9786 22.0204C18.0844 22.273 18.2475 22.5091 18.451 22.7047C18.6547 22.9002 18.891 23.0549 19.1518 23.1609C19.4124 23.2669 19.6976 23.3157 19.9745 23.3157H51.5352C50.5494 21.6864 50.077 19.8126 50.1828 17.9225" fill="#00EDBE"/>
<path d="M12.8954 31.9915C13.0013 33.8816 12.5288 35.7553 11.5349 37.3847H43.0954C43.3807 37.3847 43.6576 37.3359 43.9184 37.2299C44.179 37.1241 44.4152 36.9692 44.619 36.7737C44.8227 36.5781 44.9774 36.3501 45.0915 36.0893C45.1973 35.8369 45.2544 35.5599 45.2544 35.2828V28.6921C45.2544 28.4152 45.1973 28.138 45.0915 27.8856C44.9855 27.6331 44.8227 27.3968 44.619 27.2012C44.4152 27.0057 44.179 26.851 43.9184 26.745C43.6576 26.6392 43.3726 26.5902 43.0954 26.5902H11.5349C12.5206 28.2196 12.9931 30.0933 12.8872 31.9834" fill="#00EDBE"/>
<path d="M50.1828 46.0775C50.077 44.1874 50.5494 42.3137 51.5352 40.6843H19.9745C19.6893 40.6843 19.4124 40.7333 19.1518 40.8391C18.891 40.9451 18.6547 41.0998 18.451 41.2953C18.2475 41.4909 18.0925 41.7189 17.9786 41.9797C17.8726 42.2322 17.8156 42.5093 17.8156 42.7862V49.377C17.8156 49.654 17.8726 49.931 17.9786 50.1835C18.0844 50.4361 18.2475 50.6724 18.451 50.8678C18.6547 51.0633 18.891 51.2182 19.1518 51.324C19.4124 51.43 19.6976 51.4788 19.9745 51.4788H51.5352C50.5494 49.8494 50.077 47.9757 50.1828 46.0856" fill="#00EDBE"/>
</svg>
