<svg width="64" height="64" viewBox="0 0 64 64" fill="none" xmlns="http://www.w3.org/2000/svg">
<path d="M0 24C0 10.7452 10.7452 0 24 0H40C53.2548 0 64 10.7452 64 24V40C64 53.2548 53.2548 64 40 64H24C10.7452 64 0 53.2548 0 40V24Z" fill="#F3F5F6"/>
<path d="M44.3909 12V27.0221C44.3883 29.6826 43.3303 32.2333 41.449 34.1146C39.5678 35.9958 37.017 37.0539 34.3565 37.0565V22.0442C34.3565 19.382 35.4134 16.8287 37.2949 14.9454C39.1764 13.062 41.7287 12.0026 44.3909 12Z" fill="#01E385"/>
<path d="M29.0443 26.9337V41.9558C29.0443 44.6197 27.9861 47.1745 26.1025 49.0581C24.2188 50.9418 21.664 52 19.0001 52V36.9779C19.0001 34.314 20.0583 31.7593 21.942 29.8756C23.8257 27.9919 26.3805 26.9337 29.0443 26.9337Z" fill="#01E385"/>
</svg>
