<svg width="64" height="64" viewBox="0 0 64 64" fill="none" xmlns="http://www.w3.org/2000/svg">
<g clip-path="url(#clip0_3467_9193)">
<path d="M0 24C0 10.7452 10.7452 0 24 0H40C53.2548 0 64 10.7452 64 24V40C64 53.2548 53.2548 64 40 64H24C10.7452 64 0 53.2548 0 40V24Z" fill="#627EEA"/>
<mask id="mask0_3467_9193" style="mask-type:luminance" maskUnits="userSpaceOnUse" x="0" y="0" width="64" height="64">
<path d="M56 0H8C3.58172 0 0 3.58172 0 8V56C0 60.4183 3.58172 64 8 64H56C60.4183 64 64 60.4183 64 56V8C64 3.58172 60.4183 0 56 0Z" fill="white"/>
</mask>
<g mask="url(#mask0_3467_9193)">
<path d="M32.4995 11V25.7866L44.9973 31.3713L32.4995 11Z" fill="white" fill-opacity="0.602"/>
<path d="M32.4998 11L20 31.3713L32.4998 25.7866V11Z" fill="white"/>
<path d="M32.4995 40.9525V51L45.0058 33.6973L32.4995 40.9525Z" fill="white" fill-opacity="0.602"/>
<path d="M32.4998 51V40.9508L20 33.6973L32.4998 51Z" fill="white"/>
<path d="M32.4995 38.6265L44.9973 31.3698L32.4995 25.7885V38.6265Z" fill="white" fill-opacity="0.2"/>
<path d="M20 31.3698L32.4998 38.6265V25.7885L20 31.3698Z" fill="white" fill-opacity="0.602"/>
</g>
</g>
<defs>
<clipPath id="clip0_3467_9193">
<path d="M0 24C0 10.7452 10.7452 0 24 0H40C53.2548 0 64 10.7452 64 24V40C64 53.2548 53.2548 64 40 64H24C10.7452 64 0 53.2548 0 40V24Z" fill="white"/>
</clipPath>
</defs>
</svg>
