<svg width="64" height="64" viewBox="0 0 64 64" fill="none" xmlns="http://www.w3.org/2000/svg">
<path d="M0 24C0 10.7452 10.7452 0 24 0H40C53.2548 0 64 10.7452 64 24V40C64 53.2548 53.2548 64 40 64H24C10.7452 64 0 53.2548 0 40V24Z" fill="#F3F5F6"/>
<g clip-path="url(#clip0_3467_9209)">
<path d="M35.6757 30.2574C35.1772 30.2574 34.6776 30.0667 34.2971 29.6862C33.5351 28.9252 33.5351 27.6899 34.2971 26.9289L39.3394 21.8867C40.1004 21.1257 41.3356 21.1257 42.0966 21.8867C42.8586 22.6476 42.8586 23.8829 42.0966 24.6439L37.0543 29.6862C36.6739 30.0667 36.1743 30.2574 35.6757 30.2574Z" fill="#38FF9C"/>
<path d="M32.0205 52.0399C20.981 52.0399 12 43.0589 12 32.0205C12 20.9821 20.981 12 32.0205 12C43.06 12 52.041 20.981 52.041 32.0205C52.041 43.06 43.06 52.041 32.0205 52.041V52.0399ZM32.0205 15.8997C23.1322 15.8997 15.8997 23.1312 15.8997 32.0205C15.8997 40.9098 23.1312 48.1412 32.0205 48.1412C40.9098 48.1412 48.1412 40.9098 48.1412 32.0205C48.1412 23.1312 40.9088 15.8997 32.0205 15.8997Z" fill="#38FF9C"/>
<path d="M23.3218 42.5718C22.8233 42.5718 22.3237 42.381 21.9432 42.0005C21.1822 41.2395 21.1812 40.0043 21.9432 39.2433L26.9855 34.201C27.7465 33.44 28.9817 33.439 29.7427 34.201C30.5037 34.963 30.5047 36.1973 29.7427 36.9582L24.7004 42.0005C24.3199 42.381 23.8204 42.5718 23.3218 42.5718Z" fill="#38FF9C"/>
<path d="M31.5845 25.0014C28.099 25.2512 25.2806 28.0548 25.0445 31.5424C25.0319 31.7311 24.9496 31.9092 24.8147 32.0431L21.9827 34.8794C21.8225 35.0406 21.5453 34.9679 21.4873 34.7476C21.2575 33.8696 21.1152 32.9274 21.1152 31.9904C21.1152 25.9616 26.0194 21.0574 32.0482 21.0574C33.0306 21.0574 33.9834 21.1881 34.8898 21.4315C35.0732 21.4811 35.1333 21.7109 34.9994 21.8458L32.0725 24.7748C31.9418 24.9055 31.7689 24.9866 31.5845 25.0003V25.0014Z" fill="#38FF9C"/>
<path d="M39.1982 31.9194L42.1273 28.9924C42.2611 28.8586 42.4919 28.9187 42.5415 29.102C42.786 30.0085 42.9156 30.9613 42.9156 31.9436C42.9156 37.9724 38.0114 42.8766 31.9826 42.8766C31.0467 42.8766 30.1044 42.7343 29.2254 42.5046C29.0051 42.4466 28.9334 42.1704 29.0937 42.0092L31.9299 39.1771C32.0638 39.0433 32.2419 38.961 32.4306 38.9473C35.9193 38.7112 38.7218 35.8929 38.9716 32.4073C38.9853 32.2229 39.0675 32.05 39.1982 31.9194Z" fill="#38FF9C"/>
</g>
<defs>
<clipPath id="clip0_3467_9209">
<rect width="40" height="40" fill="white" transform="translate(12 12)"/>
</clipPath>
</defs>
</svg>
