<svg width="64" height="64" viewBox="0 0 64 64" fill="none" xmlns="http://www.w3.org/2000/svg">
<path d="M0 24C0 10.7452 10.7452 0 24 0H40C53.2548 0 64 10.7452 64 24V40C64 53.2548 53.2548 64 40 64H24C10.7452 64 0 53.2548 0 40V24Z" fill="#F3F5F6"/>
<path fill-rule="evenodd" clip-rule="evenodd" d="M49.14 38.2784L35.0427 13.861C33.6103 11.3799 30.0291 11.3798 28.5966 13.861L14.4992 38.2784C13.4715 40.0583 14.0814 42.3346 15.8615 43.3622L29.9588 51.5013C31.1103 52.1664 32.5291 52.1664 33.6806 51.5013L47.778 43.3622C49.5578 42.3346 50.1681 40.0583 49.14 38.2784ZM17.4328 40.6409C17.1559 40.4806 17.061 40.1266 17.2209 39.8498L31.0227 15.9442V48.4866L17.4328 40.6409ZM32.6168 48.4866V15.9444L46.4186 39.8498C46.5785 40.1266 46.4834 40.4806 46.2066 40.6409L32.6168 48.4866Z" fill="black"/>
</svg>
