<svg width="64" height="64" viewBox="0 0 64 64" fill="none" xmlns="http://www.w3.org/2000/svg">
<path d="M0 24C0 10.7452 10.7452 0 24 0H40C53.2548 0 64 10.7452 64 24V40C64 53.2548 53.2548 64 40 64H24C10.7452 64 0 53.2548 0 40V24Z" fill="#0090FF"/>
<path fill-rule="evenodd" clip-rule="evenodd" d="M34.8509 28.5681L33.9717 33.2571L42.324 34.4294L41.7379 36.6274L33.5321 35.4551C32.946 37.36 32.6529 39.4115 31.9203 41.1699C31.1876 43.2213 30.455 45.2727 29.5758 47.1777C28.4035 49.6687 26.3521 51.4271 23.568 51.8667C21.9561 52.1597 20.1978 52.0132 18.879 50.9875C18.4394 50.6944 17.9998 50.1083 17.9998 49.6687C17.9998 49.0826 18.2928 48.3499 18.7324 48.0568C19.0255 47.9103 19.7582 48.0568 20.1978 48.2034C20.6374 48.643 21.077 49.2291 21.37 49.8152C22.2492 50.9875 23.4215 51.134 24.5937 50.2548C25.9125 49.0826 26.6452 47.4707 27.0847 45.8589C27.9639 42.3421 28.8431 38.9719 29.5758 35.4551V34.869L21.8096 33.6967L22.1027 31.4988L30.1619 32.671L31.1876 28.1285L22.8353 26.8098L23.1284 24.4652L31.7738 25.6375C32.0668 24.7583 32.2134 24.0257 32.5064 23.293C33.2391 20.6554 33.9717 18.0179 35.7301 15.6734C37.4885 13.3288 39.5399 11.8635 42.6171 12.0101C43.9359 12.0101 45.2547 12.4497 46.1339 13.4754C46.2804 13.6219 46.5735 13.915 46.5735 14.208C46.5735 14.7942 46.5735 15.5268 46.1339 15.9664C45.5477 16.406 44.8151 16.2595 44.2289 15.6734C43.7894 15.2338 43.4963 14.7942 43.0567 14.3546C42.1775 13.1823 40.8587 13.0358 39.833 14.0615C39.1003 14.7942 38.3677 15.8199 37.9281 16.8456C36.9024 19.9228 36.1697 23.1465 35.144 26.3702L43.2032 27.5424L42.6171 29.7404L34.8509 28.5681Z" fill="white"/>
</svg>
