<svg width="64" height="64" viewBox="0 0 64 64" fill="none" xmlns="http://www.w3.org/2000/svg">
<path d="M0 24C0 10.7452 10.7452 0 24 0H40C53.2548 0 64 10.7452 64 24V40C64 53.2548 53.2548 64 40 64H24C10.7452 64 0 53.2548 0 40V24Z" fill="#F3F5F6"/>
<g clip-path="url(#clip0_3467_9231)">
<path d="M41.7547 26.9731H22.0272C16.5776 26.9731 12.2179 31.2354 11.9999 36.6999C11.9999 36.8092 12.1089 36.9185 12.2179 36.9185H31.9454C37.395 36.9185 41.7547 32.6562 41.9727 27.1917C41.9727 27.0824 41.8637 26.9731 41.7547 26.9731Z" fill="#E62058"/>
<path d="M51.673 12H22.0272C16.5777 12 12.218 16.2623 12 21.7268C12 21.8361 12.109 22.0546 12.218 22.0546H41.9728C47.4223 22.0546 51.782 17.7923 52 12.3279C52 12.1093 51.891 12 51.673 12Z" fill="#E62058"/>
<path d="M17.0136 52.0001C19.7825 52.0001 22.0272 49.7493 22.0272 46.9728C22.0272 44.1962 19.7825 41.9454 17.0136 41.9454C14.2446 41.9454 11.9999 44.1962 11.9999 46.9728C11.9999 49.7493 14.2446 52.0001 17.0136 52.0001Z" fill="#E62058"/>
</g>
<defs>
<clipPath id="clip0_3467_9231">
<rect width="40" height="40" fill="white" transform="translate(12 12)"/>
</clipPath>
</defs>
</svg>
