<svg width="64" height="64" viewBox="0 0 64 64" fill="none" xmlns="http://www.w3.org/2000/svg">
<path d="M0 24C0 10.7452 10.7452 0 24 0H40C53.2548 0 64 10.7452 64 24V40C64 53.2548 53.2548 64 40 64H24C10.7452 64 0 53.2548 0 40V24Z" fill="#16FF99"/>
<path d="M47.2667 26.1333H37.8667V35.5333H47.2667V26.1333Z" fill="white"/>
<path d="M28.4667 39.0666C28.4667 40.9999 26.8667 42.5999 24.9334 42.5999C23 42.5999 21.4 40.9999 21.4 39.0666C21.4 37.1333 23 35.5333 24.9334 35.5333H28.4667V26.1333H24.9334C17.8 26.1333 12.0001 31.9333 12.0001 39.0666C12.0001 46.1999 17.8 51.9999 24.9334 51.9999C32.0667 51.9999 37.8666 46.1999 37.8666 39.0666V35.5333H28.4667V39.0666Z" fill="white"/>
<path d="M41.4 21.4H52V12H41.4C34.2667 12 28.4667 17.8 28.4667 24.9333V26.1333H37.8667V24.9333C37.8667 23 39.4667 21.4 41.4 21.4Z" fill="white"/>
<path d="M37.8667 26.1333H28.4667V35.5333H37.8667V26.1333Z" fill="#16FF99"/>
</svg>
