<svg width="64" height="64" viewBox="0 0 64 64" fill="none" xmlns="http://www.w3.org/2000/svg">
<path d="M0 24C0 10.7452 10.7452 0 24 0H40C53.2548 0 64 10.7452 64 24V40C64 53.2548 53.2548 64 40 64H24C10.7452 64 0 53.2548 0 40V24Z" fill="black"/>
<path d="M49.4719 32C49.4719 28.4463 48.4043 25.1398 46.5756 22.3769L52 16.9524L47.1217 12.0741L41.7121 17.4838C38.9344 15.6179 35.5932 14.5281 32.0025 14.5281C28.4488 14.5281 25.1422 15.5957 22.3793 17.4244L16.9524 12L12.0741 16.8783L17.4838 22.2879C15.6179 25.0656 14.5281 28.4068 14.5281 31.9975C14.5281 35.5512 15.5957 38.8578 17.4244 41.6207L12 47.0476L16.8783 51.9259L22.2879 46.5162C25.0656 48.3821 28.4068 49.4719 31.9975 49.4719C35.5512 49.4719 38.8578 48.4043 41.6207 46.5756L47.0476 52.0025L51.9259 47.1242L46.5162 41.7146C48.3821 38.9319 49.4719 35.5908 49.4719 32ZM21.4304 32C21.4304 26.1703 26.1727 21.4279 32.0025 21.4279C37.8322 21.4279 42.5746 26.1703 42.5746 32C42.5746 37.8297 37.8322 42.5721 32.0025 42.5721C26.1727 42.5721 21.4304 37.8297 21.4304 32Z" fill="white"/>
</svg>
