<svg width="64" height="64" viewBox="0 0 64 64" fill="none" xmlns="http://www.w3.org/2000/svg">
<path d="M0 24C0 10.7452 10.7452 0 24 0H40C53.2548 0 64 10.7452 64 24V40C64 53.2548 53.2548 64 40 64H24C10.7452 64 0 53.2548 0 40V24Z" fill="#E84142"/>
<path fill-rule="evenodd" clip-rule="evenodd" d="M22.12 47.466H15.3942C13.9809 47.466 13.2828 47.466 12.8571 47.1937C12.3974 46.8956 12.1164 46.4019 12.0824 45.8569C12.0568 45.3548 12.4059 44.7416 13.104 43.5156L29.7108 14.2439C30.4174 13.0009 30.775 12.3794 31.2262 12.1495C31.7115 11.9026 32.2904 11.9026 32.7757 12.1495C33.2269 12.3794 33.5845 13.0009 34.2911 14.2439L37.7051 20.2034L37.7225 20.2339C38.4858 21.5674 38.8728 22.2436 39.0418 22.9533C39.229 23.7281 39.229 24.5454 39.0418 25.3201C38.8715 26.0353 38.4884 26.7164 37.7136 28.0701L28.9905 43.4901L28.9679 43.5296C28.1997 44.8741 27.8103 45.5555 27.2707 46.0696C26.6833 46.6317 25.9767 47.0401 25.2019 47.2703C24.4953 47.466 23.7035 47.466 22.12 47.466ZM39.1048 47.466H48.742C50.1638 47.466 50.8791 47.466 51.305 47.1854C51.7646 46.8873 52.054 46.3848 52.0798 45.8403C52.1043 45.3543 51.7628 44.765 51.0937 43.6103C51.0706 43.571 51.0475 43.531 51.024 43.4903L46.1966 35.2321L46.1417 35.1391C45.4633 33.992 45.1209 33.4127 44.6811 33.1888C44.1961 32.9419 43.6253 32.9419 43.1403 33.1888C42.6975 33.4186 42.34 34.0231 41.6333 35.2406L36.8231 43.4988L36.8066 43.5273C36.1025 44.7428 35.7506 45.3502 35.7759 45.8486C35.81 46.3936 36.0909 46.8956 36.5507 47.1937C36.9679 47.466 37.683 47.466 39.1048 47.466Z" fill="#FCFCFD"/>
</svg>
