<svg width="64" height="64" viewBox="0 0 64 64" fill="none" xmlns="http://www.w3.org/2000/svg">
<path d="M0 21.3333C0 9.55126 9.55126 0 21.3333 0H42.6667C54.4487 0 64 9.55126 64 21.3333V42.6667C64 54.4487 54.4487 64 42.6667 64H21.3333C9.55126 64 0 54.4487 0 42.6667V21.3333Z" fill="#3E6956"/>
<mask id="mask0_3467_9262" style="mask-type:luminance" maskUnits="userSpaceOnUse" x="12" y="12" width="41" height="41">
<path d="M52.0002 12.0001H12.0002V52.0001H52.0002V12.0001Z" fill="white"/>
</mask>
<g mask="url(#mask0_3467_9262)">
<path d="M18.5828 29.6019C18.5646 28.4429 18.9415 27.3121 19.6515 26.396L26.9396 33.684C26.021 34.3896 24.8918 34.766 23.7336 34.7526C22.3693 34.7471 21.0625 34.2026 20.0977 33.238C19.1329 32.2732 18.5884 30.9661 18.5828 29.6019Z" fill="#F1EBDD"/>
<path d="M40.2642 34.7457C40.9465 34.7485 41.6226 34.6163 42.2537 34.3565C42.8848 34.097 43.4582 33.7149 43.9408 33.2326C44.4237 32.7505 44.8063 32.1773 45.0665 31.5466C45.3268 30.9158 45.4598 30.2397 45.4576 29.5574C45.4704 28.3992 45.0943 27.2703 44.389 26.3516L37.0795 33.6611C37.9881 34.3718 39.1106 34.7541 40.2642 34.7457Z" fill="#F1EBDD"/>
<path d="M45.9029 24.8724C47.0266 26.1919 47.6441 27.8681 47.6448 29.6011C47.6433 31.5501 46.8682 33.4187 45.4896 34.7965C44.1109 36.1741 42.2416 36.948 40.2926 36.948C38.5685 36.9499 36.8993 36.3425 35.5799 35.2328L32.0426 38.77L28.5056 35.2328C27.185 36.3444 25.5136 36.9522 23.7875 36.948C22.8201 36.9515 21.8617 36.7641 20.9669 36.3965C20.0721 36.029 19.2587 35.4884 18.5732 34.8059C17.8878 34.1234 17.3437 33.3124 16.9722 32.4193C16.6007 31.5261 16.4092 30.5684 16.4085 29.6011C16.4098 27.8761 17.0169 26.2063 18.1236 24.8831L16.4726 23.2321L14.8964 21.629C12.9976 24.751 11.9956 28.3355 12.0003 31.9896C11.9996 34.6159 12.5165 37.2166 13.5214 39.6431C14.5263 42.0696 15.9995 44.2742 17.8569 46.1311C19.7142 47.988 21.9193 49.4605 24.3459 50.4648C26.7728 51.469 29.3737 51.9851 32 51.9837C37.3001 51.9824 42.3829 49.8777 46.1328 46.132C49.8825 42.3864 51.9925 37.3056 51.9994 32.0056C52.0325 28.3522 51.0403 24.7629 49.1356 21.645L45.9029 24.8724Z" fill="#F1EBDD"/>
<path d="M46.4848 18.1984C44.6197 16.2375 42.3751 14.6767 39.8874 13.6112C37.4 12.5456 34.7216 11.9975 32.0152 12.0003C29.3086 11.9989 26.6298 12.5477 24.1416 13.6131C21.6533 14.6786 19.4076 16.2386 17.5406 18.1984C17.0544 18.7327 16.5789 19.267 16.1354 19.8387L31.9992 35.6973L47.8632 19.8227C47.4444 19.248 46.9836 18.7051 46.4848 18.1984ZM32.0152 31.9944L19.726 19.7051C21.3328 18.0813 23.2472 16.794 25.3573 15.9188C27.4675 15.0435 29.731 14.5978 32.0152 14.6077C34.3 14.5952 36.5644 15.0396 38.675 15.915C40.7854 16.7904 42.6995 18.0791 44.3047 19.7051L32.0152 31.9944Z" fill="#F1EBDD"/>
</g>
</svg>
