<svg width="64" height="64" viewBox="0 0 64 64" fill="none" xmlns="http://www.w3.org/2000/svg">
<path d="M0 24C0 10.7452 10.7452 0 24 0H40C53.2548 0 64 10.7452 64 24V40C64 53.2548 53.2548 64 40 64H24C10.7452 64 0 53.2548 0 40V24Z" fill="white"/>
<mask id="mask0_3467_9279" style="mask-type:luminance" maskUnits="userSpaceOnUse" x="8" y="8" width="48" height="48">
<path d="M56 8H8V56H56V8Z" fill="white"/>
</mask>
<g mask="url(#mask0_3467_9279)">
<path fill-rule="evenodd" clip-rule="evenodd" d="M18.4408 17.3881L25.7495 19.0454C25.8394 19.0622 25.9012 19.1409 25.9012 19.2307V44.915C25.9012 45.005 25.8338 45.089 25.7439 45.106L18.4352 46.612C18.3116 46.64 18.1992 46.544 18.1992 46.421V17.5791C18.1992 17.4555 18.3172 17.36 18.4408 17.3881ZM45.558 17.3881L38.249 19.0454C38.1591 19.0622 38.0973 19.1409 38.0973 19.2307V44.915C38.0973 45.005 38.1647 45.089 38.2546 45.106L45.563 46.612C45.687 46.64 45.799 46.544 45.799 46.421V17.5791C45.799 17.4555 45.681 17.36 45.558 17.3881ZM35.8503 28.2249V35.5898V35.7583H35.6818H28.3169H28.1483V35.5898V28.2249V28.0563H28.3169H35.6818H35.8503V28.2249Z" fill="url(#paint0_linear_3467_9279)"/>
<path fill-rule="evenodd" clip-rule="evenodd" d="M25.1182 19.7051L18.9823 18.3138V45.7L25.1182 44.436V19.7051ZM38.8804 19.7051V44.436L45.016 45.7V18.3138L38.8804 19.7051ZM25.7495 19.0454C25.8394 19.0622 25.9012 19.1409 25.9012 19.2307V44.915C25.9012 45.005 25.8338 45.089 25.7439 45.106L18.4352 46.612C18.3116 46.64 18.1992 46.544 18.1992 46.421V17.5791C18.1992 17.4555 18.3172 17.36 18.4408 17.3881L25.7495 19.0454ZM45.563 46.612L38.2546 45.106C38.1647 45.089 38.0973 45.005 38.0973 44.915V19.2307C38.0973 19.1409 38.1591 19.0622 38.249 19.0454L45.558 17.3881C45.681 17.36 45.799 17.4555 45.799 17.5791V46.421C45.799 46.544 45.687 46.64 45.563 46.612ZM35.0673 34.9753V28.8394H28.9314V34.9753H35.0673ZM28.1483 35.7583V28.0563H35.8503V35.7583H28.1483Z" fill="black"/>
</g>
<defs>
<linearGradient id="paint0_linear_3467_9279" x1="41.1347" y1="17.3832" x2="40.8737" y2="46.617" gradientUnits="userSpaceOnUse">
<stop offset="0.055"/>
<stop offset="0.4999" stop-color="#808080"/>
<stop offset="0.5"/>
<stop offset="0.97" stop-color="#666666"/>
</linearGradient>
</defs>
</svg>
