<svg width="64" height="64" viewBox="0 0 64 64" fill="none" xmlns="http://www.w3.org/2000/svg">
<path d="M0 24C0 10.7452 10.7452 0 24 0H40C53.2548 0 64 10.7452 64 24V40C64 53.2548 53.2548 64 40 64H24C10.7452 64 0 53.2548 0 40V24Z" fill="#313C41"/>
<path d="M52.0001 31.5787C52.0001 44.7487 43.9144 48.9754 39.6265 45.2388C36.1349 42.176 35.0935 35.6829 29.8255 35.0091C23.1487 34.2127 22.5361 43.0948 18.1257 43.0948C12.9802 43.0948 12.0001 35.6829 12.0001 31.8238C12.0001 27.9034 13.1027 22.5741 17.4519 22.5741C22.5361 22.5741 22.8424 30.2311 29.213 29.8023C35.5223 29.3735 35.6448 21.4103 39.8102 18.0412C43.4243 15.0397 52.0001 18.225 52.0001 31.5787Z" fill="#97FCE4"/>
</svg>
