<svg xmlns="http://www.w3.org/2000/svg" width="56" height="57" viewBox="0 0 56 57" fill="none">
  <path d="M0 18.8874C0 8.57806 8.35735 0.220703 18.6667 0.220703H37.3333C47.6426 0.220703 56 8.57805 56 18.8874V37.554C56 47.8633 47.6426 56.2207 37.3333 56.2207H18.6667C8.35735 56.2207 0 47.8633 0 37.554V18.8874Z" fill="#7132F5"/>
  <mask id="mask0_2881_13915" style="mask-type:luminance" maskUnits="userSpaceOnUse" x="11" y="11" width="34" height="34">
    <path d="M44.3334 11.8873H11.6667V44.554H44.3334V11.8873Z" fill="white"/>
  </mask>
  <g mask="url(#mask0_2881_13915)">
    <path d="M44.3334 28.2207C44.3334 19.2 37.0207 11.8873 28.0001 11.8873C18.9794 11.8873 11.6667 19.2 11.6667 28.2207C11.6667 37.2413 18.9794 44.554 28.0001 44.554C37.0207 44.554 44.3334 37.2413 44.3334 28.2207ZM30.3313 40.4448C30.3313 41.5529 29.4219 42.4535 28.131 42.4794C28.0952 42.4797 28.0594 42.4798 28.0236 42.4799H27.9765C20.1122 42.4673 13.7408 36.088 13.7408 28.2207C13.7408 20.3455 20.125 13.9614 28.0001 13.9614C28.0425 13.9614 28.085 13.9616 28.1273 13.962C29.584 13.9879 30.3313 14.8886 30.3313 15.9966C30.3313 17.1242 29.3344 17.954 28.2784 17.954C27.2222 17.954 27.1705 17.954 26.1596 18.035C25.1486 18.116 24.1032 18.9458 24.1032 20.0702C24.1032 21.2011 25.0221 22.112 26.1596 22.112H35.125C36.2592 22.112 37.1779 23.0227 37.1779 24.1471C37.1779 25.2714 36.2592 26.1821 35.125 26.1821H21.3158C20.1783 26.1821 19.2596 27.0964 19.2596 28.2239C19.2596 29.3483 20.1783 30.2592 21.3158 30.2592H28.2784C29.4126 30.2592 30.3313 31.1699 30.3313 32.2976C30.3313 33.4219 29.4126 34.3327 28.2784 34.3327H26.1596C25.0221 34.3327 24.1032 35.2436 24.1032 36.3679C24.1032 37.4955 25.0448 38.3187 26.1596 38.403C26.2474 38.4097 26.3278 38.4158 26.4017 38.4215C26.794 38.4513 27.0084 38.4677 27.223 38.4766C27.4815 38.4874 27.7404 38.4874 28.3112 38.4874C29.4453 38.4874 30.3313 39.3204 30.3313 40.4448Z" fill="white"/>
  </g>
</svg>