<svg width="64" height="64" viewBox="0 0 64 64" fill="none" xmlns="http://www.w3.org/2000/svg">
<path d="M0 24C0 10.7452 10.7452 0 24 0H40C53.2548 0 64 10.7452 64 24V40C64 53.2548 53.2548 64 40 64H24C10.7452 64 0 53.2548 0 40V24Z" fill="#040404"/>
<path d="M32.1611 21.9232C32.1611 20.327 33.4647 19.0367 35.0609 19.0367H40.262V12H35.0609C29.5539 12 25.0845 16.4428 25.0845 21.9232C25.0845 23.3465 25.3905 24.7166 25.9358 25.9404C21.6526 27.7361 18.8193 31.5671 18.1542 36.409C17.3827 41.7164 19.5243 47.4495 24.18 50.2296C28.3435 52.8368 34.8348 52.6639 38.3465 49.0458V51.4401H45.5827V24.8097H35.0609C33.4647 24.8097 32.1611 23.5194 32.1611 21.9232ZM38.5194 31.8464V38.524C38.5061 42.2219 35.4999 45.2148 31.802 45.2015C28.104 45.2148 25.0978 42.2219 25.0845 38.524C25.0978 34.826 28.104 31.8331 31.802 31.8464H38.5194Z" fill="#BFF007"/>
</svg>
