<svg width="64" height="64" viewBox="0 0 64 64" fill="none" xmlns="http://www.w3.org/2000/svg">
<path d="M0 24C0 10.7452 10.7452 0 24 0H40C53.2548 0 64 10.7452 64 24V40C64 53.2548 53.2548 64 40 64H24C10.7452 64 0 53.2548 0 40V24Z" fill="#61DFFF"/>
<mask id="mask0_3467_9369" style="mask-type:luminance" maskUnits="userSpaceOnUse" x="13" y="12" width="39" height="41">
<path d="M51.2935 12.0002H13.0001V52.0002H51.2935V12.0002Z" fill="white"/>
</mask>
<g mask="url(#mask0_3467_9369)">
<path d="M44.803 52.0004H13.0002V18.4912H20.2767V45.5063H44.803V51.9969V52.0004Z" fill="#121212"/>
<path d="M44.803 24.9819C48.3877 24.9819 51.2937 22.0759 51.2937 18.4912C51.2937 14.9065 48.3877 12.0005 44.803 12.0005C41.218 12.0005 38.3124 14.9065 38.3124 18.4912C38.3124 22.0759 41.218 24.9819 44.803 24.9819Z" fill="#121212"/>
</g>
</svg>
