<svg width="64" height="64" viewBox="0 0 64 64" fill="none" xmlns="http://www.w3.org/2000/svg">
<path d="M0 24C0 10.7452 10.7452 0 24 0H40C53.2548 0 64 10.7452 64 24V40C64 53.2548 53.2548 64 40 64H24C10.7452 64 0 53.2548 0 40V24Z" fill="#F3F5F6"/>
<path d="M31.9523 12.0002L28.3596 17.9757L41.3289 40.2014L30.8075 52.0001C30.8075 52.0001 39.0774 51.951 39.0283 52.0001C38.9792 52.0492 48.8651 40.8872 48.8651 40.8872L31.9523 12.0002ZM27.2345 20.1794L15.0002 40.9854L24.6406 52.0001H28.2664L33.567 45.8308H27.6774L22.4848 40.0553L30.8038 25.9069L27.2345 20.1794Z" fill="#04183D"/>
</svg>
