<svg width="64" height="64" viewBox="0 0 64 64" fill="none" xmlns="http://www.w3.org/2000/svg">
<path d="M0 24C0 10.7452 10.7452 0 24 0H40C53.2548 0 64 10.7452 64 24V40C64 53.2548 53.2548 64 40 64H24C10.7452 64 0 53.2548 0 40V24Z" fill="#F3F5F6"/>
<g clip-path="url(#clip0_3467_9398)">
<mask id="mask0_3467_9398" style="mask-type:luminance" maskUnits="userSpaceOnUse" x="12" y="12" width="40" height="40">
<path d="M52 12H12V52H52V12Z" fill="white"/>
</mask>
<g mask="url(#mask0_3467_9398)">
<path d="M51.7424 30.704H50.6597C50.6285 30.704 50.579 30.704 50.5166 30.704C50.4021 30.704 50.2147 30.6988 49.9753 30.691C49.5537 30.6779 48.8952 30.6467 48.1509 30.5817C46.8731 30.4697 45.1008 30.2381 43.9037 29.7593C42.0586 29.0228 41.0072 28.013 39.8959 26.946L39.8282 26.8809C38.6233 25.7228 37.257 24.4112 34.8887 23.2973C33.6994 22.7378 32.3383 22.4541 30.8393 22.4541C29.3403 22.4541 28.9993 22.5556 28.0312 22.7534C27.2349 22.9174 26.4385 23.1438 25.663 23.4249C25.4183 23.5133 25.1841 23.6044 24.9681 23.6955C24.3149 23.9714 23.6695 24.2837 23.0423 24.5856C22.7612 24.7209 22.4723 24.8614 22.1887 24.9967L21.5589 25.2934L22.2303 25.4782C22.2485 25.4834 24.0442 25.9753 24.9239 26.2485C24.9525 26.2563 25.002 26.272 25.067 26.2954C25.1867 26.3344 25.3793 26.4047 25.6109 26.4984C26.0273 26.6675 26.6519 26.9512 27.2713 27.3494C28.1874 27.9375 28.8146 28.5882 29.1399 29.283C27.5055 29.5511 25.7697 30.2199 23.9688 31.2791C23.0579 31.8152 22.311 32.3487 21.8426 32.7027C21.6291 32.864 21.4262 33.0254 21.2388 33.1763C21.1191 33.2752 19.3442 34.8393 19.2687 34.907L18.8315 35.2921L19.4118 35.3546C19.4353 35.3546 21.7957 35.6096 22.9486 35.8412C23.6513 35.9818 24.7261 36.2342 25.853 36.6272C27.0865 37.0566 28.1249 37.5641 28.9395 38.134C29.866 38.782 30.4906 39.5003 30.7925 40.2733C31.2349 41.4053 31.2817 42.5817 30.9226 43.6721C30.7534 44.1848 30.501 44.6714 30.1679 45.1139C29.8373 45.5537 29.4366 45.9414 28.9759 46.2694C28.0104 46.9564 26.8601 47.3182 25.6474 47.3182C24.4346 47.3182 24.3253 47.2115 23.6669 46.9981C22.9616 46.769 22.2615 46.4203 21.5875 45.9571C20.5283 45.1659 19.5602 44.2524 18.7066 43.2427C17.8478 42.2277 17.1061 41.1139 16.4997 39.9323C15.8829 38.73 15.4092 37.4574 15.0891 36.1483C14.7612 34.8003 14.5921 33.4053 14.5921 32.0052C14.5921 29.6552 15.0527 27.3754 15.961 25.2284C16.3982 24.1978 16.9369 23.201 17.5667 22.272C18.1887 21.3507 18.9044 20.4841 19.6929 19.6955C20.4815 18.907 21.3481 18.1913 22.2694 17.5693C23.201 16.9395 24.1952 16.4008 25.2258 15.9636C27.3728 15.0553 29.6526 14.5947 32.0026 14.5947C34.3526 14.5947 35.9948 14.8835 37.9935 15.4509C39.987 16.0182 41.866 16.8354 43.5758 17.8842C45.3377 18.9616 46.8419 20.2368 48.0468 21.6708C49.3195 23.188 50.2225 24.8432 50.7248 26.5895L50.8471 26.553L50.9694 26.5166L51.0917 26.4802L51.2141 26.4437C50.6207 24.3826 49.6994 22.4385 48.4789 20.6662C47.2765 18.92 45.8113 17.3793 44.1223 16.0911C42.4177 14.7899 40.5283 13.7749 38.5062 13.08C36.4216 12.3643 34.2303 12 32 12C29.7697 12 29.2882 12.1379 27.9688 12.406C26.6858 12.6688 25.4209 13.0618 24.2134 13.5719C23.0293 14.0742 21.8842 14.6936 20.8146 15.417C19.7554 16.1327 18.7586 16.9551 17.8556 17.8582C16.9499 18.7638 16.1301 19.758 15.4144 20.8172C14.691 21.8868 14.0716 23.0293 13.5693 24.2134C13.0592 25.4209 12.6662 26.6831 12.4034 27.9688C12.1379 29.2882 12 30.6441 12 32C12 33.3559 12.1379 34.7118 12.406 36.0312C12.6688 37.3142 13.0618 38.579 13.5719 39.7866C14.0742 40.9707 14.6936 42.1158 15.417 43.1854C16.1327 44.2446 16.9551 45.2414 17.8582 46.1444C18.7638 47.0501 19.758 47.8699 20.8172 48.5856C21.8868 49.309 23.0293 49.9284 24.216 50.4307C25.4236 50.9408 26.6858 51.3338 27.9714 51.5966C29.2882 51.8673 30.6441 52.0026 32.0026 52.0026C33.3611 52.0026 34.7144 51.8647 36.0338 51.5966C37.3169 51.3338 38.5817 50.9408 39.7892 50.4307C40.9733 49.9284 42.1184 49.309 43.1854 48.5856C44.2446 47.8699 45.2414 47.0475 46.1444 46.1444C47.0501 45.2388 47.8699 44.2446 48.5856 43.1854C49.3064 42.1158 49.9284 40.9733 50.4281 39.7866C50.9382 38.579 51.3312 37.3169 51.594 36.0312C51.8647 34.7144 52 33.3585 52 32V30.704H51.7424ZM43.5966 44.9837C42.0351 46.3787 40.2576 47.4717 38.3136 48.2264C36.3019 49.0098 34.1783 49.4053 32 49.4053C29.8217 49.4053 30.0534 49.3247 29.0982 49.1633C29.5823 48.9447 30.0455 48.6792 30.4776 48.3722C31.1568 47.8907 31.7502 47.3129 32.2446 46.6519C32.7443 45.9831 33.1295 45.2518 33.3871 44.4737C33.9388 42.8055 33.8764 41.0228 33.2101 39.3182C32.7183 38.0612 31.7814 36.9447 30.4281 36C29.4183 35.2947 28.1692 34.6805 26.7118 34.1731C26.1757 33.9857 25.6135 33.8139 25.0332 33.6604C25.1191 33.6083 25.2049 33.5563 25.2908 33.5068C26.6623 32.7001 28.7157 31.7372 30.7066 31.7372C32.6975 31.7372 33.2544 31.9193 34.5244 32.2941C35.6122 32.6142 36.6012 33.0332 37.7489 33.5667C37.931 33.65 38.1158 33.7385 38.2954 33.8217L38.3136 33.8295C39.2427 34.2642 40.2004 34.7144 41.2128 35.0553C42.3682 35.4431 43.4327 35.6331 44.4737 35.6331C45.5146 35.6331 46.5036 35.4977 47.4561 35.2349C48.0677 35.0657 48.6584 34.8419 49.2232 34.5712C48.6298 38.5817 46.6441 42.2642 43.5992 44.9837H43.5966ZM28.799 25.244C29.5094 25.1113 30.1965 25.0436 30.8419 25.0436C31.9558 25.0436 32.9473 25.244 33.7879 25.6396C35.7684 26.5712 36.8822 27.6409 38.0638 28.7755L38.1054 28.8146C39.2895 29.9519 40.6298 31.2401 42.946 32.164C43.7345 32.4789 44.7365 32.7339 45.9336 32.9213C45.4574 33.002 44.9707 33.041 44.4737 33.041C42.7586 33.041 41.257 32.3409 39.3572 31.4561L39.2739 31.417C39.1308 31.3494 38.985 31.2817 38.8367 31.2141C37.8634 30.7638 36.8016 30.2954 35.6304 29.9232C34.3604 29.5198 33.1217 29.2778 31.8517 29.1867C31.6461 28.3435 31.2297 27.5472 30.6103 26.8159C30.1262 26.2459 29.5172 25.715 28.8016 25.2414L28.799 25.244Z" fill="url(#paint0_linear_3467_9398)"/>
</g>
</g>
<defs>
<linearGradient id="paint0_linear_3467_9398" x1="12" y1="17.3672" x2="45.9433" y2="49.4316" gradientUnits="userSpaceOnUse">
<stop stop-color="#29CCB9"/>
<stop offset="0.515625" stop-color="#009AFF"/>
<stop offset="1" stop-color="#FF66B7"/>
</linearGradient>
<clipPath id="clip0_3467_9398">
<rect width="40" height="40" fill="white" transform="translate(12 12)"/>
</clipPath>
</defs>
</svg>
