<svg width="64" height="64" viewBox="0 0 64 64" fill="none" xmlns="http://www.w3.org/2000/svg">
<path d="M0 24C0 10.7452 10.7452 0 24 0H40C53.2548 0 64 10.7452 64 24V40C64 53.2548 53.2548 64 40 64H24C10.7452 64 0 53.2548 0 40V24Z" fill="black"/>
<path d="M31.9998 51.8513V45.0658C31.3168 45.0658 30.619 45.0064 29.936 44.9025L28.8669 51.5989C29.9063 51.777 30.9605 51.8513 31.9998 51.8513ZM35.1179 51.6137C36.1572 51.4504 37.1817 51.2128 38.1765 50.8862L36.083 44.4274C35.4297 44.6352 34.7467 44.7986 34.0637 44.9025L35.1179 51.6137ZM25.8231 50.8862L27.9167 44.4422C27.2634 44.2343 26.6249 43.9671 26.0013 43.6553L22.913 49.6983C23.8484 50.1586 24.8283 50.5595 25.8231 50.8862ZM41.0718 49.6983C42.0072 49.2232 42.8981 48.6738 43.7444 48.0651L39.7355 42.5862C39.1862 42.9871 38.5922 43.3583 37.9686 43.6553L41.0718 49.6983ZM20.2404 48.0502L24.2493 42.5714C23.6999 42.1705 23.1654 41.7251 22.6754 41.2351L17.8647 46.0309C18.6071 46.7585 19.4089 47.4415 20.2404 48.0502ZM46.1052 46.0606L46.1498 46.0161C46.8922 45.2885 47.5752 44.4868 48.1839 43.6553L42.6902 39.6612C42.2893 40.2106 41.8291 40.7451 41.3539 41.2202L41.2797 41.2945L43.596 43.4771L46.1052 46.0606ZM15.8306 43.6404L21.3242 39.6464C20.9234 39.097 20.5522 38.5031 20.2404 37.8943L14.1824 40.9678C14.6576 41.9032 15.2069 42.7941 15.8306 43.6404ZM49.8172 40.9827C50.2923 40.0621 50.6932 39.0822 51.0199 38.0874L44.5462 36.0087C44.3383 36.662 44.0711 37.3004 43.7593 37.9092L49.8172 40.9827ZM12.9798 38.0874L19.4534 35.9938C19.2455 35.3405 19.0822 34.6724 18.9783 33.9894L12.2522 35.0436C12.4156 36.0681 12.668 37.0926 12.9798 38.0874ZM51.7474 35.0584C51.9107 34.0339 51.9998 32.9797 51.9998 31.9404H45.1995C45.1995 32.6234 45.1401 33.3212 45.0362 34.0042L51.7474 35.0584ZM18.815 31.9255C18.815 31.2425 18.8744 30.5447 18.9783 29.8617L12.2522 28.8075C12.0889 29.832 12.0147 30.8862 11.9998 31.9255H18.815ZM45.0362 29.8765L51.7623 28.8223C51.5989 27.7978 51.3614 26.7733 51.0347 25.7785L44.5611 27.8572C44.7689 28.5254 44.9323 29.1935 45.0362 29.8765ZM19.4534 27.8572C19.6613 27.2039 19.9285 26.5655 20.2404 25.9567L14.1824 22.8832C13.7073 23.8038 13.3064 24.7837 12.9798 25.7785L19.4534 27.8572ZM43.7741 25.9715L49.8469 22.898C49.3718 21.9626 48.8224 21.0718 48.1988 20.2254L42.6902 24.2195C43.0911 24.7689 43.4623 25.3628 43.7741 25.9715ZM21.3242 24.2047C21.7251 23.6553 22.1854 23.1208 22.6754 22.6308L22.6902 22.6159L17.8795 17.8201L17.8647 17.8349C17.1223 18.5773 16.4393 19.3643 15.8306 20.2106L21.3242 24.2047ZM41.3539 22.6605L42.809 21.1905L46.1498 17.8646L46.1349 17.8498C45.3925 17.1222 44.6056 16.4393 43.7741 15.8305L39.7652 21.3093C40.3146 21.7102 40.8491 22.1557 41.3242 22.6456L41.3539 22.6605ZM24.2641 21.2796C24.8135 20.8787 25.4074 20.5224 26.031 20.2106L22.9427 14.1675C22.0072 14.6427 21.1164 15.192 20.27 15.8008L24.2641 21.2796ZM38.0132 20.2254L41.1164 14.1824C40.181 13.7073 39.2158 13.3064 38.221 12.9797L36.1127 19.4237C36.7511 19.6464 37.3896 19.9136 38.0132 20.2254ZM27.9464 19.4237C28.5997 19.2158 29.2827 19.0525 29.9657 18.9485L28.9115 12.2522C27.887 12.4155 26.8476 12.6531 25.8528 12.9797L27.9464 19.4237ZM34.0785 18.9485L35.1476 12.2522C34.1231 12.0888 33.0689 11.9998 32.0295 11.9998V18.7852C32.7125 18.7852 33.4104 18.8446 34.0785 18.9485Z" fill="white"/>
<path d="M31.9997 45.3774V38.5623C31.4206 38.5623 30.8564 38.488 30.2922 38.3395L28.5104 44.9171C29.6537 45.2141 30.8267 45.3774 31.9997 45.3774ZM35.4889 44.9171C36.6322 44.6202 37.7161 44.1747 38.7406 43.5808L35.2959 37.6862C34.8059 37.9683 34.2714 38.1911 33.722 38.3395L35.4889 44.9171ZM25.2736 43.5808L28.7183 37.6862C28.2283 37.4041 27.768 37.0478 27.3523 36.6469L27.2929 36.5875L25.1251 38.8592L22.4525 41.4279L22.4971 41.4724C23.3285 42.2891 24.264 43.0018 25.2736 43.5808ZM41.5171 41.4724C42.3486 40.641 43.0761 39.7204 43.6552 38.7107L37.7012 35.2957C37.4191 35.7857 37.0628 36.2312 36.647 36.6469L41.5171 41.4724ZM20.3441 38.6959L26.2981 35.2957C26.016 34.8058 25.7933 34.2861 25.6448 33.7367L19.0078 35.4888C19.3048 36.6023 19.7651 37.6862 20.3441 38.6959ZM45.0063 35.5036C45.3033 34.3752 45.4666 33.217 45.4666 32.0589H38.5921C38.5921 32.6231 38.5178 33.2022 38.3694 33.7516L45.0063 35.5036ZM25.4369 32.0441C25.4369 31.4799 25.5112 30.9008 25.6596 30.3514L19.0078 28.5994C18.7109 29.7278 18.5475 30.8859 18.5475 32.0441H25.4369ZM38.3545 30.3663L45.0063 28.6142C44.7094 27.4858 44.2491 26.4019 43.67 25.3923L37.7161 28.7924C37.9833 29.2972 38.206 29.8169 38.3545 30.3663ZM26.3129 28.7924C26.5951 28.3173 26.9366 27.857 27.3523 27.4561L27.3671 27.4412L24.9024 25.0062L22.5416 22.586L22.4971 22.6306C21.6656 23.4472 20.9529 24.3826 20.359 25.3774L26.3129 28.7924ZM36.647 27.4561L39.0821 25.0359L41.5765 22.69L41.5171 22.6306C40.6856 21.7991 39.7502 21.1012 38.7406 20.5073L35.2959 26.4019C35.7859 26.684 36.2313 27.0255 36.647 27.4264V27.4561ZM28.7183 26.4019C29.2083 26.1198 29.7428 25.8971 30.2922 25.7486L28.5401 19.171C27.3968 19.468 26.313 19.9134 25.2885 20.5073L28.7183 26.4019ZM33.7072 25.7634L35.4889 19.1859C34.3605 18.8889 33.1875 18.7256 32.0145 18.7256V25.5407C32.5787 25.5407 33.1578 25.615 33.7072 25.7634Z" fill="white"/>
</svg>
