<svg xmlns="http://www.w3.org/2000/svg" width="56" height="57" viewBox="0 0 56 57" fill="none">
  <path d="M0 18.8874C0 8.57806 8.35735 0.220703 18.6667 0.220703H37.3333C47.6426 0.220703 56 8.57805 56 18.8874V37.554C56 47.8633 47.6426 56.2207 37.3333 56.2207H18.6667C8.35735 56.2207 0 47.8633 0 37.554V18.8874Z" fill="#DED8D8"/>
  <path d="M13.9766 36.6194C10.1788 30.0314 11.1314 22.1309 16.3391 16.7453C22.2666 10.6104 32.2079 10.2378 38.7155 15.9028C44.7912 21.191 46.1122 30.1754 41.8147 36.9793C36.5096 45.3837 24.7435 47.1238 17.3087 40.5358C16.0555 39.4223 15.0986 37.97 13.9766 36.6194ZM22.8552 41.0142C25.2177 41.9161 27.631 42.2675 30.1502 41.8399C39.8587 40.2013 44.842 29.4937 39.7994 21.0851C36.7213 15.9493 30.5144 13.3793 24.7096 14.8401C19.1039 16.25 14.8615 21.0258 14.2941 26.5808C13.6421 32.8893 16.8811 38.4104 22.8552 41.0142Z" fill="#332F30"/>
  <path d="M22.7923 40.9931C16.8818 38.4104 13.6428 32.8893 14.2948 26.5807C14.8622 21.0258 19.1046 16.2499 24.7103 14.84C30.515 13.3793 36.722 15.9493 39.8001 21.0851C44.8427 29.4937 39.8593 40.2013 30.1509 41.8398C27.6317 42.2675 25.2184 41.9161 22.7923 40.9931ZM26.5224 23.1047C26.0652 21.771 25.6248 20.4288 25.1379 19.1036C25.0575 18.8834 24.795 18.5828 24.6087 18.5744C23.3766 18.5278 22.1446 18.549 20.8659 18.549C20.8659 23.4815 20.8659 28.3124 20.8659 33.2365C21.1199 33.1137 21.2808 33.0036 21.4629 32.9528C23.3639 32.4193 23.7238 31.1153 23.5799 29.2989C23.4105 27.1438 23.5418 24.9634 23.5418 22.7956C23.7577 22.9523 23.8508 23.1258 23.9186 23.3079C24.6383 25.2809 25.3666 27.2539 26.0779 29.2312C26.7257 31.0518 26.7172 31.0221 28.6436 31.0856C29.2068 31.1026 29.3973 30.8782 29.5497 30.4209C29.9435 29.2185 30.3584 28.0203 30.7818 26.8263C31.2772 25.4333 31.7937 24.0446 32.3018 22.6559C32.4584 25.4926 32.45 28.2828 32.4754 31.0729C32.4754 31.3651 32.5981 31.7969 32.8098 31.9282C33.5296 32.3812 34.3171 32.7326 35.1131 33.1349C35.1131 28.2489 35.1131 23.4222 35.1131 18.549C34.1139 18.549 33.1824 18.6379 32.2764 18.5236C31.2518 18.3965 30.8961 18.8411 30.6209 19.7429C29.8461 22.2791 28.9739 24.7855 28.0932 27.4529C27.5513 25.9329 27.0644 24.5823 26.5224 23.1047ZM30.5277 36.9793C31.6667 37.1232 32.3822 36.7083 32.577 35.7853C32.7548 34.9597 32.251 34.1468 31.4253 33.9224C30.6929 33.7192 29.9604 34.0579 29.6259 34.7565C29.2195 35.5948 29.465 36.2764 30.5277 36.9793ZM24.5621 33.897C23.3047 34.4432 22.949 35.7303 23.8381 36.5644C24.4012 37.0936 25.0702 37.1867 25.7434 36.8099C26.4293 36.4246 26.6325 35.7811 26.4589 35.0317C26.2769 34.2399 25.7095 33.8758 24.5621 33.897Z" fill="#DCD7D7"/>
  <path d="M26.5519 23.1682C27.0642 24.5823 27.5511 25.9329 28.0931 27.4529C28.9737 24.7855 29.8459 22.279 30.6207 19.7429C30.8959 18.8411 31.2516 18.3965 32.2762 18.5235C33.1822 18.6378 34.1137 18.5489 35.1129 18.5489C35.1129 23.4222 35.1129 28.2489 35.1129 33.1348C34.3169 32.7326 33.5294 32.3812 32.8097 31.9282C32.598 31.7969 32.4752 31.3651 32.4752 31.0729C32.4498 28.2827 32.4582 25.4926 32.3016 22.6558C31.7935 24.0446 31.277 25.4333 30.7816 26.8263C30.3582 28.0202 29.9433 29.2184 29.5495 30.4209C29.3971 30.8782 29.2066 31.1026 28.6435 31.0856C26.717 31.0221 26.7255 31.0517 26.0777 29.2312C25.3664 27.2539 24.6382 25.2809 23.9184 23.3079C23.8506 23.1258 23.7575 22.9522 23.5416 22.7956C23.5416 24.9633 23.4103 27.1438 23.5797 29.2989C23.7236 31.1153 23.3637 32.4193 21.4627 32.9528C21.2806 33.0036 21.1198 33.1137 20.8657 33.2365C20.8657 28.3124 20.8657 23.4815 20.8657 18.5489C22.1444 18.5489 23.3764 18.5278 24.6085 18.5743C24.7948 18.5828 25.0573 18.8834 25.1378 19.1036C25.6247 20.4288 26.065 21.771 26.5519 23.1682Z" fill="#312D2E"/>
  <path d="M30.4675 36.9624C29.464 36.2765 29.2185 35.5948 29.6249 34.7565C29.9594 34.0579 30.6919 33.7192 31.4244 33.9224C32.25 34.1468 32.7538 34.9597 32.576 35.7854C32.3812 36.7084 31.6657 37.1233 30.4675 36.9624Z" fill="#363232"/>
  <path d="M24.6298 33.8842C25.7094 33.8757 26.2768 34.2398 26.4589 35.0316C26.6324 35.781 26.4292 36.4245 25.7433 36.8098C25.0701 37.1866 24.4012 37.0935 23.8381 36.5643C22.9489 35.7302 23.3046 34.4431 24.6298 33.8842Z" fill="#353031"/>
</svg>