<svg width="64" height="64" viewBox="0 0 64 64" fill="none" xmlns="http://www.w3.org/2000/svg">
<path d="M0 24C0 10.7452 10.7452 0 24 0H40C53.2548 0 64 10.7452 64 24V40C64 53.2548 53.2548 64 40 64H24C10.7452 64 0 53.2548 0 40V24Z" fill="#DED8D8"/>
<path d="M14.8282 42.2844C10.1778 34.2175 11.3443 24.5434 17.7211 17.9488C24.9793 10.4366 37.1523 9.98037 45.1207 16.9171C52.5604 23.3924 54.1779 34.3938 48.9157 42.7251C42.4196 53.0162 28.0122 55.147 18.9083 47.08C17.3738 45.7165 16.2021 43.9383 14.8282 42.2844ZM25.6999 47.6659C28.5928 48.7701 31.5479 49.2004 34.6327 48.6768C46.5205 46.6704 52.6226 33.5591 46.4479 23.2628C42.6789 16.9741 35.0785 13.8272 27.9707 15.6158C21.1065 17.3422 15.9118 23.1903 15.217 29.9922C14.4186 37.717 18.3847 44.4774 25.6999 47.6659Z" fill="#332F30"/>
<path d="M25.6224 47.6399C18.385 44.4774 14.4189 37.7169 15.2173 29.9922C15.912 23.1902 21.1068 17.3422 27.971 15.6158C35.0788 13.8272 42.6792 16.9741 46.4482 23.2628C52.6229 33.559 46.5208 46.6704 34.6329 48.6768C31.5482 49.2004 28.5931 48.7701 25.6224 47.6399ZM30.1899 25.7358C29.63 24.1027 29.0908 22.4592 28.4946 20.8365C28.3961 20.5669 28.0747 20.1988 27.8466 20.1884C26.3379 20.1314 24.8292 20.1573 23.2635 20.1573C23.2635 26.1972 23.2635 32.1126 23.2635 38.1421C23.5746 37.9917 23.7716 37.8569 23.9945 37.7947C26.3223 37.1415 26.763 35.5447 26.5867 33.3206C26.3794 30.6817 26.5401 28.0117 26.5401 25.3573C26.8045 25.5491 26.9185 25.7617 27.0015 25.9846C27.8828 28.4005 28.7746 30.8165 29.6455 33.2376C30.4388 35.4669 30.4284 35.4306 32.7873 35.5084C33.4768 35.5291 33.7101 35.2543 33.8968 34.6944C34.3789 33.222 34.887 31.7549 35.4054 30.2929C36.012 28.5872 36.6445 26.8867 37.2666 25.1862C37.4585 28.6598 37.4481 32.0763 37.4792 35.4928C37.4792 35.8505 37.6295 36.3794 37.8888 36.5401C38.7701 37.0948 39.7344 37.5251 40.7091 38.0176C40.7091 32.0348 40.7091 26.1246 40.7091 20.1573C39.4856 20.1573 38.345 20.2662 37.2355 20.1262C35.9809 19.9707 35.5454 20.5151 35.2084 21.6193C34.2597 24.7248 33.1917 27.794 32.1133 31.0601C31.4497 29.1989 30.8535 27.5451 30.1899 25.7358ZM35.0944 42.7251C36.489 42.9013 37.3651 42.3933 37.6036 41.2631C37.8214 40.2521 37.2044 39.2567 36.1935 38.9819C35.2966 38.7331 34.3997 39.1478 33.9901 40.0033C33.4924 41.0298 33.7931 41.8645 35.0944 42.7251ZM27.7895 38.9508C26.2498 39.6196 25.8143 41.1957 26.903 42.217C27.5925 42.8651 28.4117 42.9791 29.236 42.5177C30.0759 42.0459 30.3247 41.2579 30.1121 40.3402C29.8892 39.3708 29.1945 38.9249 27.7895 38.9508Z" fill="#DCD7D7"/>
<path d="M30.2259 25.8133C30.8532 27.5449 31.4494 29.1987 32.113 31.0599C33.1913 27.7937 34.2593 24.7245 35.2081 21.6191C35.5451 20.5148 35.9805 19.9704 37.2352 20.126C38.3446 20.266 39.4852 20.1571 40.7087 20.1571C40.7087 26.1243 40.7087 32.0346 40.7087 38.0174C39.7341 37.5249 38.7698 37.0946 37.8884 36.5398C37.6292 36.3791 37.4788 35.8503 37.4788 35.4926C37.4477 32.076 37.4581 28.6595 37.2663 25.186C36.6442 26.8864 36.0117 28.5869 35.4051 30.2926C34.8866 31.7546 34.3786 33.2218 33.8964 34.6942C33.7098 35.2541 33.4765 35.5289 32.787 35.5081C30.428 35.4304 30.4384 35.4666 29.6452 33.2373C28.7742 30.8162 27.8825 28.4003 27.0011 25.9844C26.9182 25.7614 26.8041 25.5489 26.5397 25.357C26.5397 28.0115 26.379 30.6814 26.5864 33.3203C26.7627 35.5444 26.322 37.1412 23.9942 37.7944C23.7713 37.8567 23.5742 37.9915 23.2632 38.1418C23.2632 32.1123 23.2632 26.1969 23.2632 20.1571C24.8289 20.1571 26.3375 20.1312 27.8462 20.1882C28.0743 20.1986 28.3958 20.5666 28.4943 20.8362C29.0905 22.459 29.6296 24.1024 30.2259 25.8133Z" fill="#312D2E"/>
<path d="M35.0205 42.7041C33.7918 41.8642 33.4911 41.0295 33.9888 40.003C34.3984 39.1476 35.2953 38.7328 36.1922 38.9817C37.2031 39.2565 37.8201 40.2519 37.6023 41.2628C37.3638 42.393 36.4877 42.9011 35.0205 42.7041Z" fill="#363232"/>
<path d="M27.8724 38.9355C29.1944 38.9251 29.8891 39.371 30.112 40.3405C30.3246 41.2581 30.0757 42.0461 29.2359 42.5179C28.4115 42.9793 27.5924 42.8653 26.9029 42.2172C25.8141 41.1959 26.2496 39.6198 27.8724 38.9355Z" fill="#353031"/>
</svg>
