<svg width="64" height="64" viewBox="0 0 64 64" fill="none" xmlns="http://www.w3.org/2000/svg">
<path d="M0 24C0 10.7452 10.7452 0 24 0H40C53.2548 0 64 10.7452 64 24V40C64 53.2548 53.2548 64 40 64H24C10.7452 64 0 53.2548 0 40V24Z" fill="#00CFFF"/>
<path d="M51.6301 29.5484C50.9909 29.0651 50.3265 28.6167 49.6388 28.2052C49.3425 28.0177 49.0668 27.7993 48.8161 27.5538C48.3023 27.0467 47.4462 26.1569 47.1673 25.6095C46.9862 25.2737 47.06 24.6323 47.2011 24.0313C47.442 22.9777 47.2586 21.8715 46.6906 20.952L45.7974 19.4947C45.3853 18.8317 45.0552 18.1213 44.8134 17.3792C44.504 16.4261 43.9668 15.5629 43.2486 14.864C41.7947 13.4436 37.7686 12.7485 34.4273 12.6344C34.2207 12.5741 34.0111 12.5248 33.7994 12.4866C32.3084 12.2314 30.7235 11.815 29.2963 12.0904C27.1842 12.4833 25.0452 13.1448 23.4501 14.7767C23.1143 15.1125 22.6241 15.2636 22.2782 15.5759C21.5898 16.1971 20.6664 16.1971 20.0552 16.8855C19.6959 17.2885 19.5314 18.5981 18.5945 19.0984C17.0431 19.9312 15.9081 20.8446 15.522 21.3113C15.2366 21.6639 15.0183 22.0736 14.7429 22.4329C14.4676 22.7922 13.1244 23.4403 12.7282 23.813C12.4319 24.1417 12.2168 24.5353 12.1002 24.9622C11.9835 25.3891 11.9686 25.8373 12.0566 26.271C12.0801 26.3751 12.0969 26.4591 12.1103 26.5262C12.2648 27.0971 12.6811 28.128 12.5838 28.6014C12.4729 29.1622 11.029 33.3395 14.2628 34.4542C14.5578 34.5432 14.8167 34.7239 15.0016 34.9707C15.1864 35.2171 15.2876 35.5164 15.2903 35.8245C15.3563 36.3823 15.5164 36.925 15.7638 37.4296C15.9786 37.8388 16.2956 38.186 16.6838 38.437C17.0981 38.8317 17.4893 39.2497 17.8558 39.6894C18.9975 41.8015 18.6785 42.8561 20.8779 43.5747C21.4394 43.7601 21.9787 44.0069 22.4864 44.31C23.1041 44.6825 23.7664 44.9758 24.4575 45.1832L24.5448 45.2134C25.0317 44.0413 25.522 42.9264 26.0156 41.8787C24.7421 40.6361 23.8335 39.0683 23.3883 37.3456C22.9431 35.623 22.9784 33.8111 23.4904 32.1072C23.5011 32.0707 23.5209 32.0375 23.5479 32.0108C23.5749 31.9841 23.6082 31.9646 23.6447 31.9542C23.6813 31.9438 23.7198 31.9428 23.7569 31.9514C23.7939 31.9599 23.8281 31.9777 23.8564 32.0031C24.6825 32.7284 27.1943 35.3408 26.8988 40.0622C27.7684 38.3261 28.6113 36.7983 29.3836 35.4954C28.451 33.9703 27.951 32.2199 27.9374 30.4322C27.9238 28.6445 28.3971 26.8868 29.3064 25.3476C29.3271 25.3157 29.3555 25.2895 29.3889 25.2714C29.4223 25.2533 29.4598 25.2438 29.4978 25.2438C29.5358 25.2438 29.5732 25.2533 29.6067 25.2714C29.6401 25.2895 29.6685 25.3157 29.6892 25.3476C30.2701 26.2072 31.8417 29.0413 30.8678 33.0877C31.5764 32.0064 32.1506 31.2072 32.5233 30.7069C33.5307 23.991 38.6079 21.7915 39.9411 21.3247C39.9769 21.3115 40.0152 21.3076 40.0527 21.3132C40.0904 21.3189 40.1258 21.334 40.156 21.3572C40.1862 21.3803 40.2101 21.4107 40.2252 21.4456C40.2407 21.4804 40.2469 21.5186 40.2433 21.5565C40.0346 23.6003 39.2904 25.553 38.0859 27.2174C36.8813 28.8817 35.2591 30.1989 33.383 31.036C32.6744 31.9661 31.9961 32.9466 31.3447 33.9542C33.5912 32.1945 36.7442 31.3684 39.3636 32.0031C39.4003 32.0117 39.4348 32.0294 39.463 32.0545C39.4916 32.0797 39.5132 32.1116 39.5263 32.1473C39.5391 32.1829 39.5431 32.2213 39.5375 32.2588C39.5319 32.2964 39.5172 32.332 39.4945 32.3624C38.7421 33.3698 35.747 36.7278 30.0922 35.9485C29.1419 37.5573 28.2654 39.1858 27.4931 40.7404C29.9276 38.9003 33.4871 38.1919 36.2474 39.1218C36.2842 39.1333 36.3176 39.1539 36.3442 39.1815C36.3711 39.2094 36.3905 39.2432 36.4003 39.2806C36.4105 39.3177 36.4108 39.357 36.4016 39.3944C36.3924 39.4319 36.3741 39.4663 36.3481 39.4945C35.4917 40.4182 32.1909 43.4471 26.7611 42.2448C26.2506 43.3227 25.4918 45.089 25.1224 45.9621C24.9948 46.2643 24.8773 46.5665 24.7866 46.8753C24.5482 47.5873 24.2225 48.4772 23.8363 49.3671C23.7826 49.4937 23.7556 49.6302 23.7567 49.7677C23.7578 49.9055 23.7871 50.0414 23.8428 50.1674C23.8985 50.293 23.9794 50.4062 24.0805 50.4997C24.1816 50.5929 24.3008 50.6648 24.4306 50.7104C28.7134 52.2408 33.364 52.4134 37.7482 51.2039C37.8933 51.1626 38.0268 51.0891 38.1397 50.989C38.2522 50.8892 38.3412 50.7652 38.3999 50.6264C38.4905 50.4115 38.581 50.2064 38.581 50.2064C38.581 50.2064 40.4749 45.8076 40.7535 43.8904C40.8339 43.2863 41.0216 42.7019 41.3077 42.1641C41.456 41.8951 41.6706 41.6683 41.9308 41.5049C42.191 41.3415 42.4886 41.2474 42.7954 41.2306C44.2359 41.1535 47.3084 40.952 48.4267 40.5993C49.914 40.1258 49.2696 37.4195 49.1889 37.1307C49.1082 36.842 49.9042 36.1601 50.0686 35.7641C50.2333 35.3677 49.6657 35.2335 49.434 34.7968C49.2023 34.3604 50.0082 34.0513 50.1224 33.6552C50.2366 33.2589 49.8606 32.8291 49.7093 32.537C49.6059 32.3248 49.5347 32.0985 49.4977 31.8654C49.4977 31.8654 50.5857 31.0696 51.1767 30.5659C51.7679 30.0622 51.6469 29.6491 51.6436 29.5585" fill="black"/>
</svg>
