<svg width="64" height="64" viewBox="0 0 64 64" fill="none" xmlns="http://www.w3.org/2000/svg">
<path d="M0 24C0 10.7452 10.7452 0 24 0H40C53.2548 0 64 10.7452 64 24V40C64 53.2548 53.2548 64 40 64H24C10.7452 64 0 53.2548 0 40V24Z" fill="#FF004D"/>
<path d="M21.4328 35.5785L25.3456 31.6126V31.595L29.2398 35.5611C30.3652 36.7016 31.7416 37.209 33.0993 37.209C35.94 37.209 38.6727 34.9641 38.6727 31.595L42.567 35.5611C43.6924 36.7016 45.0687 37.209 46.4264 37.209C49.2671 37.209 51.9999 34.9641 51.9999 31.595H48.6584L44.7644 27.6481C43.639 26.5074 42.2452 26 40.8876 26C38.0468 26 35.3313 28.2272 35.3313 31.595L31.4372 27.6481C30.3119 26.5074 28.9181 26 27.5604 26C24.7196 26 22.0042 28.2272 22.0042 31.595L11.9999 31.6126C11.9999 34.9994 14.7687 37.1901 17.6095 37.1901C18.9672 37.1901 20.3435 36.6826 21.4328 35.5785Z" fill="white"/>
</svg>
