<svg width="64" height="64" viewBox="0 0 64 64" fill="none" xmlns="http://www.w3.org/2000/svg">
<path d="M0 24C0 10.7452 10.7452 0 24 0H40C53.2548 0 64 10.7452 64 24V40C64 53.2548 53.2548 64 40 64H24C10.7452 64 0 53.2548 0 40V24Z" fill="black"/>
<path d="M51.9648 49.3982H44.1618V31.7588L47.2858 21.6972L45.0695 20.9092L34.9516 49.3982H29.0132L18.8883 20.9092L16.679 21.6972L19.803 31.7588V49.4052H12V13.9998H23.6165L30.8215 34.2636V40.2161H33.1785V34.2636L40.3835 13.9998H52V49.3982H51.9648Z" fill="#DFFE00"/>
</svg>
