<svg xmlns="http://www.w3.org/2000/svg" width="56" height="57" viewBox="0 0 56 57" fill="none">
  <path d="M0 18.8874C0 8.57806 8.35735 0.220703 18.6667 0.220703H37.3333C47.6426 0.220703 56 8.57805 56 18.8874V37.554C56 47.8633 47.6426 56.2207 37.3333 56.2207H18.6667C8.35735 56.2207 0 47.8633 0 37.554V18.8874Z" fill="#836EF9"/>
  <path d="M27.9999 11.8873C23.2833 11.8873 11.6667 23.5036 11.6667 28.2205C11.6667 32.9375 23.2833 44.554 27.9999 44.554C32.7166 44.554 44.3334 32.9373 44.3334 28.2205C44.3334 23.5039 32.7167 11.8873 27.9999 11.8873ZM25.4548 37.5605C23.4658 37.0185 18.1182 27.6642 18.6603 25.6752C19.2024 23.6861 28.5564 18.3388 30.5454 18.8808C32.5345 19.4228 37.882 28.7768 37.34 30.7659C36.7979 32.7551 27.4437 38.1026 25.4548 37.5605Z" fill="#FEFEFE"/>
</svg>