<svg width="64" height="64" viewBox="0 0 64 64" fill="none" xmlns="http://www.w3.org/2000/svg">
<path d="M0 24C0 10.7452 10.7452 0 24 0H40C53.2548 0 64 10.7452 64 24V40C64 53.2548 53.2548 64 40 64H24C10.7452 64 0 53.2548 0 40V24Z" fill="#836EF9"/>
<path d="M31.9998 12C26.2243 12 12 26.224 12 31.9998C12 37.7757 26.2243 52 31.9998 52C37.7753 52 52 37.7755 52 31.9998C52 26.2243 37.7755 12 31.9998 12ZM28.8833 43.4365C26.4478 42.7728 19.8998 31.3187 20.5635 28.8832C21.2273 26.4475 32.6812 19.8997 35.1167 20.5635C37.5523 21.2272 44.1003 32.681 43.4367 35.1167C42.7728 37.5523 31.3187 44.1003 28.8833 43.4365Z" fill="#FEFEFE"/>
</svg>
