<svg width="64" height="64" viewBox="0 0 64 64" fill="none" xmlns="http://www.w3.org/2000/svg">
<path d="M0 24C0 10.7452 10.7452 0 24 0H40C53.2548 0 64 10.7452 64 24V40C64 53.2548 53.2548 64 40 64H24C10.7452 64 0 53.2548 0 40V24Z" fill="#F3F5F6"/>
<path fill-rule="evenodd" clip-rule="evenodd" d="M11.9998 51.7327H25.7739V31.5936C25.7739 30.9467 26.7028 30.8435 26.8448 31.4746L30.1263 46.0589H38.3908V41.0901C38.3908 40.7906 38.6333 40.5481 38.9328 40.5481H51.9998V12.9998H38.2259V17.9687C38.2259 18.268 37.9831 18.5107 37.6838 18.5107H23.9279L25.0557 23.5233C25.132 23.8622 24.8743 24.1843 24.5269 24.1843H11.9998V51.7327Z" fill="#14A800"/>
</svg>
