<svg width="174" height="174" viewBox="0 0 174 174" fill="none" xmlns="http://www.w3.org/2000/svg">
<mask id="path-1-inside-1_2893_35089" fill="white">
<path d="M133.75 94.0068C148.304 94.339 160 106.241 160 120.875C160 135.507 148.306 147.409 133.754 147.743C133.752 147.743 133.75 147.744 133.75 147.746C133.75 147.748 133.748 147.75 133.746 147.75C133.744 147.75 133.743 147.752 133.743 147.754C133.409 162.306 121.507 174 106.875 174C92.2412 174 80.339 162.304 80.0068 147.75H80V107.75C87.5939 107.75 93.75 101.594 93.75 94H133.75V94.0068Z"/>
</mask>
<path d="M133.75 94.0068H117.75V109.646L133.385 110.003L133.75 94.0068ZM133.754 147.743L134.121 163.739L134.121 163.739L133.754 147.743ZM133.75 147.746L117.806 146.403L117.75 147.074V147.746H133.75ZM133.746 147.75V131.75H133.074L132.404 131.806L133.746 147.75ZM133.743 147.754L149.739 148.121L149.739 148.121L133.743 147.754ZM80.0068 147.75L96.0027 147.385L95.6459 131.75H80.0068V147.75ZM80 147.75H64V163.75H80V147.75ZM80 107.75V91.75H64V107.75H80ZM93.75 94V78H77.75V94H93.75ZM133.75 94H149.75V78H133.75V94ZM133.75 94.0068L133.385 110.003C139.267 110.137 144 114.955 144 120.875H160H176C176 97.5272 157.341 78.541 134.115 78.011L133.75 94.0068ZM160 120.875H144C144 126.794 139.267 131.612 133.387 131.747L133.754 147.743L134.121 163.739C157.345 163.206 176 144.221 176 120.875H160ZM133.754 147.743L133.387 131.747C130.656 131.81 127.542 132.592 124.673 134.569C121.625 136.669 118.292 140.641 117.806 146.403L133.75 147.746L149.694 149.089C149.208 154.849 145.876 158.82 142.83 160.919C139.962 162.895 136.85 163.676 134.121 163.739L133.754 147.743ZM133.75 147.746H117.75C117.75 142.68 120.073 138.797 122.435 136.435C124.797 134.073 128.68 131.75 133.746 131.75V147.75V163.75C138.814 163.75 142.699 161.426 145.062 159.062C147.426 156.699 149.75 152.814 149.75 147.746H133.75ZM133.746 147.75L132.404 131.806C126.641 132.292 122.669 135.625 120.569 138.673C118.592 141.542 117.81 144.656 117.747 147.387L133.743 147.754L149.739 148.121C149.676 150.85 148.895 153.962 146.919 156.83C144.82 159.876 140.849 163.209 135.088 163.694L133.746 147.75ZM133.743 147.754L117.747 147.387C117.612 153.267 112.794 158 106.875 158V174V190C130.221 190 149.206 171.345 149.739 148.121L133.743 147.754ZM106.875 174V158C100.955 158 96.1369 153.267 96.0027 147.385L80.0068 147.75L64.011 148.115C64.541 171.341 83.5272 190 106.875 190V174ZM80.0068 147.75V131.75H80V147.75V163.75H80.0068V147.75ZM80 147.75H96V107.75H80H64V147.75H80ZM80 107.75V123.75C96.4305 123.75 109.75 110.43 109.75 94H93.75H77.75C77.75 92.7574 78.7574 91.75 80 91.75V107.75ZM93.75 94V110H133.75V94V78H93.75V94ZM133.75 94H117.75V94.0068H133.75H149.75V94H133.75Z" fill="url(#paint0_linear_2893_35089)" mask="url(#path-1-inside-1_2893_35089)"/>
<mask id="path-3-inside-2_2893_35089" fill="white">
<path d="M26.25 94.0068C11.696 94.339 0 106.241 0 120.875C0 135.507 11.6939 147.409 26.2461 147.743C26.2479 147.743 26.2498 147.744 26.25 147.746C26.25 147.748 26.2519 147.75 26.2539 147.75C26.2557 147.75 26.2568 147.752 26.2568 147.754C26.591 162.306 38.4925 174 53.125 174C67.7588 174 79.661 162.304 79.9932 147.75H80V107.75C72.4061 107.75 66.25 101.594 66.25 94H26.25V94.0068Z"/>
</mask>
<path d="M26.25 94.0068H42.25V109.646L26.615 110.003L26.25 94.0068ZM26.2461 147.743L25.879 163.739L25.8788 163.739L26.2461 147.743ZM26.25 147.746L42.1936 146.403L42.25 147.074V147.746H26.25ZM26.2539 147.75V131.75H26.9263L27.5963 131.806L26.2539 147.75ZM26.2568 147.754L10.2611 148.121L10.261 148.121L26.2568 147.754ZM79.9932 147.75L63.9973 147.385L64.3541 131.75H79.9932V147.75ZM80 147.75H96V163.75H80V147.75ZM80 107.75V91.75H96V107.75H80ZM66.25 94V78H82.25V94H66.25ZM26.25 94H10.25V78H26.25V94ZM26.25 94.0068L26.615 110.003C20.7334 110.137 16 114.955 16 120.875H0H-16C-16 97.5272 2.65871 78.541 25.885 78.011L26.25 94.0068ZM0 120.875H16C16 126.794 20.7326 131.612 26.6134 131.747L26.2461 147.743L25.8788 163.739C2.65529 163.206 -16 144.221 -16 120.875H0ZM26.2461 147.743L26.6132 131.747C29.3438 131.81 32.4583 132.592 35.3271 134.569C38.375 136.669 41.7083 140.641 42.1936 146.403L26.25 147.746L10.3064 149.089C10.7916 154.849 14.1238 158.82 17.1703 160.919C20.0376 162.895 23.1502 163.676 25.879 163.739L26.2461 147.743ZM26.25 147.746H42.25C42.25 142.68 39.9271 138.797 37.5649 136.435C35.2027 134.073 31.3203 131.75 26.2539 131.75V147.75V163.75C21.1855 163.75 17.3011 161.426 14.9375 159.062C12.5739 156.699 10.25 152.814 10.25 147.746H26.25ZM26.2539 147.75L27.5963 131.806C33.3589 132.292 37.3309 135.625 39.4311 138.673C41.4079 141.542 42.19 144.656 42.2526 147.387L26.2568 147.754L10.261 148.121C10.3237 150.85 11.1052 153.962 13.0809 156.83C15.1801 159.876 19.1507 163.209 24.9116 163.694L26.2539 147.75ZM26.2568 147.754L42.2526 147.387C42.3877 153.267 47.2058 158 53.125 158V174V190C29.7793 190 10.7943 171.345 10.2611 148.121L26.2568 147.754ZM53.125 174V158C59.0447 158 63.8631 153.267 63.9973 147.385L79.9932 147.75L95.989 148.115C95.459 171.341 76.4728 190 53.125 190V174ZM79.9932 147.75V131.75H80V147.75V163.75H79.9932V147.75ZM80 147.75H64V107.75H80H96V147.75H80ZM80 107.75V123.75C63.5695 123.75 50.25 110.43 50.25 94H66.25H82.25C82.25 92.7574 81.2426 91.75 80 91.75V107.75ZM66.25 94V110H26.25V94V78H66.25V94ZM26.25 94H42.25V94.0068H26.25H10.25V94H26.25Z" fill="url(#paint1_linear_2893_35089)" mask="url(#path-3-inside-2_2893_35089)"/>
<mask id="path-5-inside-3_2893_35089" fill="white">
<path d="M94.0068 26.25C94.339 11.696 106.241 1.45975e-07 120.875 3.20481e-07C135.507 4.94971e-07 147.409 11.6939 147.743 26.2461C147.743 26.2479 147.744 26.2498 147.746 26.25C147.748 26.25 147.75 26.2519 147.75 26.2539C147.75 26.2557 147.752 26.2568 147.754 26.2568C162.306 26.591 174 38.4926 174 53.125C174 67.7588 162.304 79.661 147.75 79.9932L147.75 80L107.75 80C107.75 72.4061 101.594 66.25 94 66.25L94 26.25L94.0068 26.25Z"/>
</mask>
<path d="M94.0068 26.25L94.0068 42.25L109.646 42.25L110.003 26.615L94.0068 26.25ZM147.743 26.2461L163.739 25.879L163.739 25.8788L147.743 26.2461ZM147.746 26.25L146.403 42.1936L147.074 42.25L147.746 42.25L147.746 26.25ZM147.75 26.2539L131.75 26.2539L131.75 26.9263L131.806 27.5963L147.75 26.2539ZM147.754 26.2568L148.121 10.2611L148.121 10.261L147.754 26.2568ZM147.75 79.9932L147.385 63.9973L131.75 64.3541L131.75 79.9932L147.75 79.9932ZM147.75 80L147.75 96L163.75 96L163.75 80L147.75 80ZM107.75 80L91.75 80L91.75 96L107.75 96L107.75 80ZM94 66.25L78 66.25L78 82.25L94 82.25L94 66.25ZM94 26.25L94 10.25L78 10.25L78 26.25L94 26.25ZM94.0068 26.25L110.003 26.615C110.137 20.7334 114.955 16 120.875 16L120.875 3.20481e-07L120.875 -16C97.5272 -16 78.541 2.65871 78.011 25.885L94.0068 26.25ZM120.875 3.20481e-07L120.875 16C126.794 16 131.612 20.7326 131.747 26.6134L147.743 26.2461L163.739 25.8788C163.206 2.65529 144.221 -16 120.875 -16L120.875 3.20481e-07ZM147.743 26.2461L131.747 26.6132C131.81 29.3438 132.592 32.4583 134.569 35.3271C136.669 38.375 140.641 41.7083 146.403 42.1936L147.746 26.25L149.089 10.3064C154.849 10.7916 158.82 14.1238 160.919 17.1703C162.895 20.0376 163.676 23.1502 163.739 25.879L147.743 26.2461ZM147.746 26.25L147.746 42.25C142.68 42.25 138.797 39.9271 136.435 37.5649C134.073 35.2027 131.75 31.3203 131.75 26.2539L147.75 26.2539L163.75 26.2539C163.75 21.1855 161.426 17.3011 159.063 14.9375C156.699 12.5739 152.814 10.25 147.746 10.25L147.746 26.25ZM147.75 26.2539L131.806 27.5963C132.292 33.3589 135.625 37.3309 138.673 39.4311C141.542 41.4079 144.656 42.19 147.387 42.2526L147.754 26.2568L148.121 10.261C150.85 10.3237 153.962 11.1052 156.83 13.0809C159.876 15.1801 163.209 19.1507 163.694 24.9116L147.75 26.2539ZM147.754 26.2568L147.387 42.2526C153.267 42.3877 158 47.2058 158 53.125L174 53.125L190 53.125C190 29.7793 171.345 10.7943 148.121 10.2611L147.754 26.2568ZM174 53.125L158 53.125C158 59.0447 153.267 63.8631 147.385 63.9973L147.75 79.9932L148.115 95.989C171.341 95.459 190 76.4728 190 53.125L174 53.125ZM147.75 79.9932L131.75 79.9932L131.75 80L147.75 80L163.75 80L163.75 79.9932L147.75 79.9932ZM147.75 80L147.75 64L107.75 64L107.75 80L107.75 96L147.75 96L147.75 80ZM107.75 80L123.75 80C123.75 63.5695 110.43 50.25 94 50.25L94 66.25L94 82.25C92.7574 82.25 91.75 81.2426 91.75 80L107.75 80ZM94 66.25L110 66.25L110 26.25L94 26.25L78 26.25L78 66.25L94 66.25ZM94 26.25L94 42.25L94.0068 42.25L94.0068 26.25L94.0068 10.25L94 10.25L94 26.25Z" fill="url(#paint2_linear_2893_35089)" mask="url(#path-5-inside-3_2893_35089)"/>
<mask id="path-7-inside-4_2893_35089" fill="white">
<path d="M79.9932 40.25C79.661 25.696 67.7588 14 53.125 14C38.4925 14 26.591 25.694 26.2568 40.2461C26.2568 40.248 26.2557 40.2499 26.2539 40.25C26.2519 40.25 26.25 40.2519 26.25 40.2539C26.2498 40.2557 26.2479 40.2568 26.2461 40.2569C11.6939 40.591 -2.06238e-08 52.4926 -1.33534e-08 67.125C-6.0823e-09 81.7588 11.696 93.6611 26.25 93.9932L26.25 94L66.25 94C66.25 86.4061 72.4061 80.25 80 80.25L80 40.25L79.9932 40.25Z"/>
</mask>
<path d="M79.9932 40.25L79.9932 56.25L64.3541 56.25L63.9973 40.615L79.9932 40.25ZM26.2568 40.2461L10.261 39.879L10.2611 39.8788L26.2568 40.2461ZM26.2539 40.25L27.5966 56.1936L26.9264 56.25L26.2539 56.25L26.2539 40.25ZM26.25 40.2539L42.25 40.2539L42.25 40.9263L42.1936 41.5963L26.25 40.2539ZM26.2461 40.2569L25.8788 24.2611L25.879 24.2611L26.2461 40.2569ZM26.25 93.9932L26.615 77.9973L42.25 78.3541L42.25 93.9932L26.25 93.9932ZM26.25 94L26.25 110L10.25 110L10.25 94L26.25 94ZM66.25 94L82.25 94L82.25 110L66.25 110L66.25 94ZM80 80.25L96 80.25L96 96.25L80 96.25L80 80.25ZM80 40.25L80 24.25L96 24.25L96 40.25L80 40.25ZM79.9932 40.25L63.9973 40.615C63.8631 34.7334 59.0447 30 53.125 30L53.125 14L53.125 -1.99999C76.4728 -2 95.459 16.6587 95.989 39.885L79.9932 40.25ZM53.125 14L53.125 30C47.2058 30 42.3877 34.7326 42.2526 40.6134L26.2568 40.2461L10.2611 39.8788C10.7943 16.6553 29.7793 -1.99999 53.125 -1.99999L53.125 14ZM26.2568 40.2461L42.2526 40.6132C42.19 43.3439 41.4079 46.4583 39.4311 49.3271C37.3309 52.375 33.359 55.7083 27.5966 56.1936L26.2539 40.25L24.9112 24.3065C19.1506 24.7916 15.1802 28.1238 13.081 31.1703C11.1052 34.0376 10.3237 37.1502 10.261 39.879L26.2568 40.2461ZM26.2539 40.25L26.2539 56.25C31.3203 56.25 35.2027 53.9271 37.5649 51.5649C39.9271 49.2028 42.25 45.3203 42.25 40.2539L26.25 40.2539L10.25 40.2539C10.25 35.1855 12.5739 31.3011 14.9375 28.9375C17.3011 26.5739 21.1855 24.25 26.2539 24.25L26.2539 40.25ZM26.25 40.2539L42.1936 41.5963C41.7084 47.359 38.375 51.331 35.327 53.4312C32.4583 55.4079 29.3438 56.19 26.6132 56.2526L26.2461 40.2569L25.879 24.2611C23.1502 24.3237 20.0376 25.1052 17.1703 27.081C14.1238 29.1801 10.7914 33.1507 10.3064 38.9116L26.25 40.2539ZM26.2461 40.2569L26.6134 56.2526C20.7326 56.3877 16 61.2058 16 67.125L-1.33534e-08 67.125L-16 67.125C-16 43.7793 2.65529 24.7943 25.8788 24.2611L26.2461 40.2569ZM-1.33534e-08 67.125L16 67.125C16 73.0447 20.7334 77.8631 26.615 77.9973L26.25 93.9932L25.885 109.989C2.65871 109.459 -16 90.4729 -16 67.125L-1.33534e-08 67.125ZM26.25 93.9932L42.25 93.9932L42.25 94L26.25 94L10.25 94L10.25 93.9932L26.25 93.9932ZM26.25 94L26.25 78L66.25 78L66.25 94L66.25 110L26.25 110L26.25 94ZM66.25 94L50.25 94C50.25 77.5695 63.5695 64.25 80 64.25L80 80.25L80 96.25C81.2426 96.25 82.25 95.2426 82.25 94L66.25 94ZM80 80.25L64 80.25L64 40.25L80 40.25L96 40.25L96 80.25L80 80.25ZM80 40.25L80 56.25L79.9932 56.25L79.9932 40.25L79.9932 24.25L80 24.25L80 40.25Z" fill="url(#paint3_linear_2893_35089)" mask="url(#path-7-inside-4_2893_35089)"/>
<defs>
<linearGradient id="paint0_linear_2893_35089" x1="160" y1="174" x2="-0.999998" y2="14.5" gradientUnits="userSpaceOnUse">
<stop stop-color="#FFD16E"/>
<stop offset="1" stop-color="#FFF2D6"/>
</linearGradient>
<linearGradient id="paint1_linear_2893_35089" x1="152" y1="174" x2="-7.40864e-08" y2="10.5" gradientUnits="userSpaceOnUse">
<stop stop-color="#FFD16E"/>
<stop offset="1" stop-color="#FFF2D6"/>
</linearGradient>
<linearGradient id="paint2_linear_2893_35089" x1="169" y1="160" x2="14" y2="-9.5399e-07" gradientUnits="userSpaceOnUse">
<stop stop-color="#FFD16E"/>
<stop offset="1" stop-color="#FFF2D6"/>
</linearGradient>
<linearGradient id="paint3_linear_2893_35089" x1="155" y1="174.5" x2="1.17835e-06" y2="14" gradientUnits="userSpaceOnUse">
<stop stop-color="#FFD16E"/>
<stop offset="1" stop-color="#FFF2D6"/>
</linearGradient>
</defs>
</svg>
