<svg width="64" height="64" viewBox="0 0 64 64" fill="none" xmlns="http://www.w3.org/2000/svg">
<path d="M0 24C0 10.7452 10.7452 0 24 0H40C53.2548 0 64 10.7452 64 24V40C64 53.2548 53.2548 64 40 64H24C10.7452 64 0 53.2548 0 40V24Z" fill="#F3F5F6"/>
<g clip-path="url(#clip0_3467_9493)">
<mask id="mask0_3467_9493" style="mask-type:luminance" maskUnits="userSpaceOnUse" x="12" y="12" width="40" height="40">
<path d="M52 12H12V52H52V12Z" fill="white"/>
</mask>
<g mask="url(#mask0_3467_9493)">
<path fill-rule="evenodd" clip-rule="evenodd" d="M47.9375 19.9375C44.9062 16.0625 40.4688 13.5938 35.5625 13.5938C26.0625 13.5938 19.0938 22.4375 19.0938 32C19.0938 38.6562 23.5312 43.6562 28.4375 43.6562C28.9062 43.6562 29.3438 43.625 29.8125 43.5312C26.5 41.125 24.4062 36.75 24.4062 32C24.4062 24.4375 29.5312 18.5312 35.5625 18.5312C42.1562 18.5312 46.7188 25.0625 46.7188 32C46.6875 37.125 44.875 42.2188 41.6562 45.9688C38.8438 49.25 35.2188 51.3125 31.2188 51.9688C31.2188 51.9688 31.5625 52 32 52C43.0312 52 52 43.0312 52 32C52 27.4688 50.5 23.2812 47.9375 19.9375ZM44.9062 32C44.9062 25.3438 40.4688 20.3438 35.5625 20.3438C35.0938 20.3438 34.6562 20.375 34.1875 20.4688C37.5 22.875 39.5938 27.25 39.5938 32C39.5938 39.5625 34.4688 45.4688 28.4375 45.4688C21.8437 45.4688 17.2812 38.9375 17.2812 32C17.3125 26.875 19.125 21.7812 22.3438 18.0312C25.1562 14.75 28.7812 12.6875 32.7812 12.0312C32.7812 12.0312 32.4375 12 32 12C20.9688 12 12 20.9688 12 32C12 36.5312 13.5 40.7188 16.0625 44.0625C19.0938 47.9375 23.5312 50.375 28.4375 50.375C37.9375 50.4062 44.9062 41.5625 44.9062 32Z" fill="#0089DB"/>
</g>
</g>
<defs>
<clipPath id="clip0_3467_9493">
<rect width="40" height="40" fill="white" transform="translate(12 12)"/>
</clipPath>
</defs>
</svg>
