<svg width="64" height="64" viewBox="0 0 64 64" fill="none" xmlns="http://www.w3.org/2000/svg">
<path d="M0 24C0 10.7452 10.7452 0 24 0H40C53.2548 0 64 10.7452 64 24V40C64 53.2548 53.2548 64 40 64H24C10.7452 64 0 53.2548 0 40V24Z" fill="#FF0420"/>
<path d="M19.8973 42.0434C17.5764 42.0434 15.6761 41.4982 14.1963 40.4079C12.7321 39.3019 12.0001 37.7132 12.0001 35.6727C12.0001 35.2365 12.0468 34.7225 12.1402 34.0994C12.3895 32.6976 12.7477 31.0153 13.215 29.0371C14.539 23.6789 17.9658 20.9998 23.4798 20.9998C24.9751 20.9998 26.3303 21.249 27.5141 21.763C28.6979 22.2459 29.6325 22.9935 30.3178 23.9904C31.0032 24.9717 31.3459 26.1399 31.3459 27.4951C31.3459 27.9001 31.2991 28.4141 31.2057 29.0371C30.9097 30.7661 30.567 32.4639 30.1465 34.0994C29.4611 36.763 28.2929 38.7723 26.6107 40.0963C24.944 41.4047 22.701 42.0434 19.8973 42.0434ZM20.3178 37.8378C21.4082 37.8378 22.3272 37.5107 23.0904 36.872C23.8692 36.2334 24.43 35.2521 24.7571 33.9125C25.2088 32.0745 25.5515 30.4857 25.7851 29.115C25.863 28.71 25.9097 28.2895 25.9097 27.8533C25.9097 26.0776 24.9907 25.1898 23.1371 25.1898C22.0468 25.1898 21.1122 25.5169 20.3334 26.1555C19.5702 26.7941 19.025 27.7755 18.6979 29.115C18.3396 30.4234 17.9969 32.0122 17.6387 33.9125C17.5608 34.3019 17.5141 34.7069 17.5141 35.1431C17.4985 36.9499 18.4487 37.8378 20.3178 37.8378Z" fill="white"/>
<path d="M32.7011 41.763C32.483 41.763 32.3272 41.7006 32.2026 41.5605C32.1092 41.4047 32.078 41.2334 32.1092 41.0309L36.1434 22.0277C36.1746 21.8097 36.2836 21.6383 36.4705 21.4981C36.6419 21.358 36.8288 21.2957 37.0313 21.2957H44.8039C46.969 21.2957 48.6979 21.7474 50.0064 22.6352C51.3303 23.5386 52.0001 24.8315 52.0001 26.5293C52.0001 27.0122 51.9378 27.5262 51.8288 28.0558C51.3459 30.2988 50.3646 31.9499 48.8693 33.0246C47.4051 34.0994 45.3958 34.629 42.8412 34.629H38.9004L37.5609 41.0309C37.5141 41.2489 37.4207 41.4203 37.2338 41.5605C37.0624 41.7006 36.8755 41.763 36.673 41.763H32.7011ZM43.0437 30.5947C43.8693 30.5947 44.5702 30.3767 45.1777 29.9249C45.8007 29.4732 46.2057 28.8346 46.4082 27.9935C46.4705 27.6664 46.5017 27.3704 46.5017 27.1212C46.5017 26.5605 46.3303 26.1243 46.0032 25.8284C45.6761 25.5168 45.0998 25.3611 44.3054 25.3611H40.8007L39.6948 30.5947H43.0437Z" fill="white"/>
</svg>
