<svg xmlns="http://www.w3.org/2000/svg" width="56" height="57" viewBox="0 0 56 57" fill="none">
  <path d="M0 18.8874C0 8.57806 8.35735 0.220703 18.6667 0.220703H37.3333C47.6426 0.220703 56 8.57805 56 18.8874V37.554C56 47.8633 47.6426 56.2207 37.3333 56.2207H18.6667C8.35735 56.2207 0 47.8633 0 37.554V18.8874Z" fill="#FF0420"/>
  <path d="M28.0001 11.8875C19.0167 11.8875 11.6667 19.2375 11.6667 28.2208C11.6667 37.2041 19.0167 44.5541 28.0001 44.5541C36.9834 44.5541 44.3334 37.2041 44.3334 28.2208C44.3334 19.2375 36.9834 11.8875 28.0001 11.8875ZM28.0001 36.5508V42.6758C21.7117 42.6758 16.6484 37.6125 16.6484 31.3241C16.6484 25.0358 21.7117 19.9725 28.0001 19.9725V13.8475C34.2884 13.8475 39.3517 18.9108 39.3517 25.1991C39.3517 31.4875 34.2884 36.5508 28.0001 36.5508Z" fill="white"/>
  <path d="M28.0511 21.2207H27.9489C26.416 24.2642 24.0657 26.5975 21 28.1192C24.0657 29.7425 26.416 32.0757 27.9489 35.2207H28.0511C29.584 32.1772 31.9343 29.8439 35 28.3222C31.9343 26.6989 29.584 24.3657 28.0511 21.2207Z" fill="white"/>
</svg>