<svg width="56" height="56" viewBox="0 0 56 56" fill="none" xmlns="http://www.w3.org/2000/svg">
<g clip-path="url(#clip0_3361_13422)">
<path d="M0 18.6667C0 8.35735 8.35735 0 18.6667 0H37.3333C47.6426 0 56 8.35735 56 18.6667V37.3333C56 47.6426 47.6426 56 37.3333 56H18.6667C8.35735 56 0 47.6426 0 37.3333V18.6667Z" fill="#F3F5F6"/>
<path d="M11.2866 32.758V24.802H12.8706V32.758H11.2866ZM7.88464 29.536V28.024H16.2906V29.536H7.88464ZM19.7933 34V23.434L17.6693 23.956V22.624L20.4773 21.4H21.6293V34H19.7933ZM29.2113 34.216C28.0833 34.216 27.1113 33.946 26.2953 33.406C25.4913 32.854 24.8733 32.092 24.4413 31.12C24.0093 30.136 23.7933 28.996 23.7933 27.7C23.7933 26.404 24.0093 25.27 24.4413 24.298C24.8733 23.314 25.4913 22.552 26.2953 22.012C27.1113 21.46 28.0833 21.184 29.2113 21.184C30.3273 21.184 31.2873 21.46 32.0913 22.012C32.8953 22.552 33.5133 23.314 33.9453 24.298C34.3773 25.27 34.5933 26.404 34.5933 27.7C34.5933 28.996 34.3773 30.136 33.9453 31.12C33.5133 32.092 32.8953 32.854 32.0913 33.406C31.2873 33.946 30.3273 34.216 29.2113 34.216ZM29.1933 32.614C29.8893 32.614 30.5013 32.416 31.0293 32.02C31.5693 31.624 31.9893 31.06 32.2893 30.328C32.6013 29.596 32.7573 28.72 32.7573 27.7C32.7573 26.68 32.6013 25.804 32.2893 25.072C31.9893 24.34 31.5693 23.782 31.0293 23.398C30.5013 23.002 29.8893 22.804 29.1933 22.804C28.5093 22.804 27.8973 23.002 27.3573 23.398C26.8173 23.782 26.3913 24.34 26.0793 25.072C25.7793 25.804 25.6293 26.68 25.6293 27.7C25.6293 28.72 25.7793 29.596 26.0793 30.328C26.3913 31.06 26.8173 31.624 27.3573 32.02C27.8973 32.416 28.5093 32.614 29.1933 32.614ZM41.7093 34.216C40.5813 34.216 39.6093 33.946 38.7933 33.406C37.9893 32.854 37.3713 32.092 36.9393 31.12C36.5073 30.136 36.2913 28.996 36.2913 27.7C36.2913 26.404 36.5073 25.27 36.9393 24.298C37.3713 23.314 37.9893 22.552 38.7933 22.012C39.6093 21.46 40.5813 21.184 41.7093 21.184C42.8253 21.184 43.7853 21.46 44.5893 22.012C45.3933 22.552 46.0113 23.314 46.4433 24.298C46.8753 25.27 47.0913 26.404 47.0913 27.7C47.0913 28.996 46.8753 30.136 46.4433 31.12C46.0113 32.092 45.3933 32.854 44.5893 33.406C43.7853 33.946 42.8253 34.216 41.7093 34.216ZM41.6913 32.614C42.3873 32.614 42.9993 32.416 43.5273 32.02C44.0673 31.624 44.4873 31.06 44.7873 30.328C45.0993 29.596 45.2553 28.72 45.2553 27.7C45.2553 26.68 45.0993 25.804 44.7873 25.072C44.4873 24.34 44.0673 23.782 43.5273 23.398C42.9993 23.002 42.3873 22.804 41.6913 22.804C41.0073 22.804 40.3953 23.002 39.8553 23.398C39.3153 23.782 38.8893 24.34 38.5773 25.072C38.2773 25.804 38.1273 26.68 38.1273 27.7C38.1273 28.72 38.2773 29.596 38.5773 30.328C38.8893 31.06 39.3153 31.624 39.8553 32.02C40.3953 32.416 41.0073 32.614 41.6913 32.614Z" fill="#66767D"/>
</g>
<defs>
<clipPath id="clip0_3361_13422">
<path d="M0 18.6667C0 8.35735 8.35735 0 18.6667 0H37.3333C47.6426 0 56 8.35735 56 18.6667V37.3333C56 47.6426 47.6426 56 37.3333 56H18.6667C8.35735 56 0 47.6426 0 37.3333V18.6667Z" fill="white"/>
</clipPath>
</defs>
</svg>
