<svg width="64" height="64" viewBox="0 0 64 64" fill="none" xmlns="http://www.w3.org/2000/svg">
<path d="M0 24C0 10.7452 10.7452 0 24 0H40C53.2548 0 64 10.7452 64 24V40C64 53.2548 53.2548 64 40 64H24C10.7452 64 0 53.2548 0 40V24Z" fill="#FF3D00"/>
<path fill-rule="evenodd" clip-rule="evenodd" d="M11.9999 12.0027V27.7908L17.6359 33.4331V17.645L33.346 17.6977L27.7128 12.0525L12.0028 11.9998L11.9999 12.0027ZM40.5817 24.6304V38.8852L34.9457 33.2428V18.9881L40.5817 24.6304ZM24.8684 40.3689H39.1001L33.467 34.7237H19.2352L24.8684 40.3689ZM48.5912 46.8364V32.6534L42.9553 27.0111V42.7992L27.2452 42.7466L32.8784 48.3917L47.0854 48.4394L50.0814 51.4402L51.9999 51.7149L51.6345 49.8848L48.5912 46.8364Z" fill="white"/>
</svg>
