<svg width="56" height="57" viewBox="0 0 56 57" fill="none" xmlns="http://www.w3.org/2000/svg">
<g clip-path="url(#clip0_2888_18932)">
<path d="M0 19.4606C0 9.1513 8.35735 0.793945 18.6667 0.793945H37.3333C47.6426 0.793945 56 9.1513 56 19.4606V38.1273C56 48.4366 47.6426 56.7939 37.3333 56.7939H18.6667C8.35735 56.7939 0 48.4366 0 38.1273V19.4606Z" fill="#8247E5"/>
<mask id="mask0_2888_18932" style="mask-type:luminance" maskUnits="userSpaceOnUse" x="0" y="0" width="56" height="57">
<path d="M49 0.793945H7C3.13401 0.793945 0 3.92795 0 7.79395V49.7939C0 53.6599 3.13401 56.7939 7 56.7939H49C52.866 56.7939 56 53.6599 56 49.7939V7.79395C56 3.92795 52.866 0.793945 49 0.793945Z" fill="white"/>
</mask>
<g mask="url(#mask0_2888_18932)">
<path d="M37.9678 22.4532C37.2964 22.0626 36.4233 22.0626 35.6846 22.4532L30.4462 25.4486L26.8867 27.4022L21.6484 30.3975C20.9767 30.7881 20.1036 30.7881 19.365 30.3975L15.2011 28.0532C14.5295 27.6626 14.0594 26.9463 14.0594 26.1649V21.5416C14.0594 20.7602 14.4624 20.0439 15.2011 19.6533L19.2978 17.3742C19.9694 16.9835 20.8425 16.9835 21.5812 17.3742L25.6779 19.6533C26.3494 20.0439 26.8196 20.7602 26.8196 21.5416V24.5369L30.379 22.5184V19.523C30.379 18.7416 29.9761 18.0253 29.2373 17.6346L21.6484 13.337C20.9767 12.9463 20.1036 12.9463 19.365 13.337L11.6417 17.6346C10.9029 18.0253 10.5 18.7416 10.5 19.523V28.1835C10.5 28.9649 10.9029 29.6812 11.6417 30.0718L19.365 34.3696C20.0366 34.7602 20.9095 34.7602 21.6484 34.3696L26.8867 31.4392L30.4462 29.4206L35.6846 26.4904C36.3561 26.0998 37.2292 26.0998 37.9678 26.4904L42.0646 28.7696C42.7362 29.1602 43.2063 29.8765 43.2063 30.6579V35.2812C43.2063 36.0626 42.8032 36.7788 42.0646 37.1696L37.9678 39.5137C37.2964 39.9043 36.4233 39.9043 35.6846 39.5137L31.5878 37.2345C30.9162 36.8439 30.4462 36.1277 30.4462 35.3463V32.351L26.8867 34.3696V37.3649C26.8867 38.1463 27.2897 38.8626 28.0285 39.2532L35.7516 43.551C36.4233 43.9416 37.2964 43.9416 38.035 43.551L45.7583 39.2532C46.43 38.8626 46.9 38.1463 46.9 37.3649V28.7043C46.9 27.923 46.4972 27.2067 45.7583 26.8161L37.9678 22.4532Z" fill="white"/>
</g>
</g>
<defs>
<clipPath id="clip0_2888_18932">
<path d="M0 19.4606C0 9.1513 8.35735 0.793945 18.6667 0.793945H37.3333C47.6426 0.793945 56 9.1513 56 19.4606V38.1273C56 48.4366 47.6426 56.7939 37.3333 56.7939H18.6667C8.35735 56.7939 0 48.4366 0 38.1273V19.4606Z" fill="white"/>
</clipPath>
</defs>
</svg>
