<svg width="64" height="64" viewBox="0 0 64 64" fill="none" xmlns="http://www.w3.org/2000/svg">
<g clip-path="url(#clip0_3467_9541)">
<path d="M0 24C0 10.7452 10.7452 0 24 0H40C53.2548 0 64 10.7452 64 24V40C64 53.2548 53.2548 64 40 64H24C10.7452 64 0 53.2548 0 40V24Z" fill="#8247E5"/>
<mask id="mask0_3467_9541" style="mask-type:luminance" maskUnits="userSpaceOnUse" x="0" y="0" width="64" height="64">
<path d="M56 0H8C3.58172 0 0 3.58172 0 8V56C0 60.4183 3.58172 64 8 64H56C60.4183 64 64 60.4183 64 56V8C64 3.58172 60.4183 0 56 0Z" fill="white"/>
</mask>
<g mask="url(#mask0_3467_9541)">
<path d="M42.1844 25.3398C41.4465 24.9106 40.4871 24.9106 39.6753 25.3398L33.9188 28.6315L30.0072 30.7783L24.2509 34.0698C23.5128 34.499 22.5534 34.499 21.7417 34.0698L17.166 31.4937C16.428 31.0644 15.9114 30.2773 15.9114 29.4186V24.3381C15.9114 23.4794 16.3542 22.6923 17.166 22.2631L21.6678 19.7585C22.4059 19.3291 23.3653 19.3291 24.1771 19.7585L28.679 22.2631C29.4169 22.6923 29.9336 23.4794 29.9336 24.3381V27.6296L33.8449 25.4115V22.1198C33.8449 21.2611 33.4022 20.474 32.5903 20.0447L24.2509 15.322C23.5128 14.8927 22.5534 14.8927 21.7417 15.322L13.2546 20.0447C12.4427 20.474 11.9999 21.2611 11.9999 22.1198V31.6369C11.9999 32.4956 12.4427 33.2827 13.2546 33.7119L21.7417 38.4348C22.4797 38.864 23.439 38.864 24.2509 38.4348L30.0072 35.2146L33.9188 32.9963L39.6753 29.7763C40.4132 29.3471 41.3726 29.3471 42.1844 29.7763L46.6863 32.281C47.4244 32.7102 47.9409 33.4973 47.9409 34.356V39.4365C47.9409 40.2952 47.498 41.0823 46.6863 41.5117L42.1844 44.0877C41.4465 44.5169 40.4871 44.5169 39.6753 44.0877L35.1734 41.5831C34.4353 41.1538 33.9188 40.3667 33.9188 39.5081V36.2165L30.0072 38.4348V41.7263C30.0072 42.585 30.4501 43.3721 31.2621 43.8013L39.749 48.5242C40.4871 48.9535 41.4465 48.9535 42.2582 48.5242L50.7453 43.8013C51.4834 43.3721 51.9999 42.585 51.9999 41.7263V32.2092C51.9999 31.3506 51.5572 30.5635 50.7453 30.1342L42.1844 25.3398Z" fill="white"/>
</g>
</g>
<defs>
<clipPath id="clip0_3467_9541">
<path d="M0 24C0 10.7452 10.7452 0 24 0H40C53.2548 0 64 10.7452 64 24V40C64 53.2548 53.2548 64 40 64H24C10.7452 64 0 53.2548 0 40V24Z" fill="white"/>
</clipPath>
</defs>
</svg>
