<svg width="64" height="64" viewBox="0 0 64 64" fill="none" xmlns="http://www.w3.org/2000/svg">
<path d="M0 24C0 10.7452 10.7452 0 24 0H40C53.2548 0 64 10.7452 64 24V40C64 53.2548 53.2548 64 40 64H24C10.7452 64 0 53.2548 0 40V24Z" fill="#F3F5F6"/>
<path fill-rule="evenodd" clip-rule="evenodd" d="M52 33.6858C52 33.8757 51.956 34.0562 51.8727 34.2129L43.2945 49.0706C42.9307 49.7007 42.2584 50.0889 41.5308 50.0889H22.4692C21.7416 50.0889 21.0693 49.7007 20.7055 49.0706L12.1265 34.2114C12.0434 34.055 12 33.8754 12 33.6858C12 33.0708 12.4985 32.5723 13.1135 32.5723H22.5253L24.9105 36.6237L24.9252 36.6479C25.2435 37.159 25.9132 37.3255 26.435 37.0183L26.462 37.0019C26.7026 36.8509 26.8767 36.6134 26.9481 36.3377L29.9873 24.5885L32.597 43.504L32.6009 43.5303C32.6973 44.1254 33.2518 44.5377 33.8522 44.4548L33.8795 44.4507C34.3142 44.3798 34.6673 44.0587 34.778 43.6307L38.4415 29.4687L39.9456 32.0237L39.9606 32.0483C40.1636 32.3737 40.5204 32.5723 40.9052 32.5723H50.8865C51.5015 32.5723 52 33.0708 52 33.6858ZM41.5308 13C42.2584 13 42.9307 13.3882 43.2945 14.0183L51.8732 28.8767C51.9562 29.0332 52 29.2136 52 29.4031C52 30.0181 51.5015 30.5166 50.8865 30.5166H41.4439L39.0587 26.4652L39.0422 26.4382C38.8913 26.1976 38.6537 26.0234 38.378 25.9521L38.3521 25.9457C37.7651 25.8085 37.1729 26.1645 37.0211 26.7512L33.9818 38.5003L31.3722 19.5849L31.3681 19.5576C31.2972 19.123 30.9761 18.7698 30.548 18.6591C29.9526 18.5051 29.3451 18.8629 29.1911 19.4582L25.5276 33.6201L24.0235 31.0652L24.0086 31.0405C23.8056 30.7152 23.4488 30.5166 23.064 30.5166H13.1135C12.4985 30.5166 12 30.0181 12 29.4031C12 29.2151 12.0422 29.0372 12.1238 28.8818L20.7055 14.0183C21.0693 13.3882 21.7416 13 22.4692 13H41.5308Z" fill="url(#paint0_linear_3467_9559)"/>
<defs>
<linearGradient id="paint0_linear_3467_9559" x1="3061.05" y1="289.659" x2="1180.14" y2="3573.37" gradientUnits="userSpaceOnUse">
<stop stop-color="#00EAFF"/>
<stop offset="0.252531" stop-color="#0080FF"/>
<stop offset="0.497394" stop-color="#8000FF"/>
<stop offset="0.749912" stop-color="#E619E6"/>
<stop offset="0.999136" stop-color="#FF0000"/>
</linearGradient>
</defs>
</svg>
