<svg width="64" height="64" viewBox="0 0 64 64" fill="none" xmlns="http://www.w3.org/2000/svg">
<path d="M0 24C0 10.7452 10.7452 0 24 0H40C53.2548 0 64 10.7452 64 24V40C64 53.2548 53.2548 64 40 64H24C10.7452 64 0 53.2548 0 40V24Z" fill="#F3F5F6"/>
<path d="M38.2532 12H15.0001V18.6666H38.2532C40.0877 18.6666 41.5751 20.1593 41.5751 22V25.3334H25.1696C19.5531 25.3334 15.0001 29.8863 15.0001 35.5029V52H21.6438V36.3234L38.4575 51.9992H48.2205L26.7677 32.0001H41.5751V25.3658H48.2205V22C48.2205 16.4771 43.7567 12 38.2532 12Z" fill="black"/>
</svg>
