<svg width="64" height="64" viewBox="0 0 64 64" fill="none" xmlns="http://www.w3.org/2000/svg">
<path d="M0 24C0 10.7452 10.7452 0 24 0H40C53.2548 0 64 10.7452 64 24V40C64 53.2548 53.2548 64 40 64H24C10.7452 64 0 53.2548 0 40V24Z" fill="#F3F5F6"/>
<g clip-path="url(#clip0_3467_9585)">
<path fill-rule="evenodd" clip-rule="evenodd" d="M17.9999 15.1169V39.7922C17.9999 40.3117 18.1298 40.7013 18.2597 41.0909C18.5194 41.4805 18.7792 41.8701 19.1688 42.1299L30.8571 51.4805C31.2467 51.8701 31.7662 52 32.2857 52C32.8051 52 33.3246 51.8701 33.7142 51.4805L45.4025 42.1299C45.7922 41.8701 46.0519 41.4805 46.3116 41.0909C46.5714 40.7013 46.5714 40.1818 46.5714 39.7922V15.1169C46.5714 14.3377 46.1818 13.5584 45.6623 12.9091C45.1428 12.2597 44.3636 12 43.4545 12H21.1168C20.2077 12 19.4285 12.2597 18.909 12.9091C18.3895 13.4286 17.9999 14.2078 17.9999 15.1169Z" fill="#004DE5"/>
<path d="M40.5974 26.2861V20.8315C40.5974 20.1822 40.3376 19.4029 39.8182 18.8835C39.2987 18.364 38.6493 18.1042 37.8701 18.1042H26.5714C25.9221 18.2341 25.2727 18.4939 24.7532 19.0133C24.2337 19.5328 23.974 20.1822 23.974 20.8315V36.4159C23.974 36.8055 24.1039 37.1952 24.2337 37.5848C24.3636 37.9744 24.6233 38.2341 25.013 38.4939L29.0389 41.8705L29.1688 42.0004H29.2987L29.4285 41.8705V41.7406V30.7017C29.4285 30.5718 29.4285 30.5718 29.5584 30.4419C29.5584 30.4419 29.6883 30.312 29.8182 30.312H32.8052C33.3246 30.312 33.8441 30.5718 34.2337 30.9614C34.6234 31.351 34.8831 31.8705 34.8831 32.39V41.7406V41.8705L35.013 42.0004H35.1428C35.1428 42.0004 35.2727 42.0004 35.2727 41.8705L39.4285 38.4939C39.6883 38.2341 39.948 37.9744 40.2078 37.5848C40.3376 37.1952 40.4675 36.8055 40.4675 36.4159V31.6107C40.4675 30.9614 40.2078 30.1822 39.6883 29.6627C39.1688 29.1432 38.5195 28.8835 37.7402 28.8835C38.3896 28.8835 39.1688 28.6237 39.5584 28.1042C40.3376 27.7146 40.5974 26.9354 40.5974 26.2861ZM32.935 27.5848H29.948C29.8182 27.5848 29.8182 27.5848 29.6883 27.4549C29.6883 27.4549 29.5584 27.325 29.5584 27.1952V21.2211C29.5584 21.0913 29.6883 21.0913 29.6883 20.9614C29.6883 20.9614 29.8182 20.8315 29.948 20.8315H34.6234C34.7532 20.8315 34.7532 20.8315 34.8831 20.9614C34.8831 20.9614 35.013 21.0913 35.013 21.2211V25.6367C35.013 26.1562 34.7532 26.6757 34.3636 27.0653C33.974 27.4549 33.4545 27.5848 32.935 27.5848Z" fill="url(#paint0_linear_3467_9585)"/>
</g>
<defs>
<linearGradient id="paint0_linear_3467_9585" x1="32.2858" y1="18.1907" x2="32.2858" y2="42.0002" gradientUnits="userSpaceOnUse">
<stop stop-color="white"/>
<stop offset="0.4583" stop-color="white"/>
<stop offset="1" stop-color="white"/>
</linearGradient>
<clipPath id="clip0_3467_9585">
<rect width="28.5714" height="40" fill="white" transform="translate(17.9999 12)"/>
</clipPath>
</defs>
</svg>
