<svg width="64" height="64" viewBox="0 0 64 64" fill="none" xmlns="http://www.w3.org/2000/svg">
<path d="M0 24C0 10.7452 10.7452 0 24 0H40C53.2548 0 64 10.7452 64 24V40C64 53.2548 53.2548 64 40 64H24C10.7452 64 0 53.2548 0 40V24Z" fill="#FFEEDA"/>
<path d="M49.1503 38.7023V15.5082C49.1197 13.5626 47.5724 12 45.6268 12H21.4216C16.1976 12.0766 12 16.3508 12 21.5902C12 23.3519 12.4749 24.8686 13.1949 26.2014C13.8077 27.3044 14.7728 28.3462 15.7227 29.1275C15.9984 29.3419 15.8605 29.25 16.6878 29.7556C17.8215 30.445 19.1236 30.7973 19.1236 30.7973L19.1083 44.677C19.139 45.3358 19.2002 45.9639 19.3841 46.5613C19.9203 48.5223 21.2837 50.0236 23.1221 50.7436C23.8881 51.05 24.7613 51.2492 25.6958 51.2645L45.0293 51.3258C48.8746 51.3258 51.9998 48.2006 51.9998 44.34C52.0151 42.042 50.8661 39.9892 49.1503 38.7023Z" fill="#FFEEDA"/>
<path d="M49.6252 44.5086C49.5486 46.9751 47.5111 48.9666 45.0139 48.9666L31.7164 48.9207C32.7735 47.6951 33.4169 46.1018 33.4169 44.3554C33.4169 41.6285 31.793 39.7441 31.793 39.7441H45.0293C47.5723 39.7441 49.6405 41.8123 49.6405 44.3554L49.6252 44.5086Z" fill="#EBC28E"/>
<path d="M16.9941 27.1666C15.4622 25.7112 14.3898 23.8422 14.3898 21.6055V21.3757C14.5123 17.5764 17.6376 14.5125 21.4369 14.4053H45.6421C46.2702 14.4359 46.7757 14.8802 46.7757 15.5236V36.0061C47.3272 36.098 47.603 36.1746 48.1392 36.3738C48.5681 36.527 49.1503 36.864 49.1503 36.864V15.5236C49.1196 13.578 47.5723 12.0154 45.6267 12.0154H21.4215C16.1975 12.092 11.9999 16.3662 11.9999 21.6055C11.9999 24.6542 13.394 27.2585 15.6613 29.0816C15.8145 29.2041 15.9677 29.3727 16.366 29.3727C17.0707 29.3727 17.5763 28.8058 17.5457 28.193C17.5457 27.6722 17.3159 27.4883 16.9941 27.1666Z" fill="#101010"/>
<path d="M45.0139 37.3543H26.0328C24.7612 37.3696 23.7348 38.396 23.7348 39.6676V42.3945C23.7655 43.6507 24.8378 44.7231 26.1247 44.7231H27.5341V42.3945H26.1094V39.7288C26.1094 39.7288 26.4617 39.7288 26.8754 39.7288C29.2806 39.7288 31.0423 41.9502 31.0423 44.3401C31.0423 46.4542 29.1121 49.1505 25.8949 48.936C23.0454 48.7522 21.4981 46.2091 21.4981 44.3401V21.2073C21.4981 20.1655 20.6402 19.3076 19.5985 19.3076H17.6988V21.6822H19.1083V44.3554C19.0317 48.9666 22.3867 51.2799 25.8949 51.2799L45.0293 51.3412C48.8745 51.3412 51.9998 48.216 51.9998 44.3554C52.0151 40.4948 48.8745 37.3543 45.0139 37.3543ZM49.6252 44.5086C49.5486 46.9751 47.5111 48.9666 45.0139 48.9666L31.7164 48.9207C32.7735 47.6951 33.4169 46.1018 33.4169 44.3554C33.4169 41.6285 31.793 39.7442 31.793 39.7442H45.0293C47.5723 39.7442 49.6405 41.8123 49.6405 44.3554L49.6252 44.5086Z" fill="#101010"/>
<path d="M39.8972 22.1109H25.5885V19.7363H39.8972C40.5406 19.7363 41.0768 20.2572 41.0768 20.9159C41.0921 21.5747 40.5712 22.1109 39.8972 22.1109Z" fill="#101010"/>
<path d="M39.8972 33.2484H25.5885V30.8892H39.8972C40.5406 30.8892 41.0768 31.41 41.0768 32.0688C41.0921 32.7122 40.5712 33.2484 39.8972 33.2484Z" fill="#101010"/>
<path d="M42.4249 27.6719H25.5885V25.2974H42.4096C43.053 25.2974 43.5892 25.8182 43.5892 26.477C43.6199 27.1357 43.0837 27.6719 42.4249 27.6719Z" fill="#101010"/>
</svg>
