<svg width="64" height="64" viewBox="0 0 64 64" fill="none" xmlns="http://www.w3.org/2000/svg">
<path d="M0 24C0 10.7452 10.7452 0 24 0H40C53.2548 0 64 10.7452 64 24V40C64 53.2548 53.2548 64 40 64H24C10.7452 64 0 53.2548 0 40V24Z" fill="#F3F5F6"/>
<g clip-path="url(#clip0_3467_9642)">
<path fill-rule="evenodd" clip-rule="evenodd" d="M31.949 52.1022C37.8904 52.1022 43.2284 49.518 46.9 45.4123C45.192 43.9279 42.6181 43.8377 40.7998 45.3049L40.4524 45.5852C37.1232 48.2716 32.272 47.8749 29.4235 44.6833C27.8699 42.9426 25.2091 42.7648 23.4378 44.2834L19.4328 47.717C22.8631 50.4612 27.2144 52.1022 31.949 52.1022ZM38.4501 42.3929C41.6211 39.8341 46.0783 39.9259 49.1281 42.3972C50.9511 39.3767 51.9999 35.8364 51.9999 32.0513C51.9999 27.8452 50.7049 23.9417 48.4919 20.7176C47.0652 20.4138 45.5188 20.7687 44.345 21.8089L44.0108 22.1049C40.8091 24.9421 35.9449 24.7697 32.952 21.713C31.3198 20.0459 28.6536 19.9911 26.9543 21.5899L22.2936 25.9746L19.7296 23.2494L24.3903 18.8646C27.5736 15.8697 32.5681 15.9723 35.6257 19.0953C37.2233 20.7271 39.82 20.8191 41.5292 19.3045L41.8634 19.0084C42.9009 18.089 44.1012 17.4692 45.358 17.1433C41.8056 13.946 37.1045 12.0002 31.949 12.0002C21.7703 12.0002 13.3631 19.5846 12.0704 29.4104C15.162 27.9268 18.9756 28.4977 21.4964 31.0791C23.0878 32.7087 25.6502 32.8807 27.4451 31.4784L30.051 29.4426C33.3261 26.884 37.9556 27.0078 41.0892 29.7379L46.1626 34.1581L43.7047 36.9793L38.6313 32.5592C36.8495 31.0067 34.2169 30.9363 32.3547 32.3912L29.7488 34.4271C26.4509 37.0034 21.7431 36.6874 18.8193 33.6933C17.1191 31.9522 14.3384 31.8915 12.5639 33.5567L11.9999 34.0858C12.422 38.2736 14.1327 42.0813 16.7295 45.106L21.0024 41.4427C24.3205 38.5979 29.3048 38.9309 32.2151 42.1917C33.7358 43.8955 36.3255 44.1072 38.1026 42.6731L38.4501 42.3929Z" fill="#0B2632"/>
</g>
<defs>
<clipPath id="clip0_3467_9642">
<rect width="40" height="40.1019" fill="white" transform="translate(11.9999 12.0002)"/>
</clipPath>
</defs>
</svg>
