<svg width="64" height="64" viewBox="0 0 64 64" fill="none" xmlns="http://www.w3.org/2000/svg">
<path d="M0 24C0 10.7452 10.7452 0 24 0H40C53.2548 0 64 10.7452 64 24V40C64 53.2548 53.2548 64 40 64H24C10.7452 64 0 53.2548 0 40V24Z" fill="#21273F"/>
<path d="M50.7289 28.6699C50.2778 28.6699 49.8829 28.9065 49.6583 29.2613H42.8852L41.3917 30.7549H35.0696C35.216 31.1909 35.3493 31.642 35.4706 32.1111H41.954L43.4476 30.6176H49.6603C49.8839 30.9724 50.2798 31.212 50.7309 31.212C51.4336 31.212 51.9999 30.6426 51.9999 29.943C51.9999 29.2433 51.4305 28.6739 50.7309 28.6739L50.7289 28.6699Z" fill="#71B743"/>
<path d="M45.1105 34.9148C45.3441 35.2225 45.7079 35.425 46.1249 35.425C46.8276 35.425 47.3939 34.8556 47.3939 34.156C47.3939 33.4563 46.8246 32.887 46.1249 32.887C45.6398 32.887 45.2258 33.1606 45.0113 33.5586H35.8024C35.8896 33.9976 35.9668 34.4517 36.0389 34.9148H45.1105Z" fill="#71B743"/>
<path d="M36.1131 36.2178C36.085 36.6749 35.9888 37.126 35.8334 37.553H41.9811L43.5027 39.0746H47.6596C47.8831 39.4294 48.279 39.666 48.7301 39.666C49.4328 39.666 49.9991 39.0966 49.9991 38.397C49.9991 37.6973 49.4298 37.128 48.7301 37.128C48.279 37.128 47.8841 37.3645 47.6596 37.7194H44.066L42.5444 36.1978H36.1071C36.1071 36.1978 36.1071 36.2098 36.1071 36.2168L36.1131 36.2178Z" fill="#71B743"/>
<path d="M35.1358 38.8403C34.1094 40.2717 32.8334 41.4906 31.3809 42.4429C31.3468 42.4649 31.3097 42.486 31.2747 42.508C31.1313 42.6013 30.985 42.6915 30.8386 42.7787C30.6893 42.8689 30.5399 42.9501 30.3936 43.0343C30.3815 43.0403 30.3715 43.0463 30.3595 43.0533C29.4824 43.5325 28.6013 43.8903 27.7583 44.1389C27.7112 44.155 27.6621 44.17 27.6149 44.186C27.5558 44.2051 27.4937 44.2171 27.4345 44.2331C27.3413 44.2582 27.2481 44.2833 27.1579 44.3043C27.0205 44.3384 26.8842 44.3665 26.7469 44.3945C26.6537 44.4136 26.5604 44.4286 26.4702 44.4477C26.361 44.4667 26.2497 44.4847 26.1404 44.5008C25.9791 44.5258 25.8197 44.5409 25.6613 44.5569C25.6142 44.5599 25.5681 44.5659 25.524 44.5729C25.3185 44.592 25.116 44.601 24.9205 44.607C24.8985 44.607 24.8774 44.607 24.8554 44.61C24.8333 44.61 24.8123 44.61 24.7902 44.61H24.7812C24.7812 44.61 24.7722 44.61 24.7692 44.61H24.7662H24.7351C24.7351 44.61 24.7291 44.61 24.7261 44.61C22.3274 44.576 19.0045 43.5335 16.1948 40.8491C15.5442 40.2296 14.9228 39.5209 14.3464 38.718C13.8201 37.9803 13.5124 37.1122 13.4593 36.2071H13.4633H13.4663C13.4382 35.8492 13.4503 35.4883 13.5034 35.1335C13.762 33.0616 14.3183 31.0388 15.1553 29.1262C14.4306 27.4402 13.9354 25.663 13.6838 23.8467C13.5224 22.4493 13.5816 21.0189 14.1199 19.8461C14.2441 19.5815 14.5338 19.4352 14.8195 19.4943C15.3017 19.5875 16.1326 19.8923 17.2864 20.8074C18.4812 21.7998 19.5578 22.9235 20.494 24.1644C21.8633 23.7254 23.2907 23.5079 24.7281 23.5209C24.7501 23.5209 24.7712 23.5209 24.7932 23.5209C24.8153 23.5209 24.8363 23.5209 24.8584 23.5209C26.2557 23.5119 27.646 23.7174 28.9812 24.1303C29.9084 22.9074 30.9719 21.7968 32.1517 20.8165C33.3095 19.8953 34.1395 19.5875 34.6246 19.4943C34.9113 19.4352 35.2 19.5815 35.3243 19.8461C35.8656 21.025 35.9247 22.4654 35.7563 23.8657C35.5167 25.5988 35.0536 27.2909 34.381 28.9027C34.372 28.9247 34.362 28.9498 34.353 28.9708C34.4462 29.1603 34.5334 29.3568 34.6206 29.5592H37.8904L40.2861 27.1635H42.0593C42.2828 27.5184 42.6788 27.755 43.1298 27.755C43.8325 27.755 44.3989 27.1856 44.3989 26.4859C44.3989 25.7863 43.8295 25.2169 43.1298 25.2169C42.6788 25.2169 42.2838 25.4535 42.0593 25.8083H39.7227L37.327 28.201H36.1763C36.6464 26.8478 36.9912 25.4535 37.1877 24.0321V24.004C37.4153 22.1125 37.2278 20.4977 36.6304 19.2006C36.2785 18.4699 35.5448 17.9998 34.7419 17.9998C34.6086 17.9998 34.4743 18.0118 34.3409 18.0399C33.3947 18.2233 32.3532 18.7646 31.2426 19.6487L31.2205 19.6677C30.2091 20.5077 29.2759 21.4379 28.4359 22.4463C27.2972 22.1757 26.1334 22.0384 24.9636 22.0384H24.5938C23.3899 22.0384 22.189 22.1847 21.0223 22.4744C20.1702 21.451 19.227 20.5077 18.2036 19.6587L18.1815 19.6397C16.7942 18.5481 15.7397 18.1682 15.1012 18.0439C14.1549 17.8474 13.2007 18.3305 12.7987 19.2076C12.2073 20.4867 12.0209 22.0915 12.2384 23.974V24.008C12.484 25.7442 12.932 27.4432 13.5766 29.0701C12.8298 30.9395 12.3226 32.8972 12.065 34.8909C12.0058 35.2919 11.9868 35.6999 12.0088 36.1078C12.0088 36.1609 12.0088 36.2101 12.0088 36.2632C12.0118 36.3374 12.0179 36.4095 12.0249 36.4837C12.1311 37.5823 12.5231 38.6338 13.1636 39.533C13.7389 40.3359 14.3865 41.0857 15.0952 41.7763L15.1764 41.8545C15.2385 41.9136 15.3007 41.9728 15.3628 42.0289L15.4029 42.066C15.4029 42.066 15.5051 42.1622 15.5302 42.1843C15.5733 42.2244 15.6174 42.2625 15.6605 42.2995L15.7788 42.4018C15.8159 42.4359 15.853 42.4669 15.8911 42.501C15.9282 42.5321 15.9592 42.5572 15.9933 42.5852L16.1056 42.6784C16.1557 42.7215 16.2048 42.7626 16.2579 42.8027C16.286 42.8248 16.4354 42.9431 16.4354 42.9431C16.4975 42.9932 16.5627 43.0423 16.6278 43.0894L16.7371 43.1706C16.8243 43.2358 16.9115 43.2979 16.9987 43.3601L17.0889 43.4222C17.1851 43.4874 17.2784 43.5555 17.3756 43.6187L17.4468 43.6658C17.546 43.7309 17.6492 43.7961 17.7485 43.8582L17.8106 43.8953C17.9169 43.9605 18.0191 44.0226 18.1284 44.0848L18.1785 44.1129C18.2878 44.175 18.399 44.2372 18.5083 44.2993L18.5454 44.3183C18.6576 44.3805 18.7729 44.4396 18.8842 44.4988L18.9213 44.5178C19.0365 44.574 19.1488 44.6331 19.2631 44.6862L19.2972 44.7023C19.4124 44.7554 19.5277 44.8085 19.639 44.8576L19.6761 44.8737C19.7913 44.9238 19.9036 44.9729 20.0149 45.017L20.055 45.033C20.1672 45.0802 20.2825 45.1233 20.3908 45.1634L20.4379 45.1794C20.5471 45.2195 20.6584 45.2606 20.7677 45.2977L20.8238 45.3167C20.93 45.3508 21.0353 45.3879 21.1375 45.419L21.2027 45.438C21.3049 45.4691 21.4052 45.5002 21.5044 45.5282L21.5826 45.5503C21.6788 45.5783 21.7751 45.6034 21.8693 45.6285L21.9655 45.6505C22.0527 45.6726 22.1429 45.6936 22.2301 45.7127L22.3364 45.7347C22.4206 45.7538 22.5018 45.7718 22.585 45.7878L22.7283 45.8129C22.7965 45.8249 22.8657 45.838 22.9338 45.85L23.1203 45.8781C23.1734 45.8871 23.2265 45.8941 23.2786 45.9031C23.3157 45.9091 23.4811 45.9282 23.4811 45.9282C23.5282 45.9342 23.5713 45.9402 23.6184 45.9472C23.6656 45.9532 23.9512 45.9783 23.9512 45.9783C24.0044 45.9813 24.0535 45.9843 24.1066 45.9873L24.278 45.9993C24.3372 46.0024 24.3993 46.0054 24.4584 46.0054H24.5767C24.6198 46.0144 24.6639 46.0144 24.707 46.0144H24.8373C24.8804 46.0144 24.9245 46.0144 24.9646 46.0084C25.5961 45.9893 26.2216 45.9212 26.8411 45.8059L26.8812 45.7999C26.9965 45.7778 27.1148 45.7528 27.233 45.7287H27.2521C29.6197 45.1844 31.8189 44.0768 33.6613 42.49C34.5384 41.7563 35.3263 40.9193 36.0199 40.0101H36.3718L38.7424 42.3807H44.0781C44.3016 42.7356 44.6976 42.9721 45.1486 42.9721C45.8513 42.9721 46.4177 42.4028 46.4177 41.7031C46.4177 41.0035 45.8483 40.4341 45.1486 40.4341C44.6976 40.4341 44.3026 40.6707 44.0781 41.0255H39.3047L36.9341 38.6549H35.2571C35.2451 38.6739 35.2321 38.695 35.22 38.714C35.189 38.7571 35.1579 38.7982 35.1268 38.8413L35.1358 38.8403Z" fill="#71B743"/>
<path d="M32.9115 26.0317C32.1958 25.2819 31.3558 24.6624 30.4256 24.2053C31.3558 24.6664 32.1958 25.2849 32.9115 26.0317Z" fill="#71B743"/>
<path d="M14.9819 20.709C14.4035 22.4762 15.0751 25.2608 15.7066 27.1984C15.0751 25.2638 14.4035 22.4792 14.9819 20.709Z" fill="#71B743"/>
<path d="M33.7675 27.0651C34.2306 25.6187 34.6977 23.7392 34.6667 22.1584C34.7007 23.7362 34.2306 25.6177 33.7675 27.0651Z" fill="#71B743"/>
<path d="M20.3456 37.7607C19.6019 36.9046 18.7559 36.3944 17.9099 36.1147C18.7559 36.3974 19.6019 36.9046 20.3456 37.7637V37.7607Z" fill="#71B743"/>
<path d="M16.9486 22.0933C16.0614 21.3034 15.3708 20.8613 14.9789 20.709C14.4005 22.4762 15.0721 25.2638 15.7036 27.1984C15.9151 26.8967 16.1426 26.604 16.3852 26.3243C17.132 25.4683 18.0341 24.7656 19.0455 24.2524C18.2737 23.3503 17.565 22.6376 16.9486 22.0903V22.0933Z" fill="#E55F0E"/>
<path d="M34.4452 20.712C33.7886 20.9676 32.289 22.0431 30.4226 24.2063C31.3528 24.6634 32.1958 25.2828 32.9085 26.0326C32.9987 26.1288 33.0889 26.2251 33.1762 26.3253C33.3816 26.5589 33.5741 26.8045 33.7615 27.0661C34.2246 25.6196 34.6918 23.7402 34.6607 22.1594C34.6487 21.6332 34.5825 21.142 34.4432 20.71L34.4452 20.712Z" fill="#E55F0E"/>
<path d="M34.6135 29.554C34.5263 29.3546 34.4391 29.1591 34.3459 28.9656C34.3549 28.9436 34.3649 28.9185 34.3739 28.8975C35.0455 27.2826 35.5096 25.5906 35.7492 23.8605C35.9136 22.4572 35.8585 21.0198 35.3172 19.8409C35.1929 19.5763 34.9032 19.43 34.6175 19.4891C34.1324 19.5823 33.3014 19.8871 32.1446 20.8113C30.9658 21.7916 29.9013 22.9022 28.9741 24.1251C27.6389 23.7112 26.2486 23.5057 24.8513 23.5187C24.8292 23.5187 24.8082 23.5187 24.7861 23.5187C24.7641 23.5187 24.743 23.5187 24.721 23.5187C23.2836 23.5067 21.8552 23.7242 20.4869 24.1622C19.5507 22.9243 18.4741 21.7976 17.2793 20.8052C16.1246 19.8901 15.2946 19.5853 14.8124 19.4921C14.5257 19.433 14.2371 19.5793 14.1128 19.844C13.5745 21.0167 13.5153 22.4512 13.6767 23.8445C13.9283 25.6618 14.4235 27.438 15.1482 29.124C14.3112 31.0376 13.7549 33.0594 13.4963 35.1313C13.4432 35.4862 13.4311 35.847 13.4592 36.2049C14.193 35.9653 16.0474 35.4952 17.9078 36.1177C18.7538 36.4003 19.5998 36.9075 20.3436 37.7636C20.8508 35.7568 22.6862 34.3725 24.7551 34.4347H24.7581C25.4958 34.4226 26.2266 34.581 26.8922 34.8978C27.4555 35.1935 27.9437 35.6044 28.3326 36.0926C28.3416 36.1046 28.3516 36.1177 28.3606 36.1297C28.4479 36.242 28.529 36.3532 28.6062 36.4715C28.6223 36.4935 28.6313 36.5186 28.6433 36.5397C28.7115 36.6519 28.7766 36.7632 28.8358 36.8785C28.8548 36.9156 28.8699 36.9567 28.8889 36.9967C28.939 37.099 28.9851 37.2022 29.0262 37.3105C29.0483 37.3696 29.0633 37.4318 29.0854 37.4939C29.1164 37.5841 29.1475 37.6714 29.1726 37.7646C31.5903 34.9739 35.1057 35.8821 36.1101 36.2219C36.1101 36.2159 36.1101 36.2099 36.1101 36.2029C36.1381 35.845 36.1221 35.4841 36.07 35.1293C36.061 35.0581 36.0479 34.989 36.0359 34.9178C35.9647 34.4547 35.8865 33.9996 35.7993 33.5616C35.7001 33.0634 35.5908 32.5812 35.4696 32.1151C35.3483 31.645 35.2139 31.1939 35.0686 30.7589C34.9283 30.3419 34.7789 29.941 34.6145 29.5581L34.6135 29.554ZM16.3852 26.3274C16.1426 26.604 15.9151 26.8967 15.7035 27.2015C15.072 25.2628 14.4035 22.4782 14.9788 20.712C15.3708 20.8644 16.0614 21.3064 16.9485 22.0963C17.565 22.6436 18.2707 23.3563 19.0455 24.2585C18.0341 24.7717 17.1289 25.4753 16.3852 26.3304V26.3274ZM22.4085 33.5085C22.1038 34.1279 19.6148 33.4613 18.3799 32.6123C18.2085 32.494 18.1063 32.2986 18.1093 32.0901L18.2336 31.0947C18.2336 30.9263 18.3709 30.79 18.5353 30.79C18.5724 30.79 18.6065 30.796 18.6445 30.809C19.7211 31.213 22.7513 32.6013 22.4095 33.5064V33.5085H22.4085ZM22.8686 30.1485C22.7283 30.388 22.4646 30.5213 22.187 30.4903C21.5805 30.4432 20.3105 30.3159 19.9156 30.0673C19.3863 29.7405 19.6078 28.2189 21.5084 28.4304C22.9588 28.5928 23.1332 29.5821 22.8686 30.1485ZM26.7548 30.1485C26.4902 29.5821 26.6646 28.5928 28.1141 28.4314C30.0146 28.2199 30.2361 29.7385 29.7069 30.0683C29.3119 30.3139 28.0419 30.4412 27.4355 30.4913C27.1618 30.5224 26.8942 30.385 26.7568 30.1495L26.7548 30.1485ZM31.2375 32.6093C30.0026 33.4583 27.5136 34.1249 27.2089 33.5054C26.8631 32.6003 29.8973 31.213 30.9739 30.808C31.0079 30.796 31.045 30.786 31.0831 30.786C31.2515 30.786 31.3848 30.9233 31.3848 31.0907L31.5091 32.0861C31.5252 32.2976 31.4189 32.5001 31.2355 32.6083H31.2375V32.6093ZM33.7645 27.0651C33.5781 26.8035 33.3816 26.5579 33.1791 26.3244C33.0919 26.2251 33.0017 26.1279 32.9115 26.0317C32.1958 25.2819 31.3558 24.6624 30.4256 24.2053C32.292 22.0402 33.7916 20.9636 34.4481 20.711C34.5885 21.143 34.6566 21.6352 34.6656 22.1605C34.6997 23.7382 34.2296 25.6197 33.7665 27.0671L33.7645 27.0651Z" fill="#F28C37"/>
<path d="M27.7653 41.1365C27.7713 40.8809 27.8364 40.6293 27.9517 40.3988C27.9517 40.3988 27.9577 40.3767 27.9577 40.3677C27.9577 40.3146 27.9206 40.2684 27.8675 40.2654C27.5598 40.2594 26.9002 40.2434 26.7659 40.2534H25.5991C25.4868 40.073 25.3194 39.9357 25.12 39.8645V39.0806C26.1624 38.9473 26.5203 38.1975 26.6225 37.5159C26.6566 37.2924 26.6626 37.0738 26.6566 36.8874C26.6476 36.5767 26.392 36.3301 26.0812 36.3301H23.4831C23.1723 36.3301 22.9167 36.5757 22.9077 36.8874C22.8856 37.4969 22.9979 38.4461 23.7818 38.8751C23.9622 38.9744 24.1797 39.0465 24.4383 39.0776V39.8615C24.2389 39.9296 24.0685 40.067 23.9592 40.2504H22.7924C22.6591 40.2414 21.9995 40.2564 21.6908 40.2624C21.6788 40.2624 21.6688 40.2654 21.6597 40.2714C21.6096 40.2935 21.5886 40.3496 21.6096 40.3988C21.7249 40.6293 21.787 40.8779 21.7961 41.1325C21.8051 41.2107 21.8742 41.2698 21.9514 41.2658H22.1128L22.4897 42.2612C22.4897 42.2612 22.4987 42.2802 22.5057 42.2862C22.5338 42.3143 22.5739 42.3113 22.602 42.2862C22.6762 42.202 22.7423 42.1118 22.7984 42.0156C22.8105 41.9966 22.8175 41.9725 22.8175 41.9504V40.8117C23.458 40.9019 24.1055 40.9451 24.7561 40.9451H24.7962C25.2563 40.9451 25.7144 40.917 26.1715 40.8739C26.3609 40.8548 26.5514 40.8428 26.7408 40.8147V41.9474C26.7408 41.9725 26.7468 41.9945 26.7599 42.0126C26.816 42.1088 26.8842 42.199 26.9563 42.2832C26.9684 42.2953 26.9844 42.3023 27.0034 42.3023C27.0315 42.3023 27.0596 42.2832 27.0686 42.2552L27.4455 41.2598H27.6109C27.6299 41.2598 27.648 41.2598 27.667 41.2508C27.7201 41.2317 27.7602 41.1856 27.7663 41.1265L27.7653 41.1365Z" fill="#202740"/>
<path d="M36.1131 36.2209C35.1077 35.882 31.5924 34.9729 29.1756 37.7635C29.1506 37.6703 29.1195 37.5831 29.0884 37.4929C29.0694 37.4337 29.0543 37.3716 29.0293 37.3094C28.9892 37.2002 28.9391 37.0979 28.8919 36.9957C28.8729 36.9586 28.8609 36.9175 28.8388 36.8774C28.7797 36.7621 28.7145 36.6499 28.6464 36.5386C28.6343 36.5166 28.6213 36.4915 28.6093 36.4704C28.5351 36.3522 28.4509 36.2369 28.3637 36.1286C28.3547 36.1166 28.3446 36.1036 28.3356 36.0915C27.9467 35.6034 27.4585 35.1954 26.8952 34.8967C26.2296 34.5789 25.4979 34.4206 24.7611 34.4336H24.7581C22.6892 34.3684 20.8538 35.7527 20.3466 37.7625C19.6029 36.9035 18.7568 36.3963 17.9108 36.1136C16.0504 35.4911 14.193 35.9612 13.4623 36.2008H13.4592H13.4562C13.5094 37.103 13.8171 37.974 14.3433 38.7118C14.9187 39.5147 15.5412 40.2234 16.1917 40.8428C19.0014 43.5282 22.3243 44.5697 24.723 44.6008C24.723 44.6008 24.729 44.6008 24.7321 44.6008H24.7631H24.7661C24.7661 44.6008 24.7752 44.6008 24.7782 44.6008H24.7872C24.8092 44.6008 24.8303 44.6008 24.8523 44.6008C24.8744 44.6008 24.8954 44.5948 24.9175 44.5948C25.114 44.5918 25.3154 44.5787 25.5209 44.5607C25.568 44.5577 25.6142 44.5517 25.6583 44.5446C25.8166 44.5286 25.972 44.5106 26.1374 44.4885C26.2497 44.4725 26.3579 44.4544 26.4672 44.4354C26.5604 44.4194 26.6506 44.4013 26.7438 44.3823C26.8812 44.3542 27.0175 44.3231 27.1548 44.292C27.248 44.27 27.3383 44.2449 27.4315 44.2209C27.4906 44.2048 27.5528 44.1928 27.6119 44.1738C27.659 44.1577 27.7081 44.1427 27.7552 44.1267C28.6013 43.8781 29.4783 43.5202 30.3564 43.0411C30.3685 43.0351 30.3785 43.029 30.3905 43.022C30.5399 42.9408 30.6892 42.8576 30.8356 42.7664C30.9819 42.6792 31.1283 42.589 31.2716 42.4958C31.3057 42.4737 31.3428 42.4527 31.3779 42.4306C32.8343 41.4784 34.1094 40.2595 35.1328 38.8281C35.1639 38.785 35.1949 38.7439 35.226 38.7008C35.238 38.6817 35.2511 38.6637 35.2631 38.6416C35.4997 38.2998 35.6921 37.9289 35.8325 37.543C35.9878 37.117 36.081 36.6659 36.1121 36.2078L36.1131 36.2209ZM25.4447 41.7179C25.4227 41.7119 25.3976 41.7059 25.3706 41.7059C25.1531 41.7059 25.0999 42.3564 24.7852 42.3775C24.7852 42.3775 24.7852 42.3775 24.7822 42.3775C24.7822 42.3775 24.7822 42.3775 24.7792 42.3775C24.7792 42.3775 24.7762 42.3775 24.7732 42.3775C24.7732 42.3775 24.7641 42.3745 24.7611 42.3715C24.4624 42.3284 24.4003 41.7029 24.1918 41.7029C23.9743 41.7029 23.9552 41.9675 23.7497 41.9675C23.7217 41.9675 23.6936 41.9645 23.6685 41.9585C23.5101 41.9114 23.4009 41.762 23.4039 41.5946V41.4022H26.1665V41.5946C26.1695 41.763 26.0602 41.9084 25.9018 41.9585C25.8738 41.9645 25.8487 41.9675 25.8206 41.9675C25.7956 41.9675 25.7735 41.9645 25.7525 41.9555C25.6312 41.9124 25.5841 41.756 25.4538 41.7129L25.4447 41.7179ZM27.6099 41.2709H27.4455L27.0686 42.2662C27.0596 42.2943 27.0345 42.3133 27.0035 42.3133C26.9844 42.3133 26.9694 42.3073 26.9563 42.2943C26.8822 42.2101 26.816 42.1199 26.7599 42.0237C26.7478 42.0046 26.7408 41.9806 26.7408 41.9585V40.8258C26.5514 40.8509 26.3609 40.8659 26.1715 40.8849C25.7144 40.928 25.2563 40.9561 24.7962 40.9561H24.7561C24.1086 40.9561 23.462 40.909 22.8175 40.8188V41.9575C22.8175 41.9826 22.8115 42.0046 22.7985 42.0226C22.7423 42.1189 22.6772 42.2091 22.602 42.2933C22.5739 42.3184 22.5338 42.3184 22.5058 42.2933C22.4997 42.2873 22.4937 42.2773 22.4897 42.2682L22.1128 41.2729H21.9514C21.8733 41.2759 21.8051 41.2167 21.7961 41.1396C21.7871 40.8839 21.7249 40.6323 21.6096 40.4058C21.5876 40.3557 21.6096 40.2996 21.6597 40.2785C21.6688 40.2755 21.6818 40.2725 21.6908 40.2695C21.9986 40.2635 22.6581 40.2474 22.7924 40.2575H23.9592C24.0715 40.077 24.2389 39.9397 24.4384 39.8685V39.0847C24.1797 39.0506 23.9622 38.9784 23.7818 38.8822C22.9949 38.4532 22.8857 37.5039 22.9077 36.8945C22.9167 36.5837 23.1723 36.3371 23.4831 36.3371H26.0813C26.392 36.3371 26.6476 36.5827 26.6566 36.8945C26.6626 37.0809 26.6566 37.2984 26.6226 37.523C26.5203 38.2046 26.1655 38.9544 25.12 39.0877V39.8715C25.3195 39.9427 25.4899 40.08 25.5991 40.2605H26.7659C26.8992 40.2514 27.5588 40.2665 27.8675 40.2725C27.9206 40.2725 27.9607 40.3196 27.9577 40.3747C27.9577 40.3868 27.9547 40.3968 27.9517 40.4088C27.8364 40.6364 27.7713 40.888 27.7653 41.1426C27.7593 41.2017 27.7182 41.2488 27.666 41.2669C27.647 41.2729 27.6289 41.2759 27.6099 41.2759V41.2709Z" fill="white"/>
<path d="M25.8958 41.9616C26.0542 41.9145 26.1635 41.7651 26.1605 41.5977V41.4053H23.3979V41.5977C23.3949 41.7661 23.5041 41.9115 23.6625 41.9616C23.6906 41.9676 23.7156 41.9706 23.7437 41.9706C23.9492 41.9706 23.9672 41.706 24.1858 41.706C24.3943 41.706 24.4534 42.3315 24.7551 42.3746C24.7551 42.3746 24.7641 42.3746 24.7671 42.3776C24.7671 42.3776 24.7702 42.3776 24.7732 42.3776C24.7732 42.3776 24.7732 42.3776 24.7762 42.3776C24.7762 42.3776 24.7762 42.3776 24.7792 42.3776C25.0929 42.3555 25.146 41.706 25.3646 41.706C25.3926 41.706 25.4177 41.709 25.4387 41.718C25.5691 41.7611 25.6162 41.9175 25.7375 41.9606C25.7595 41.9666 25.7806 41.9726 25.8056 41.9726C25.8337 41.9726 25.8617 41.9696 25.8868 41.9636L25.8958 41.9616Z" fill="#202740"/>
<path d="M31.3899 31.0906C31.3899 30.9222 31.2525 30.7859 31.0881 30.7859C31.051 30.7859 31.014 30.7919 30.9789 30.8079C29.9023 31.2119 26.8691 32.6002 27.2139 33.5054C27.5186 34.1248 30.0076 33.4582 31.2425 32.6092C31.4259 32.503 31.5322 32.3015 31.5162 32.09L31.3919 31.0946L31.3899 31.0906Z" fill="#202740"/>
<path d="M18.6435 30.811C18.6095 30.799 18.5724 30.792 18.5343 30.792C18.3659 30.792 18.2326 30.9293 18.2326 31.0967L18.1083 32.0921C18.1083 32.3006 18.2075 32.496 18.3789 32.6143C19.6139 33.4633 22.1028 34.1299 22.4075 33.5105C22.7493 32.6053 19.7191 31.218 18.6425 30.813V30.811H18.6435Z" fill="#202740"/>
<path d="M21.5094 28.4303C19.6089 28.2188 19.3873 29.7374 19.9166 30.0672C20.3115 30.3127 21.5816 30.4401 22.188 30.4902C22.4617 30.5212 22.7293 30.3879 22.8696 30.1484C23.1333 29.582 22.9588 28.5927 21.5094 28.4303Z" fill="white"/>
<path d="M27.4355 30.4904C28.0419 30.4403 29.312 30.313 29.7069 30.0674C30.2362 29.7406 30.0146 28.219 28.1141 28.4305C26.6647 28.5919 26.4903 29.5812 26.7549 30.1476C26.8952 30.3871 27.1588 30.5205 27.4335 30.4894H27.4355V30.4904Z" fill="white"/>
</svg>
