<svg width="64" height="64" viewBox="0 0 64 64" fill="none" xmlns="http://www.w3.org/2000/svg">
<path d="M0 24C0 10.7452 10.7452 0 24 0H40C53.2548 0 64 10.7452 64 24V40C64 53.2548 53.2548 64 40 64H24C10.7452 64 0 53.2548 0 40V24Z" fill="#F3F5F6"/>
<g clip-path="url(#clip0_3467_9703)">
<path d="M34.5711 42.8071C30.9443 43.6689 26.9668 42.6857 24.1383 39.8557C20.4815 36.1993 19.7678 30.7738 22.4095 26.476C23.5003 24.7015 24.5366 23.6408 25.4318 22.7491C29.1221 19.0734 35.8999 12.3826 35.8999 12.3826C29.5715 11.1297 22.7549 12.9535 17.8521 17.8575C10.0416 25.6672 10.0416 38.3315 17.8521 46.1411C20.2736 48.5623 23.1602 50.2311 26.2266 51.1526L34.5729 42.8071H34.5711Z" fill="black"/>
<path d="M29.4179 21.1913C33.0447 20.3296 37.0222 21.3129 39.8507 24.1429C43.5074 27.7992 44.2211 33.2248 41.5797 37.5226C40.4887 39.297 39.4525 40.3578 38.5572 41.2496C34.8669 44.9253 28.0891 51.6159 28.0891 51.6159C34.4175 52.8688 41.2343 51.045 46.1368 46.141C53.9474 38.3314 53.9474 25.6671 46.1368 17.8574C43.7154 15.4363 40.8288 13.7675 37.7624 12.8459L29.4161 21.1913H29.4179Z" fill="black"/>
</g>
<defs>
<clipPath id="clip0_3467_9703">
<rect width="40" height="40" fill="white" transform="translate(12 12)"/>
</clipPath>
</defs>
</svg>
