<svg xmlns="http://www.w3.org/2000/svg" width="56" height="57" viewBox="0 0 56 57" fill="none">
  <g clip-path="url(#clip0_2881_13887)">
    <path d="M0 18.8874C0 8.57806 8.35735 0.220703 18.6667 0.220703H37.3333C47.6426 0.220703 56 8.57805 56 18.8874V37.554C56 47.8633 47.6426 56.2207 37.3333 56.2207H18.6667C8.35735 56.2207 0 47.8633 0 37.554V18.8874Z" fill="black"/>
    <mask id="mask0_2881_13887" style="mask-type:luminance" maskUnits="userSpaceOnUse" x="0" y="0" width="56" height="57">
      <path d="M49 0.220703H7C3.13401 0.220703 0 3.35471 0 7.2207V49.2207C0 53.0867 3.13401 56.2207 7 56.2207H49C52.866 56.2207 56 53.0867 56 49.2207V7.2207C56 3.35471 52.866 0.220703 49 0.220703Z" fill="white"/>
    </mask>
    <g mask="url(#mask0_2881_13887)">
      <path d="M49 0.220703H7C3.13401 0.220703 0 3.35471 0 7.2207V49.2207C0 53.0867 3.13401 56.2207 7 56.2207H49C52.866 56.2207 56 53.0867 56 49.2207V7.2207C56 3.35471 52.866 0.220703 49 0.220703Z" fill="#00D2FF"/>
      <path d="M56 0.220703H0V56.2207H56V0.220703Z" fill="black"/>
      <path d="M29.9072 36.4217C28.4173 36.7742 26.8606 36.7447 25.3855 36.3358C23.9105 35.9267 22.5666 35.1519 21.4816 34.0852C20.0451 32.7331 19.1219 30.9369 18.8653 28.9954C18.6087 27.054 19.0343 25.0846 20.0714 23.4149C20.7524 22.3264 21.5729 21.329 22.5125 20.4475C25.495 17.5189 30.9697 12.1916 30.9697 12.1916C26.8998 11.396 22.6752 12.1743 19.1713 14.3653C15.6674 16.5562 13.1526 19.9919 12.1478 23.9609C11.143 27.9296 11.7252 32.1274 13.7738 35.6847C15.8225 39.2418 19.1805 41.886 23.1525 43.0691L29.9072 36.4217Z" fill="white"/>
      <path d="M26.1029 20.0334C27.5906 19.6803 29.1452 19.7097 30.6181 20.1187C32.0911 20.5277 33.4334 21.3025 34.5165 22.3692C37.467 25.2811 38.043 29.6026 35.9128 33.0207C35.2316 34.1091 34.4125 35.1075 33.4751 35.9911C30.497 38.9148 25.0298 44.2445 25.0298 44.2445C29.0978 45.0477 33.3231 44.2739 36.8281 42.0836C40.3332 39.893 42.849 36.4546 43.8529 32.4819C44.8571 28.509 44.2722 24.3072 42.2201 20.7488C40.1679 17.1904 36.8058 14.5487 32.8322 13.3722L26.1029 20.0334Z" fill="white"/>
    </g>
  </g>
  <defs>
    <clipPath id="clip0_2881_13887">
      <path d="M0 18.8874C0 8.57806 8.35735 0.220703 18.6667 0.220703H37.3333C47.6426 0.220703 56 8.57805 56 18.8874V37.554C56 47.8633 47.6426 56.2207 37.3333 56.2207H18.6667C8.35735 56.2207 0 47.8633 0 37.554V18.8874Z" fill="white"/>
    </clipPath>
  </defs>
</svg>