<svg width="64" height="64" viewBox="0 0 64 64" fill="none" xmlns="http://www.w3.org/2000/svg">
<path d="M0 24C0 10.7452 10.7452 0 24 0H40C53.2548 0 64 10.7452 64 24V40C64 53.2548 53.2548 64 40 64H24C10.7452 64 0 53.2548 0 40V24Z" fill="#F3F5F6"/>
<g clip-path="url(#clip0_3467_9617)">
<path d="M36.0718 36.8484L36.0767 36.8452C36.0767 36.8452 36.0718 36.8484 36.0686 36.8501C36.0702 36.8501 36.0718 36.8501 36.0734 36.8501L36.0718 36.8484Z" fill="black"/>
<path d="M36.0686 36.8501C28.5186 39.1178 22.275 42.4259 18.3638 46.3001L18.1912 46.4727C19.2315 47.4565 20.3718 48.3372 21.6041 49.0856L21.8686 48.7614C22.9363 47.4565 24.0815 46.1969 25.2734 45.0098C28.4718 41.8227 32.1299 39.0646 36.0686 36.8501Z" fill="black"/>
<path d="M36.9412 33.4888H12.017C12.3186 37.5323 13.8202 41.2404 16.1767 44.2565L16.2848 44.1484C18.7057 41.7597 21.8573 39.5888 25.6589 37.6968C28.9912 36.0372 32.817 34.613 36.9412 33.4888Z" fill="black"/>
<path d="M27.3863 16.8695C34.1428 23.6018 42.646 28.0534 51.9734 29.7421C50.8493 19.7614 42.3541 11.9985 32.0315 11.9985C29.3057 11.9985 26.7073 12.5421 24.3347 13.5227C25.2976 14.6824 26.3267 15.8114 27.3863 16.8711V16.8695Z" fill="black"/>
<path d="M18.3638 17.6935C22.275 21.5742 28.5218 24.8774 36.0734 27.15C32.1315 24.9306 28.4702 22.1742 25.2702 18.9855C24.0815 17.8016 22.9379 16.5419 21.8654 15.2339L21.6009 14.9097C20.3686 15.6581 19.2283 16.5371 18.1928 17.521L18.3654 17.6935H18.3638Z" fill="black"/>
<path d="M27.3863 47.1243C26.3218 48.184 25.2944 49.3131 24.3347 50.4727C26.7041 51.4534 29.3057 51.9969 32.0315 51.9969C42.3541 51.9969 50.8492 44.2324 51.9767 34.2485C42.6509 35.9372 34.1476 40.3889 27.3896 47.1211L27.3863 47.1243Z" fill="black"/>
<path d="M25.6541 26.2919V26.2951C21.8557 24.4032 18.7057 22.2306 16.2848 19.8451L16.1767 19.7371C13.8202 22.7532 12.3186 26.4613 12.017 30.5048H36.9364C32.8138 29.3806 28.9912 27.9564 25.6541 26.2919Z" fill="black"/>
</g>
<defs>
<clipPath id="clip0_3467_9617">
<rect width="40" height="40" fill="white" transform="translate(12 12)"/>
</clipPath>
</defs>
</svg>
