<svg xmlns="http://www.w3.org/2000/svg" width="56" height="57" viewBox="0 0 56 57" fill="none">
  <g clip-path="url(#clip0_2881_13900)">
    <path d="M0 18.8874C0 8.57806 8.35735 0.220703 18.6667 0.220703H37.3333C47.6426 0.220703 56 8.57805 56 18.8874V37.554C56 47.8633 47.6426 56.2207 37.3333 56.2207H18.6667C8.35735 56.2207 0 47.8633 0 37.554V18.8874Z" fill="url(#paint0_linear_2881_13900)"/>
    <path d="M49 0.220703H7C3.13401 0.220703 0 3.35471 0 7.2207V49.2207C0 53.0867 3.13401 56.2207 7 56.2207H49C52.866 56.2207 56 53.0867 56 49.2207V7.2207C56 3.35471 52.866 0.220703 49 0.220703Z" fill="url(#paint1_linear_2881_13900)"/>
    <path d="M31.4348 32.1823C25.0716 34.0346 19.8079 36.7361 16.5129 39.9016L16.3674 40.042C17.2436 40.8457 18.2044 41.5643 19.2429 42.1751L19.4662 41.9106C20.366 40.8457 21.3302 39.8166 22.3348 38.8464C25.031 36.2429 28.1162 33.9889 31.4382 32.1791L31.4348 32.1823Z" fill="url(#paint2_radial_2881_13900)"/>
    <path d="M31.4348 32.1823C25.0716 34.0346 19.8079 36.7361 16.5129 39.9016L16.3674 40.042C17.2436 40.8457 18.2044 41.5643 19.2429 42.1751L19.4662 41.9106C20.366 40.8457 21.3302 39.8166 22.3348 38.8464C25.031 36.2429 28.1162 33.9889 31.4382 32.1791L31.4348 32.1823Z" fill="#F5F5F5"/>
    <path d="M11.1643 29.4388C11.418 32.7415 12.6832 35.7697 14.669 38.2328L14.7603 38.1446C16.8002 36.1943 19.4558 34.4205 22.6593 32.8754C25.4671 31.5197 28.6911 30.3567 32.1652 29.4388H11.1643Z" fill="url(#paint3_radial_2881_13900)"/>
    <path d="M11.1643 29.4388C11.418 32.7415 12.6832 35.7697 14.669 38.2328L14.7603 38.1446C16.8002 36.1943 19.4558 34.4205 22.6593 32.8754C25.4671 31.5197 28.6911 30.3567 32.1652 29.4388H11.1643Z" fill="#F5F5F5"/>
    <path d="M24.1145 15.8661C29.808 21.364 36.9729 24.9998 44.8313 26.3784C43.8841 18.228 36.7259 11.8873 28.0285 11.8873C25.7316 11.8873 23.5428 12.3316 21.5435 13.1319C22.3553 14.0793 23.2215 15.0005 24.1145 15.8661Z" fill="url(#paint4_radial_2881_13900)"/>
    <path d="M24.1145 15.8661C29.808 21.364 36.9729 24.9998 44.8313 26.3784C43.8841 18.228 36.7259 11.8873 28.0285 11.8873C25.7316 11.8873 23.5428 12.3316 21.5435 13.1319C22.3553 14.0793 23.2215 15.0005 24.1145 15.8661Z" fill="#F5F5F5"/>
    <path d="M16.5129 16.5399C19.8079 19.7086 25.0716 22.4068 31.4348 24.2623C28.1128 22.4493 25.0276 20.1985 22.3314 17.595C21.3302 16.6281 20.366 15.599 19.4628 14.5308L19.2395 14.2662C18.201 14.8771 17.2402 15.5958 16.3674 16.3994L16.5129 16.5399Z" fill="#F5F5F5"/>
    <path d="M24.1145 40.5752C23.2181 41.4409 22.3521 42.3621 21.5435 43.3094C23.5394 44.1098 25.7316 44.554 28.0285 44.554C36.7259 44.554 43.8841 38.2134 44.8347 30.0597C36.9763 31.4383 29.8113 35.0741 24.1179 40.5719L24.1145 40.5752Z" fill="#F5F5F5"/>
    <path d="M22.6593 23.5644C19.4558 22.0192 16.8002 20.2454 14.7603 18.2952L14.669 18.207C12.6832 20.6701 11.418 23.6984 11.1643 27.001H32.1618C28.6877 26.083 25.4671 24.92 22.6559 23.5612L22.6593 23.5644Z" fill="#F5F5F5"/>
  </g>
  <defs>
    <linearGradient id="paint0_linear_2881_13900" x1="0" y1="0.220703" x2="56" y2="0.220703" gradientUnits="userSpaceOnUse">
      <stop stop-color="#102D3C"/>
      <stop offset="0.161465" stop-color="#214E81"/>
      <stop offset="0.363625" stop-color="#506179"/>
      <stop offset="0.651499" stop-color="#ED5409"/>
      <stop offset="1" stop-color="#FFCB67"/>
    </linearGradient>
    <linearGradient id="paint1_linear_2881_13900" x1="0" y1="0.220703" x2="56" y2="0.220703" gradientUnits="userSpaceOnUse">
      <stop stop-color="#102D3C"/>
      <stop offset="0.161465" stop-color="#214E81"/>
      <stop offset="0.363625" stop-color="#506179"/>
      <stop offset="0.651499" stop-color="#ED5409"/>
      <stop offset="1" stop-color="#FFCB67"/>
    </linearGradient>
    <radialGradient id="paint2_radial_2881_13900" cx="0" cy="0" r="1" gradientUnits="userSpaceOnUse" gradientTransform="translate(27.9995 28.2198) rotate(90) scale(16.3334 16.8349)">
      <stop stop-color="#1C294B"/>
      <stop offset="0.317213" stop-color="#FF4433"/>
      <stop offset="0.597213" stop-color="#FE9A4C"/>
      <stop offset="1" stop-color="#E0E0E0"/>
    </radialGradient>
    <radialGradient id="paint3_radial_2881_13900" cx="0" cy="0" r="1" gradientUnits="userSpaceOnUse" gradientTransform="translate(27.9993 28.2203) rotate(90) scale(16.3334 16.8349)">
      <stop stop-color="#1C294B"/>
      <stop offset="0.317213" stop-color="#FF4433"/>
      <stop offset="0.597213" stop-color="#FE9A4C"/>
      <stop offset="1" stop-color="#E0E0E0"/>
    </radialGradient>
    <radialGradient id="paint4_radial_2881_13900" cx="0" cy="0" r="1" gradientUnits="userSpaceOnUse" gradientTransform="translate(27.9998 28.2208) rotate(90) scale(16.3334 16.8349)">
      <stop stop-color="#1C294B"/>
      <stop offset="0.317213" stop-color="#FF4433"/>
      <stop offset="0.597213" stop-color="#FE9A4C"/>
      <stop offset="1" stop-color="#E0E0E0"/>
    </radialGradient>
    <clipPath id="clip0_2881_13900">
      <path d="M0 18.8874C0 8.57806 8.35735 0.220703 18.6667 0.220703H37.3333C47.6426 0.220703 56 8.57805 56 18.8874V37.554C56 47.8633 47.6426 56.2207 37.3333 56.2207H18.6667C8.35735 56.2207 0 47.8633 0 37.554V18.8874Z" fill="white"/>
    </clipPath>
  </defs>
</svg>