<svg width="64" height="64" viewBox="0 0 64 64" fill="none" xmlns="http://www.w3.org/2000/svg">
<path d="M0 24C0 10.7452 10.7452 0 24 0H40C53.2548 0 64 10.7452 64 24V40C64 53.2548 53.2548 64 40 64H24C10.7452 64 0 53.2548 0 40V24Z" fill="#F3F5F6"/>
<path d="M52 13.9998H12V50.5606H19.2998L25.1793 42.9028C26.2504 41.5077 26.8313 39.7973 26.8313 38.0383V26.686C26.8313 26.2563 27.3591 26.0415 27.6669 26.3464L31.1777 30.4898H37.6544L41.5195 26.2741C41.8317 25.9869 42.3418 26.2047 42.3418 26.6262V37.6987L42.4739 50.5606H52V13.9998Z" fill="#1E1E1E"/>
</svg>
