<svg width="64" height="64" viewBox="0 0 64 64" fill="none" xmlns="http://www.w3.org/2000/svg">
<path d="M0 24C0 10.7452 10.7452 0 24 0H40C53.2548 0 64 10.7452 64 24V40C64 53.2548 53.2548 64 40 64H24C10.7452 64 0 53.2548 0 40V24Z" fill="#313C41"/>
<g clip-path="url(#clip0_3467_9630)">
<path d="M36.1847 31.5045H35.902L36.9244 31.277C36.8076 31.3344 36.2421 31.5045 36.1847 31.5045ZM37.3198 31.277H37.035L37.3198 31.1069C37.035 31.1069 36.8075 31.1069 36.5822 30.9943C35.3344 31.2196 34.0313 31.277 32.8409 31.5045C32.7835 31.5045 32.6729 31.6171 32.6729 31.6171C32.6729 31.6745 32.6729 31.6745 32.7261 31.7298C33.2958 31.7298 33.8612 31.8446 34.4862 31.8446C34.9943 31.8446 35.5618 31.6745 36.072 31.6171C35.6193 31.9572 34.0313 31.902 33.4084 31.902C33.181 31.902 33.0109 31.9572 32.8409 32.0146C32.9535 32.3548 33.3511 32.4674 33.4658 32.8076C34.7094 34.0532 35.8446 35.8113 36.7502 37.2844C36.7502 37.4566 36.8076 37.7393 36.9244 37.852V38.0773C36.9244 38.1921 37.0924 38.3622 37.2051 38.4196H37.2625C37.2625 38.4748 37.2051 38.5323 37.2051 38.5875C37.2051 38.815 37.7174 38.985 37.7174 39.1551C37.7174 39.2125 37.7174 39.2699 37.66 39.2699C37.1476 39.2125 37.035 38.9297 36.8075 38.5323C36.2995 38.1921 36.1847 37.4566 35.5618 37.1718C35.4492 36.719 35.1643 36.7742 34.9943 36.3214L34.4862 35.1884C34.7094 35.2458 34.8816 35.4159 34.8816 35.6412C35.2217 36.4362 35.7872 36.9464 36.1847 37.6819C36.3548 37.7393 36.3548 37.9668 36.5822 38.022C36.2421 37.0591 35.6766 35.8113 34.7668 35.1884C34.7668 35.0183 34.7094 34.7909 34.4862 34.7909C34.3714 34.7909 34.3714 35.0183 34.4288 35.0736C34.2014 34.7356 34.0887 34.3955 33.7465 34.1681L33.8038 34.0532C33.8038 33.7705 33.6359 33.5431 33.4084 33.4878C33.2958 33.0903 32.8409 33.4878 32.6155 33.0329C32.4455 32.6375 31.9332 32.5248 31.5952 32.5248C30.5748 34.0532 26.8335 37.6246 26.3233 39.1551C25.9832 39.2125 25.7557 39.4399 25.4177 39.4399C25.3603 39.4399 25.1328 39.4399 25.1328 39.3251C25.1328 39.2125 25.3603 39.0977 25.4177 38.9297C25.9832 38.022 31.0276 32.7501 31.0276 32.0699C31.0276 31.902 30.6322 31.7872 30.4621 31.7872C30.29 31.7298 30.0646 31.6745 29.8924 31.6745C29.3844 31.6745 28.9295 31.7872 28.4214 31.7872C27.231 31.7872 25.9832 32.0146 24.7353 32.0146C24.5078 32.0146 24.6248 31.7872 24.4505 31.6171C24.848 31.5597 25.1902 31.277 25.5877 31.277C25.6983 31.277 25.9258 31.3344 26.0958 31.4471C26.4381 31.4471 26.776 31.5045 27.1162 31.5045C28.364 31.5045 30.1199 31.4471 31.3103 31.1644C31.3677 31.1069 31.4251 31.1069 31.4251 31.0495C31.4251 30.9943 31.1402 30.9369 31.1976 30.7668C31.1976 30.5394 29.8924 29.4063 29.8924 29.0662C29.9498 29.0662 29.9498 29.0088 29.9498 29.0088C29.9498 28.3881 27.9665 26.0625 27.4542 25.4949V25.4397C27.4542 25.0995 27.1736 24.9294 27.1736 24.6467C27.1736 24.532 27.3436 24.4193 27.4542 24.4193C27.6285 24.4193 27.739 24.6467 27.8517 24.7594C27.7964 24.8147 27.739 24.8742 27.739 24.9294C27.739 25.2122 28.9869 26.798 29.0995 26.798C29.1569 26.798 29.1569 26.6301 29.2143 26.6301C30.5174 27.423 30.8575 28.8983 31.7057 30.0292C32.5581 30.0292 34.4288 25.4397 35.5066 25.0421H35.6193C34.6563 26.46 33.5785 27.8205 32.7835 29.3511L32.8961 29.4637C33.4084 29.2363 33.2958 28.6708 33.5211 28.5008C33.6359 28.3307 34.2013 27.9906 34.2013 27.8205C34.2013 27.7057 35.6193 25.9498 35.902 25.327C36.1847 25.0421 36.3548 24.702 36.6396 24.364L36.2421 24.4745C36.3548 24.0218 37.3198 23.4563 37.7705 23.5116C37.2625 24.4193 36.2995 24.9294 35.902 25.8925C35.3918 26.9702 34.8242 27.5931 34.0887 28.5008V28.556C34.0887 28.7261 33.7465 28.8983 33.7465 29.0662C33.4084 29.6338 32.3307 30.2567 32.3307 31.0495C32.5007 31.1069 32.7261 31.1069 32.8961 31.1069C34.3714 31.1069 35.902 30.7668 37.3751 30.7668C37.8853 30.7668 38.623 30.7116 39.0757 30.9369C38.5103 31.1644 37.8853 31.2196 37.3198 31.277Z" fill="white" stroke="white" stroke-width="0.132671" stroke-miterlimit="10"/>
<path d="M40.6275 40.316C40.7614 39.8866 40.8804 39.4275 40.9953 38.9598C41.1079 38.8089 41.2291 38.6622 41.3375 38.507C41.3375 39.2106 40.9676 39.7548 40.6275 40.316ZM37.1434 45.8196C37.086 46.1045 36.8606 46.1598 36.6353 46.2171C36.8521 45.6049 37.1349 45.0289 37.4112 44.4591C37.9597 44.2508 38.4486 43.7768 38.9779 43.4983C38.4146 44.3061 37.8087 45.0884 37.1434 45.8196ZM40.1875 40.0057C39.8409 40.7348 39.42 41.5383 38.8993 42.5311C38.4613 42.716 38.2487 43.1646 37.9469 43.4877C38.0043 43.3197 38.0596 43.1454 38.1638 43.0412C38.6505 41.9168 39.4158 40.9644 40.1875 40.0057ZM33.8548 48.2579C33.4573 48.9934 31.8715 49.901 31.1359 49.901C30.3431 49.901 29.6607 49.1656 28.8678 49.1082C28.6977 48.5406 28.0749 48.8234 27.6773 48.5406C26.7144 47.8604 25.4091 46.4999 24.8437 45.4795C23.8807 43.6662 23.0304 41.2854 22.5202 39.3594C22.2949 38.5644 22.2949 33.9727 22.2949 33.0098C22.2949 29.6107 22.1801 26.945 23.5959 23.8286C23.5959 23.1484 24.2782 22.7508 24.2782 22.2407V22.0153C24.6736 21.5625 24.6736 20.8249 25.1859 20.4274C25.694 18.7842 27.2245 17.7638 28.0175 16.2332C28.6403 15.9505 28.8125 15.1002 29.38 14.7027C30.6237 13.9098 31.9288 12.7768 33.5147 12.7768C33.6847 12.8894 33.8548 13.0021 34.0823 13.0021C34.197 13.0021 34.2523 12.9468 34.3671 12.9468L34.5946 12.7768C34.8199 12.832 35.1026 13.0595 35.2174 12.6619C36.2378 12.8894 37.6557 12.3792 38.2785 13.5123C40.4893 14.9301 39.807 17.9338 40.7125 19.9746C40.8847 21.7879 41.0548 23.6011 41.11 25.4718C41.1675 28.0227 41.5076 30.5736 41.5076 33.1799C41.5076 35.2822 41.3609 36.6299 41.0101 37.8672C40.7848 38.3008 40.5488 38.7259 40.3171 39.1894C39.6964 39.5274 39.5816 40.4351 38.8993 40.6625C38.4656 41.4852 37.9405 42.6501 37.3368 43.8257C37.3283 43.8278 37.324 43.8342 37.3134 43.8363C37.239 43.7768 37.2263 43.6918 37.1816 43.6216C37.0286 43.8044 36.8776 43.9915 36.7033 44.1573C36.7905 44.2785 36.8734 44.406 36.9754 44.5038C36.0762 46.1661 35.0282 47.7328 33.8548 48.2579ZM29.7181 50.8067C27.9622 50.8067 25.9789 50.184 24.9585 48.7107C24.1656 47.6903 23.0878 46.7273 22.5755 45.4795C22.0675 44.9141 20.3647 38.1116 20.3647 37.0913C20.3647 37.0338 20.3647 36.8085 20.5369 36.8085C21.2171 36.8085 22.4628 40.4351 22.5755 40.9452C23.0878 42.6459 24.0508 44.4592 24.8437 46.0449C25.2986 46.84 25.9214 47.4076 26.3763 48.2005C26.9418 48.3706 27.2245 48.9934 27.8474 49.1082C28.1322 49.6186 28.6977 49.6739 29.0378 50.0709C29.2653 50.0709 29.8881 50.2413 29.8881 50.5238C29.8881 50.6388 29.8881 50.8067 29.7181 50.8067ZM43.2081 33.5773C42.9233 33.8048 42.4153 34.1449 42.4726 34.5977V34.7678C42.0177 35.448 41.9603 36.2409 41.5076 36.9212C41.4629 36.9934 41.431 37.0721 41.3907 37.1444C42.09 33.3202 42.3026 28.9304 42.3026 26.4348C42.3026 24.1113 41.5076 21.8452 41.2822 19.5218C41.1675 17.7064 41.11 15.7231 39.9196 14.2499C38.7292 12.8894 37.086 11.869 35.2174 11.869C34.9326 11.869 34.6519 11.869 34.3671 11.9264C34.1397 11.7564 33.8548 11.699 33.5742 11.699C32.7218 11.699 32.0415 12.3218 31.2486 12.3218C31.0233 12.3218 30.7959 12.2666 30.6237 12.2092L30.3431 12.494L31.3634 12.5493C31.4208 12.6619 31.5314 12.7768 31.5314 12.8894C31.5314 13.2295 30.5705 13.1147 30.4536 13.6823C28.6403 14.6453 26.7144 16.9709 25.6366 18.6694C25.0137 19.6897 24.4462 20.9375 23.8807 22.0153C23.8233 22.0706 23.4258 22.9209 23.3153 22.9209C23.3153 23.3184 23.2005 23.6585 23.1452 23.9987C22.6903 24.4515 22.973 25.3017 22.5202 25.7567C21.84 27.908 21.2745 30.5736 21.2745 32.7845C21.2745 32.9524 21.1598 33.0098 20.9897 33.0672C20.9344 32.557 20.7622 31.9894 20.8196 31.424V31.0839C21.0471 25.982 21.1598 21.6731 24.1656 17.2536C26.4295 13.9098 29.3227 13.3996 30.173 12.3792C30.0029 12.3792 29.8881 12.3218 29.7181 12.3218C29.2653 12.3218 28.8125 12.5493 28.5872 12.9468C25.356 14.0224 23.768 16.9709 22.4054 19.8046C22.1801 20.1447 21.8974 20.37 21.84 20.8249C21.6125 21.8452 21.4425 22.8083 21.0471 23.8286C20.9344 24.224 20.707 24.8489 20.707 25.2444C20.707 25.5866 20.877 25.9246 20.877 26.2669C20.877 26.7175 20.8196 27.115 20.707 27.5699C20.0841 30.6863 19.914 34.0875 19.914 37.2613C19.914 39.8122 21.0471 42.0783 21.84 44.4039C22.6903 46.8974 24.5036 48.9381 26.4295 50.6388L27.8474 50.864C28.1896 51.1489 28.5872 51.2615 29.0378 51.2615C29.6607 51.2615 30.2856 51.0344 30.9085 51.0917H31.1359C31.9288 50.5815 33.2893 50.2413 33.9122 49.5608C34.0823 49.4483 34.197 49.0508 34.4245 49.0508C34.4777 49.0508 34.5372 49.0508 34.5946 49.1082C35.7829 47.803 37.2582 46.7273 38.3338 45.3668C38.8993 44.6866 39.2415 43.8363 39.7495 43.1008C39.9196 42.8733 39.9196 42.5311 40.2044 42.3631C40.8847 40.6625 43.6057 35.2206 43.6057 33.7474V33.5773H43.2081Z" fill="white"/>
<path d="M40.6275 40.316C40.7614 39.8866 40.8804 39.4275 40.9953 38.9598C41.1079 38.8089 41.2291 38.6622 41.3375 38.507C41.3375 39.2106 40.9676 39.7548 40.6275 40.316ZM37.1434 45.8196C37.086 46.1045 36.8606 46.1598 36.6353 46.2171C36.8521 45.6049 37.1349 45.0288 37.4112 44.4592C37.9597 44.2508 38.4486 43.7768 38.9779 43.4983C38.4146 44.3061 37.8087 45.0884 37.1434 45.8196ZM40.1875 40.0057C39.8409 40.7348 39.42 41.5383 38.8993 42.5311C38.4613 42.716 38.2487 43.1646 37.9469 43.4877C38.0043 43.3197 38.0596 43.1454 38.1638 43.0412C38.6505 41.9168 39.4158 40.9644 40.1875 40.0057ZM33.8548 48.2579C33.4573 48.9934 31.8715 49.901 31.1359 49.901C30.3431 49.901 29.6607 49.1656 28.8678 49.1082C28.6977 48.5406 28.0749 48.8234 27.6773 48.5406C26.7144 47.8604 25.4091 46.4999 24.8437 45.4795C23.8807 43.6662 23.0304 41.2854 22.5202 39.3594C22.2949 38.5644 22.2949 33.9727 22.2949 33.0098C22.2949 29.6107 22.1801 26.9449 23.5959 23.8286C23.5959 23.1484 24.2782 22.7508 24.2782 22.2407V22.0153C24.6736 21.5625 24.6736 20.8249 25.1859 20.4274C25.694 18.7842 27.2245 17.7638 28.0175 16.2332C28.6403 15.9505 28.8125 15.1002 29.38 14.7027C30.6237 13.9098 31.9289 12.7768 33.5147 12.7768C33.6847 12.8894 33.8548 13.0021 34.0823 13.0021C34.197 13.0021 34.2523 12.9468 34.3671 12.9468L34.5946 12.7768C34.8199 12.832 35.1026 13.0595 35.2174 12.6619C36.2378 12.8894 37.6557 12.3792 38.2785 13.5123C40.4893 14.9301 39.807 17.9338 40.7125 19.9746C40.8847 21.7879 41.0548 23.6011 41.11 25.4718C41.1675 28.0227 41.5076 30.5736 41.5076 33.1799C41.5076 35.2822 41.3609 36.6299 41.0101 37.8672C40.7848 38.3008 40.5488 38.7259 40.3171 39.1894C39.6964 39.5274 39.5816 40.4351 38.8993 40.6625C38.4656 41.4852 37.9405 42.6501 37.3368 43.8257C37.3283 43.8278 37.324 43.8342 37.3134 43.8363C37.239 43.7768 37.2263 43.6918 37.1816 43.6216C37.0286 43.8044 36.8776 43.9915 36.7033 44.1573C36.7905 44.2785 36.8734 44.406 36.9754 44.5038C36.0762 46.1661 35.0282 47.7328 33.8548 48.2579ZM29.7181 50.8067C27.9622 50.8067 25.9789 50.184 24.9585 48.7107C24.1656 47.6903 23.0878 46.7273 22.5755 45.4795C22.0675 44.914 20.3647 38.1116 20.3647 37.0913C20.3647 37.0338 20.3647 36.8085 20.5369 36.8085C21.2171 36.8085 22.4628 40.4351 22.5755 40.9452C23.0878 42.6459 24.0508 44.4592 24.8437 46.0449C25.2986 46.84 25.9214 47.4076 26.3763 48.2005C26.9418 48.3706 27.2245 48.9934 27.8474 49.1082C28.1322 49.6186 28.6977 49.6739 29.0378 50.0709C29.2653 50.0709 29.8881 50.2413 29.8881 50.5238C29.8881 50.6388 29.8881 50.8067 29.7181 50.8067ZM43.2081 33.5773C42.9233 33.8048 42.4153 34.1449 42.4726 34.5977V34.7678C42.0177 35.448 41.9603 36.2409 41.5076 36.9212C41.4629 36.9934 41.431 37.0721 41.3907 37.1444C42.09 33.3202 42.3026 28.9304 42.3026 26.4348C42.3026 24.1113 41.5076 21.8452 41.2822 19.5218C41.1675 17.7064 41.11 15.7231 39.9196 14.2499C38.7292 12.8894 37.086 11.869 35.2174 11.869C34.9326 11.869 34.6519 11.869 34.3671 11.9264C34.1397 11.7564 33.8548 11.699 33.5742 11.699C32.7218 11.699 32.0415 12.3218 31.2486 12.3218C31.0233 12.3218 30.7959 12.2666 30.6237 12.2092L30.3431 12.494L31.3634 12.5493C31.4208 12.6619 31.5314 12.7768 31.5314 12.8894C31.5314 13.2295 30.5705 13.1147 30.4536 13.6823C28.6403 14.6453 26.7144 16.9709 25.6366 18.6694C25.0137 19.6897 24.4462 20.9375 23.8807 22.0153C23.8233 22.0706 23.4258 22.9209 23.3153 22.9209C23.3153 23.3184 23.2005 23.6585 23.1452 23.9987C22.6903 24.4515 22.973 25.3017 22.5202 25.7567C21.84 27.908 21.2745 30.5736 21.2745 32.7845C21.2745 32.9524 21.1598 33.0098 20.9897 33.0672C20.9344 32.557 20.7622 31.9894 20.8196 31.424V31.0838C21.0471 25.982 21.1598 21.6731 24.1656 17.2536C26.4295 13.9098 29.3227 13.3996 30.173 12.3792C30.0029 12.3792 29.8881 12.3218 29.7181 12.3218C29.2653 12.3218 28.8125 12.5493 28.5872 12.9468C25.356 14.0224 23.768 16.9709 22.4054 19.8046C22.1801 20.1447 21.8974 20.37 21.84 20.8249C21.6125 21.8452 21.4425 22.8083 21.0471 23.8286C20.9344 24.224 20.707 24.8489 20.707 25.2444C20.707 25.5866 20.877 25.9246 20.877 26.2669C20.877 26.7175 20.8196 27.115 20.707 27.5699C20.0841 30.6863 19.914 34.0875 19.914 37.2613C19.914 39.8122 21.0471 42.0783 21.84 44.4039C22.6903 46.8974 24.5036 48.9381 26.4295 50.6388L27.8474 50.864C28.1896 51.1489 28.5872 51.2615 29.0378 51.2615C29.6607 51.2615 30.2856 51.0344 30.9085 51.0917H31.1359C31.9288 50.5815 33.2893 50.2413 33.9122 49.5608C34.0823 49.4483 34.197 49.0508 34.4245 49.0508C34.4777 49.0508 34.5372 49.0508 34.5946 49.1082C35.7829 47.803 37.2582 46.7273 38.3338 45.3668C38.8993 44.6866 39.2415 43.8363 39.7495 43.1008C39.9196 42.8733 39.9196 42.5311 40.2044 42.3631C40.8847 40.6625 43.6057 35.2206 43.6057 33.7474V33.5773H43.2081Z" stroke="white" stroke-width="0.132671" stroke-miterlimit="10"/>
<path d="M31.4186 50.2942C31.3613 50.2942 31.3039 50.3515 31.3039 50.4068H31.4186C31.4186 50.3515 31.4186 50.3515 31.4739 50.3515C31.4739 50.2942 31.4739 50.2942 31.4186 50.2942Z" fill="white"/>
<path d="M31.4189 50.2942V50.4068" stroke="white" stroke-width="0.132671" stroke-miterlimit="10"/>
</g>
<defs>
<clipPath id="clip0_3467_9630">
<rect width="24.1975" height="40" fill="white" transform="translate(19.9813 11.5)"/>
</clipPath>
</defs>
</svg>
