<svg width="64" height="64" viewBox="0 0 64 64" fill="none" xmlns="http://www.w3.org/2000/svg">
<path d="M0 24C0 10.7452 10.7452 0 24 0H40C53.2548 0 64 10.7452 64 24V40C64 53.2548 53.2548 64 40 64H24C10.7452 64 0 53.2548 0 40V24Z" fill="#F3F5F6"/>
<g clip-path="url(#clip0_3467_9655)">
<path fill-rule="evenodd" clip-rule="evenodd" d="M48.5713 27.5044C46.5887 25.6284 43.7888 24.0657 40.1559 23.0735H40.1349C31.4902 20.7216 28.4103 26.2847 35.4101 29.7915C43.3565 33.7674 44.4607 40.2789 39.9757 44.351C38.833 45.387 35.1196 47.3259 31.7037 47.7914C26.2789 48.5438 20.2591 47.3906 15.3663 45.8367C18.0275 47.9038 21.0687 49.4282 24.3172 50.3235C31.9452 52.4234 41.1586 50.8765 47.2641 45.5689C53.4134 40.2159 54.0014 32.6282 48.5713 27.5044Z" fill="#008DD0"/>
<path fill-rule="evenodd" clip-rule="evenodd" d="M23.5385 14.9538C27.7487 13.2378 32.3354 12.6561 36.8406 13.2669C41.3459 13.8776 45.6122 15.6594 49.2135 18.4345C40.0789 15.5296 32.9916 15.7816 28.3421 17.6522L28.2738 17.6802C22.5323 20.0286 20.5426 24.8357 23.0415 29.1826C24.3872 31.5257 26.7601 33.2774 29.1663 34.4796C35.529 37.6662 33.5726 42.5468 26.6831 41.6543C25.9185 41.5524 25.1619 41.3974 24.4187 41.1906C10.89 37.4965 8.9108 26.0082 17.314 18.7022C19.169 17.1195 21.272 15.8531 23.5385 14.9538Z" fill="#008DD0"/>
</g>
<defs>
<clipPath id="clip0_3467_9655">
<rect width="40" height="38.1923" fill="white" transform="translate(12.29 13.0288)"/>
</clipPath>
</defs>
</svg>
