<svg width="64" height="64" viewBox="0 0 64 64" fill="none" xmlns="http://www.w3.org/2000/svg">
<path d="M0 24C0 10.7452 10.7452 0 24 0H40C53.2548 0 64 10.7452 64 24V40C64 53.2548 53.2548 64 40 64H24C10.7452 64 0 53.2548 0 40V24Z" fill="#E81899"/>
<path d="M51.1594 42.3441L44.3052 33.2174C43.5606 32.2255 42.458 31.6314 41.2838 31.5005C41.0165 31.4701 40.7779 31.318 40.6442 31.0888C40.5081 30.8596 40.4938 30.5813 40.6013 30.338C41.0714 29.2762 41.1 28.0434 40.594 26.916L35.9569 16.5356C35.2696 14.9943 33.7159 14.0002 32 14.0002C30.284 14.0002 28.7303 14.9966 28.043 16.5356L23.4059 26.916C22.9023 28.0434 22.9285 29.2762 23.3986 30.338C23.5061 30.5813 23.4894 30.8596 23.3557 31.0888C23.2197 31.318 22.9834 31.4701 22.7161 31.5005C21.5419 31.6314 20.4393 32.2255 19.6947 33.2174L12.8405 42.3441C11.8238 43.6983 11.7211 45.5133 12.5778 46.9705C13.4371 48.4254 15.0934 49.2463 16.7974 49.0616L28.2888 47.8079C29.5369 47.6722 30.6134 47.0337 31.315 46.1028C31.475 45.8899 31.7302 45.7635 32 45.7635C32.2697 45.7635 32.5226 45.8899 32.685 46.1028C33.3865 47.0337 34.4628 47.6722 35.7111 47.8079L47.2025 49.0616C48.9065 49.2487 50.5629 48.4278 51.4221 46.9705C52.2788 45.5133 52.1761 43.6983 51.1594 42.3441ZM26.4034 28.2189L31.0477 17.8268C31.2148 17.4548 31.5894 17.2139 32.0023 17.2139C32.4152 17.2139 32.79 17.4548 32.9569 17.8268L37.6013 28.2189C37.7468 28.5463 37.7159 28.9252 37.5153 29.2246C37.3148 29.5241 36.976 29.7042 36.6085 29.7042H27.3939C27.0286 29.7042 26.6875 29.5241 26.4869 29.2246C26.2864 28.9252 26.2555 28.5463 26.401 28.2189H26.4034ZM28.7876 44.0397C28.623 44.3603 28.3031 44.5754 27.9403 44.6151L16.4371 45.8688C16.0265 45.9133 15.6256 45.7168 15.418 45.366C15.2103 45.0151 15.2365 44.5778 15.4823 44.2503L22.3438 35.1142C22.561 34.8266 22.9094 34.6628 23.2746 34.6838C23.6397 34.7026 23.969 34.9013 24.1528 35.2125L24.16 35.2242L28.7542 43.0224L28.7614 43.0341C28.9451 43.3451 28.9547 43.7241 28.79 44.0421L28.7876 44.0397ZM32.9451 40.5126C32.7493 40.8424 32.3914 41.0483 32 41.0483C31.611 41.0483 31.2506 40.8447 31.0548 40.515L27.5251 34.5247C27.3294 34.195 27.3294 33.7856 27.5251 33.4559C27.7207 33.126 28.0788 32.9202 28.4702 32.9202H35.5273C35.9164 32.9202 36.2767 33.1214 36.4725 33.4535C36.6681 33.7856 36.6681 34.1926 36.4725 34.5225L32.9451 40.5126ZM48.5843 45.366C48.3767 45.7168 47.9781 45.9156 47.5652 45.8712L36.0619 44.6175C35.6992 44.5778 35.3794 44.3625 35.2147 44.0421C35.05 43.7217 35.0596 43.3428 35.2434 43.0341L35.2505 43.0224L39.8447 35.2242L39.8518 35.2125C40.0356 34.9013 40.365 34.7026 40.7301 34.6838C41.0952 34.6651 41.4436 34.8266 41.6609 35.1142L48.5223 44.2503C48.7681 44.5778 48.7919 45.0151 48.5867 45.366H48.5843Z" fill="#FAFAFA"/>
</svg>
