<svg width="64" height="64" viewBox="0 0 64 64" fill="none" xmlns="http://www.w3.org/2000/svg">
<path d="M0 24C0 10.7452 10.7452 0 24 0H40C53.2548 0 64 10.7452 64 24V40C64 53.2548 53.2548 64 40 64H24C10.7452 64 0 53.2548 0 40V24Z" fill="#F3F5F6"/>
<g clip-path="url(#clip0_3467_9742)">
<path d="M16.0933 24.5862V39.6564C16.0933 42.1513 17.4185 44.4525 19.5605 45.6923L29.438 51.4259C31.0252 52.3479 32.9746 52.3479 34.5618 51.4259L44.4395 45.6923C46.5814 44.4448 47.9066 42.1436 47.9066 39.6564V24.5862C47.9066 22.0913 46.5814 19.7901 44.4395 18.5504L34.5618 12.809C32.9746 11.8869 31.0252 11.8869 29.438 12.809L19.5605 18.5426C17.4185 19.7901 16.0933 22.0913 16.0933 24.5862Z" fill="#DC2626"/>
<path d="M44.061 31.7221L40.432 30.4824C39.099 30.0252 38.1052 28.894 37.8278 27.5071L36.2945 19.8984C36.256 19.7047 36.0865 19.5652 35.8862 19.5652C35.6859 19.5652 35.5163 19.7047 35.4778 19.8984L33.9446 27.5071C33.6672 28.894 32.6732 30.0252 31.3402 30.4824L27.7113 31.7221C27.5418 31.7763 27.434 31.9391 27.434 32.1172C27.434 32.2955 27.5495 32.4504 27.7113 32.5124L31.3402 33.7521C32.6732 34.2093 33.6672 35.3405 33.9446 36.7274L35.4778 44.3362C35.5163 44.5298 35.6859 44.6693 35.8862 44.6693C36.0865 44.6693 36.256 44.5298 36.2945 44.3362L37.8278 36.7274C38.1052 35.3405 39.099 34.2093 40.432 33.7521L44.061 32.5124C44.2305 32.4581 44.3384 32.2955 44.3384 32.1172C44.3384 31.9391 44.2228 31.7841 44.061 31.7221Z" fill="#FFFDF7"/>
<path d="M24.5371 24.7414L25.8161 25.1752C26.286 25.338 26.6405 25.7331 26.7329 26.229L27.2722 28.9176C27.2877 28.9874 27.3493 29.0338 27.4187 29.0338C27.488 29.0338 27.5496 28.9874 27.565 28.9176L28.1044 26.229C28.2046 25.7408 28.5512 25.338 29.0289 25.1752L30.308 24.7414C30.3697 24.7181 30.4082 24.6638 30.4082 24.6019C30.4082 24.5399 30.3697 24.4857 30.308 24.4624L29.0289 24.0285C28.559 23.8658 28.2046 23.4706 28.1044 22.9747L27.565 20.2862C27.5496 20.2164 27.488 20.1699 27.4187 20.1699C27.3493 20.1699 27.2877 20.2164 27.2722 20.2862L26.7329 22.9747C26.6328 23.4629 26.286 23.8658 25.8161 24.0285L24.5371 24.4624C24.4754 24.4857 24.4369 24.5399 24.4369 24.6019C24.4369 24.6638 24.4754 24.7181 24.5371 24.7414Z" fill="#FFFDF7"/>
<path d="M27.5269 37.9442L25.8088 37.3632C25.177 37.1462 24.707 36.6116 24.576 35.9529L23.8517 32.3501C23.8363 32.2571 23.7516 32.1951 23.6591 32.1951C23.5666 32.1951 23.4819 32.2571 23.4665 32.3501L22.7422 35.9529C22.6112 36.6116 22.1412 37.1462 21.5095 37.3632L19.7913 37.9442C19.7142 37.9675 19.6603 38.045 19.6603 38.1302C19.6603 38.2155 19.7142 38.2929 19.7913 38.3162L21.5095 38.8973C22.1412 39.1142 22.6112 39.6488 22.7422 40.3075L23.4665 43.9103C23.4819 44.0033 23.5666 44.0653 23.6591 44.0653C23.7516 44.0653 23.8286 43.9955 23.8517 43.9103L24.576 40.3075C24.707 39.6488 25.177 39.1142 25.8088 38.8973L27.5269 38.3162C27.604 38.2929 27.6579 38.2155 27.6579 38.1302C27.6579 38.045 27.604 37.9675 27.5269 37.9442Z" fill="#FFFDF7"/>
</g>
<defs>
<clipPath id="clip0_3467_9742">
<rect width="31.8134" height="40" fill="white" transform="translate(16.0933 12.1174)"/>
</clipPath>
</defs>
</svg>
