<svg width="64" height="64" viewBox="0 0 64 64" fill="none" xmlns="http://www.w3.org/2000/svg">
<path d="M0 24C0 10.7452 10.7452 0 24 0H40C53.2548 0 64 10.7452 64 24V40C64 53.2548 53.2548 64 40 64H24C10.7452 64 0 53.2548 0 40V24Z" fill="#F3F5F6"/>
<path d="M51.6037 12.0002V29.3068C45.2749 30.9368 38.6395 31.8021 31.8019 31.8021C24.9643 31.8021 18.3288 30.9348 12 29.3068V12.0002C18.3288 13.6282 24.9643 14.4955 31.8019 14.4955C38.6395 14.4955 45.2749 13.6302 51.6037 12.0002Z" fill="#1E1E1E"/>
<path d="M12.0001 52.0003V34.6938C18.3289 33.0638 24.9643 32.1985 31.8019 32.1985C38.6395 32.1985 45.275 33.0658 51.6038 34.6938V52.0003C45.275 50.3723 38.6395 49.5051 31.8019 49.5051C24.9643 49.5051 18.3289 50.3703 12.0001 52.0003Z" fill="#1E1E1E"/>
</svg>
