<svg width="64" height="64" viewBox="0 0 64 64" fill="none" xmlns="http://www.w3.org/2000/svg">
<path d="M0 24C0 10.7452 10.7452 0 24 0H40C53.2548 0 64 10.7452 64 24V40C64 53.2548 53.2548 64 40 64H24C10.7452 64 0 53.2548 0 40V24Z" fill="#F3F5F6"/>
<mask id="mask0_3467_9856" style="mask-type:luminance" maskUnits="userSpaceOnUse" x="12" y="12" width="40" height="40">
<path d="M52 12H12V52H52V12Z" fill="white"/>
</mask>
<g mask="url(#mask0_3467_9856)">
<path d="M32 12C20.956 12 12 20.956 12 32C12 33.196 12.112 34.364 12.312 35.5H16.752C17.32 35.5 17.66 35.316 17.88 34.96L19.44 32.376L21.436 38.572C21.632 39.196 22.096 39.52 22.72 39.524C23.36 39.528 23.888 39.136 24.012 38.496L25.46 31.672L27.036 42.552C27.132 43.268 27.48 43.628 28.2 43.628H28.208C28.924 43.628 29.268 43.24 29.368 42.528L32.58 21.352C32.672 20.696 32.212 20.088 31.556 19.996C30.904 19.908 30.292 20.364 30.2 21.02L28.22 34.596L26.888 25.536C26.8 24.84 26.272 24.408 25.696 24.396C25.044 24.38 24.56 24.788 24.424 25.48L22.512 34.344L20.984 29.588C20.864 29.072 20.404 28.688 19.9 28.628C19.204 28.544 18.808 28.904 18.516 29.38L16.152 33.1H14.74C14.716 32.736 14.7 32.368 14.7 32C14.7 22.444 22.444 14.7 32 14.7C39.704 14.7 46.232 19.74 48.468 26.7H51.284C48.96 18.228 41.212 12 32 12Z" fill="url(#paint0_linear_3467_9856)"/>
<path d="M51.688 28.5001H47.24C46.672 28.5001 46.332 28.6841 46.112 29.0401L44.552 31.6241L42.556 25.4281C42.36 24.8041 41.896 24.4801 41.272 24.4761C40.632 24.4721 40.104 24.8641 39.98 25.5041L38.532 32.3281L36.956 21.4481C36.86 20.7321 36.512 20.3721 35.792 20.3721H35.784C35.068 20.3721 34.724 20.7601 34.624 21.4721L31.412 42.6481C31.32 43.3041 31.78 43.9121 32.436 44.0041C33.088 44.0921 33.7 43.6361 33.792 42.9801L35.772 29.4041L37.104 38.4641C37.192 39.1601 37.72 39.5921 38.296 39.6041C38.948 39.6201 39.432 39.2121 39.568 38.5201L41.48 29.6561L43.008 34.4121C43.128 34.9281 43.588 35.3121 44.092 35.3721C44.788 35.4561 45.184 35.0961 45.476 34.6201L47.84 30.9001H49.26C49.284 31.2641 49.3 31.6321 49.3 32.0001C49.3 41.5561 41.556 49.3001 32 49.3001C24.296 49.3001 17.768 44.2601 15.532 37.3001H12.716C15.04 45.7721 22.792 52.0001 32 52.0001C43.044 52.0001 52 43.0441 52 32.0001C52 30.8041 51.888 29.6361 51.688 28.5001Z" fill="url(#paint1_linear_3467_9856)"/>
</g>
<defs>
<linearGradient id="paint0_linear_3467_9856" x1="12" y1="12" x2="52" y2="52" gradientUnits="userSpaceOnUse">
<stop stop-color="#FC829F"/>
<stop offset="0.336804" stop-color="#FF1C53"/>
<stop offset="0.435763" stop-color="#EA49F8"/>
<stop offset="0.529514" stop-color="#B250FF"/>
<stop offset="0.633681" stop-color="#5E5FF5"/>
<stop offset="1" stop-color="#323CFF"/>
</linearGradient>
<linearGradient id="paint1_linear_3467_9856" x1="12" y1="12.0001" x2="52" y2="52.0001" gradientUnits="userSpaceOnUse">
<stop stop-color="#FC829F"/>
<stop offset="0.336804" stop-color="#FF1C53"/>
<stop offset="0.435763" stop-color="#EA49F8"/>
<stop offset="0.529514" stop-color="#B250FF"/>
<stop offset="0.633681" stop-color="#5E5FF5"/>
<stop offset="1" stop-color="#323CFF"/>
</linearGradient>
</defs>
</svg>
