<svg width="80" height="81" viewBox="0 0 80 81" fill="none" xmlns="http://www.w3.org/2000/svg">
<g clip-path="url(#clip0_2881_14057)">
<path d="M61.7124 26.8845H54.6633C53.8487 26.8845 53.0673 26.5353 52.5187 25.9202L49.6592 22.6949C49.2269 22.2128 48.6284 21.9302 47.98 21.9302C47.3317 21.9302 46.7332 22.2128 46.3009 22.6949L43.8404 25.4713C43.0424 26.3691 41.8786 26.9011 40.6816 26.9011H2.09476C0.997506 30.01 0.282627 33.3184 0 36.7598H36.4256C37.074 36.7598 37.6725 36.4938 38.1214 36.0283L41.5129 32.4871C41.9285 32.0382 42.527 31.7889 43.1255 31.7889H43.2585C43.9069 31.7889 44.5054 32.0715 44.9377 32.5536L47.7972 35.7789C48.3458 36.394 49.1272 36.7431 49.9418 36.7431H79.6675C79.3849 33.3184 78.67 29.9934 77.5727 26.8678L61.7124 26.8845Z" fill="black"/>
<path d="M22.0448 57.5079C22.6932 57.5079 23.2917 57.2419 23.7406 56.7764L27.1321 53.2353C27.5644 52.7864 28.1463 52.537 28.7614 52.537H28.8944C29.5428 52.537 30.1579 52.8197 30.5735 53.2852L33.433 56.5104C33.9817 57.1256 34.763 57.4747 35.5777 57.4747H75.8769C77.3898 54.3492 78.4871 51.0075 79.1521 47.4996H40.4655C39.6508 47.4996 38.8694 47.1505 38.3208 46.5354L35.4613 43.3433C35.029 42.8612 34.4305 42.5952 33.7822 42.5952C33.1338 42.5952 32.5187 42.8778 32.103 43.3433L29.6425 46.1197C28.8445 47.0341 27.6808 47.5495 26.4671 47.5495H0.548584C1.21359 51.0574 2.31085 54.399 3.82373 57.5246L22.0448 57.5079Z" fill="black"/>
<path d="M50.6235 16.0949C51.2719 16.0949 51.8704 15.8289 52.3193 15.3634L55.7108 11.8222C56.1264 11.3734 56.7249 11.124 57.3401 11.124H57.4731C58.1215 11.124 58.72 11.4066 59.1522 11.8887L62.0117 15.1306C62.5604 15.7458 63.3417 16.0949 64.1564 16.0949H71.8205C64.5221 6.38583 52.9178 0.118164 39.8505 0.118164C26.7831 0.118164 15.1622 6.38583 7.86377 16.0949H50.6235Z" fill="black"/>
<path d="M35.2453 67.3998H24.7715C23.9569 67.3998 23.1755 67.0507 22.6269 66.4356L19.7674 63.2103C19.3351 62.7282 18.7366 62.4622 18.0882 62.4622C17.4399 62.4622 16.8247 62.7448 16.4091 63.2103L13.9486 65.9867C13.1506 66.9011 11.9868 67.4164 10.7732 67.4164H10.6069C17.9054 75.2302 28.296 80.1346 39.8505 80.1346C51.4049 80.1346 61.779 75.2302 69.0941 67.4164L35.2453 67.3998Z" fill="black"/>
</g>
<defs>
<clipPath id="clip0_2881_14057">
<rect width="79.6841" height="80" fill="white" transform="translate(0 0.118164)"/>
</clipPath>
</defs>
</svg>
