<svg width="80" height="81" viewBox="0 0 80 81" fill="none" xmlns="http://www.w3.org/2000/svg">
<g clip-path="url(#clip0_2881_14046)">
<path d="M40 80.1182C62.0914 80.1182 80 62.2096 80 40.1182C80 18.0268 62.0914 0.118164 40 0.118164C17.9086 0.118164 0 18.0268 0 40.1182C0 62.2096 17.9086 80.1182 40 80.1182Z" fill="#2E3148"/>
<path d="M40 63.328C52.8184 63.328 63.2099 52.9366 63.2099 40.1181C63.2099 27.2996 52.8184 16.9082 40 16.9082C27.1815 16.9082 16.79 27.2996 16.79 40.1181C16.79 52.9366 27.1815 63.328 40 63.328Z" fill="#1B1E36"/>
<path d="M40.0823 5.22119C35.7645 5.22119 32.2634 20.882 32.2634 40.2007C32.2634 59.5194 35.7645 75.1802 40.0823 75.1802C44.4001 75.1802 47.9012 59.5194 47.9012 40.2007C47.9012 20.882 44.4001 5.22119 40.0823 5.22119ZM40.6221 73.2061C40.1284 73.8647 39.6346 73.3706 39.6346 73.3706C37.6461 71.0666 36.6519 66.7863 36.6519 66.7863C33.1738 55.593 34.0017 31.5601 34.0017 31.5601C35.6362 12.4804 38.6097 7.97319 39.6215 6.97255C39.7248 6.87042 39.8609 6.80802 40.0057 6.79631C40.1505 6.7846 40.2948 6.82435 40.4132 6.90855C41.8813 7.94887 43.1127 12.2996 43.1127 12.2996C46.7489 25.7975 46.4196 38.4724 46.4196 38.4724C46.7489 49.5012 44.5975 61.8468 44.5975 61.8468C42.9415 71.2292 40.6221 73.2061 40.6221 73.2061Z" fill="#6F7390"/>
<path d="M70.4231 22.7927C68.2733 19.0462 52.9482 23.8033 36.1831 33.4167C19.418 43.0302 7.59205 53.8612 9.74021 57.6062C11.8884 61.3511 27.2151 56.5956 43.9802 46.9822C60.7453 37.3687 72.5713 26.5377 70.4231 22.7927ZM11.7236 57.0923C10.9005 56.9886 11.0865 56.3121 11.0865 56.3121C12.0961 53.4414 15.3089 50.4487 15.3089 50.4487C23.2906 41.8612 44.5501 30.6199 44.5501 30.6199C61.9114 22.5425 67.3041 22.8833 68.6721 23.2599C68.8125 23.2991 68.9345 23.3868 69.0165 23.5073C69.0985 23.6278 69.1352 23.7735 69.1201 23.9185C68.9556 25.7105 65.7866 28.9425 65.7866 28.9425C55.8948 38.8174 44.7361 44.8404 44.7361 44.8404C35.3335 50.6164 23.5543 54.8913 23.5543 54.8913C14.5914 58.1211 11.7239 57.0923 11.7239 57.0923H11.7236Z" fill="#6F7390"/>
<path d="M70.3471 57.7312C72.5135 53.9945 60.7173 43.1139 44.0111 33.4281C27.3048 23.7424 11.9816 18.9264 9.81714 22.6694C7.65266 26.4125 19.4469 37.2867 36.1627 46.9725C52.8786 56.6582 68.1826 61.4745 70.3471 57.7312ZM11.2527 24.1133C10.9327 23.3545 11.6082 23.1718 11.6082 23.1718C14.5989 22.607 18.7999 23.8941 18.7999 23.8941C30.2287 26.4966 50.6079 39.2621 50.6079 39.2621C66.2984 50.2416 68.7048 55.0777 69.0655 56.4505C69.1021 56.5913 69.0879 56.7406 69.0252 56.8719C68.9626 57.0032 68.8556 57.1082 68.7231 57.1683C67.0869 57.9174 62.7048 56.8013 62.7048 56.8013C49.1986 53.1798 38.397 46.5446 38.397 46.5446C28.6917 41.3101 19.0949 33.2557 19.0949 33.2557C11.8027 27.1158 11.2549 24.1216 11.2549 24.1216L11.2527 24.1133Z" fill="#6F7390"/>
<path d="M40 44.2333C42.2727 44.2333 44.1152 42.3909 44.1152 40.1181C44.1152 37.8454 42.2727 36.0029 40 36.0029C37.7272 36.0029 35.8848 37.8454 35.8848 40.1181C35.8848 42.3909 37.7272 44.2333 40 44.2333Z" fill="#B7B9C8"/>
<path d="M56.8722 26.7847C58.1905 26.7847 59.2591 25.6792 59.2591 24.3156C59.2591 22.9519 58.1905 21.8464 56.8722 21.8464C55.554 21.8464 54.4854 22.9519 54.4854 24.3156C54.4854 25.6792 55.554 26.7847 56.8722 26.7847Z" fill="#B7B9C8"/>
<path d="M17.6955 35.1799C19.0137 35.1799 20.0824 34.0745 20.0824 32.7108C20.0824 31.3472 19.0137 30.2417 17.6955 30.2417C16.3772 30.2417 15.3086 31.3472 15.3086 32.7108C15.3086 34.0745 16.3772 35.1799 17.6955 35.1799Z" fill="#B7B9C8"/>
<path d="M35.144 65.468C36.4622 65.468 37.5308 64.3626 37.5308 62.9989C37.5308 61.6352 36.4622 60.5298 35.144 60.5298C33.8257 60.5298 32.7571 61.6352 32.7571 62.9989C32.7571 64.3626 33.8257 65.468 35.144 65.468Z" fill="#B7B9C8"/>
</g>
<defs>
<clipPath id="clip0_2881_14046">
<rect width="80" height="80" fill="white" transform="translate(0 0.118164)"/>
</clipPath>
</defs>
</svg>
