<svg width="80" height="63" viewBox="0 0 80 63" fill="none" xmlns="http://www.w3.org/2000/svg">
<g clip-path="url(#clip0_2881_14033)">
<path d="M12.9949 47.9734C13.4776 47.4906 14.1415 47.209 14.8455 47.209H78.6926C79.8593 47.209 80.4427 48.6171 79.618 49.4418L67.0054 62.0543C66.5227 62.5371 65.8588 62.8187 65.1548 62.8187H1.30767C0.140958 62.8187 -0.442396 61.4106 0.382346 60.5859L12.9949 47.9734Z" fill="url(#paint0_linear_2881_14033)"/>
<path d="M12.9949 0.882559C13.4978 0.399783 14.1616 0.118164 14.8455 0.118164H78.6926C79.8593 0.118164 80.4427 1.52626 79.618 2.351L67.0054 14.9635C66.5227 15.4463 65.8588 15.7279 65.1548 15.7279H1.30767C0.140958 15.7279 -0.442396 14.3198 0.382346 13.4951L12.9949 0.882559Z" fill="url(#paint1_linear_2881_14033)"/>
<path d="M67.0054 24.2771C66.5227 23.7943 65.8588 23.5127 65.1548 23.5127H1.30767C0.140958 23.5127 -0.442396 24.9208 0.382346 25.7455L12.9949 38.3581C13.4776 38.8408 14.1415 39.1225 14.8455 39.1225H78.6926C79.8593 39.1225 80.4427 37.7144 79.618 36.8896L67.0054 24.2771Z" fill="url(#paint2_linear_2881_14033)"/>
</g>
<defs>
<linearGradient id="paint0_linear_2881_14033" x1="72.5934" y1="-7.41617" x2="28.4061" y2="77.2203" gradientUnits="userSpaceOnUse">
<stop stop-color="#00FFA3"/>
<stop offset="1" stop-color="#DC1FFF"/>
</linearGradient>
<linearGradient id="paint1_linear_2881_14033" x1="53.2723" y1="-17.5034" x2="9.08498" y2="67.133" gradientUnits="userSpaceOnUse">
<stop stop-color="#00FFA3"/>
<stop offset="1" stop-color="#DC1FFF"/>
</linearGradient>
<linearGradient id="paint2_linear_2881_14033" x1="62.8713" y1="-12.4919" x2="18.684" y2="72.1445" gradientUnits="userSpaceOnUse">
<stop stop-color="#00FFA3"/>
<stop offset="1" stop-color="#DC1FFF"/>
</linearGradient>
<clipPath id="clip0_2881_14033">
<rect width="80" height="62.7005" fill="white" transform="translate(0 0.118164)"/>
</clipPath>
</defs>
</svg>
