<svg width="80" height="81" viewBox="0 0 80 81" fill="none" xmlns="http://www.w3.org/2000/svg">
<g clip-path="url(#clip0_2881_14038)">
<path fill-rule="evenodd" clip-rule="evenodd" d="M80 40.1182C80 62.2058 62.0877 80.1182 40 80.1182C17.9123 80.1182 0 62.2058 0 40.1182C0 18.0305 17.9123 0.118164 40 0.118164C62.0877 0.118164 80 18.0305 80 40.1182Z" fill="#29296E"/>
<path fill-rule="evenodd" clip-rule="evenodd" d="M58.741 29.441L57.7211 26.3175C57.5299 25.68 57.0199 25.2019 56.3825 24.9788L53.259 24.0226C52.8128 23.8951 52.8128 23.2896 53.259 23.1302L56.3825 22.1103C57.0199 21.9191 57.498 21.4091 57.7211 20.7716L58.6773 17.6481C58.8048 17.2019 59.4104 17.2019 59.5697 17.6481L60.5897 20.7716C60.7809 21.4091 61.2908 21.8872 61.9283 22.1103L65.0518 23.0665C65.498 23.194 65.498 23.7995 65.0518 23.9589L61.9283 24.9788C61.2908 25.1701 60.8128 25.68 60.5897 26.3175L59.6335 29.441C59.4741 29.8553 58.8685 29.8553 58.741 29.441Z" fill="#FAFAFA"/>
<path fill-rule="evenodd" clip-rule="evenodd" d="M3.5061 39.4807C4.46228 37.6002 6.34276 36.166 8.31885 35.2735C10.2949 34.3811 12.4623 33.8393 14.5977 33.6799C18.9005 33.2974 23.1077 33.9986 26.9324 35.2735C28.9085 35.8791 30.6615 36.6759 32.4782 37.5046C33.3706 37.919 34.1993 38.4289 35.0599 38.907L37.4185 40.2775C40.032 41.8712 42.5499 43.3054 44.9085 44.421C47.2989 45.5046 49.4344 46.2696 51.4424 46.652C53.4503 47.0345 55.522 47.0345 58.04 46.4608C60.5579 45.8871 63.3627 44.6441 66.3268 43.0823C69.291 41.4887 72.3507 39.5445 75.8248 37.664C75.4742 41.6162 74.3587 45.3453 72.6376 48.9468C70.8527 52.4847 68.3667 55.9588 64.7651 58.7636C61.2272 61.6002 56.3507 63.5445 51.4105 63.8632C46.4384 64.2138 41.7531 63.0982 37.7372 61.4409C33.7212 59.7516 30.2153 57.5524 27.1555 55.1301C26.2949 54.4608 25.8487 54.0783 25.2113 53.5365L23.4583 51.9747C22.279 51.0504 21.1316 49.9349 19.9523 49.0106C17.6256 46.9708 15.2989 44.9947 12.7491 43.3054C11.4742 42.4449 10.1675 41.6162 8.66945 40.915C7.93638 40.5644 7.13957 40.2457 6.27901 39.9907C5.41845 39.7038 4.5579 39.5445 3.5061 39.4807Z" fill="#FF4F0A"/>
<path fill-rule="evenodd" clip-rule="evenodd" d="M3.5061 39.5445C3.98419 35.4967 5.86467 31.7039 8.89256 28.4847C11.8886 25.2975 16.6057 22.8114 21.8009 22.4927C24.3826 22.3333 26.9961 22.6202 29.3866 23.2577C31.777 23.927 34.0081 24.8832 36.0479 26.0306C37.0679 26.6043 37.9922 27.2417 38.9483 27.8473L41.4663 29.7596L45.3866 32.8513C47.9364 34.8592 50.3587 36.7397 52.5898 38.3015C54.8527 39.8632 56.7651 40.9788 58.6137 41.6481C60.4304 42.3812 62.7252 42.5405 65.785 41.7756C67.283 41.425 68.8766 40.7875 70.5659 40.0863C72.2232 39.3851 73.9762 38.5246 75.8886 37.6959C75.6655 39.7357 75.2511 41.7437 74.4543 43.6561C73.6894 45.5684 72.7013 47.4489 71.3308 49.2019C70.6296 50.0624 69.8647 50.923 68.9722 51.6879C68.0798 52.4529 67.0918 53.1859 66.0081 53.8234C63.8408 55.0664 61.2591 55.9907 58.6137 56.3413C55.9683 56.66 53.3228 56.5007 50.9005 55.9907C48.4782 55.4808 46.279 54.6839 44.2392 53.7596C40.1914 51.8792 36.8129 49.5206 33.8169 47.0027C32.3188 45.7596 30.9165 44.4529 29.5778 43.1142L28.0161 41.5206C27.538 41.0744 27.0599 40.5963 26.5818 40.182C24.6694 38.4927 22.8846 37.1859 20.9404 36.3891C18.9961 35.5286 16.5101 35.2098 13.4503 35.7835C10.3906 36.3891 7.07582 37.6959 3.5061 39.5445Z" fill="#FAFAFA"/>
<path fill-rule="evenodd" clip-rule="evenodd" d="M19.761 60.3573C19.761 61.6003 18.7729 62.5884 17.5299 62.5884C16.2869 62.5884 15.2988 61.6003 15.2988 60.3573C15.2988 59.1143 16.2869 58.1262 17.5299 58.1262C18.7729 58.1262 19.761 59.1143 19.761 60.3573Z" fill="#FAFAFA"/>
<path fill-rule="evenodd" clip-rule="evenodd" d="M19.761 60.3573C19.761 61.6003 18.7729 62.5884 17.5299 62.5884C16.2869 62.5884 15.2988 61.6003 15.2988 60.3573C15.2988 59.1143 16.2869 58.1262 17.5299 58.1262C18.7729 58.1262 19.761 59.1143 19.761 60.3573Z" fill="#FAFAFA"/>
</g>
<defs>
<clipPath id="clip0_2881_14038">
<rect width="80" height="80" fill="white" transform="translate(0 0.118164)"/>
</clipPath>
</defs>
</svg>
